<?xml version="1.0" encoding="UTF-8" standalone="no"?>
<!DOCTYPE svg PUBLIC "-//W3C//DTD SVG 1.1//EN"
 "http://www.w3.org/Graphics/SVG/1.1/DTD/svg11.dtd">
<!-- Generated by graphviz version 2.43.0 (0)
 -->
<!-- Title: Graphical Class Hierarchy Pages: 1 -->
<svg width="325pt" height="88pt"
 viewBox="0.00 0.00 325.00 88.00" xmlns="http://www.w3.org/2000/svg" xmlns:xlink="http://www.w3.org/1999/xlink">
<g id="graph0" class="graph" transform="scale(1 1) rotate(0) translate(4 84)">
<title>Graphical Class Hierarchy</title>
<!-- Node0 -->
<g id="node1" class="node">
<title>Node0</title>
<g id="a_node1"><a xlink:href="structyapre_1_1lua_1_1_state_var_3_01std_1_1function_3_01_r_07_targs_8_8_8_08_4_01_4.html" target="_top" xlink:title=" ">
<polygon fill="none" stroke="black" points="0,-24.5 0,-54.5 168,-54.5 168,-24.5 0,-24.5"/>
<text text-anchor="start" x="8" y="-42.5" font-family="Helvetica,sans-Serif" font-size="10.00">yapre::lua::StateVar</text>
<text text-anchor="middle" x="84" y="-31.5" font-family="Helvetica,sans-Serif" font-size="10.00">&lt; std::function&lt; R(Targs...)&gt; &gt;</text>
</a>
</g>
</g>
<!-- Node1 -->
<g id="node2" class="node">
<title>Node1</title>
<g id="a_node2"><a xlink:href="structyapre_1_1lua_1_1_state_var_3_01_r_07_5_08_07_targs_8_8_8_08_4.html" target="_top" xlink:title=" ">
<polygon fill="none" stroke="black" points="204,-49.5 204,-79.5 317,-79.5 317,-49.5 204,-49.5"/>
<text text-anchor="start" x="212" y="-67.5" font-family="Helvetica,sans-Serif" font-size="10.00">yapre::lua::StateVar</text>
<text text-anchor="middle" x="260.5" y="-56.5" font-family="Helvetica,sans-Serif" font-size="10.00">&lt; R(*)(Targs...)&gt;</text>
</a>
</g>
</g>
<!-- Node0&#45;&gt;Node1 -->
<g id="edge1" class="edge">
<title>Node0&#45;&gt;Node1</title>
<path fill="none" stroke="midnightblue" d="M178.1,-52.84C186.9,-54.1 195.61,-55.35 203.88,-56.53"/>
<polygon fill="midnightblue" stroke="midnightblue" points="178.56,-49.37 168.16,-51.41 177.56,-56.3 178.56,-49.37"/>
</g>
<!-- Node2 -->
<g id="node3" class="node">
<title>Node2</title>
<g id="a_node3"><a xlink:href="structyapre_1_1lua_1_1_state_var_3_01_r_07_targs_8_8_8_08_4.html" target="_top" xlink:title=" ">
<polygon fill="none" stroke="black" points="204,-0.5 204,-30.5 317,-30.5 317,-0.5 204,-0.5"/>
<text text-anchor="start" x="212" y="-18.5" font-family="Helvetica,sans-Serif" font-size="10.00">yapre::lua::StateVar</text>
<text text-anchor="middle" x="260.5" y="-7.5" font-family="Helvetica,sans-Serif" font-size="10.00">&lt; R(Targs...)&gt;</text>
</a>
</g>
</g>
<!-- Node0&#45;&gt;Node2 -->
<g id="edge2" class="edge">
<title>Node0&#45;&gt;Node2</title>
<path fill="none" stroke="midnightblue" d="M178.1,-26.69C186.9,-25.49 195.61,-24.29 203.88,-23.15"/>
<polygon fill="midnightblue" stroke="midnightblue" points="177.59,-23.23 168.16,-28.06 178.55,-30.17 177.59,-23.23"/>
</g>
</g>
</svg>
