<?xml version="1.0" encoding="UTF-8" standalone="no"?>
<!DOCTYPE svg PUBLIC "-//W3C//DTD SVG 1.1//EN"
 "http://www.w3.org/Graphics/SVG/1.1/DTD/svg11.dtd">
<!-- Generated by graphviz version 2.50.0 (20211204.2007)
 -->
<!-- Title: yapre/src/systems/yaudio.cpp Pages: 1 -->
<svg width="979pt" height="140pt"
 viewBox="0.00 0.00 978.50 140.00" xmlns="http://www.w3.org/2000/svg" xmlns:xlink="http://www.w3.org/1999/xlink">
<g id="graph0" class="graph" transform="scale(1 1) rotate(0) translate(4 136)">
<title>yapre/src/systems/yaudio.cpp</title>
<!-- Node1 -->
<g id="node1" class="node">
<title>Node1</title>
<g id="a_node1"><a xlink:title=" ">
<polygon fill="#bfbfbf" stroke="black" points="336.5,-112.5 336.5,-131.5 484.5,-131.5 484.5,-112.5 336.5,-112.5"/>
<text text-anchor="middle" x="410.5" y="-119.5" font-family="Helvetica,sans-Serif" font-size="10.00">yapre/src/systems/yaudio.cpp</text>
</a>
</g>
</g>
<!-- Node2 -->
<g id="node2" class="node">
<title>Node2</title>
<g id="a_node2"><a xlink:href="yaudio_8h.html" target="_top" xlink:title=" ">
<polygon fill="none" stroke="black" points="0,-56.5 0,-75.5 53,-75.5 53,-56.5 0,-56.5"/>
<text text-anchor="middle" x="26.5" y="-63.5" font-family="Helvetica,sans-Serif" font-size="10.00">yaudio.h</text>
</a>
</g>
</g>
<!-- Node1&#45;&gt;Node2 -->
<g id="edge1" class="edge">
<title>Node1&#45;&gt;Node2</title>
<path fill="none" stroke="midnightblue" d="M336.45,-113.95C268.01,-106.86 163.34,-94.56 63.15,-75.92"/>
<polygon fill="midnightblue" stroke="midnightblue" points="63.64,-72.45 53.16,-74.03 62.34,-79.32 63.64,-72.45"/>
</g>
<!-- Node3 -->
<g id="node3" class="node">
<title>Node3</title>
<g id="a_node3"><a xlink:title=" ">
<polygon fill="none" stroke="#bfbfbf" points="71.5,-56.5 71.5,-75.5 115.5,-75.5 115.5,-56.5 71.5,-56.5"/>
<text text-anchor="middle" x="93.5" y="-63.5" font-family="Helvetica,sans-Serif" font-size="10.00">SDL.h</text>
</a>
</g>
</g>
<!-- Node1&#45;&gt;Node3 -->
<g id="edge2" class="edge">
<title>Node1&#45;&gt;Node3</title>
<path fill="none" stroke="midnightblue" d="M340.39,-112.49C284.59,-105.14 204.38,-93.29 125.83,-76.07"/>
<polygon fill="midnightblue" stroke="midnightblue" points="126.29,-72.58 115.76,-73.83 124.77,-79.42 126.29,-72.58"/>
</g>
<!-- Node4 -->
<g id="node4" class="node">
<title>Node4</title>
<g id="a_node4"><a xlink:title=" ">
<polygon fill="none" stroke="#bfbfbf" points="134,-56.5 134,-75.5 207,-75.5 207,-56.5 134,-56.5"/>
<text text-anchor="middle" x="170.5" y="-63.5" font-family="Helvetica,sans-Serif" font-size="10.00">SDL_audio.h</text>
</a>
</g>
</g>
<!-- Node1&#45;&gt;Node4 -->
<g id="edge3" class="edge">
<title>Node1&#45;&gt;Node4</title>
<path fill="none" stroke="midnightblue" d="M372.47,-112.44C330.32,-102.96 262.33,-87.66 217.04,-77.47"/>
<polygon fill="midnightblue" stroke="midnightblue" points="217.69,-74.03 207.17,-75.25 216.16,-80.86 217.69,-74.03"/>
</g>
<!-- Node5 -->
<g id="node5" class="node">
<title>Node5</title>
<g id="a_node5"><a xlink:title=" ">
<polygon fill="none" stroke="#bfbfbf" points="225,-56.5 225,-75.5 296,-75.5 296,-56.5 225,-56.5"/>
<text text-anchor="middle" x="260.5" y="-63.5" font-family="Helvetica,sans-Serif" font-size="10.00">SDL_timer.h</text>
</a>
</g>
</g>
<!-- Node1&#45;&gt;Node5 -->
<g id="edge4" class="edge">
<title>Node1&#45;&gt;Node5</title>
<path fill="none" stroke="midnightblue" d="M386.73,-112.44C361.61,-103.4 321.79,-89.06 293.6,-78.92"/>
<polygon fill="midnightblue" stroke="midnightblue" points="294.75,-75.61 284.16,-75.52 292.38,-82.2 294.75,-75.61"/>
</g>
<!-- Node6 -->
<g id="node6" class="node">
<title>Node6</title>
<g id="a_node6"><a xlink:title=" ">
<polygon fill="none" stroke="#bfbfbf" points="314.5,-56.5 314.5,-75.5 370.5,-75.5 370.5,-56.5 314.5,-56.5"/>
<text text-anchor="middle" x="342.5" y="-63.5" font-family="Helvetica,sans-Serif" font-size="10.00">algorithm</text>
</a>
</g>
</g>
<!-- Node1&#45;&gt;Node6 -->
<g id="edge5" class="edge">
<title>Node1&#45;&gt;Node6</title>
<path fill="none" stroke="midnightblue" d="M399.57,-112.32C389.33,-104.18 373.78,-91.84 361.5,-82.09"/>
<polygon fill="midnightblue" stroke="midnightblue" points="363.63,-79.31 353.62,-75.83 359.28,-84.79 363.63,-79.31"/>
</g>
<!-- Node7 -->
<g id="node7" class="node">
<title>Node7</title>
<g id="a_node7"><a xlink:title=" ">
<polygon fill="none" stroke="#bfbfbf" points="388.5,-56.5 388.5,-75.5 432.5,-75.5 432.5,-56.5 388.5,-56.5"/>
<text text-anchor="middle" x="410.5" y="-63.5" font-family="Helvetica,sans-Serif" font-size="10.00">cmath</text>
</a>
</g>
</g>
<!-- Node1&#45;&gt;Node7 -->
<g id="edge6" class="edge">
<title>Node1&#45;&gt;Node7</title>
<path fill="none" stroke="midnightblue" d="M410.5,-112.08C410.5,-105.01 410.5,-94.86 410.5,-85.99"/>
<polygon fill="midnightblue" stroke="midnightblue" points="414,-85.75 410.5,-75.75 407,-85.75 414,-85.75"/>
</g>
<!-- Node8 -->
<g id="node8" class="node">
<title>Node8</title>
<g id="a_node8"><a xlink:title=" ">
<polygon fill="none" stroke="#bfbfbf" points="228.5,-0.5 228.5,-19.5 282.5,-19.5 282.5,-0.5 228.5,-0.5"/>
<text text-anchor="middle" x="255.5" y="-7.5" font-family="Helvetica,sans-Serif" font-size="10.00">iostream</text>
</a>
</g>
</g>
<!-- Node1&#45;&gt;Node8 -->
<g id="edge7" class="edge">
<title>Node1&#45;&gt;Node8</title>
<path fill="none" stroke="midnightblue" d="M420.3,-112.33C433.98,-99.18 455.59,-73.87 441.5,-56 400.96,-4.58 361.77,-33.42 292.59,-20"/>
<polygon fill="midnightblue" stroke="midnightblue" points="293.14,-16.53 282.62,-17.81 291.64,-23.37 293.14,-16.53"/>
</g>
<!-- Node9 -->
<g id="node9" class="node">
<title>Node9</title>
<g id="a_node9"><a xlink:title=" ">
<polygon fill="none" stroke="#bfbfbf" points="616,-56.5 616,-75.5 663,-75.5 663,-56.5 616,-56.5"/>
<text text-anchor="middle" x="639.5" y="-63.5" font-family="Helvetica,sans-Serif" font-size="10.00">iterator</text>
</a>
</g>
</g>
<!-- Node1&#45;&gt;Node9 -->
<g id="edge8" class="edge">
<title>Node1&#45;&gt;Node9</title>
<path fill="none" stroke="midnightblue" d="M450.63,-112.44C488.44,-104.25 546.87,-91.23 605.91,-76.32"/>
<polygon fill="midnightblue" stroke="midnightblue" points="606.94,-79.67 615.77,-73.82 605.22,-72.89 606.94,-79.67"/>
</g>
<!-- Node10 -->
<g id="node10" class="node">
<title>Node10</title>
<g id="a_node10"><a xlink:title=" ">
<polygon fill="none" stroke="#bfbfbf" points="681,-56.5 681,-75.5 710,-75.5 710,-56.5 681,-56.5"/>
<text text-anchor="middle" x="695.5" y="-63.5" font-family="Helvetica,sans-Serif" font-size="10.00">list</text>
</a>
</g>
</g>
<!-- Node1&#45;&gt;Node10 -->
<g id="edge9" class="edge">
<title>Node1&#45;&gt;Node10</title>
<path fill="none" stroke="midnightblue" d="M483.66,-112.48C534.21,-105.67 603,-94.56 670.59,-76.12"/>
<polygon fill="midnightblue" stroke="midnightblue" points="671.86,-79.41 680.55,-73.35 669.98,-72.66 671.86,-79.41"/>
</g>
<!-- Node11 -->
<g id="node11" class="node">
<title>Node11</title>
<g id="a_node11"><a xlink:title=" ">
<polygon fill="none" stroke="#bfbfbf" points="300.5,-0.5 300.5,-19.5 362.5,-19.5 362.5,-0.5 300.5,-0.5"/>
<text text-anchor="middle" x="331.5" y="-7.5" font-family="Helvetica,sans-Serif" font-size="10.00">type_traits</text>
</a>
</g>
</g>
<!-- Node1&#45;&gt;Node11 -->
<g id="edge10" class="edge">
<title>Node1&#45;&gt;Node11</title>
<path fill="none" stroke="midnightblue" d="M430.59,-112.31C454.97,-100.52 490.89,-78.35 474.5,-56 468.26,-47.49 412.48,-31.69 372.47,-21.26"/>
<polygon fill="midnightblue" stroke="midnightblue" points="373.24,-17.84 362.68,-18.73 371.49,-24.62 373.24,-17.84"/>
</g>
<!-- Node12 -->
<g id="node12" class="node">
<title>Node12</title>
<g id="a_node12"><a xlink:href="yluabind_8hpp.html" target="_top" xlink:title=" ">
<polygon fill="none" stroke="black" points="527,-56.5 527,-75.5 598,-75.5 598,-56.5 527,-56.5"/>
<text text-anchor="middle" x="562.5" y="-63.5" font-family="Helvetica,sans-Serif" font-size="10.00">yluabind.hpp</text>
</a>
</g>
</g>
<!-- Node1&#45;&gt;Node12 -->
<g id="edge11" class="edge">
<title>Node1&#45;&gt;Node12</title>
<path fill="none" stroke="midnightblue" d="M434.58,-112.44C460.04,-103.4 500.39,-89.06 528.96,-78.92"/>
<polygon fill="midnightblue" stroke="midnightblue" points="530.28,-82.16 538.53,-75.52 527.93,-75.57 530.28,-82.16"/>
</g>
<!-- Node12&#45;&gt;Node8 -->
<g id="edge16" class="edge">
<title>Node12&#45;&gt;Node8</title>
<path fill="none" stroke="midnightblue" d="M526.82,-60.01C476.66,-52.79 382.26,-38.46 292.38,-20.05"/>
<polygon fill="midnightblue" stroke="midnightblue" points="293.07,-16.62 282.57,-18.02 291.66,-23.47 293.07,-16.62"/>
</g>
<!-- Node12&#45;&gt;Node11 -->
<g id="edge19" class="edge">
<title>Node12&#45;&gt;Node11</title>
<path fill="none" stroke="midnightblue" d="M526.91,-56.68C485.23,-46.94 416.32,-30.83 372.45,-20.57"/>
<polygon fill="midnightblue" stroke="midnightblue" points="373.22,-17.16 362.68,-18.29 371.62,-23.97 373.22,-17.16"/>
</g>
<!-- Node13 -->
<g id="node13" class="node">
<title>Node13</title>
<g id="a_node13"><a xlink:title=" ">
<polygon fill="none" stroke="#bfbfbf" points="603,-0.5 603,-19.5 656,-19.5 656,-0.5 603,-0.5"/>
<text text-anchor="middle" x="629.5" y="-7.5" font-family="Helvetica,sans-Serif" font-size="10.00">lauxlib.h</text>
</a>
</g>
</g>
<!-- Node12&#45;&gt;Node13 -->
<g id="edge12" class="edge">
<title>Node12&#45;&gt;Node13</title>
<path fill="none" stroke="midnightblue" d="M573.26,-56.32C583.27,-48.26 598.39,-36.08 610.43,-26.37"/>
<polygon fill="midnightblue" stroke="midnightblue" points="612.95,-28.83 618.54,-19.83 608.56,-23.38 612.95,-28.83"/>
</g>
<!-- Node14 -->
<g id="node14" class="node">
<title>Node14</title>
<g id="a_node14"><a xlink:title=" ">
<polygon fill="none" stroke="#bfbfbf" points="674.5,-0.5 674.5,-19.5 712.5,-19.5 712.5,-0.5 674.5,-0.5"/>
<text text-anchor="middle" x="693.5" y="-7.5" font-family="Helvetica,sans-Serif" font-size="10.00">lua.h</text>
</a>
</g>
</g>
<!-- Node12&#45;&gt;Node14 -->
<g id="edge13" class="edge">
<title>Node12&#45;&gt;Node14</title>
<path fill="none" stroke="midnightblue" d="M583.26,-56.44C605.2,-47.4 639.97,-33.07 664.58,-22.92"/>
<polygon fill="midnightblue" stroke="midnightblue" points="666.21,-26.04 674.12,-18.99 663.54,-19.56 666.21,-26.04"/>
</g>
<!-- Node15 -->
<g id="node15" class="node">
<title>Node15</title>
<g id="a_node15"><a xlink:title=" ">
<polygon fill="none" stroke="#bfbfbf" points="731,-0.5 731,-19.5 778,-19.5 778,-0.5 731,-0.5"/>
<text text-anchor="middle" x="754.5" y="-7.5" font-family="Helvetica,sans-Serif" font-size="10.00">lualib.h</text>
</a>
</g>
</g>
<!-- Node12&#45;&gt;Node15 -->
<g id="edge14" class="edge">
<title>Node12&#45;&gt;Node15</title>
<path fill="none" stroke="midnightblue" d="M592.92,-56.44C627.76,-46.65 684.67,-30.64 720.82,-20.47"/>
<polygon fill="midnightblue" stroke="midnightblue" points="722.2,-23.72 730.88,-17.64 720.3,-16.98 722.2,-23.72"/>
</g>
<!-- Node16 -->
<g id="node16" class="node">
<title>Node16</title>
<g id="a_node16"><a xlink:title=" ">
<polygon fill="none" stroke="#bfbfbf" points="796,-0.5 796,-19.5 855,-19.5 855,-0.5 796,-0.5"/>
<text text-anchor="middle" x="825.5" y="-7.5" font-family="Helvetica,sans-Serif" font-size="10.00">functional</text>
</a>
</g>
</g>
<!-- Node12&#45;&gt;Node16 -->
<g id="edge15" class="edge">
<title>Node12&#45;&gt;Node16</title>
<path fill="none" stroke="midnightblue" d="M598.43,-57.82C653.02,-46.91 753.4,-26.84 785.81,-20.22"/>
<polygon fill="midnightblue" stroke="midnightblue" points="786.57,-23.64 795.65,-18.17 785.15,-16.78 786.57,-23.64"/>
</g>
<!-- Node17 -->
<g id="node17" class="node">
<title>Node17</title>
<g id="a_node17"><a xlink:title=" ">
<polygon fill="none" stroke="#bfbfbf" points="873,-0.5 873,-19.5 914,-19.5 914,-0.5 873,-0.5"/>
<text text-anchor="middle" x="893.5" y="-7.5" font-family="Helvetica,sans-Serif" font-size="10.00">string</text>
</a>
</g>
</g>
<!-- Node12&#45;&gt;Node17 -->
<g id="edge17" class="edge">
<title>Node12&#45;&gt;Node17</title>
<path fill="none" stroke="midnightblue" d="M598.33,-57.64C601.43,-57.06 604.52,-56.51 607.5,-56 717.99,-37.23 750.14,-44.72 862.65,-20.13"/>
<polygon fill="midnightblue" stroke="midnightblue" points="863.7,-23.48 872.7,-17.9 862.18,-16.65 863.7,-23.48"/>
</g>
<!-- Node18 -->
<g id="node18" class="node">
<title>Node18</title>
<g id="a_node18"><a xlink:title=" ">
<polygon fill="none" stroke="#bfbfbf" points="932.5,-0.5 932.5,-19.5 970.5,-19.5 970.5,-0.5 932.5,-0.5"/>
<text text-anchor="middle" x="951.5" y="-7.5" font-family="Helvetica,sans-Serif" font-size="10.00">tuple</text>
</a>
</g>
</g>
<!-- Node12&#45;&gt;Node18 -->
<g id="edge18" class="edge">
<title>Node12&#45;&gt;Node18</title>
<path fill="none" stroke="midnightblue" d="M598.31,-57.56C601.41,-57 604.51,-56.47 607.5,-56 743.88,-34.63 783.47,-49.06 922.19,-19.88"/>
<polygon fill="midnightblue" stroke="midnightblue" points="923.31,-23.22 932.36,-17.7 921.84,-16.38 923.31,-23.22"/>
</g>
<!-- Node19 -->
<g id="node19" class="node">
<title>Node19</title>
<g id="a_node19"><a xlink:title=" ">
<polygon fill="none" stroke="#bfbfbf" points="381,-0.5 381,-19.5 464,-19.5 464,-0.5 381,-0.5"/>
<text text-anchor="middle" x="422.5" y="-7.5" font-family="Helvetica,sans-Serif" font-size="10.00">unordered_map</text>
</a>
</g>
</g>
<!-- Node12&#45;&gt;Node19 -->
<g id="edge20" class="edge">
<title>Node12&#45;&gt;Node19</title>
<path fill="none" stroke="midnightblue" d="M540.32,-56.44C517.07,-47.48 480.35,-33.31 454.08,-23.18"/>
<polygon fill="midnightblue" stroke="midnightblue" points="455.17,-19.85 444.58,-19.52 452.65,-26.38 455.17,-19.85"/>
</g>
<!-- Node20 -->
<g id="node20" class="node">
<title>Node20</title>
<g id="a_node20"><a xlink:title=" ">
<polygon fill="none" stroke="#bfbfbf" points="482.5,-0.5 482.5,-19.5 522.5,-19.5 522.5,-0.5 482.5,-0.5"/>
<text text-anchor="middle" x="502.5" y="-7.5" font-family="Helvetica,sans-Serif" font-size="10.00">utility</text>
</a>
</g>
</g>
<!-- Node12&#45;&gt;Node20 -->
<g id="edge21" class="edge">
<title>Node12&#45;&gt;Node20</title>
<path fill="none" stroke="midnightblue" d="M552.86,-56.32C543.99,-48.34 530.63,-36.31 519.89,-26.65"/>
<polygon fill="midnightblue" stroke="midnightblue" points="522.09,-23.92 512.32,-19.83 517.41,-29.13 522.09,-23.92"/>
</g>
<!-- Node21 -->
<g id="node21" class="node">
<title>Node21</title>
<g id="a_node21"><a xlink:title=" ">
<polygon fill="none" stroke="#bfbfbf" points="540.5,-0.5 540.5,-19.5 584.5,-19.5 584.5,-0.5 540.5,-0.5"/>
<text text-anchor="middle" x="562.5" y="-7.5" font-family="Helvetica,sans-Serif" font-size="10.00">vector</text>
</a>
</g>
</g>
<!-- Node12&#45;&gt;Node21 -->
<g id="edge22" class="edge">
<title>Node12&#45;&gt;Node21</title>
<path fill="none" stroke="midnightblue" d="M562.5,-56.08C562.5,-49.01 562.5,-38.86 562.5,-29.99"/>
<polygon fill="midnightblue" stroke="midnightblue" points="566,-29.75 562.5,-19.75 559,-29.75 566,-29.75"/>
</g>
</g>
</svg>
