<?xml version="1.0" encoding="UTF-8" standalone="no"?>
<!DOCTYPE svg PUBLIC "-//W3C//DTD SVG 1.1//EN"
 "http://www.w3.org/Graphics/SVG/1.1/DTD/svg11.dtd">
<!-- Generated by graphviz version 2.43.0 (0)
 -->
<!-- Title: yapre/src/systems/yaudio.cpp Pages: 1 -->
<svg width="1036pt" height="140pt"
 viewBox="0.00 0.00 1036.00 140.00" xmlns="http://www.w3.org/2000/svg" xmlns:xlink="http://www.w3.org/1999/xlink">
<g id="graph0" class="graph" transform="scale(1 1) rotate(0) translate(4 136)">
<title>yapre/src/systems/yaudio.cpp</title>
<!-- Node1 -->
<g id="node1" class="node">
<title>Node1</title>
<g id="a_node1"><a xlink:title=" ">
<polygon fill="#bfbfbf" stroke="black" points="353.5,-112.5 353.5,-131.5 515.5,-131.5 515.5,-112.5 353.5,-112.5"/>
<text text-anchor="middle" x="434.5" y="-119.5" font-family="Helvetica,sans-Serif" font-size="10.00">yapre/src/systems/yaudio.cpp</text>
</a>
</g>
</g>
<!-- Node2 -->
<g id="node2" class="node">
<title>Node2</title>
<g id="a_node2"><a xlink:href="yaudio_8h.html" target="_top" xlink:title=" ">
<polygon fill="none" stroke="black" points="0,-56.5 0,-75.5 59,-75.5 59,-56.5 0,-56.5"/>
<text text-anchor="middle" x="29.5" y="-63.5" font-family="Helvetica,sans-Serif" font-size="10.00">yaudio.h</text>
</a>
</g>
</g>
<!-- Node1&#45;&gt;Node2 -->
<g id="edge1" class="edge">
<title>Node1&#45;&gt;Node2</title>
<path fill="none" stroke="midnightblue" d="M353.46,-113.49C281.38,-106.25 172.94,-93.98 69.26,-75.96"/>
<polygon fill="midnightblue" stroke="midnightblue" points="69.7,-72.49 59.24,-74.2 68.49,-79.38 69.7,-72.49"/>
</g>
<!-- Node3 -->
<g id="node3" class="node">
<title>Node3</title>
<g id="a_node3"><a xlink:title=" ">
<polygon fill="none" stroke="#bfbfbf" points="77.5,-56.5 77.5,-75.5 121.5,-75.5 121.5,-56.5 77.5,-56.5"/>
<text text-anchor="middle" x="99.5" y="-63.5" font-family="Helvetica,sans-Serif" font-size="10.00">SDL.h</text>
</a>
</g>
</g>
<!-- Node1&#45;&gt;Node3 -->
<g id="edge2" class="edge">
<title>Node1&#45;&gt;Node3</title>
<path fill="none" stroke="midnightblue" d="M357.14,-112.49C297.8,-105.28 213.74,-93.61 131.75,-76.03"/>
<polygon fill="midnightblue" stroke="midnightblue" points="132.27,-72.56 121.76,-73.85 130.79,-79.4 132.27,-72.56"/>
</g>
<!-- Node4 -->
<g id="node4" class="node">
<title>Node4</title>
<g id="a_node4"><a xlink:title=" ">
<polygon fill="none" stroke="#bfbfbf" points="140,-56.5 140,-75.5 217,-75.5 217,-56.5 140,-56.5"/>
<text text-anchor="middle" x="178.5" y="-63.5" font-family="Helvetica,sans-Serif" font-size="10.00">SDL_audio.h</text>
</a>
</g>
</g>
<!-- Node1&#45;&gt;Node4 -->
<g id="edge3" class="edge">
<title>Node1&#45;&gt;Node4</title>
<path fill="none" stroke="midnightblue" d="M393.94,-112.44C348.66,-102.89 275.42,-87.44 227.11,-77.25"/>
<polygon fill="midnightblue" stroke="midnightblue" points="227.71,-73.8 217.2,-75.16 226.26,-80.65 227.71,-73.8"/>
</g>
<!-- Node5 -->
<g id="node5" class="node">
<title>Node5</title>
<g id="a_node5"><a xlink:title=" ">
<polygon fill="none" stroke="#bfbfbf" points="235,-56.5 235,-75.5 310,-75.5 310,-56.5 235,-56.5"/>
<text text-anchor="middle" x="272.5" y="-63.5" font-family="Helvetica,sans-Serif" font-size="10.00">SDL_timer.h</text>
</a>
</g>
</g>
<!-- Node1&#45;&gt;Node5 -->
<g id="edge4" class="edge">
<title>Node1&#45;&gt;Node5</title>
<path fill="none" stroke="midnightblue" d="M408.83,-112.44C381.58,-103.36 338.32,-88.94 307.85,-78.78"/>
<polygon fill="midnightblue" stroke="midnightblue" points="308.64,-75.36 298.05,-75.52 306.43,-82 308.64,-75.36"/>
</g>
<!-- Node6 -->
<g id="node6" class="node">
<title>Node6</title>
<g id="a_node6"><a xlink:title=" ">
<polygon fill="none" stroke="#bfbfbf" points="328.5,-56.5 328.5,-75.5 392.5,-75.5 392.5,-56.5 328.5,-56.5"/>
<text text-anchor="middle" x="360.5" y="-63.5" font-family="Helvetica,sans-Serif" font-size="10.00">algorithm</text>
</a>
</g>
</g>
<!-- Node1&#45;&gt;Node6 -->
<g id="edge5" class="edge">
<title>Node1&#45;&gt;Node6</title>
<path fill="none" stroke="midnightblue" d="M422.61,-112.32C411.35,-104.11 394.21,-91.6 380.79,-81.81"/>
<polygon fill="midnightblue" stroke="midnightblue" points="382.75,-78.9 372.61,-75.83 378.62,-84.56 382.75,-78.9"/>
</g>
<!-- Node7 -->
<g id="node7" class="node">
<title>Node7</title>
<g id="a_node7"><a xlink:title=" ">
<polygon fill="none" stroke="#bfbfbf" points="411,-56.5 411,-75.5 458,-75.5 458,-56.5 411,-56.5"/>
<text text-anchor="middle" x="434.5" y="-63.5" font-family="Helvetica,sans-Serif" font-size="10.00">cmath</text>
</a>
</g>
</g>
<!-- Node1&#45;&gt;Node7 -->
<g id="edge6" class="edge">
<title>Node1&#45;&gt;Node7</title>
<path fill="none" stroke="midnightblue" d="M434.5,-112.08C434.5,-105.01 434.5,-94.86 434.5,-85.99"/>
<polygon fill="midnightblue" stroke="midnightblue" points="438,-85.75 434.5,-75.75 431,-85.75 438,-85.75"/>
</g>
<!-- Node8 -->
<g id="node8" class="node">
<title>Node8</title>
<g id="a_node8"><a xlink:title=" ">
<polygon fill="none" stroke="#bfbfbf" points="229.5,-0.5 229.5,-19.5 289.5,-19.5 289.5,-0.5 229.5,-0.5"/>
<text text-anchor="middle" x="259.5" y="-7.5" font-family="Helvetica,sans-Serif" font-size="10.00">iostream</text>
</a>
</g>
</g>
<!-- Node1&#45;&gt;Node8 -->
<g id="edge7" class="edge">
<title>Node1&#45;&gt;Node8</title>
<path fill="none" stroke="midnightblue" d="M444.81,-112.33C459.2,-99.2 481.99,-73.9 467.5,-56 421.17,1.24 377.23,-33.49 299.84,-20.03"/>
<polygon fill="midnightblue" stroke="midnightblue" points="300.21,-16.54 289.72,-18.03 298.85,-23.4 300.21,-16.54"/>
</g>
<!-- Node9 -->
<g id="node9" class="node">
<title>Node9</title>
<g id="a_node9"><a xlink:title=" ">
<polygon fill="none" stroke="#bfbfbf" points="651,-56.5 651,-75.5 704,-75.5 704,-56.5 651,-56.5"/>
<text text-anchor="middle" x="677.5" y="-63.5" font-family="Helvetica,sans-Serif" font-size="10.00">iterator</text>
</a>
</g>
</g>
<!-- Node1&#45;&gt;Node9 -->
<g id="edge8" class="edge">
<title>Node1&#45;&gt;Node9</title>
<path fill="none" stroke="midnightblue" d="M475.43,-112.49C515.21,-104.14 577.56,-90.81 641.01,-76.06"/>
<polygon fill="midnightblue" stroke="midnightblue" points="641.84,-79.46 650.79,-73.78 640.25,-72.64 641.84,-79.46"/>
</g>
<!-- Node10 -->
<g id="node10" class="node">
<title>Node10</title>
<g id="a_node10"><a xlink:title=" ">
<polygon fill="none" stroke="#bfbfbf" points="722.5,-56.5 722.5,-75.5 754.5,-75.5 754.5,-56.5 722.5,-56.5"/>
<text text-anchor="middle" x="738.5" y="-63.5" font-family="Helvetica,sans-Serif" font-size="10.00">list</text>
</a>
</g>
</g>
<!-- Node1&#45;&gt;Node10 -->
<g id="edge9" class="edge">
<title>Node1&#45;&gt;Node10</title>
<path fill="none" stroke="midnightblue" d="M511.67,-112.46C565.71,-105.59 639.6,-94.38 712.67,-75.8"/>
<polygon fill="midnightblue" stroke="midnightblue" points="713.7,-79.15 722.5,-73.26 711.94,-72.37 713.7,-79.15"/>
</g>
<!-- Node11 -->
<g id="node11" class="node">
<title>Node11</title>
<g id="a_node11"><a xlink:title=" ">
<polygon fill="none" stroke="#bfbfbf" points="308,-0.5 308,-19.5 377,-19.5 377,-0.5 308,-0.5"/>
<text text-anchor="middle" x="342.5" y="-7.5" font-family="Helvetica,sans-Serif" font-size="10.00">type_traits</text>
</a>
</g>
</g>
<!-- Node1&#45;&gt;Node11 -->
<g id="edge10" class="edge">
<title>Node1&#45;&gt;Node11</title>
<path fill="none" stroke="midnightblue" d="M455.23,-112.34C480.39,-100.59 517.46,-78.46 500.5,-56 493.5,-46.73 431.5,-31.05 387.28,-20.86"/>
<polygon fill="midnightblue" stroke="midnightblue" points="387.84,-17.4 377.31,-18.59 386.28,-24.22 387.84,-17.4"/>
</g>
<!-- Node12 -->
<g id="node12" class="node">
<title>Node12</title>
<g id="a_node12"><a xlink:href="yluabind_8hpp.html" target="_top" xlink:title=" ">
<polygon fill="none" stroke="black" points="552.5,-56.5 552.5,-75.5 632.5,-75.5 632.5,-56.5 552.5,-56.5"/>
<text text-anchor="middle" x="592.5" y="-63.5" font-family="Helvetica,sans-Serif" font-size="10.00">yluabind.hpp</text>
</a>
</g>
</g>
<!-- Node1&#45;&gt;Node12 -->
<g id="edge11" class="edge">
<title>Node1&#45;&gt;Node12</title>
<path fill="none" stroke="midnightblue" d="M459.54,-112.44C486.12,-103.36 528.31,-88.94 558.02,-78.78"/>
<polygon fill="midnightblue" stroke="midnightblue" points="559.25,-82.06 567.58,-75.52 556.99,-75.44 559.25,-82.06"/>
</g>
<!-- Node12&#45;&gt;Node8 -->
<g id="edge16" class="edge">
<title>Node12&#45;&gt;Node8</title>
<path fill="none" stroke="midnightblue" d="M552.39,-59.83C497.53,-52.55 395.81,-38.29 299.58,-20.09"/>
<polygon fill="midnightblue" stroke="midnightblue" points="300.17,-16.64 289.69,-18.2 298.85,-23.51 300.17,-16.64"/>
</g>
<!-- Node12&#45;&gt;Node11 -->
<g id="edge19" class="edge">
<title>Node12&#45;&gt;Node11</title>
<path fill="none" stroke="midnightblue" d="M552.89,-56.44C507.74,-46.69 434.11,-30.79 387.01,-20.62"/>
<polygon fill="midnightblue" stroke="midnightblue" points="387.61,-17.16 377.1,-18.47 386.13,-24.01 387.61,-17.16"/>
</g>
<!-- Node13 -->
<g id="node13" class="node">
<title>Node13</title>
<g id="a_node13"><a xlink:title=" ">
<polygon fill="none" stroke="#bfbfbf" points="634,-0.5 634,-19.5 693,-19.5 693,-0.5 634,-0.5"/>
<text text-anchor="middle" x="663.5" y="-7.5" font-family="Helvetica,sans-Serif" font-size="10.00">lauxlib.h</text>
</a>
</g>
</g>
<!-- Node12&#45;&gt;Node13 -->
<g id="edge12" class="edge">
<title>Node12&#45;&gt;Node13</title>
<path fill="none" stroke="midnightblue" d="M603.91,-56.32C614.61,-48.18 630.84,-35.84 643.66,-26.09"/>
<polygon fill="midnightblue" stroke="midnightblue" points="646.04,-28.67 651.89,-19.83 641.81,-23.1 646.04,-28.67"/>
</g>
<!-- Node14 -->
<g id="node14" class="node">
<title>Node14</title>
<g id="a_node14"><a xlink:title=" ">
<polygon fill="none" stroke="#bfbfbf" points="711,-0.5 711,-19.5 752,-19.5 752,-0.5 711,-0.5"/>
<text text-anchor="middle" x="731.5" y="-7.5" font-family="Helvetica,sans-Serif" font-size="10.00">lua.h</text>
</a>
</g>
</g>
<!-- Node12&#45;&gt;Node14 -->
<g id="edge13" class="edge">
<title>Node12&#45;&gt;Node14</title>
<path fill="none" stroke="midnightblue" d="M614.52,-56.44C638.01,-47.32 675.35,-32.81 701.51,-22.65"/>
<polygon fill="midnightblue" stroke="midnightblue" points="702.88,-25.87 710.94,-18.99 700.35,-19.35 702.88,-25.87"/>
</g>
<!-- Node15 -->
<g id="node15" class="node">
<title>Node15</title>
<g id="a_node15"><a xlink:title=" ">
<polygon fill="none" stroke="#bfbfbf" points="770,-0.5 770,-19.5 823,-19.5 823,-0.5 770,-0.5"/>
<text text-anchor="middle" x="796.5" y="-7.5" font-family="Helvetica,sans-Serif" font-size="10.00">lualib.h</text>
</a>
</g>
</g>
<!-- Node12&#45;&gt;Node15 -->
<g id="edge14" class="edge">
<title>Node12&#45;&gt;Node15</title>
<path fill="none" stroke="midnightblue" d="M624.82,-56.44C661.64,-46.7 721.66,-30.81 760.1,-20.64"/>
<polygon fill="midnightblue" stroke="midnightblue" points="761.08,-24 769.85,-18.05 759.29,-17.23 761.08,-24"/>
</g>
<!-- Node16 -->
<g id="node16" class="node">
<title>Node16</title>
<g id="a_node16"><a xlink:title=" ">
<polygon fill="none" stroke="#bfbfbf" points="841,-0.5 841,-19.5 906,-19.5 906,-0.5 841,-0.5"/>
<text text-anchor="middle" x="873.5" y="-7.5" font-family="Helvetica,sans-Serif" font-size="10.00">functional</text>
</a>
</g>
</g>
<!-- Node12&#45;&gt;Node16 -->
<g id="edge15" class="edge">
<title>Node12&#45;&gt;Node16</title>
<path fill="none" stroke="midnightblue" d="M632.55,-57.65C686.65,-47.69 781.24,-30.18 830.95,-20.26"/>
<polygon fill="midnightblue" stroke="midnightblue" points="831.73,-23.67 840.85,-18.26 830.35,-16.81 831.73,-23.67"/>
</g>
<!-- Node17 -->
<g id="node17" class="node">
<title>Node17</title>
<g id="a_node17"><a xlink:title=" ">
<polygon fill="none" stroke="#bfbfbf" points="924.5,-0.5 924.5,-19.5 968.5,-19.5 968.5,-0.5 924.5,-0.5"/>
<text text-anchor="middle" x="946.5" y="-7.5" font-family="Helvetica,sans-Serif" font-size="10.00">string</text>
</a>
</g>
</g>
<!-- Node12&#45;&gt;Node17 -->
<g id="edge17" class="edge">
<title>Node12&#45;&gt;Node17</title>
<path fill="none" stroke="midnightblue" d="M632.59,-57.61C635.94,-57.05 639.28,-56.5 642.5,-56 760.24,-37.65 793.96,-44.73 914.28,-19.98"/>
<polygon fill="midnightblue" stroke="midnightblue" points="915.18,-23.37 924.25,-17.9 913.75,-16.52 915.18,-23.37"/>
</g>
<!-- Node18 -->
<g id="node18" class="node">
<title>Node18</title>
<g id="a_node18"><a xlink:title=" ">
<polygon fill="none" stroke="#bfbfbf" points="987,-0.5 987,-19.5 1028,-19.5 1028,-0.5 987,-0.5"/>
<text text-anchor="middle" x="1007.5" y="-7.5" font-family="Helvetica,sans-Serif" font-size="10.00">tuple</text>
</a>
</g>
</g>
<!-- Node12&#45;&gt;Node18 -->
<g id="edge18" class="edge">
<title>Node12&#45;&gt;Node18</title>
<path fill="none" stroke="midnightblue" d="M632.58,-57.53C635.93,-56.98 639.27,-56.46 642.5,-56 787.54,-35.18 828.95,-49.02 977.06,-19.7"/>
<polygon fill="midnightblue" stroke="midnightblue" points="977.86,-23.11 986.97,-17.7 976.48,-16.24 977.86,-23.11"/>
</g>
<!-- Node19 -->
<g id="node19" class="node">
<title>Node19</title>
<g id="a_node19"><a xlink:title=" ">
<polygon fill="none" stroke="#bfbfbf" points="395,-0.5 395,-19.5 488,-19.5 488,-0.5 395,-0.5"/>
<text text-anchor="middle" x="441.5" y="-7.5" font-family="Helvetica,sans-Serif" font-size="10.00">unordered_map</text>
</a>
</g>
</g>
<!-- Node12&#45;&gt;Node19 -->
<g id="edge20" class="edge">
<title>Node12&#45;&gt;Node19</title>
<path fill="none" stroke="midnightblue" d="M568.57,-56.44C543.28,-47.4 503.2,-33.06 474.82,-22.92"/>
<polygon fill="midnightblue" stroke="midnightblue" points="475.91,-19.59 465.31,-19.52 473.55,-26.18 475.91,-19.59"/>
</g>
<!-- Node20 -->
<g id="node20" class="node">
<title>Node20</title>
<g id="a_node20"><a xlink:title=" ">
<polygon fill="none" stroke="#bfbfbf" points="506,-0.5 506,-19.5 551,-19.5 551,-0.5 506,-0.5"/>
<text text-anchor="middle" x="528.5" y="-7.5" font-family="Helvetica,sans-Serif" font-size="10.00">utility</text>
</a>
</g>
</g>
<!-- Node12&#45;&gt;Node20 -->
<g id="edge21" class="edge">
<title>Node12&#45;&gt;Node20</title>
<path fill="none" stroke="midnightblue" d="M582.22,-56.32C572.66,-48.26 558.22,-36.08 546.72,-26.37"/>
<polygon fill="midnightblue" stroke="midnightblue" points="548.87,-23.61 538.97,-19.83 544.36,-28.96 548.87,-23.61"/>
</g>
<!-- Node21 -->
<g id="node21" class="node">
<title>Node21</title>
<g id="a_node21"><a xlink:title=" ">
<polygon fill="none" stroke="#bfbfbf" points="569,-0.5 569,-19.5 616,-19.5 616,-0.5 569,-0.5"/>
<text text-anchor="middle" x="592.5" y="-7.5" font-family="Helvetica,sans-Serif" font-size="10.00">vector</text>
</a>
</g>
</g>
<!-- Node12&#45;&gt;Node21 -->
<g id="edge22" class="edge">
<title>Node12&#45;&gt;Node21</title>
<path fill="none" stroke="midnightblue" d="M592.5,-56.08C592.5,-49.01 592.5,-38.86 592.5,-29.99"/>
<polygon fill="midnightblue" stroke="midnightblue" points="596,-29.75 592.5,-19.75 589,-29.75 596,-29.75"/>
</g>
</g>
</svg>
