<?xml version="1.0" encoding="UTF-8" standalone="no"?>
<!DOCTYPE svg PUBLIC "-//W3C//DTD SVG 1.1//EN"
 "http://www.w3.org/Graphics/SVG/1.1/DTD/svg11.dtd">
<!-- Generated by graphviz version 2.43.0 (0)
 -->
<!-- Title: yapre/src/ycore.h Pages: 1 -->
<svg width="916pt" height="140pt"
 viewBox="0.00 0.00 915.50 140.00" xmlns="http://www.w3.org/2000/svg" xmlns:xlink="http://www.w3.org/1999/xlink">
<g id="graph0" class="graph" transform="scale(1 1) rotate(0) translate(4 136)">
<title>yapre/src/ycore.h</title>
<!-- Node1 -->
<g id="node1" class="node">
<title>Node1</title>
<g id="a_node1"><a xlink:title=" ">
<polygon fill="#bfbfbf" stroke="black" points="407.5,-112.5 407.5,-131.5 508.5,-131.5 508.5,-112.5 407.5,-112.5"/>
<text text-anchor="middle" x="458" y="-119.5" font-family="Helvetica,sans-Serif" font-size="10.00">yapre/src/ycore.h</text>
</a>
</g>
</g>
<!-- Node2 -->
<g id="node2" class="node">
<title>Node2</title>
<g id="a_node2"><a xlink:href="main_8cpp.html" target="_top" xlink:title=" ">
<polygon fill="none" stroke="black" points="0,-56.5 0,-75.5 110,-75.5 110,-56.5 0,-56.5"/>
<text text-anchor="middle" x="55" y="-63.5" font-family="Helvetica,sans-Serif" font-size="10.00">yapre/src/main.cpp</text>
</a>
</g>
</g>
<!-- Node1&#45;&gt;Node2 -->
<g id="edge1" class="edge">
<title>Node1&#45;&gt;Node2</title>
<path fill="none" stroke="midnightblue" d="M397.36,-113.09C329.52,-104.22 216.36,-89.31 119,-76 116.11,-75.6 113.15,-75.2 110.15,-74.78"/>
<polygon fill="midnightblue" stroke="midnightblue" points="397.07,-116.59 407.44,-114.41 397.98,-109.65 397.07,-116.59"/>
</g>
<!-- Node3 -->
<g id="node3" class="node">
<title>Node3</title>
<g id="a_node3"><a xlink:href="yinput_8cpp.html" target="_top" xlink:title=" ">
<polygon fill="none" stroke="black" points="128,-56.5 128,-75.5 288,-75.5 288,-56.5 128,-56.5"/>
<text text-anchor="middle" x="208" y="-63.5" font-family="Helvetica,sans-Serif" font-size="10.00">yapre/src/systems/yinput.cpp</text>
</a>
</g>
</g>
<!-- Node1&#45;&gt;Node3 -->
<g id="edge2" class="edge">
<title>Node1&#45;&gt;Node3</title>
<path fill="none" stroke="midnightblue" d="M408.38,-110.28C361.13,-100.08 290.96,-84.92 247.43,-75.52"/>
<polygon fill="midnightblue" stroke="midnightblue" points="407.87,-113.75 418.39,-112.44 409.35,-106.91 407.87,-113.75"/>
</g>
<!-- Node4 -->
<g id="node4" class="node">
<title>Node4</title>
<g id="a_node4"><a xlink:href="yrepl_8cpp.html" target="_top" xlink:title=" ">
<polygon fill="none" stroke="black" points="306,-56.5 306,-75.5 460,-75.5 460,-56.5 306,-56.5"/>
<text text-anchor="middle" x="383" y="-63.5" font-family="Helvetica,sans-Serif" font-size="10.00">yapre/src/systems/yrepl.cpp</text>
</a>
</g>
</g>
<!-- Node1&#45;&gt;Node4 -->
<g id="edge3" class="edge">
<title>Node1&#45;&gt;Node4</title>
<path fill="none" stroke="midnightblue" d="M437.69,-106.38C424.14,-96.62 406.76,-84.11 395.27,-75.83"/>
<polygon fill="midnightblue" stroke="midnightblue" points="435.79,-109.32 445.95,-112.32 439.88,-103.64 435.79,-109.32"/>
</g>
<!-- Node5 -->
<g id="node5" class="node">
<title>Node5</title>
<g id="a_node5"><a xlink:href="ycore_8cpp.html" target="_top" xlink:title=" ">
<polygon fill="none" stroke="black" points="478,-56.5 478,-75.5 590,-75.5 590,-56.5 478,-56.5"/>
<text text-anchor="middle" x="534" y="-63.5" font-family="Helvetica,sans-Serif" font-size="10.00">yapre/src/ycore.cpp</text>
</a>
</g>
</g>
<!-- Node1&#45;&gt;Node5 -->
<g id="edge4" class="edge">
<title>Node1&#45;&gt;Node5</title>
<path fill="none" stroke="midnightblue" d="M478.58,-106.38C492.31,-96.62 509.93,-84.11 521.57,-75.83"/>
<polygon fill="midnightblue" stroke="midnightblue" points="476.34,-103.68 470.21,-112.32 480.39,-109.38 476.34,-103.68"/>
</g>
<!-- Node6 -->
<g id="node6" class="node">
<title>Node6</title>
<g id="a_node6"><a xlink:href="yluainterface_8inl.html" target="_top" xlink:title=" ">
<polygon fill="none" stroke="black" points="608,-56.5 608,-75.5 752,-75.5 752,-56.5 608,-56.5"/>
<text text-anchor="middle" x="680" y="-63.5" font-family="Helvetica,sans-Serif" font-size="10.00">yapre/src/yluainterface.inl</text>
</a>
</g>
</g>
<!-- Node1&#45;&gt;Node6 -->
<g id="edge5" class="edge">
<title>Node1&#45;&gt;Node6</title>
<path fill="none" stroke="midnightblue" d="M503.12,-110.02C545.06,-99.82 606.65,-84.84 644.99,-75.52"/>
<polygon fill="midnightblue" stroke="midnightblue" points="502.07,-106.68 493.18,-112.44 503.72,-113.48 502.07,-106.68"/>
</g>
<!-- Node8 -->
<g id="node8" class="node">
<title>Node8</title>
<g id="a_node8"><a xlink:href="yscheduler_8cpp.html" target="_top" xlink:title=" ">
<polygon fill="none" stroke="black" points="770.5,-56.5 770.5,-75.5 907.5,-75.5 907.5,-56.5 770.5,-56.5"/>
<text text-anchor="middle" x="839" y="-63.5" font-family="Helvetica,sans-Serif" font-size="10.00">yapre/src/yscheduler.cpp</text>
</a>
</g>
</g>
<!-- Node1&#45;&gt;Node8 -->
<g id="edge7" class="edge">
<title>Node1&#45;&gt;Node8</title>
<path fill="none" stroke="midnightblue" d="M518.77,-112.39C590.1,-102.28 707.67,-85.61 778.77,-75.54"/>
<polygon fill="midnightblue" stroke="midnightblue" points="518,-108.96 508.59,-113.83 518.99,-115.89 518,-108.96"/>
</g>
<!-- Node7 -->
<g id="node7" class="node">
<title>Node7</title>
<g id="a_node7"><a xlink:href="ylua_8cpp.html" target="_top" xlink:title=" ">
<polygon fill="none" stroke="black" points="605,-0.5 605,-19.5 755,-19.5 755,-0.5 605,-0.5"/>
<text text-anchor="middle" x="680" y="-7.5" font-family="Helvetica,sans-Serif" font-size="10.00">yapre/src/systems/ylua.cpp</text>
</a>
</g>
</g>
<!-- Node6&#45;&gt;Node7 -->
<g id="edge6" class="edge">
<title>Node6&#45;&gt;Node7</title>
<path fill="none" stroke="midnightblue" d="M680,-45.8C680,-36.91 680,-26.78 680,-19.75"/>
<polygon fill="midnightblue" stroke="midnightblue" points="676.5,-46.08 680,-56.08 683.5,-46.08 676.5,-46.08"/>
</g>
</g>
</svg>
