<?xml version="1.0" encoding="UTF-8" standalone="no"?>
<!DOCTYPE svg PUBLIC "-//W3C//DTD SVG 1.1//EN"
 "http://www.w3.org/Graphics/SVG/1.1/DTD/svg11.dtd">
<!-- Generated by graphviz version 2.43.0 (0)
 -->
<!-- Title: yapre/src/ycore.cpp Pages: 1 -->
<svg width="1260pt" height="252pt"
 viewBox="0.00 0.00 1260.00 252.00" xmlns="http://www.w3.org/2000/svg" xmlns:xlink="http://www.w3.org/1999/xlink">
<g id="graph0" class="graph" transform="scale(1 1) rotate(0) translate(4 248)">
<title>yapre/src/ycore.cpp</title>
<!-- Node1 -->
<g id="node1" class="node">
<title>Node1</title>
<g id="a_node1"><a xlink:title=" ">
<polygon fill="#bfbfbf" stroke="black" points="546,-224.5 546,-243.5 658,-243.5 658,-224.5 546,-224.5"/>
<text text-anchor="middle" x="602" y="-231.5" font-family="Helvetica,sans-Serif" font-size="10.00">yapre/src/ycore.cpp</text>
</a>
</g>
</g>
<!-- Node2 -->
<g id="node2" class="node">
<title>Node2</title>
<g id="a_node2"><a xlink:href="ycore_8h.html" target="_top" xlink:title=" ">
<polygon fill="none" stroke="black" points="777.5,-168.5 777.5,-187.5 830.5,-187.5 830.5,-168.5 777.5,-168.5"/>
<text text-anchor="middle" x="804" y="-175.5" font-family="Helvetica,sans-Serif" font-size="10.00">ycore.h</text>
</a>
</g>
</g>
<!-- Node1&#45;&gt;Node2 -->
<g id="edge1" class="edge">
<title>Node1&#45;&gt;Node2</title>
<path fill="none" stroke="midnightblue" d="M634.01,-224.44C670.36,-214.72 729.56,-198.9 767.63,-188.72"/>
<polygon fill="midnightblue" stroke="midnightblue" points="768.55,-192.1 777.3,-186.14 766.74,-185.34 768.55,-192.1"/>
</g>
<!-- Node4 -->
<g id="node4" class="node">
<title>Node4</title>
<g id="a_node4"><a xlink:title=" ">
<polygon fill="none" stroke="#bfbfbf" points="464,-168.5 464,-187.5 508,-187.5 508,-168.5 464,-168.5"/>
<text text-anchor="middle" x="486" y="-175.5" font-family="Helvetica,sans-Serif" font-size="10.00">SDL.h</text>
</a>
</g>
</g>
<!-- Node1&#45;&gt;Node4 -->
<g id="edge3" class="edge">
<title>Node1&#45;&gt;Node4</title>
<path fill="none" stroke="midnightblue" d="M583.62,-224.44C564.78,-215.68 535.27,-201.94 513.62,-191.86"/>
<polygon fill="midnightblue" stroke="midnightblue" points="514.84,-188.56 504.29,-187.52 511.88,-194.91 514.84,-188.56"/>
</g>
<!-- Node5 -->
<g id="node5" class="node">
<title>Node5</title>
<g id="a_node5"><a xlink:title=" ">
<polygon fill="none" stroke="#bfbfbf" points="593,-112.5 593,-131.5 643,-131.5 643,-112.5 593,-112.5"/>
<text text-anchor="middle" x="618" y="-119.5" font-family="Helvetica,sans-Serif" font-size="10.00">chrono</text>
</a>
</g>
</g>
<!-- Node1&#45;&gt;Node5 -->
<g id="edge4" class="edge">
<title>Node1&#45;&gt;Node5</title>
<path fill="none" stroke="midnightblue" d="M598.73,-224.46C594.4,-211.92 587.86,-187.85 593,-168 595.55,-158.18 600.75,-148.21 605.76,-140.17"/>
<polygon fill="midnightblue" stroke="midnightblue" points="608.75,-141.99 611.37,-131.73 602.92,-138.11 608.75,-141.99"/>
</g>
<!-- Node6 -->
<g id="node6" class="node">
<title>Node6</title>
<g id="a_node6"><a xlink:title=" ">
<polygon fill="none" stroke="#bfbfbf" points="0,-56.5 0,-75.5 60,-75.5 60,-56.5 0,-56.5"/>
<text text-anchor="middle" x="30" y="-63.5" font-family="Helvetica,sans-Serif" font-size="10.00">iostream</text>
</a>
</g>
</g>
<!-- Node1&#45;&gt;Node6 -->
<g id="edge5" class="edge">
<title>Node1&#45;&gt;Node6</title>
<path fill="none" stroke="midnightblue" d="M572.45,-224.42C477.04,-196.74 177.16,-109.71 69.21,-78.38"/>
<polygon fill="midnightblue" stroke="midnightblue" points="69.95,-74.95 59.37,-75.52 68,-81.67 69.95,-74.95"/>
</g>
<!-- Node7 -->
<g id="node7" class="node">
<title>Node7</title>
<g id="a_node7"><a xlink:title=" ">
<polygon fill="none" stroke="#bfbfbf" points="602,-168.5 602,-187.5 658,-187.5 658,-168.5 602,-168.5"/>
<text text-anchor="middle" x="630" y="-175.5" font-family="Helvetica,sans-Serif" font-size="10.00">unistd.h</text>
</a>
</g>
</g>
<!-- Node1&#45;&gt;Node7 -->
<g id="edge6" class="edge">
<title>Node1&#45;&gt;Node7</title>
<path fill="none" stroke="midnightblue" d="M606.62,-224.08C610.46,-216.69 616.02,-205.95 620.76,-196.81"/>
<polygon fill="midnightblue" stroke="midnightblue" points="623.97,-198.24 625.46,-187.75 617.75,-195.02 623.97,-198.24"/>
</g>
<!-- Node8 -->
<g id="node8" class="node">
<title>Node8</title>
<g id="a_node8"><a xlink:href="yluabind_8hpp.html" target="_top" xlink:title=" ">
<polygon fill="none" stroke="black" points="401,-112.5 401,-131.5 481,-131.5 481,-112.5 401,-112.5"/>
<text text-anchor="middle" x="441" y="-119.5" font-family="Helvetica,sans-Serif" font-size="10.00">yluabind.hpp</text>
</a>
</g>
</g>
<!-- Node1&#45;&gt;Node8 -->
<g id="edge7" class="edge">
<title>Node1&#45;&gt;Node8</title>
<path fill="none" stroke="midnightblue" d="M591.56,-224.38C575.82,-211.52 544.87,-186.81 517,-168 500.26,-156.7 480.64,-145.12 465.52,-136.54"/>
<polygon fill="midnightblue" stroke="midnightblue" points="467.19,-133.46 456.76,-131.61 463.76,-139.56 467.19,-133.46"/>
</g>
<!-- Node18 -->
<g id="node18" class="node">
<title>Node18</title>
<g id="a_node18"><a xlink:href="yscheduler_8h.html" target="_top" xlink:title=" ">
<polygon fill="none" stroke="black" points="676,-168.5 676,-187.5 754,-187.5 754,-168.5 676,-168.5"/>
<text text-anchor="middle" x="715" y="-175.5" font-family="Helvetica,sans-Serif" font-size="10.00">yscheduler.h</text>
</a>
</g>
</g>
<!-- Node1&#45;&gt;Node18 -->
<g id="edge19" class="edge">
<title>Node1&#45;&gt;Node18</title>
<path fill="none" stroke="midnightblue" d="M619.91,-224.44C638.25,-215.68 667.01,-201.94 688.09,-191.86"/>
<polygon fill="midnightblue" stroke="midnightblue" points="689.67,-194.99 697.18,-187.52 686.65,-188.67 689.67,-194.99"/>
</g>
<!-- Node19 -->
<g id="node19" class="node">
<title>Node19</title>
<g id="a_node19"><a xlink:href="ysystems_8inl.html" target="_top" xlink:title=" ">
<polygon fill="none" stroke="black" points="990.5,-168.5 990.5,-187.5 1069.5,-187.5 1069.5,-168.5 990.5,-168.5"/>
<text text-anchor="middle" x="1030" y="-175.5" font-family="Helvetica,sans-Serif" font-size="10.00">ysystems.inl</text>
</a>
</g>
</g>
<!-- Node1&#45;&gt;Node19 -->
<g id="edge22" class="edge">
<title>Node1&#45;&gt;Node19</title>
<path fill="none" stroke="midnightblue" d="M658.39,-225.88C742.57,-215.26 899.77,-195.43 980.04,-185.3"/>
<polygon fill="midnightblue" stroke="midnightblue" points="980.89,-188.72 990.37,-184 980.01,-181.78 980.89,-188.72"/>
</g>
<!-- Node3 -->
<g id="node3" class="node">
<title>Node3</title>
<g id="a_node3"><a xlink:title=" ">
<polygon fill="none" stroke="#bfbfbf" points="973,-0.5 973,-19.5 1017,-19.5 1017,-0.5 973,-0.5"/>
<text text-anchor="middle" x="995" y="-7.5" font-family="Helvetica,sans-Serif" font-size="10.00">string</text>
</a>
</g>
</g>
<!-- Node2&#45;&gt;Node3 -->
<g id="edge2" class="edge">
<title>Node2&#45;&gt;Node3</title>
<path fill="none" stroke="midnightblue" d="M805.45,-168.47C807.92,-155.53 813.82,-130.46 825,-112 843.07,-82.16 850.89,-75.23 880,-56 905.83,-38.94 939.1,-26.81 963.21,-19.48"/>
<polygon fill="midnightblue" stroke="midnightblue" points="964.32,-22.8 972.93,-16.63 962.35,-16.08 964.32,-22.8"/>
</g>
<!-- Node8&#45;&gt;Node3 -->
<g id="edge13" class="edge">
<title>Node8&#45;&gt;Node3</title>
<path fill="none" stroke="midnightblue" d="M470.48,-112.49C497.95,-104.24 539.84,-90.82 575,-76 592.95,-68.43 595.37,-61.68 614,-56 647.07,-45.93 877.04,-22.6 962.83,-14.14"/>
<polygon fill="midnightblue" stroke="midnightblue" points="963.18,-17.62 972.79,-13.16 962.49,-10.65 963.18,-17.62"/>
</g>
<!-- Node8&#45;&gt;Node6 -->
<g id="edge12" class="edge">
<title>Node8&#45;&gt;Node6</title>
<path fill="none" stroke="midnightblue" d="M400.94,-117.14C333.31,-110.4 192.31,-95.32 74,-76 72.74,-75.79 71.47,-75.58 70.19,-75.36"/>
<polygon fill="midnightblue" stroke="midnightblue" points="70.71,-71.89 60.24,-73.52 69.43,-78.78 70.71,-71.89"/>
</g>
<!-- Node9 -->
<g id="node9" class="node">
<title>Node9</title>
<g id="a_node9"><a xlink:title=" ">
<polygon fill="none" stroke="#bfbfbf" points="377.5,-56.5 377.5,-75.5 436.5,-75.5 436.5,-56.5 377.5,-56.5"/>
<text text-anchor="middle" x="407" y="-63.5" font-family="Helvetica,sans-Serif" font-size="10.00">lauxlib.h</text>
</a>
</g>
</g>
<!-- Node8&#45;&gt;Node9 -->
<g id="edge8" class="edge">
<title>Node8&#45;&gt;Node9</title>
<path fill="none" stroke="midnightblue" d="M435.39,-112.08C430.63,-104.53 423.68,-93.49 417.85,-84.23"/>
<polygon fill="midnightblue" stroke="midnightblue" points="420.8,-82.35 412.51,-75.75 414.88,-86.08 420.8,-82.35"/>
</g>
<!-- Node10 -->
<g id="node10" class="node">
<title>Node10</title>
<g id="a_node10"><a xlink:title=" ">
<polygon fill="none" stroke="#bfbfbf" points="454.5,-56.5 454.5,-75.5 495.5,-75.5 495.5,-56.5 454.5,-56.5"/>
<text text-anchor="middle" x="475" y="-63.5" font-family="Helvetica,sans-Serif" font-size="10.00">lua.h</text>
</a>
</g>
</g>
<!-- Node8&#45;&gt;Node10 -->
<g id="edge9" class="edge">
<title>Node8&#45;&gt;Node10</title>
<path fill="none" stroke="midnightblue" d="M446.61,-112.08C451.37,-104.53 458.32,-93.49 464.15,-84.23"/>
<polygon fill="midnightblue" stroke="midnightblue" points="467.12,-86.08 469.49,-75.75 461.2,-82.35 467.12,-86.08"/>
</g>
<!-- Node11 -->
<g id="node11" class="node">
<title>Node11</title>
<g id="a_node11"><a xlink:title=" ">
<polygon fill="none" stroke="#bfbfbf" points="513.5,-56.5 513.5,-75.5 566.5,-75.5 566.5,-56.5 513.5,-56.5"/>
<text text-anchor="middle" x="540" y="-63.5" font-family="Helvetica,sans-Serif" font-size="10.00">lualib.h</text>
</a>
</g>
</g>
<!-- Node8&#45;&gt;Node11 -->
<g id="edge10" class="edge">
<title>Node8&#45;&gt;Node11</title>
<path fill="none" stroke="midnightblue" d="M456.91,-112.32C472.64,-103.74 496.94,-90.49 515.21,-80.52"/>
<polygon fill="midnightblue" stroke="midnightblue" points="517.03,-83.52 524.13,-75.65 513.68,-77.37 517.03,-83.52"/>
</g>
<!-- Node12 -->
<g id="node12" class="node">
<title>Node12</title>
<g id="a_node12"><a xlink:title=" ">
<polygon fill="none" stroke="#bfbfbf" points="682.5,-56.5 682.5,-75.5 747.5,-75.5 747.5,-56.5 682.5,-56.5"/>
<text text-anchor="middle" x="715" y="-63.5" font-family="Helvetica,sans-Serif" font-size="10.00">functional</text>
</a>
</g>
</g>
<!-- Node8&#45;&gt;Node12 -->
<g id="edge11" class="edge">
<title>Node8&#45;&gt;Node12</title>
<path fill="none" stroke="midnightblue" d="M481.05,-113.58C525.53,-105.28 599.69,-91.22 672.54,-76.27"/>
<polygon fill="midnightblue" stroke="midnightblue" points="673.25,-79.69 682.34,-74.25 671.84,-72.84 673.25,-79.69"/>
</g>
<!-- Node13 -->
<g id="node13" class="node">
<title>Node13</title>
<g id="a_node13"><a xlink:title=" ">
<polygon fill="none" stroke="#bfbfbf" points="623.5,-56.5 623.5,-75.5 664.5,-75.5 664.5,-56.5 623.5,-56.5"/>
<text text-anchor="middle" x="644" y="-63.5" font-family="Helvetica,sans-Serif" font-size="10.00">tuple</text>
</a>
</g>
</g>
<!-- Node8&#45;&gt;Node13 -->
<g id="edge14" class="edge">
<title>Node8&#45;&gt;Node13</title>
<path fill="none" stroke="midnightblue" d="M473.17,-112.44C511.69,-102.2 575.75,-85.16 613.51,-75.11"/>
<polygon fill="midnightblue" stroke="midnightblue" points="614.66,-78.43 623.42,-72.47 612.86,-71.66 614.66,-78.43"/>
</g>
<!-- Node14 -->
<g id="node14" class="node">
<title>Node14</title>
<g id="a_node14"><a xlink:title=" ">
<polygon fill="none" stroke="#bfbfbf" points="116.5,-56.5 116.5,-75.5 185.5,-75.5 185.5,-56.5 116.5,-56.5"/>
<text text-anchor="middle" x="151" y="-63.5" font-family="Helvetica,sans-Serif" font-size="10.00">type_traits</text>
</a>
</g>
</g>
<!-- Node8&#45;&gt;Node14 -->
<g id="edge15" class="edge">
<title>Node8&#45;&gt;Node14</title>
<path fill="none" stroke="midnightblue" d="M400.72,-114C353.79,-105.76 273.64,-91.47 195.7,-76.3"/>
<polygon fill="midnightblue" stroke="midnightblue" points="196.2,-72.83 185.72,-74.35 194.86,-79.7 196.2,-72.83"/>
</g>
<!-- Node15 -->
<g id="node15" class="node">
<title>Node15</title>
<g id="a_node15"><a xlink:title=" ">
<polygon fill="none" stroke="#bfbfbf" points="203.5,-56.5 203.5,-75.5 296.5,-75.5 296.5,-56.5 203.5,-56.5"/>
<text text-anchor="middle" x="250" y="-63.5" font-family="Helvetica,sans-Serif" font-size="10.00">unordered_map</text>
</a>
</g>
</g>
<!-- Node8&#45;&gt;Node15 -->
<g id="edge16" class="edge">
<title>Node8&#45;&gt;Node15</title>
<path fill="none" stroke="midnightblue" d="M410.74,-112.44C378.04,-103.2 325.82,-88.44 289.82,-78.26"/>
<polygon fill="midnightblue" stroke="midnightblue" points="290.7,-74.87 280.12,-75.52 288.79,-81.61 290.7,-74.87"/>
</g>
<!-- Node16 -->
<g id="node16" class="node">
<title>Node16</title>
<g id="a_node16"><a xlink:title=" ">
<polygon fill="none" stroke="#bfbfbf" points="314.5,-56.5 314.5,-75.5 359.5,-75.5 359.5,-56.5 314.5,-56.5"/>
<text text-anchor="middle" x="337" y="-63.5" font-family="Helvetica,sans-Serif" font-size="10.00">utility</text>
</a>
</g>
</g>
<!-- Node8&#45;&gt;Node16 -->
<g id="edge17" class="edge">
<title>Node8&#45;&gt;Node16</title>
<path fill="none" stroke="midnightblue" d="M424.29,-112.32C407.69,-103.7 382,-90.36 362.78,-80.39"/>
<polygon fill="midnightblue" stroke="midnightblue" points="364.16,-77.16 353.67,-75.65 360.93,-83.37 364.16,-77.16"/>
</g>
<!-- Node17 -->
<g id="node17" class="node">
<title>Node17</title>
<g id="a_node17"><a xlink:title=" ">
<polygon fill="none" stroke="#bfbfbf" points="384.5,-0.5 384.5,-19.5 431.5,-19.5 431.5,-0.5 384.5,-0.5"/>
<text text-anchor="middle" x="408" y="-7.5" font-family="Helvetica,sans-Serif" font-size="10.00">vector</text>
</a>
</g>
</g>
<!-- Node8&#45;&gt;Node17 -->
<g id="edge18" class="edge">
<title>Node8&#45;&gt;Node17</title>
<path fill="none" stroke="midnightblue" d="M400.91,-118.52C316.4,-112.87 126.11,-97.86 107,-76 101.15,-69.31 101.2,-62.73 107,-56 141.2,-16.31 303.05,-11.11 374.25,-10.78"/>
<polygon fill="midnightblue" stroke="midnightblue" points="374.48,-14.28 384.47,-10.76 374.47,-7.28 374.48,-14.28"/>
</g>
<!-- Node18&#45;&gt;Node5 -->
<g id="edge20" class="edge">
<title>Node18&#45;&gt;Node5</title>
<path fill="none" stroke="midnightblue" d="M699.42,-168.32C684,-159.74 660.19,-146.49 642.29,-136.52"/>
<polygon fill="midnightblue" stroke="midnightblue" points="643.99,-133.46 633.55,-131.65 640.58,-139.58 643.99,-133.46"/>
</g>
<!-- Node18&#45;&gt;Node12 -->
<g id="edge21" class="edge">
<title>Node18&#45;&gt;Node12</title>
<path fill="none" stroke="midnightblue" d="M715,-168.37C715,-150.62 715,-109.67 715,-85.6"/>
<polygon fill="midnightblue" stroke="midnightblue" points="718.5,-85.59 715,-75.59 711.5,-85.59 718.5,-85.59"/>
</g>
<!-- Node20 -->
<g id="node20" class="node">
<title>Node20</title>
<g id="a_node20"><a xlink:title=" ">
<polygon fill="none" stroke="#bfbfbf" points="1210,-112.5 1210,-131.5 1252,-131.5 1252,-112.5 1210,-112.5"/>
<text text-anchor="middle" x="1231" y="-119.5" font-family="Helvetica,sans-Serif" font-size="10.00">array</text>
</a>
</g>
</g>
<!-- Node19&#45;&gt;Node20 -->
<g id="edge23" class="edge">
<title>Node19&#45;&gt;Node20</title>
<path fill="none" stroke="midnightblue" d="M1063.84,-168.46C1096.37,-160.17 1147.18,-147.01 1199.87,-132.25"/>
<polygon fill="midnightblue" stroke="midnightblue" points="1201.04,-135.56 1209.72,-129.48 1199.15,-128.82 1201.04,-135.56"/>
</g>
<!-- Node21 -->
<g id="node21" class="node">
<title>Node21</title>
<g id="a_node21"><a xlink:href="yaudio_8h.html" target="_top" xlink:title=" ">
<polygon fill="none" stroke="black" points="924.5,-112.5 924.5,-131.5 983.5,-131.5 983.5,-112.5 924.5,-112.5"/>
<text text-anchor="middle" x="954" y="-119.5" font-family="Helvetica,sans-Serif" font-size="10.00">yaudio.h</text>
</a>
</g>
</g>
<!-- Node19&#45;&gt;Node21 -->
<g id="edge24" class="edge">
<title>Node19&#45;&gt;Node21</title>
<path fill="none" stroke="midnightblue" d="M1017.79,-168.32C1006.22,-160.11 988.62,-147.6 974.84,-137.81"/>
<polygon fill="midnightblue" stroke="midnightblue" points="976.61,-134.77 966.43,-131.83 972.56,-140.48 976.61,-134.77"/>
</g>
<!-- Node22 -->
<g id="node22" class="node">
<title>Node22</title>
<g id="a_node22"><a xlink:href="yinput_8h.html" target="_top" xlink:title=" ">
<polygon fill="none" stroke="black" points="1002,-112.5 1002,-131.5 1058,-131.5 1058,-112.5 1002,-112.5"/>
<text text-anchor="middle" x="1030" y="-119.5" font-family="Helvetica,sans-Serif" font-size="10.00">yinput.h</text>
</a>
</g>
</g>
<!-- Node19&#45;&gt;Node22 -->
<g id="edge25" class="edge">
<title>Node19&#45;&gt;Node22</title>
<path fill="none" stroke="midnightblue" d="M1030,-168.08C1030,-161.01 1030,-150.86 1030,-141.99"/>
<polygon fill="midnightblue" stroke="midnightblue" points="1033.5,-141.75 1030,-131.75 1026.5,-141.75 1033.5,-141.75"/>
</g>
<!-- Node23 -->
<g id="node23" class="node">
<title>Node23</title>
<g id="a_node23"><a xlink:href="ylua_8h.html" target="_top" xlink:title=" ">
<polygon fill="none" stroke="black" points="1144.5,-112.5 1144.5,-131.5 1191.5,-131.5 1191.5,-112.5 1144.5,-112.5"/>
<text text-anchor="middle" x="1168" y="-119.5" font-family="Helvetica,sans-Serif" font-size="10.00">ylua.h</text>
</a>
</g>
</g>
<!-- Node19&#45;&gt;Node23 -->
<g id="edge28" class="edge">
<title>Node19&#45;&gt;Node23</title>
<path fill="none" stroke="midnightblue" d="M1051.87,-168.44C1074.78,-159.48 1110.98,-145.31 1136.87,-135.18"/>
<polygon fill="midnightblue" stroke="midnightblue" points="1138.2,-138.42 1146.24,-131.52 1135.65,-131.9 1138.2,-138.42"/>
</g>
<!-- Node24 -->
<g id="node24" class="node">
<title>Node24</title>
<g id="a_node24"><a xlink:href="yrenderer_8h.html" target="_top" xlink:title=" ">
<polygon fill="none" stroke="black" points="834,-112.5 834,-131.5 906,-131.5 906,-112.5 834,-112.5"/>
<text text-anchor="middle" x="870" y="-119.5" font-family="Helvetica,sans-Serif" font-size="10.00">yrenderer.h</text>
</a>
</g>
</g>
<!-- Node19&#45;&gt;Node24 -->
<g id="edge30" class="edge">
<title>Node19&#45;&gt;Node24</title>
<path fill="none" stroke="midnightblue" d="M1004.65,-168.44C977.73,-159.36 935,-144.94 904.91,-134.78"/>
<polygon fill="midnightblue" stroke="midnightblue" points="905.83,-131.4 895.23,-131.52 903.59,-138.03 905.83,-131.4"/>
</g>
<!-- Node29 -->
<g id="node29" class="node">
<title>Node29</title>
<g id="a_node29"><a xlink:href="yrepl_8h.html" target="_top" xlink:title=" ">
<polygon fill="none" stroke="black" points="1076,-112.5 1076,-131.5 1126,-131.5 1126,-112.5 1076,-112.5"/>
<text text-anchor="middle" x="1101" y="-119.5" font-family="Helvetica,sans-Serif" font-size="10.00">yrepl.h</text>
</a>
</g>
</g>
<!-- Node19&#45;&gt;Node29 -->
<g id="edge39" class="edge">
<title>Node19&#45;&gt;Node29</title>
<path fill="none" stroke="midnightblue" d="M1041.41,-168.32C1052.11,-160.18 1068.34,-147.84 1081.16,-138.09"/>
<polygon fill="midnightblue" stroke="midnightblue" points="1083.54,-140.67 1089.39,-131.83 1079.31,-135.1 1083.54,-140.67"/>
</g>
<!-- Node22&#45;&gt;Node3 -->
<g id="edge27" class="edge">
<title>Node22&#45;&gt;Node3</title>
<path fill="none" stroke="midnightblue" d="M1027.25,-112.37C1021.58,-94.54 1008.46,-53.3 1000.81,-29.27"/>
<polygon fill="midnightblue" stroke="midnightblue" points="1004.1,-28.06 997.73,-19.59 997.43,-30.18 1004.1,-28.06"/>
</g>
<!-- Node22&#45;&gt;Node12 -->
<g id="edge26" class="edge">
<title>Node22&#45;&gt;Node12</title>
<path fill="none" stroke="midnightblue" d="M1001.77,-113.87C998.82,-113.2 995.85,-112.56 993,-112 892.06,-92.06 863.1,-94.92 757.63,-76.01"/>
<polygon fill="midnightblue" stroke="midnightblue" points="757.99,-72.51 747.52,-74.17 756.73,-79.4 757.99,-72.51"/>
</g>
<!-- Node23&#45;&gt;Node3 -->
<g id="edge29" class="edge">
<title>Node23&#45;&gt;Node3</title>
<path fill="none" stroke="midnightblue" d="M1154.42,-112.37C1124.74,-93.49 1053.8,-48.38 1017.39,-25.24"/>
<polygon fill="midnightblue" stroke="midnightblue" points="1018.83,-22 1008.51,-19.59 1015.07,-27.91 1018.83,-22"/>
</g>
<!-- Node24&#45;&gt;Node3 -->
<g id="edge37" class="edge">
<title>Node24&#45;&gt;Node3</title>
<path fill="none" stroke="midnightblue" d="M906.13,-114C929.15,-107.75 957.93,-96.32 976,-76 987.34,-63.24 991.93,-44.05 993.78,-29.82"/>
<polygon fill="midnightblue" stroke="midnightblue" points="997.28,-29.98 994.75,-19.7 990.31,-29.32 997.28,-29.98"/>
</g>
<!-- Node24&#45;&gt;Node13 -->
<g id="edge38" class="edge">
<title>Node24&#45;&gt;Node13</title>
<path fill="none" stroke="midnightblue" d="M833.7,-113.41C796.23,-105.42 735.88,-92.08 674.47,-75.98"/>
<polygon fill="midnightblue" stroke="midnightblue" points="675.17,-72.55 664.61,-73.38 673.38,-79.32 675.17,-72.55"/>
</g>
<!-- Node25 -->
<g id="node25" class="node">
<title>Node25</title>
<g id="a_node25"><a xlink:title=" ">
<polygon fill="none" stroke="#bfbfbf" points="889,-56.5 889,-75.5 967,-75.5 967,-56.5 889,-56.5"/>
<text text-anchor="middle" x="928" y="-63.5" font-family="Helvetica,sans-Serif" font-size="10.00">glm/glm.hpp</text>
</a>
</g>
</g>
<!-- Node24&#45;&gt;Node25 -->
<g id="edge31" class="edge">
<title>Node24&#45;&gt;Node25</title>
<path fill="none" stroke="midnightblue" d="M879.32,-112.32C887.89,-104.34 900.81,-92.31 911.19,-82.65"/>
<polygon fill="midnightblue" stroke="midnightblue" points="913.58,-85.21 918.51,-75.83 908.81,-80.09 913.58,-85.21"/>
</g>
<!-- Node26 -->
<g id="node26" class="node">
<title>Node26</title>
<g id="a_node26"><a xlink:href="ytexture_8h.html" target="_top" xlink:title=" ">
<polygon fill="none" stroke="black" points="765.5,-56.5 765.5,-75.5 832.5,-75.5 832.5,-56.5 765.5,-56.5"/>
<text text-anchor="middle" x="799" y="-63.5" font-family="Helvetica,sans-Serif" font-size="10.00">ytexture.h</text>
</a>
</g>
</g>
<!-- Node24&#45;&gt;Node26 -->
<g id="edge32" class="edge">
<title>Node24&#45;&gt;Node26</title>
<path fill="none" stroke="midnightblue" d="M858.59,-112.32C847.89,-104.18 831.66,-91.84 818.84,-82.09"/>
<polygon fill="midnightblue" stroke="midnightblue" points="820.69,-79.1 810.61,-75.83 816.46,-84.67 820.69,-79.1"/>
</g>
<!-- Node26&#45;&gt;Node3 -->
<g id="edge34" class="edge">
<title>Node26&#45;&gt;Node3</title>
<path fill="none" stroke="midnightblue" d="M830.06,-56.44C866.46,-46.41 926.49,-29.88 963.21,-19.76"/>
<polygon fill="midnightblue" stroke="midnightblue" points="964.2,-23.12 972.91,-17.09 962.34,-16.37 964.2,-23.12"/>
</g>
<!-- Node26&#45;&gt;Node17 -->
<g id="edge35" class="edge">
<title>Node26&#45;&gt;Node17</title>
<path fill="none" stroke="midnightblue" d="M765.12,-57.49C762.38,-56.96 759.65,-56.45 757,-56 642.02,-36.3 504.39,-20.95 441.88,-14.42"/>
<polygon fill="midnightblue" stroke="midnightblue" points="442.11,-10.93 431.8,-13.38 441.38,-17.89 442.11,-10.93"/>
</g>
<!-- Node27 -->
<g id="node27" class="node">
<title>Node27</title>
<g id="a_node27"><a xlink:title=" ">
<polygon fill="none" stroke="#bfbfbf" points="728,-0.5 728,-19.5 786,-19.5 786,-0.5 728,-0.5"/>
<text text-anchor="middle" x="757" y="-7.5" font-family="Helvetica,sans-Serif" font-size="10.00">memory</text>
</a>
</g>
</g>
<!-- Node26&#45;&gt;Node27 -->
<g id="edge33" class="edge">
<title>Node26&#45;&gt;Node27</title>
<path fill="none" stroke="midnightblue" d="M792.06,-56.08C786.07,-48.38 777.25,-37.03 769.95,-27.65"/>
<polygon fill="midnightblue" stroke="midnightblue" points="772.71,-25.5 763.81,-19.75 767.18,-29.79 772.71,-25.5"/>
</g>
<!-- Node28 -->
<g id="node28" class="node">
<title>Node28</title>
<g id="a_node28"><a xlink:title=" ">
<polygon fill="none" stroke="#bfbfbf" points="804.5,-0.5 804.5,-19.5 875.5,-19.5 875.5,-0.5 804.5,-0.5"/>
<text text-anchor="middle" x="840" y="-7.5" font-family="Helvetica,sans-Serif" font-size="10.00">glad/glad.h</text>
</a>
</g>
</g>
<!-- Node26&#45;&gt;Node28 -->
<g id="edge36" class="edge">
<title>Node26&#45;&gt;Node28</title>
<path fill="none" stroke="midnightblue" d="M805.77,-56.08C811.56,-48.46 820.06,-37.26 827.14,-27.94"/>
<polygon fill="midnightblue" stroke="midnightblue" points="830.1,-29.83 833.36,-19.75 824.52,-25.6 830.1,-29.83"/>
</g>
<!-- Node29&#45;&gt;Node3 -->
<g id="edge40" class="edge">
<title>Node29&#45;&gt;Node3</title>
<path fill="none" stroke="midnightblue" d="M1092.68,-112.37C1074.96,-93.97 1033.23,-50.67 1010.47,-27.05"/>
<polygon fill="midnightblue" stroke="midnightblue" points="1012.74,-24.36 1003.28,-19.59 1007.7,-29.22 1012.74,-24.36"/>
</g>
</g>
</svg>
