<?xml version="1.0" encoding="UTF-8" standalone="no"?>
<!DOCTYPE svg PUBLIC "-//W3C//DTD SVG 1.1//EN"
 "http://www.w3.org/Graphics/SVG/1.1/DTD/svg11.dtd">
<!-- Generated by graphviz version 3.0.0 (20220226.1711)
 -->
<!-- Title: yapre/src/ycore.cpp Pages: 1 -->
<svg width="1180pt" height="252pt"
 viewBox="0.00 0.00 1180.00 252.00" xmlns="http://www.w3.org/2000/svg" xmlns:xlink="http://www.w3.org/1999/xlink">
<g id="graph0" class="graph" transform="scale(1 1) rotate(0) translate(4 248)">
<title>yapre/src/ycore.cpp</title>
<!-- Node1 -->
<g id="node1" class="node">
<title>Node1</title>
<g id="a_node1"><a xlink:title=" ">
<polygon fill="#bfbfbf" stroke="black" points="510.5,-224.5 510.5,-243.5 613.5,-243.5 613.5,-224.5 510.5,-224.5"/>
<text text-anchor="middle" x="562" y="-231.5" font-family="Helvetica,sans-Serif" font-size="10.00">yapre/src/ycore.cpp</text>
</a>
</g>
</g>
<!-- Node2 -->
<g id="node2" class="node">
<title>Node2</title>
<g id="a_node2"><a xlink:href="ycore_8h.html" target="_top" xlink:title=" ">
<polygon fill="none" stroke="black" points="728.5,-168.5 728.5,-187.5 777.5,-187.5 777.5,-168.5 728.5,-168.5"/>
<text text-anchor="middle" x="753" y="-175.5" font-family="Helvetica,sans-Serif" font-size="10.00">ycore.h</text>
</a>
</g>
</g>
<!-- Node1&#45;&gt;Node2 -->
<g id="edge1" class="edge">
<title>Node1&#45;&gt;Node2</title>
<path fill="none" stroke="midnightblue" d="M592.26,-224.44C626.54,-214.75 682.29,-198.99 718.3,-188.81"/>
<polygon fill="midnightblue" stroke="midnightblue" points="719.67,-192.06 728.34,-185.97 717.77,-185.32 719.67,-192.06"/>
</g>
<!-- Node4 -->
<g id="node4" class="node">
<title>Node4</title>
<g id="a_node4"><a xlink:title=" ">
<polygon fill="none" stroke="#bfbfbf" points="425,-168.5 425,-187.5 469,-187.5 469,-168.5 425,-168.5"/>
<text text-anchor="middle" x="447" y="-175.5" font-family="Helvetica,sans-Serif" font-size="10.00">SDL.h</text>
</a>
</g>
</g>
<!-- Node1&#45;&gt;Node4 -->
<g id="edge3" class="edge">
<title>Node1&#45;&gt;Node4</title>
<path fill="none" stroke="midnightblue" d="M543.78,-224.44C525.1,-215.68 495.84,-201.94 474.38,-191.86"/>
<polygon fill="midnightblue" stroke="midnightblue" points="475.68,-188.6 465.14,-187.52 472.7,-194.93 475.68,-188.6"/>
</g>
<!-- Node5 -->
<g id="node5" class="node">
<title>Node5</title>
<g id="a_node5"><a xlink:title=" ">
<polygon fill="none" stroke="#bfbfbf" points="553,-112.5 553,-131.5 599,-131.5 599,-112.5 553,-112.5"/>
<text text-anchor="middle" x="576" y="-119.5" font-family="Helvetica,sans-Serif" font-size="10.00">chrono</text>
</a>
</g>
</g>
<!-- Node1&#45;&gt;Node5 -->
<g id="edge4" class="edge">
<title>Node1&#45;&gt;Node5</title>
<path fill="none" stroke="midnightblue" d="M559.08,-224.49C555.22,-211.97 549.39,-187.94 554,-168 556.23,-158.36 560.82,-148.41 565.24,-140.31"/>
<polygon fill="midnightblue" stroke="midnightblue" points="568.35,-141.92 570.36,-131.52 562.3,-138.4 568.35,-141.92"/>
</g>
<!-- Node6 -->
<g id="node6" class="node">
<title>Node6</title>
<g id="a_node6"><a xlink:title=" ">
<polygon fill="none" stroke="#bfbfbf" points="0,-56.5 0,-75.5 54,-75.5 54,-56.5 0,-56.5"/>
<text text-anchor="middle" x="27" y="-63.5" font-family="Helvetica,sans-Serif" font-size="10.00">iostream</text>
</a>
</g>
</g>
<!-- Node1&#45;&gt;Node6 -->
<g id="edge5" class="edge">
<title>Node1&#45;&gt;Node6</title>
<path fill="none" stroke="midnightblue" d="M534.28,-224.48C504.9,-215.44 457.17,-200.75 416,-188 286.57,-147.92 133,-100.07 63.91,-78.52"/>
<polygon fill="midnightblue" stroke="midnightblue" points="64.93,-75.17 54.35,-75.53 62.85,-81.85 64.93,-75.17"/>
</g>
<!-- Node7 -->
<g id="node7" class="node">
<title>Node7</title>
<g id="a_node7"><a xlink:title=" ">
<polygon fill="none" stroke="#bfbfbf" points="563.5,-168.5 563.5,-187.5 614.5,-187.5 614.5,-168.5 563.5,-168.5"/>
<text text-anchor="middle" x="589" y="-175.5" font-family="Helvetica,sans-Serif" font-size="10.00">unistd.h</text>
</a>
</g>
</g>
<!-- Node1&#45;&gt;Node7 -->
<g id="edge6" class="edge">
<title>Node1&#45;&gt;Node7</title>
<path fill="none" stroke="midnightblue" d="M566.46,-224.08C570.15,-216.69 575.52,-205.95 580.09,-196.81"/>
<polygon fill="midnightblue" stroke="midnightblue" points="583.28,-198.26 584.62,-187.75 577.02,-195.13 583.28,-198.26"/>
</g>
<!-- Node8 -->
<g id="node8" class="node">
<title>Node8</title>
<g id="a_node8"><a xlink:href="yluabind_8hpp.html" target="_top" xlink:title=" ">
<polygon fill="none" stroke="black" points="373.5,-112.5 373.5,-131.5 444.5,-131.5 444.5,-112.5 373.5,-112.5"/>
<text text-anchor="middle" x="409" y="-119.5" font-family="Helvetica,sans-Serif" font-size="10.00">yluabind.hpp</text>
</a>
</g>
</g>
<!-- Node1&#45;&gt;Node8 -->
<g id="edge7" class="edge">
<title>Node1&#45;&gt;Node8</title>
<path fill="none" stroke="midnightblue" d="M551.34,-224.3C535.59,-211.56 505.05,-187.24 478,-168 462.85,-157.22 445.29,-145.79 431.68,-137.14"/>
<polygon fill="midnightblue" stroke="midnightblue" points="433.29,-134.02 422.97,-131.64 429.56,-139.94 433.29,-134.02"/>
</g>
<!-- Node18 -->
<g id="node18" class="node">
<title>Node18</title>
<g id="a_node18"><a xlink:href="yscheduler_8h.html" target="_top" xlink:title=" ">
<polygon fill="none" stroke="black" points="632.5,-168.5 632.5,-187.5 703.5,-187.5 703.5,-168.5 632.5,-168.5"/>
<text text-anchor="middle" x="668" y="-175.5" font-family="Helvetica,sans-Serif" font-size="10.00">yscheduler.h</text>
</a>
</g>
</g>
<!-- Node1&#45;&gt;Node18 -->
<g id="edge19" class="edge">
<title>Node1&#45;&gt;Node18</title>
<path fill="none" stroke="midnightblue" d="M579.03,-224.32C596.03,-215.66 622.38,-202.24 641.99,-192.25"/>
<polygon fill="midnightblue" stroke="midnightblue" points="643.69,-195.31 651.01,-187.65 640.51,-189.08 643.69,-195.31"/>
</g>
<!-- Node19 -->
<g id="node19" class="node">
<title>Node19</title>
<g id="a_node19"><a xlink:href="ysystems_8inl.html" target="_top" xlink:title=" ">
<polygon fill="none" stroke="black" points="928,-168.5 928,-187.5 1000,-187.5 1000,-168.5 928,-168.5"/>
<text text-anchor="middle" x="964" y="-175.5" font-family="Helvetica,sans-Serif" font-size="10.00">ysystems.inl</text>
</a>
</g>
</g>
<!-- Node1&#45;&gt;Node19 -->
<g id="edge22" class="edge">
<title>Node1&#45;&gt;Node19</title>
<path fill="none" stroke="midnightblue" d="M613.73,-226.05C692.72,-215.44 842.16,-195.37 917.74,-185.21"/>
<polygon fill="midnightblue" stroke="midnightblue" points="918.46,-188.65 927.9,-183.85 917.53,-181.71 918.46,-188.65"/>
</g>
<!-- Node3 -->
<g id="node3" class="node">
<title>Node3</title>
<g id="a_node3"><a xlink:title=" ">
<polygon fill="none" stroke="#bfbfbf" points="909.5,-0.5 909.5,-19.5 950.5,-19.5 950.5,-0.5 909.5,-0.5"/>
<text text-anchor="middle" x="930" y="-7.5" font-family="Helvetica,sans-Serif" font-size="10.00">string</text>
</a>
</g>
</g>
<!-- Node2&#45;&gt;Node3 -->
<g id="edge2" class="edge">
<title>Node2&#45;&gt;Node3</title>
<path fill="none" stroke="midnightblue" d="M755.05,-168.16C758.28,-155.24 765.31,-130.71 776,-112 792.12,-83.79 796.85,-75.28 823,-56 846.21,-38.89 876.9,-26.85 899.46,-19.55"/>
<polygon fill="midnightblue" stroke="midnightblue" points="900.68,-22.84 909.2,-16.54 898.61,-16.15 900.68,-22.84"/>
</g>
<!-- Node8&#45;&gt;Node3 -->
<g id="edge13" class="edge">
<title>Node8&#45;&gt;Node3</title>
<path fill="none" stroke="midnightblue" d="M435.72,-112.49C461.3,-104.08 500.79,-90.42 534,-76 551.87,-68.24 554.39,-61.75 573,-56 633.87,-37.2 824.37,-19.79 899.3,-13.49"/>
<polygon fill="midnightblue" stroke="midnightblue" points="899.81,-16.96 909.48,-12.64 899.23,-9.98 899.81,-16.96"/>
</g>
<!-- Node8&#45;&gt;Node6 -->
<g id="edge12" class="edge">
<title>Node8&#45;&gt;Node6</title>
<path fill="none" stroke="midnightblue" d="M373.01,-117.27C310.65,-110.57 178.58,-95.4 68,-76 66.75,-75.78 65.48,-75.55 64.19,-75.31"/>
<polygon fill="midnightblue" stroke="midnightblue" points="64.78,-71.86 54.28,-73.33 63.4,-78.72 64.78,-71.86"/>
</g>
<!-- Node9 -->
<g id="node9" class="node">
<title>Node9</title>
<g id="a_node9"><a xlink:title=" ">
<polygon fill="none" stroke="#bfbfbf" points="350.5,-56.5 350.5,-75.5 403.5,-75.5 403.5,-56.5 350.5,-56.5"/>
<text text-anchor="middle" x="377" y="-63.5" font-family="Helvetica,sans-Serif" font-size="10.00">lauxlib.h</text>
</a>
</g>
</g>
<!-- Node8&#45;&gt;Node9 -->
<g id="edge8" class="edge">
<title>Node8&#45;&gt;Node9</title>
<path fill="none" stroke="midnightblue" d="M403.72,-112.08C399.29,-104.61 392.84,-93.72 387.38,-84.52"/>
<polygon fill="midnightblue" stroke="midnightblue" points="390.29,-82.57 382.19,-75.75 384.27,-86.14 390.29,-82.57"/>
</g>
<!-- Node10 -->
<g id="node10" class="node">
<title>Node10</title>
<g id="a_node10"><a xlink:title=" ">
<polygon fill="none" stroke="#bfbfbf" points="422,-56.5 422,-75.5 460,-75.5 460,-56.5 422,-56.5"/>
<text text-anchor="middle" x="441" y="-63.5" font-family="Helvetica,sans-Serif" font-size="10.00">lua.h</text>
</a>
</g>
</g>
<!-- Node8&#45;&gt;Node10 -->
<g id="edge9" class="edge">
<title>Node8&#45;&gt;Node10</title>
<path fill="none" stroke="midnightblue" d="M414.28,-112.08C418.71,-104.61 425.16,-93.72 430.62,-84.52"/>
<polygon fill="midnightblue" stroke="midnightblue" points="433.73,-86.14 435.81,-75.75 427.71,-82.57 433.73,-86.14"/>
</g>
<!-- Node11 -->
<g id="node11" class="node">
<title>Node11</title>
<g id="a_node11"><a xlink:title=" ">
<polygon fill="none" stroke="#bfbfbf" points="478.5,-56.5 478.5,-75.5 525.5,-75.5 525.5,-56.5 478.5,-56.5"/>
<text text-anchor="middle" x="502" y="-63.5" font-family="Helvetica,sans-Serif" font-size="10.00">lualib.h</text>
</a>
</g>
</g>
<!-- Node8&#45;&gt;Node11 -->
<g id="edge10" class="edge">
<title>Node8&#45;&gt;Node11</title>
<path fill="none" stroke="midnightblue" d="M423.94,-112.32C438.59,-103.82 461.13,-90.73 478.24,-80.8"/>
<polygon fill="midnightblue" stroke="midnightblue" points="480.2,-83.7 487.1,-75.65 476.69,-77.65 480.2,-83.7"/>
</g>
<!-- Node12 -->
<g id="node12" class="node">
<title>Node12</title>
<g id="a_node12"><a xlink:title=" ">
<polygon fill="none" stroke="#bfbfbf" points="638.5,-56.5 638.5,-75.5 697.5,-75.5 697.5,-56.5 638.5,-56.5"/>
<text text-anchor="middle" x="668" y="-63.5" font-family="Helvetica,sans-Serif" font-size="10.00">functional</text>
</a>
</g>
</g>
<!-- Node8&#45;&gt;Node12 -->
<g id="edge11" class="edge">
<title>Node8&#45;&gt;Node12</title>
<path fill="none" stroke="midnightblue" d="M444.88,-113.95C486.52,-105.7 557.5,-91.45 628.23,-76.12"/>
<polygon fill="midnightblue" stroke="midnightblue" points="629.18,-79.5 638.21,-73.96 627.69,-72.66 629.18,-79.5"/>
</g>
<!-- Node13 -->
<g id="node13" class="node">
<title>Node13</title>
<g id="a_node13"><a xlink:title=" ">
<polygon fill="none" stroke="#bfbfbf" points="582,-56.5 582,-75.5 620,-75.5 620,-56.5 582,-56.5"/>
<text text-anchor="middle" x="601" y="-63.5" font-family="Helvetica,sans-Serif" font-size="10.00">tuple</text>
</a>
</g>
</g>
<!-- Node8&#45;&gt;Node13 -->
<g id="edge14" class="edge">
<title>Node8&#45;&gt;Node13</title>
<path fill="none" stroke="midnightblue" d="M439.42,-112.44C475.8,-102.21 536.25,-85.21 571.99,-75.16"/>
<polygon fill="midnightblue" stroke="midnightblue" points="573.13,-78.48 581.8,-72.4 571.23,-71.74 573.13,-78.48"/>
</g>
<!-- Node14 -->
<g id="node14" class="node">
<title>Node14</title>
<g id="a_node14"><a xlink:title=" ">
<polygon fill="none" stroke="#bfbfbf" points="110,-56.5 110,-75.5 172,-75.5 172,-56.5 110,-56.5"/>
<text text-anchor="middle" x="141" y="-63.5" font-family="Helvetica,sans-Serif" font-size="10.00">type_traits</text>
</a>
</g>
</g>
<!-- Node8&#45;&gt;Node14 -->
<g id="edge15" class="edge">
<title>Node8&#45;&gt;Node14</title>
<path fill="none" stroke="midnightblue" d="M373.4,-114.28C330.41,-106.09 255.67,-91.65 182.3,-76.23"/>
<polygon fill="midnightblue" stroke="midnightblue" points="182.93,-72.79 172.43,-74.15 181.49,-79.64 182.93,-72.79"/>
</g>
<!-- Node15 -->
<g id="node15" class="node">
<title>Node15</title>
<g id="a_node15"><a xlink:title=" ">
<polygon fill="none" stroke="#bfbfbf" points="190.5,-56.5 190.5,-75.5 273.5,-75.5 273.5,-56.5 190.5,-56.5"/>
<text text-anchor="middle" x="232" y="-63.5" font-family="Helvetica,sans-Serif" font-size="10.00">unordered_map</text>
</a>
</g>
</g>
<!-- Node8&#45;&gt;Node15 -->
<g id="edge16" class="edge">
<title>Node8&#45;&gt;Node15</title>
<path fill="none" stroke="midnightblue" d="M380.95,-112.44C350.92,-103.28 303.09,-88.69 269.76,-78.52"/>
<polygon fill="midnightblue" stroke="midnightblue" points="270.5,-75.09 259.91,-75.52 268.46,-81.78 270.5,-75.09"/>
</g>
<!-- Node16 -->
<g id="node16" class="node">
<title>Node16</title>
<g id="a_node16"><a xlink:title=" ">
<polygon fill="none" stroke="#bfbfbf" points="292,-56.5 292,-75.5 332,-75.5 332,-56.5 292,-56.5"/>
<text text-anchor="middle" x="312" y="-63.5" font-family="Helvetica,sans-Serif" font-size="10.00">utility</text>
</a>
</g>
</g>
<!-- Node8&#45;&gt;Node16 -->
<g id="edge17" class="edge">
<title>Node8&#45;&gt;Node16</title>
<path fill="none" stroke="midnightblue" d="M393.42,-112.32C378,-103.74 354.19,-90.49 336.29,-80.52"/>
<polygon fill="midnightblue" stroke="midnightblue" points="337.99,-77.46 327.55,-75.65 334.58,-83.58 337.99,-77.46"/>
</g>
<!-- Node17 -->
<g id="node17" class="node">
<title>Node17</title>
<g id="a_node17"><a xlink:title=" ">
<polygon fill="none" stroke="#bfbfbf" points="359,-0.5 359,-19.5 403,-19.5 403,-0.5 359,-0.5"/>
<text text-anchor="middle" x="381" y="-7.5" font-family="Helvetica,sans-Serif" font-size="10.00">vector</text>
</a>
</g>
</g>
<!-- Node8&#45;&gt;Node17 -->
<g id="edge18" class="edge">
<title>Node8&#45;&gt;Node17</title>
<path fill="none" stroke="midnightblue" d="M373.29,-121.35C299.85,-121.22 135.86,-116.32 101,-76 95.19,-69.28 95.23,-62.77 101,-56 132.46,-19.08 281.36,-12.34 348.28,-11.19"/>
<polygon fill="midnightblue" stroke="midnightblue" points="348.71,-14.68 358.66,-11.04 348.62,-7.68 348.71,-14.68"/>
</g>
<!-- Node18&#45;&gt;Node5 -->
<g id="edge20" class="edge">
<title>Node18&#45;&gt;Node5</title>
<path fill="none" stroke="midnightblue" d="M653.22,-168.32C638.73,-159.82 616.43,-146.73 599.51,-136.8"/>
<polygon fill="midnightblue" stroke="midnightblue" points="601.14,-133.7 590.74,-131.65 597.6,-139.74 601.14,-133.7"/>
</g>
<!-- Node18&#45;&gt;Node12 -->
<g id="edge21" class="edge">
<title>Node18&#45;&gt;Node12</title>
<path fill="none" stroke="midnightblue" d="M668,-168.37C668,-150.62 668,-109.67 668,-85.6"/>
<polygon fill="midnightblue" stroke="midnightblue" points="671.5,-85.59 668,-75.59 664.5,-85.59 671.5,-85.59"/>
</g>
<!-- Node20 -->
<g id="node20" class="node">
<title>Node20</title>
<g id="a_node20"><a xlink:title=" ">
<polygon fill="none" stroke="#bfbfbf" points="1134,-112.5 1134,-131.5 1172,-131.5 1172,-112.5 1134,-112.5"/>
<text text-anchor="middle" x="1153" y="-119.5" font-family="Helvetica,sans-Serif" font-size="10.00">array</text>
</a>
</g>
</g>
<!-- Node19&#45;&gt;Node20 -->
<g id="edge23" class="edge">
<title>Node19&#45;&gt;Node20</title>
<path fill="none" stroke="midnightblue" d="M995.87,-168.48C1026.46,-160.22 1074.17,-147.11 1124.08,-132.2"/>
<polygon fill="midnightblue" stroke="midnightblue" points="1125.18,-135.52 1133.75,-129.29 1123.17,-128.82 1125.18,-135.52"/>
</g>
<!-- Node21 -->
<g id="node21" class="node">
<title>Node21</title>
<g id="a_node21"><a xlink:href="yaudio_8h.html" target="_top" xlink:title=" ">
<polygon fill="none" stroke="black" points="867.5,-112.5 867.5,-131.5 920.5,-131.5 920.5,-112.5 867.5,-112.5"/>
<text text-anchor="middle" x="894" y="-119.5" font-family="Helvetica,sans-Serif" font-size="10.00">yaudio.h</text>
</a>
</g>
</g>
<!-- Node19&#45;&gt;Node21 -->
<g id="edge24" class="edge">
<title>Node19&#45;&gt;Node21</title>
<path fill="none" stroke="midnightblue" d="M952.75,-168.32C942.2,-160.18 926.2,-147.84 913.56,-138.09"/>
<polygon fill="midnightblue" stroke="midnightblue" points="915.51,-135.17 905.45,-131.83 911.23,-140.71 915.51,-135.17"/>
</g>
<!-- Node22 -->
<g id="node22" class="node">
<title>Node22</title>
<g id="a_node22"><a xlink:href="yinput_8h.html" target="_top" xlink:title=" ">
<polygon fill="none" stroke="black" points="938.5,-112.5 938.5,-131.5 989.5,-131.5 989.5,-112.5 938.5,-112.5"/>
<text text-anchor="middle" x="964" y="-119.5" font-family="Helvetica,sans-Serif" font-size="10.00">yinput.h</text>
</a>
</g>
</g>
<!-- Node19&#45;&gt;Node22 -->
<g id="edge25" class="edge">
<title>Node19&#45;&gt;Node22</title>
<path fill="none" stroke="midnightblue" d="M964,-168.08C964,-161.01 964,-150.86 964,-141.99"/>
<polygon fill="midnightblue" stroke="midnightblue" points="967.5,-141.75 964,-131.75 960.5,-141.75 967.5,-141.75"/>
</g>
<!-- Node23 -->
<g id="node23" class="node">
<title>Node23</title>
<g id="a_node23"><a xlink:href="ylua_8h.html" target="_top" xlink:title=" ">
<polygon fill="none" stroke="black" points="1072.5,-112.5 1072.5,-131.5 1115.5,-131.5 1115.5,-112.5 1072.5,-112.5"/>
<text text-anchor="middle" x="1094" y="-119.5" font-family="Helvetica,sans-Serif" font-size="10.00">ylua.h</text>
</a>
</g>
</g>
<!-- Node19&#45;&gt;Node23 -->
<g id="edge28" class="edge">
<title>Node19&#45;&gt;Node23</title>
<path fill="none" stroke="midnightblue" d="M984.6,-168.44C1005.99,-159.56 1039.68,-145.56 1064.02,-135.45"/>
<polygon fill="midnightblue" stroke="midnightblue" points="1065.61,-138.58 1073.5,-131.52 1062.92,-132.12 1065.61,-138.58"/>
</g>
<!-- Node24 -->
<g id="node24" class="node">
<title>Node24</title>
<g id="a_node24"><a xlink:href="yrenderer_8h.html" target="_top" xlink:title=" ">
<polygon fill="none" stroke="black" points="784.5,-112.5 784.5,-131.5 849.5,-131.5 849.5,-112.5 784.5,-112.5"/>
<text text-anchor="middle" x="817" y="-119.5" font-family="Helvetica,sans-Serif" font-size="10.00">yrenderer.h</text>
</a>
</g>
</g>
<!-- Node19&#45;&gt;Node24 -->
<g id="edge30" class="edge">
<title>Node19&#45;&gt;Node24</title>
<path fill="none" stroke="midnightblue" d="M940.71,-168.44C916.19,-159.44 877.4,-145.19 849.8,-135.05"/>
<polygon fill="midnightblue" stroke="midnightblue" points="850.78,-131.68 840.18,-131.52 848.36,-138.25 850.78,-131.68"/>
</g>
<!-- Node29 -->
<g id="node29" class="node">
<title>Node29</title>
<g id="a_node29"><a xlink:href="yrepl_8h.html" target="_top" xlink:title=" ">
<polygon fill="none" stroke="black" points="1008,-112.5 1008,-131.5 1054,-131.5 1054,-112.5 1008,-112.5"/>
<text text-anchor="middle" x="1031" y="-119.5" font-family="Helvetica,sans-Serif" font-size="10.00">yrepl.h</text>
</a>
</g>
</g>
<!-- Node19&#45;&gt;Node29 -->
<g id="edge39" class="edge">
<title>Node19&#45;&gt;Node29</title>
<path fill="none" stroke="midnightblue" d="M974.76,-168.32C984.77,-160.26 999.89,-148.08 1011.93,-138.37"/>
<polygon fill="midnightblue" stroke="midnightblue" points="1014.45,-140.83 1020.04,-131.83 1010.06,-135.38 1014.45,-140.83"/>
</g>
<!-- Node22&#45;&gt;Node3 -->
<g id="edge27" class="edge">
<title>Node22&#45;&gt;Node3</title>
<path fill="none" stroke="midnightblue" d="M961.29,-112.17C957.45,-99.66 950.21,-76.08 944,-56 941.28,-47.2 938.24,-37.43 935.69,-29.25"/>
<polygon fill="midnightblue" stroke="midnightblue" points="939.01,-28.13 932.69,-19.62 932.33,-30.21 939.01,-28.13"/>
</g>
<!-- Node22&#45;&gt;Node12 -->
<g id="edge26" class="edge">
<title>Node22&#45;&gt;Node12</title>
<path fill="none" stroke="midnightblue" d="M938.45,-113.95C935.61,-113.25 932.75,-112.58 930,-112 834.87,-91.78 807.23,-95.06 707.63,-76"/>
<polygon fill="midnightblue" stroke="midnightblue" points="708.25,-72.55 697.77,-74.08 706.92,-79.43 708.25,-72.55"/>
</g>
<!-- Node23&#45;&gt;Node3 -->
<g id="edge29" class="edge">
<title>Node23&#45;&gt;Node3</title>
<path fill="none" stroke="midnightblue" d="M1081.13,-112.37C1052.99,-93.49 985.74,-48.38 951.23,-25.24"/>
<polygon fill="midnightblue" stroke="midnightblue" points="953.06,-22.26 942.81,-19.59 949.16,-28.07 953.06,-22.26"/>
</g>
<!-- Node24&#45;&gt;Node3 -->
<g id="edge37" class="edge">
<title>Node24&#45;&gt;Node3</title>
<path fill="none" stroke="midnightblue" d="M849.55,-112.82C869.91,-106.11 895.18,-94.61 911,-76 922.05,-62.99 926.68,-43.83 928.62,-29.68"/>
<polygon fill="midnightblue" stroke="midnightblue" points="932.11,-29.93 929.66,-19.62 925.15,-29.21 932.11,-29.93"/>
</g>
<!-- Node24&#45;&gt;Node13 -->
<g id="edge38" class="edge">
<title>Node24&#45;&gt;Node13</title>
<path fill="none" stroke="midnightblue" d="M784.41,-113.83C746.96,-105.44 683.77,-90.8 630,-76 629.9,-75.97 629.8,-75.95 629.7,-75.92"/>
<polygon fill="midnightblue" stroke="midnightblue" points="630.87,-72.61 620.29,-73.18 628.91,-79.33 630.87,-72.61"/>
</g>
<!-- Node25 -->
<g id="node25" class="node">
<title>Node25</title>
<g id="a_node25"><a xlink:title=" ">
<polygon fill="none" stroke="#bfbfbf" points="832,-56.5 832,-75.5 902,-75.5 902,-56.5 832,-56.5"/>
<text text-anchor="middle" x="867" y="-63.5" font-family="Helvetica,sans-Serif" font-size="10.00">glm/glm.hpp</text>
</a>
</g>
</g>
<!-- Node24&#45;&gt;Node25 -->
<g id="edge31" class="edge">
<title>Node24&#45;&gt;Node25</title>
<path fill="none" stroke="midnightblue" d="M825.26,-112.08C832.46,-104.3 843.11,-92.8 851.85,-83.37"/>
<polygon fill="midnightblue" stroke="midnightblue" points="854.67,-85.47 858.9,-75.75 849.53,-80.71 854.67,-85.47"/>
</g>
<!-- Node26 -->
<g id="node26" class="node">
<title>Node26</title>
<g id="a_node26"><a xlink:href="ytexture_8h.html" target="_top" xlink:title=" ">
<polygon fill="none" stroke="black" points="716,-56.5 716,-75.5 776,-75.5 776,-56.5 716,-56.5"/>
<text text-anchor="middle" x="746" y="-63.5" font-family="Helvetica,sans-Serif" font-size="10.00">ytexture.h</text>
</a>
</g>
</g>
<!-- Node24&#45;&gt;Node26 -->
<g id="edge32" class="edge">
<title>Node24&#45;&gt;Node26</title>
<path fill="none" stroke="midnightblue" d="M805.59,-112.32C794.89,-104.18 778.66,-91.84 765.84,-82.09"/>
<polygon fill="midnightblue" stroke="midnightblue" points="767.69,-79.1 757.61,-75.83 763.46,-84.67 767.69,-79.1"/>
</g>
<!-- Node26&#45;&gt;Node3 -->
<g id="edge34" class="edge">
<title>Node26&#45;&gt;Node3</title>
<path fill="none" stroke="midnightblue" d="M775.16,-56.44C809.04,-46.5 864.72,-30.16 899.27,-20.02"/>
<polygon fill="midnightblue" stroke="midnightblue" points="900.65,-23.26 909.26,-17.09 898.68,-16.54 900.65,-23.26"/>
</g>
<!-- Node26&#45;&gt;Node17 -->
<g id="edge35" class="edge">
<title>Node26&#45;&gt;Node17</title>
<path fill="none" stroke="midnightblue" d="M715.82,-57.75C712.85,-57.13 709.87,-56.53 707,-56 600.15,-36.34 472.16,-21.06 413.39,-14.5"/>
<polygon fill="midnightblue" stroke="midnightblue" points="413.57,-10.99 403.25,-13.37 412.8,-17.95 413.57,-10.99"/>
</g>
<!-- Node27 -->
<g id="node27" class="node">
<title>Node27</title>
<g id="a_node27"><a xlink:title=" ">
<polygon fill="none" stroke="#bfbfbf" points="682,-0.5 682,-19.5 734,-19.5 734,-0.5 682,-0.5"/>
<text text-anchor="middle" x="708" y="-7.5" font-family="Helvetica,sans-Serif" font-size="10.00">memory</text>
</a>
</g>
</g>
<!-- Node26&#45;&gt;Node27 -->
<g id="edge33" class="edge">
<title>Node26&#45;&gt;Node27</title>
<path fill="none" stroke="midnightblue" d="M739.73,-56.08C734.36,-48.46 726.48,-37.26 719.92,-27.94"/>
<polygon fill="midnightblue" stroke="midnightblue" points="722.78,-25.91 714.16,-19.75 717.05,-29.94 722.78,-25.91"/>
</g>
<!-- Node28 -->
<g id="node28" class="node">
<title>Node28</title>
<g id="a_node28"><a xlink:title=" ">
<polygon fill="none" stroke="#bfbfbf" points="752,-0.5 752,-19.5 816,-19.5 816,-0.5 752,-0.5"/>
<text text-anchor="middle" x="784" y="-7.5" font-family="Helvetica,sans-Serif" font-size="10.00">glad/glad.h</text>
</a>
</g>
</g>
<!-- Node26&#45;&gt;Node28 -->
<g id="edge36" class="edge">
<title>Node26&#45;&gt;Node28</title>
<path fill="none" stroke="midnightblue" d="M752.27,-56.08C757.64,-48.46 765.52,-37.26 772.08,-27.94"/>
<polygon fill="midnightblue" stroke="midnightblue" points="774.95,-29.94 777.84,-19.75 769.22,-25.91 774.95,-29.94"/>
</g>
<!-- Node29&#45;&gt;Node3 -->
<g id="edge40" class="edge">
<title>Node29&#45;&gt;Node3</title>
<path fill="none" stroke="midnightblue" d="M1023.07,-112.37C1006.19,-93.97 966.43,-50.67 944.74,-27.05"/>
<polygon fill="midnightblue" stroke="midnightblue" points="947.23,-24.59 937.89,-19.59 942.07,-29.32 947.23,-24.59"/>
</g>
</g>
</svg>
