<?xml version="1.0" encoding="UTF-8" standalone="no"?>
<!DOCTYPE svg PUBLIC "-//W3C//DTD SVG 1.1//EN"
 "http://www.w3.org/Graphics/SVG/1.1/DTD/svg11.dtd">
<!-- Generated by graphviz version 2.50.0 (20211204.2007)
 -->
<!-- Title: yapre/src/ycore.h Pages: 1 -->
<svg width="842pt" height="140pt"
 viewBox="0.00 0.00 841.50 140.00" xmlns="http://www.w3.org/2000/svg" xmlns:xlink="http://www.w3.org/1999/xlink">
<g id="graph0" class="graph" transform="scale(1 1) rotate(0) translate(4 136)">
<title>yapre/src/ycore.h</title>
<!-- Node1 -->
<g id="node1" class="node">
<title>Node1</title>
<g id="a_node1"><a xlink:title=" ">
<polygon fill="#bfbfbf" stroke="black" points="376,-112.5 376,-131.5 468,-131.5 468,-112.5 376,-112.5"/>
<text text-anchor="middle" x="422" y="-119.5" font-family="Helvetica,sans-Serif" font-size="10.00">yapre/src/ycore.h</text>
</a>
</g>
</g>
<!-- Node2 -->
<g id="node2" class="node">
<title>Node2</title>
<g id="a_node2"><a xlink:href="main_8cpp.html" target="_top" xlink:title=" ">
<polygon fill="none" stroke="black" points="0,-56.5 0,-75.5 100,-75.5 100,-56.5 0,-56.5"/>
<text text-anchor="middle" x="50" y="-63.5" font-family="Helvetica,sans-Serif" font-size="10.00">yapre/src/main.cpp</text>
</a>
</g>
</g>
<!-- Node1&#45;&gt;Node2 -->
<g id="edge1" class="edge">
<title>Node1&#45;&gt;Node2</title>
<path fill="none" stroke="midnightblue" d="M365.77,-113.06C303.11,-104.19 198.77,-89.3 109,-76 106.13,-75.57 103.18,-75.13 100.21,-74.69"/>
<polygon fill="midnightblue" stroke="midnightblue" points="365.45,-116.55 375.84,-114.49 366.43,-109.62 365.45,-116.55"/>
</g>
<!-- Node3 -->
<g id="node3" class="node">
<title>Node3</title>
<g id="a_node3"><a xlink:href="yinput_8cpp.html" target="_top" xlink:title=" ">
<polygon fill="none" stroke="black" points="118,-56.5 118,-75.5 264,-75.5 264,-56.5 118,-56.5"/>
<text text-anchor="middle" x="191" y="-63.5" font-family="Helvetica,sans-Serif" font-size="10.00">yapre/src/systems/yinput.cpp</text>
</a>
</g>
</g>
<!-- Node1&#45;&gt;Node3 -->
<g id="edge2" class="edge">
<title>Node1&#45;&gt;Node3</title>
<path fill="none" stroke="midnightblue" d="M375.6,-110.15C331.95,-99.95 267.49,-84.88 227.43,-75.52"/>
<polygon fill="midnightblue" stroke="midnightblue" points="374.86,-113.58 385.4,-112.44 376.46,-106.76 374.86,-113.58"/>
</g>
<!-- Node4 -->
<g id="node4" class="node">
<title>Node4</title>
<g id="a_node4"><a xlink:href="yrepl_8cpp.html" target="_top" xlink:title=" ">
<polygon fill="none" stroke="black" points="282,-56.5 282,-75.5 422,-75.5 422,-56.5 282,-56.5"/>
<text text-anchor="middle" x="352" y="-63.5" font-family="Helvetica,sans-Serif" font-size="10.00">yapre/src/systems/yrepl.cpp</text>
</a>
</g>
</g>
<!-- Node1&#45;&gt;Node4 -->
<g id="edge3" class="edge">
<title>Node1&#45;&gt;Node4</title>
<path fill="none" stroke="midnightblue" d="M402.69,-106.1C390.09,-96.38 374.07,-84.03 363.45,-75.83"/>
<polygon fill="midnightblue" stroke="midnightblue" points="400.7,-108.99 410.75,-112.32 404.97,-103.44 400.7,-108.99"/>
</g>
<!-- Node5 -->
<g id="node5" class="node">
<title>Node5</title>
<g id="a_node5"><a xlink:href="ycore_8cpp.html" target="_top" xlink:title=" ">
<polygon fill="none" stroke="black" points="440.5,-56.5 440.5,-75.5 543.5,-75.5 543.5,-56.5 440.5,-56.5"/>
<text text-anchor="middle" x="492" y="-63.5" font-family="Helvetica,sans-Serif" font-size="10.00">yapre/src/ycore.cpp</text>
</a>
</g>
</g>
<!-- Node1&#45;&gt;Node5 -->
<g id="edge4" class="edge">
<title>Node1&#45;&gt;Node5</title>
<path fill="none" stroke="midnightblue" d="M441.31,-106.1C453.91,-96.38 469.93,-84.03 480.55,-75.83"/>
<polygon fill="midnightblue" stroke="midnightblue" points="439.03,-103.44 433.25,-112.32 443.3,-108.99 439.03,-103.44"/>
</g>
<!-- Node6 -->
<g id="node6" class="node">
<title>Node6</title>
<g id="a_node6"><a xlink:href="yluainterface_8inl.html" target="_top" xlink:title=" ">
<polygon fill="none" stroke="black" points="562,-56.5 562,-75.5 690,-75.5 690,-56.5 562,-56.5"/>
<text text-anchor="middle" x="626" y="-63.5" font-family="Helvetica,sans-Serif" font-size="10.00">yapre/src/yluainterface.inl</text>
</a>
</g>
</g>
<!-- Node1&#45;&gt;Node6 -->
<g id="edge5" class="edge">
<title>Node1&#45;&gt;Node6</title>
<path fill="none" stroke="midnightblue" d="M464.2,-109.83C502.72,-99.63 558.82,-84.78 593.83,-75.52"/>
<polygon fill="midnightblue" stroke="midnightblue" points="463.1,-106.5 454.32,-112.44 464.89,-113.27 463.1,-106.5"/>
</g>
<!-- Node8 -->
<g id="node8" class="node">
<title>Node8</title>
<g id="a_node8"><a xlink:href="yscheduler_8cpp.html" target="_top" xlink:title=" ">
<polygon fill="none" stroke="black" points="708.5,-56.5 708.5,-75.5 833.5,-75.5 833.5,-56.5 708.5,-56.5"/>
<text text-anchor="middle" x="771" y="-63.5" font-family="Helvetica,sans-Serif" font-size="10.00">yapre/src/yscheduler.cpp</text>
</a>
</g>
</g>
<!-- Node1&#45;&gt;Node8 -->
<g id="edge7" class="edge">
<title>Node1&#45;&gt;Node8</title>
<path fill="none" stroke="midnightblue" d="M478.47,-112.26C543.89,-102.14 650.96,-85.57 715.82,-75.54"/>
<polygon fill="midnightblue" stroke="midnightblue" points="477.69,-108.84 468.34,-113.83 478.76,-115.76 477.69,-108.84"/>
</g>
<!-- Node7 -->
<g id="node7" class="node">
<title>Node7</title>
<g id="a_node7"><a xlink:href="ylua_8cpp.html" target="_top" xlink:title=" ">
<polygon fill="none" stroke="black" points="557.5,-0.5 557.5,-19.5 694.5,-19.5 694.5,-0.5 557.5,-0.5"/>
<text text-anchor="middle" x="626" y="-7.5" font-family="Helvetica,sans-Serif" font-size="10.00">yapre/src/systems/ylua.cpp</text>
</a>
</g>
</g>
<!-- Node6&#45;&gt;Node7 -->
<g id="edge6" class="edge">
<title>Node6&#45;&gt;Node7</title>
<path fill="none" stroke="midnightblue" d="M626,-45.8C626,-36.91 626,-26.78 626,-19.75"/>
<polygon fill="midnightblue" stroke="midnightblue" points="622.5,-46.08 626,-56.08 629.5,-46.08 622.5,-46.08"/>
</g>
</g>
</svg>
