<?xml version="1.0" encoding="UTF-8" standalone="no"?>
<!DOCTYPE svg PUBLIC "-//W3C//DTD SVG 1.1//EN"
 "http://www.w3.org/Graphics/SVG/1.1/DTD/svg11.dtd">
<!-- Generated by graphviz version 2.50.0 (20211204.2007)
 -->
<!-- Title: yapre/src/systems/graphics/yfont.cpp Pages: 1 -->
<svg width="511pt" height="207pt"
 viewBox="0.00 0.00 510.50 207.00" xmlns="http://www.w3.org/2000/svg" xmlns:xlink="http://www.w3.org/1999/xlink">
<g id="graph0" class="graph" transform="scale(1 1) rotate(0) translate(4 203)">
<title>yapre/src/systems/graphics/yfont.cpp</title>
<!-- Node1 -->
<g id="node1" class="node">
<title>Node1</title>
<g id="a_node1"><a xlink:title=" ">
<polygon fill="#bfbfbf" stroke="black" points="190.5,-168.5 190.5,-198.5 327.5,-198.5 327.5,-168.5 190.5,-168.5"/>
<text text-anchor="start" x="198.5" y="-186.5" font-family="Helvetica,sans-Serif" font-size="10.00">yapre/src/systems/graphics</text>
<text text-anchor="middle" x="259" y="-175.5" font-family="Helvetica,sans-Serif" font-size="10.00">/yfont.cpp</text>
</a>
</g>
</g>
<!-- Node2 -->
<g id="node2" class="node">
<title>Node2</title>
<g id="a_node2"><a xlink:href="yfont_8h.html" target="_top" xlink:title=" ">
<polygon fill="none" stroke="black" points="287.5,-112.5 287.5,-131.5 334.5,-131.5 334.5,-112.5 287.5,-112.5"/>
<text text-anchor="middle" x="311" y="-119.5" font-family="Helvetica,sans-Serif" font-size="10.00">yfont.h</text>
</a>
</g>
</g>
<!-- Node1&#45;&gt;Node2 -->
<g id="edge1" class="edge">
<title>Node1&#45;&gt;Node2</title>
<path fill="none" stroke="midnightblue" d="M271.32,-168.4C278.96,-159.66 288.79,-148.41 296.76,-139.3"/>
<polygon fill="midnightblue" stroke="midnightblue" points="299.49,-141.49 303.43,-131.66 294.22,-136.88 299.49,-141.49"/>
</g>
<!-- Node3 -->
<g id="node3" class="node">
<title>Node3</title>
<g id="a_node3"><a xlink:href="ytexture_8h.html" target="_top" xlink:title=" ">
<polygon fill="none" stroke="black" points="120,-56.5 120,-75.5 180,-75.5 180,-56.5 120,-56.5"/>
<text text-anchor="middle" x="150" y="-63.5" font-family="Helvetica,sans-Serif" font-size="10.00">ytexture.h</text>
</a>
</g>
</g>
<!-- Node1&#45;&gt;Node3 -->
<g id="edge11" class="edge">
<title>Node1&#45;&gt;Node3</title>
<path fill="none" stroke="midnightblue" d="M245.63,-168.34C225.28,-146.77 186.63,-105.81 165.22,-83.13"/>
<polygon fill="midnightblue" stroke="midnightblue" points="167.59,-80.54 158.18,-75.67 162.5,-85.34 167.59,-80.54"/>
</g>
<!-- Node4 -->
<g id="node4" class="node">
<title>Node4</title>
<g id="a_node4"><a xlink:title=" ">
<polygon fill="none" stroke="#bfbfbf" points="0,-0.5 0,-19.5 52,-19.5 52,-0.5 0,-0.5"/>
<text text-anchor="middle" x="26" y="-7.5" font-family="Helvetica,sans-Serif" font-size="10.00">memory</text>
</a>
</g>
</g>
<!-- Node1&#45;&gt;Node4 -->
<g id="edge17" class="edge">
<title>Node1&#45;&gt;Node4</title>
<path fill="none" stroke="midnightblue" d="M213.38,-168.44C189.93,-159.98 161.62,-147.77 139,-132 96.16,-102.13 57.21,-53.71 38.21,-28.12"/>
<polygon fill="midnightblue" stroke="midnightblue" points="40.86,-25.81 32.14,-19.8 35.21,-29.94 40.86,-25.81"/>
</g>
<!-- Node7 -->
<g id="node7" class="node">
<title>Node7</title>
<g id="a_node7"><a xlink:title=" ">
<polygon fill="none" stroke="#bfbfbf" points="70,-0.5 70,-19.5 134,-19.5 134,-0.5 70,-0.5"/>
<text text-anchor="middle" x="102" y="-7.5" font-family="Helvetica,sans-Serif" font-size="10.00">glad/glad.h</text>
</a>
</g>
</g>
<!-- Node1&#45;&gt;Node7 -->
<g id="edge13" class="edge">
<title>Node1&#45;&gt;Node7</title>
<path fill="none" stroke="midnightblue" d="M225.78,-168.35C191,-151.67 137.79,-120.47 111,-76 102.64,-62.13 100.79,-43.61 100.8,-29.89"/>
<polygon fill="midnightblue" stroke="midnightblue" points="104.3,-29.81 101.14,-19.7 97.31,-29.58 104.3,-29.81"/>
</g>
<!-- Node8 -->
<g id="node8" class="node">
<title>Node8</title>
<g id="a_node8"><a xlink:title=" ">
<polygon fill="none" stroke="#bfbfbf" points="198,-56.5 198,-75.5 254,-75.5 254,-56.5 198,-56.5"/>
<text text-anchor="middle" x="226" y="-63.5" font-family="Helvetica,sans-Serif" font-size="10.00">ft2build.h</text>
</a>
</g>
</g>
<!-- Node1&#45;&gt;Node8 -->
<g id="edge12" class="edge">
<title>Node1&#45;&gt;Node8</title>
<path fill="none" stroke="midnightblue" d="M254.95,-168.34C249.01,-147.53 237.9,-108.66 231.31,-85.58"/>
<polygon fill="midnightblue" stroke="midnightblue" points="234.59,-84.32 228.48,-75.67 227.86,-86.25 234.59,-84.32"/>
</g>
<!-- Node9 -->
<g id="node9" class="node">
<title>Node9</title>
<g id="a_node9"><a xlink:title=" ">
<polygon fill="none" stroke="#bfbfbf" points="272,-56.5 272,-75.5 342,-75.5 342,-56.5 272,-56.5"/>
<text text-anchor="middle" x="307" y="-63.5" font-family="Helvetica,sans-Serif" font-size="10.00">glm/glm.hpp</text>
</a>
</g>
</g>
<!-- Node1&#45;&gt;Node9 -->
<g id="edge14" class="edge">
<title>Node1&#45;&gt;Node9</title>
<path fill="none" stroke="midnightblue" d="M261.49,-168.29C264.34,-153.73 269.72,-130.65 278,-112 282.38,-102.13 288.77,-91.94 294.43,-83.76"/>
<polygon fill="midnightblue" stroke="midnightblue" points="297.37,-85.67 300.37,-75.5 291.69,-81.58 297.37,-85.67"/>
</g>
<!-- Node10 -->
<g id="node10" class="node">
<title>Node10</title>
<g id="a_node10"><a xlink:title=" ">
<polygon fill="none" stroke="#bfbfbf" points="360.5,-56.5 360.5,-75.5 401.5,-75.5 401.5,-56.5 360.5,-56.5"/>
<text text-anchor="middle" x="381" y="-63.5" font-family="Helvetica,sans-Serif" font-size="10.00">utf8.h</text>
</a>
</g>
</g>
<!-- Node1&#45;&gt;Node10 -->
<g id="edge15" class="edge">
<title>Node1&#45;&gt;Node10</title>
<path fill="none" stroke="midnightblue" d="M290.33,-168.46C307.35,-159.72 327.93,-147.25 343,-132 356.32,-118.51 366.75,-99.45 373.28,-85.45"/>
<polygon fill="midnightblue" stroke="midnightblue" points="376.65,-86.47 377.5,-75.91 370.25,-83.64 376.65,-86.47"/>
</g>
<!-- Node11 -->
<g id="node11" class="node">
<title>Node11</title>
<g id="a_node11"><a xlink:title=" ">
<polygon fill="none" stroke="#bfbfbf" points="419.5,-56.5 419.5,-75.5 502.5,-75.5 502.5,-56.5 419.5,-56.5"/>
<text text-anchor="middle" x="461" y="-63.5" font-family="Helvetica,sans-Serif" font-size="10.00">unordered_map</text>
</a>
</g>
</g>
<!-- Node1&#45;&gt;Node11 -->
<g id="edge18" class="edge">
<title>Node1&#45;&gt;Node11</title>
<path fill="none" stroke="midnightblue" d="M291.65,-168.48C312.95,-158.97 341.12,-145.67 365,-132 392.45,-116.29 422.36,-95.38 441.38,-81.57"/>
<polygon fill="midnightblue" stroke="midnightblue" points="443.54,-84.32 449.54,-75.59 439.41,-78.68 443.54,-84.32"/>
</g>
<!-- Node12 -->
<g id="node12" class="node">
<title>Node12</title>
<g id="a_node12"><a xlink:title=" ">
<polygon fill="none" stroke="#bfbfbf" points="429,-112.5 429,-131.5 483,-131.5 483,-112.5 429,-112.5"/>
<text text-anchor="middle" x="456" y="-119.5" font-family="Helvetica,sans-Serif" font-size="10.00">iostream</text>
</a>
</g>
</g>
<!-- Node1&#45;&gt;Node12 -->
<g id="edge16" class="edge">
<title>Node1&#45;&gt;Node12</title>
<path fill="none" stroke="midnightblue" d="M305.69,-168.4C340.29,-157.95 386.81,-143.9 418.89,-134.21"/>
<polygon fill="midnightblue" stroke="midnightblue" points="420.2,-137.47 428.76,-131.23 418.18,-130.77 420.2,-137.47"/>
</g>
<!-- Node2&#45;&gt;Node3 -->
<g id="edge2" class="edge">
<title>Node2&#45;&gt;Node3</title>
<path fill="none" stroke="midnightblue" d="M287.24,-113.03C260.25,-103.98 215.94,-89.12 184.99,-78.74"/>
<polygon fill="midnightblue" stroke="midnightblue" points="186.04,-75.4 175.45,-75.54 183.82,-82.03 186.04,-75.4"/>
</g>
<!-- Node2&#45;&gt;Node8 -->
<g id="edge7" class="edge">
<title>Node2&#45;&gt;Node8</title>
<path fill="none" stroke="midnightblue" d="M297.34,-112.32C284.08,-103.9 263.73,-90.97 248.15,-81.07"/>
<polygon fill="midnightblue" stroke="midnightblue" points="249.94,-78.06 239.62,-75.65 246.19,-83.97 249.94,-78.06"/>
</g>
<!-- Node2&#45;&gt;Node9 -->
<g id="edge8" class="edge">
<title>Node2&#45;&gt;Node9</title>
<path fill="none" stroke="midnightblue" d="M310.34,-112.08C309.82,-105.01 309.06,-94.86 308.41,-85.99"/>
<polygon fill="midnightblue" stroke="midnightblue" points="311.88,-85.47 307.65,-75.75 304.9,-85.98 311.88,-85.47"/>
</g>
<!-- Node2&#45;&gt;Node10 -->
<g id="edge9" class="edge">
<title>Node2&#45;&gt;Node10</title>
<path fill="none" stroke="midnightblue" d="M322.25,-112.32C332.8,-104.18 348.8,-91.84 361.44,-82.09"/>
<polygon fill="midnightblue" stroke="midnightblue" points="363.77,-84.71 369.55,-75.83 359.49,-79.17 363.77,-84.71"/>
</g>
<!-- Node2&#45;&gt;Node11 -->
<g id="edge10" class="edge">
<title>Node2&#45;&gt;Node11</title>
<path fill="none" stroke="midnightblue" d="M334.77,-112.44C359.89,-103.4 399.71,-89.06 427.9,-78.92"/>
<polygon fill="midnightblue" stroke="midnightblue" points="429.12,-82.2 437.34,-75.52 426.75,-75.61 429.12,-82.2"/>
</g>
<!-- Node3&#45;&gt;Node4 -->
<g id="edge3" class="edge">
<title>Node3&#45;&gt;Node4</title>
<path fill="none" stroke="midnightblue" d="M130.35,-56.44C110.04,-47.6 78.1,-33.69 54.9,-23.59"/>
<polygon fill="midnightblue" stroke="midnightblue" points="56.12,-20.3 45.56,-19.52 53.33,-26.72 56.12,-20.3"/>
</g>
<!-- Node5 -->
<g id="node5" class="node">
<title>Node5</title>
<g id="a_node5"><a xlink:title=" ">
<polygon fill="none" stroke="#bfbfbf" points="152.5,-0.5 152.5,-19.5 193.5,-19.5 193.5,-0.5 152.5,-0.5"/>
<text text-anchor="middle" x="173" y="-7.5" font-family="Helvetica,sans-Serif" font-size="10.00">string</text>
</a>
</g>
</g>
<!-- Node3&#45;&gt;Node5 -->
<g id="edge4" class="edge">
<title>Node3&#45;&gt;Node5</title>
<path fill="none" stroke="midnightblue" d="M153.8,-56.08C156.91,-48.77 161.42,-38.18 165.29,-29.1"/>
<polygon fill="midnightblue" stroke="midnightblue" points="168.57,-30.32 169.27,-19.75 162.13,-27.58 168.57,-30.32"/>
</g>
<!-- Node6 -->
<g id="node6" class="node">
<title>Node6</title>
<g id="a_node6"><a xlink:title=" ">
<polygon fill="none" stroke="#bfbfbf" points="212,-0.5 212,-19.5 256,-19.5 256,-0.5 212,-0.5"/>
<text text-anchor="middle" x="234" y="-7.5" font-family="Helvetica,sans-Serif" font-size="10.00">vector</text>
</a>
</g>
</g>
<!-- Node3&#45;&gt;Node6 -->
<g id="edge5" class="edge">
<title>Node3&#45;&gt;Node6</title>
<path fill="none" stroke="midnightblue" d="M163.5,-56.32C176.6,-47.9 196.71,-34.97 212.11,-25.07"/>
<polygon fill="midnightblue" stroke="midnightblue" points="214.02,-28.01 220.54,-19.65 210.23,-22.12 214.02,-28.01"/>
</g>
<!-- Node3&#45;&gt;Node7 -->
<g id="edge6" class="edge">
<title>Node3&#45;&gt;Node7</title>
<path fill="none" stroke="midnightblue" d="M142.07,-56.08C135.15,-48.3 124.93,-36.8 116.55,-27.37"/>
<polygon fill="midnightblue" stroke="midnightblue" points="119.04,-24.9 109.78,-19.75 113.81,-29.55 119.04,-24.9"/>
</g>
</g>
</svg>
