<?xml version="1.0" encoding="UTF-8" standalone="no"?>
<!DOCTYPE svg PUBLIC "-//W3C//DTD SVG 1.1//EN"
 "http://www.w3.org/Graphics/SVG/1.1/DTD/svg11.dtd">
<!-- Generated by graphviz version 2.43.0 (0)
 -->
<!-- Title: yapre/src/systems/graphics/yfont.cpp Pages: 1 -->
<svg width="555pt" height="207pt"
 viewBox="0.00 0.00 554.50 207.00" xmlns="http://www.w3.org/2000/svg" xmlns:xlink="http://www.w3.org/1999/xlink">
<g id="graph0" class="graph" transform="scale(1 1) rotate(0) translate(4 203)">
<title>yapre/src/systems/graphics/yfont.cpp</title>
<!-- Node1 -->
<g id="node1" class="node">
<title>Node1</title>
<g id="a_node1"><a xlink:title=" ">
<polygon fill="#bfbfbf" stroke="black" points="206,-168.5 206,-198.5 356,-198.5 356,-168.5 206,-168.5"/>
<text text-anchor="start" x="214" y="-186.5" font-family="Helvetica,sans-Serif" font-size="10.00">yapre/src/systems/graphics</text>
<text text-anchor="middle" x="281" y="-175.5" font-family="Helvetica,sans-Serif" font-size="10.00">/yfont.cpp</text>
</a>
</g>
</g>
<!-- Node2 -->
<g id="node2" class="node">
<title>Node2</title>
<g id="a_node2"><a xlink:href="yfont_8h.html" target="_top" xlink:title=" ">
<polygon fill="none" stroke="black" points="309.5,-112.5 309.5,-131.5 360.5,-131.5 360.5,-112.5 309.5,-112.5"/>
<text text-anchor="middle" x="335" y="-119.5" font-family="Helvetica,sans-Serif" font-size="10.00">yfont.h</text>
</a>
</g>
</g>
<!-- Node1&#45;&gt;Node2 -->
<g id="edge1" class="edge">
<title>Node1&#45;&gt;Node2</title>
<path fill="none" stroke="midnightblue" d="M293.8,-168.4C301.72,-159.66 311.94,-148.41 320.21,-139.3"/>
<polygon fill="midnightblue" stroke="midnightblue" points="323.01,-141.42 327.14,-131.66 317.83,-136.71 323.01,-141.42"/>
</g>
<!-- Node3 -->
<g id="node3" class="node">
<title>Node3</title>
<g id="a_node3"><a xlink:href="ytexture_8h.html" target="_top" xlink:title=" ">
<polygon fill="none" stroke="black" points="128.5,-56.5 128.5,-75.5 195.5,-75.5 195.5,-56.5 128.5,-56.5"/>
<text text-anchor="middle" x="162" y="-63.5" font-family="Helvetica,sans-Serif" font-size="10.00">ytexture.h</text>
</a>
</g>
</g>
<!-- Node1&#45;&gt;Node3 -->
<g id="edge11" class="edge">
<title>Node1&#45;&gt;Node3</title>
<path fill="none" stroke="midnightblue" d="M266.41,-168.34C244.09,-146.68 201.62,-105.45 178.31,-82.83"/>
<polygon fill="midnightblue" stroke="midnightblue" points="180.55,-80.12 170.93,-75.67 175.67,-85.15 180.55,-80.12"/>
</g>
<!-- Node4 -->
<g id="node4" class="node">
<title>Node4</title>
<g id="a_node4"><a xlink:title=" ">
<polygon fill="none" stroke="#bfbfbf" points="0,-0.5 0,-19.5 58,-19.5 58,-0.5 0,-0.5"/>
<text text-anchor="middle" x="29" y="-7.5" font-family="Helvetica,sans-Serif" font-size="10.00">memory</text>
</a>
</g>
</g>
<!-- Node1&#45;&gt;Node4 -->
<g id="edge17" class="edge">
<title>Node1&#45;&gt;Node4</title>
<path fill="none" stroke="midnightblue" d="M227.89,-168.4C202.2,-160.14 171.66,-148.12 147,-132 101.97,-102.55 60.9,-53.2 41.23,-27.58"/>
<polygon fill="midnightblue" stroke="midnightblue" points="44.01,-25.45 35.19,-19.57 38.42,-29.66 44.01,-25.45"/>
</g>
<!-- Node7 -->
<g id="node7" class="node">
<title>Node7</title>
<g id="a_node7"><a xlink:title=" ">
<polygon fill="none" stroke="#bfbfbf" points="76.5,-0.5 76.5,-19.5 147.5,-19.5 147.5,-0.5 76.5,-0.5"/>
<text text-anchor="middle" x="112" y="-7.5" font-family="Helvetica,sans-Serif" font-size="10.00">glad/glad.h</text>
</a>
</g>
</g>
<!-- Node1&#45;&gt;Node7 -->
<g id="edge13" class="edge">
<title>Node1&#45;&gt;Node7</title>
<path fill="none" stroke="midnightblue" d="M242.3,-168.49C204.04,-152.45 147.24,-122.25 119,-76 110.59,-62.23 109.36,-43.7 109.93,-29.95"/>
<polygon fill="midnightblue" stroke="midnightblue" points="113.44,-29.97 110.72,-19.73 106.46,-29.44 113.44,-29.97"/>
</g>
<!-- Node8 -->
<g id="node8" class="node">
<title>Node8</title>
<g id="a_node8"><a xlink:title=" ">
<polygon fill="none" stroke="#bfbfbf" points="214,-56.5 214,-75.5 276,-75.5 276,-56.5 214,-56.5"/>
<text text-anchor="middle" x="245" y="-63.5" font-family="Helvetica,sans-Serif" font-size="10.00">ft2build.h</text>
</a>
</g>
</g>
<!-- Node1&#45;&gt;Node8 -->
<g id="edge12" class="edge">
<title>Node1&#45;&gt;Node8</title>
<path fill="none" stroke="midnightblue" d="M276.59,-168.34C270.07,-147.43 257.88,-108.31 250.69,-85.27"/>
<polygon fill="midnightblue" stroke="midnightblue" points="254.02,-84.17 247.7,-75.67 247.34,-86.26 254.02,-84.17"/>
</g>
<!-- Node9 -->
<g id="node9" class="node">
<title>Node9</title>
<g id="a_node9"><a xlink:title=" ">
<polygon fill="none" stroke="#bfbfbf" points="294,-56.5 294,-75.5 372,-75.5 372,-56.5 294,-56.5"/>
<text text-anchor="middle" x="333" y="-63.5" font-family="Helvetica,sans-Serif" font-size="10.00">glm/glm.hpp</text>
</a>
</g>
</g>
<!-- Node1&#45;&gt;Node9 -->
<g id="edge14" class="edge">
<title>Node1&#45;&gt;Node9</title>
<path fill="none" stroke="midnightblue" d="M283.21,-168.45C285.86,-153.82 291.1,-130.51 300,-112 304.87,-101.87 312.1,-91.68 318.56,-83.56"/>
<polygon fill="midnightblue" stroke="midnightblue" points="321.42,-85.6 325.11,-75.67 316.03,-81.13 321.42,-85.6"/>
</g>
<!-- Node10 -->
<g id="node10" class="node">
<title>Node10</title>
<g id="a_node10"><a xlink:title=" ">
<polygon fill="none" stroke="#bfbfbf" points="390.5,-56.5 390.5,-75.5 435.5,-75.5 435.5,-56.5 390.5,-56.5"/>
<text text-anchor="middle" x="413" y="-63.5" font-family="Helvetica,sans-Serif" font-size="10.00">utf8.h</text>
</a>
</g>
</g>
<!-- Node1&#45;&gt;Node10 -->
<g id="edge15" class="edge">
<title>Node1&#45;&gt;Node10</title>
<path fill="none" stroke="midnightblue" d="M313.45,-168.34C331.16,-159.57 352.74,-147.1 369,-132 383.62,-118.42 395.92,-99.11 403.76,-85.06"/>
<polygon fill="midnightblue" stroke="midnightblue" points="407.02,-86.39 408.65,-75.92 400.85,-83.09 407.02,-86.39"/>
</g>
<!-- Node11 -->
<g id="node11" class="node">
<title>Node11</title>
<g id="a_node11"><a xlink:title=" ">
<polygon fill="none" stroke="#bfbfbf" points="453.5,-56.5 453.5,-75.5 546.5,-75.5 546.5,-56.5 453.5,-56.5"/>
<text text-anchor="middle" x="500" y="-63.5" font-family="Helvetica,sans-Serif" font-size="10.00">unordered_map</text>
</a>
</g>
</g>
<!-- Node1&#45;&gt;Node11 -->
<g id="edge18" class="edge">
<title>Node1&#45;&gt;Node11</title>
<path fill="none" stroke="midnightblue" d="M314.51,-168.45C336.78,-158.82 366.52,-145.41 392,-132 422.7,-115.84 456.8,-94.77 478.31,-81.06"/>
<polygon fill="midnightblue" stroke="midnightblue" points="480.45,-83.85 486.98,-75.5 476.67,-77.96 480.45,-83.85"/>
</g>
<!-- Node12 -->
<g id="node12" class="node">
<title>Node12</title>
<g id="a_node12"><a xlink:title=" ">
<polygon fill="none" stroke="#bfbfbf" points="455,-112.5 455,-131.5 515,-131.5 515,-112.5 455,-112.5"/>
<text text-anchor="middle" x="485" y="-119.5" font-family="Helvetica,sans-Serif" font-size="10.00">iostream</text>
</a>
</g>
</g>
<!-- Node1&#45;&gt;Node12 -->
<g id="edge16" class="edge">
<title>Node1&#45;&gt;Node12</title>
<path fill="none" stroke="midnightblue" d="M329.09,-168.47C364.74,-158.08 412.73,-144.08 446.01,-134.37"/>
<polygon fill="midnightblue" stroke="midnightblue" points="447.22,-137.67 455.84,-131.51 445.26,-130.95 447.22,-137.67"/>
</g>
<!-- Node2&#45;&gt;Node3 -->
<g id="edge2" class="edge">
<title>Node2&#45;&gt;Node3</title>
<path fill="none" stroke="midnightblue" d="M309.47,-113.03C280.34,-103.94 232.44,-88.99 199.17,-78.6"/>
<polygon fill="midnightblue" stroke="midnightblue" points="199.94,-75.17 189.35,-75.54 197.85,-81.86 199.94,-75.17"/>
</g>
<!-- Node2&#45;&gt;Node8 -->
<g id="edge7" class="edge">
<title>Node2&#45;&gt;Node8</title>
<path fill="none" stroke="midnightblue" d="M320.54,-112.32C306.5,-103.9 284.95,-90.97 268.46,-81.07"/>
<polygon fill="midnightblue" stroke="midnightblue" points="269.8,-77.8 259.42,-75.65 266.2,-83.8 269.8,-77.8"/>
</g>
<!-- Node2&#45;&gt;Node9 -->
<g id="edge8" class="edge">
<title>Node2&#45;&gt;Node9</title>
<path fill="none" stroke="midnightblue" d="M334.67,-112.08C334.41,-105.01 334.03,-94.86 333.7,-85.99"/>
<polygon fill="midnightblue" stroke="midnightblue" points="337.19,-85.61 333.32,-75.75 330.2,-85.87 337.19,-85.61"/>
</g>
<!-- Node2&#45;&gt;Node10 -->
<g id="edge9" class="edge">
<title>Node2&#45;&gt;Node10</title>
<path fill="none" stroke="midnightblue" d="M347.53,-112.32C359.59,-103.98 378.03,-91.21 392.27,-81.35"/>
<polygon fill="midnightblue" stroke="midnightblue" points="394.27,-84.22 400.5,-75.65 390.28,-78.47 394.27,-84.22"/>
</g>
<!-- Node2&#45;&gt;Node11 -->
<g id="edge10" class="edge">
<title>Node2&#45;&gt;Node11</title>
<path fill="none" stroke="midnightblue" d="M360.78,-112.56C388.59,-103.46 433.06,-88.91 464.24,-78.7"/>
<polygon fill="midnightblue" stroke="midnightblue" points="465.44,-81.99 473.86,-75.56 463.26,-75.34 465.44,-81.99"/>
</g>
<!-- Node3&#45;&gt;Node4 -->
<g id="edge3" class="edge">
<title>Node3&#45;&gt;Node4</title>
<path fill="none" stroke="midnightblue" d="M140.93,-56.44C118.94,-47.52 84.27,-33.44 59.34,-23.32"/>
<polygon fill="midnightblue" stroke="midnightblue" points="60.56,-20.04 49.98,-19.52 57.92,-26.52 60.56,-20.04"/>
</g>
<!-- Node5 -->
<g id="node5" class="node">
<title>Node5</title>
<g id="a_node5"><a xlink:title=" ">
<polygon fill="none" stroke="#bfbfbf" points="166,-0.5 166,-19.5 210,-19.5 210,-0.5 166,-0.5"/>
<text text-anchor="middle" x="188" y="-7.5" font-family="Helvetica,sans-Serif" font-size="10.00">string</text>
</a>
</g>
</g>
<!-- Node3&#45;&gt;Node5 -->
<g id="edge4" class="edge">
<title>Node3&#45;&gt;Node5</title>
<path fill="none" stroke="midnightblue" d="M166.29,-56.08C169.85,-48.69 175.02,-37.95 179.42,-28.81"/>
<polygon fill="midnightblue" stroke="midnightblue" points="182.6,-30.28 183.79,-19.75 176.29,-27.24 182.6,-30.28"/>
</g>
<!-- Node6 -->
<g id="node6" class="node">
<title>Node6</title>
<g id="a_node6"><a xlink:title=" ">
<polygon fill="none" stroke="#bfbfbf" points="228.5,-0.5 228.5,-19.5 275.5,-19.5 275.5,-0.5 228.5,-0.5"/>
<text text-anchor="middle" x="252" y="-7.5" font-family="Helvetica,sans-Serif" font-size="10.00">vector</text>
</a>
</g>
</g>
<!-- Node3&#45;&gt;Node6 -->
<g id="edge5" class="edge">
<title>Node3&#45;&gt;Node6</title>
<path fill="none" stroke="midnightblue" d="M176.46,-56.32C190.5,-47.9 212.05,-34.97 228.54,-25.07"/>
<polygon fill="midnightblue" stroke="midnightblue" points="230.8,-27.8 237.58,-19.65 227.2,-21.8 230.8,-27.8"/>
</g>
<!-- Node3&#45;&gt;Node7 -->
<g id="edge6" class="edge">
<title>Node3&#45;&gt;Node7</title>
<path fill="none" stroke="midnightblue" d="M153.74,-56.08C146.54,-48.3 135.89,-36.8 127.15,-27.37"/>
<polygon fill="midnightblue" stroke="midnightblue" points="129.47,-24.71 120.1,-19.75 124.33,-29.47 129.47,-24.71"/>
</g>
</g>
</svg>
