<?xml version="1.0" encoding="UTF-8" standalone="no"?>
<!DOCTYPE svg PUBLIC "-//W3C//DTD SVG 1.1//EN"
 "http://www.w3.org/Graphics/SVG/1.1/DTD/svg11.dtd">
<!-- Generated by graphviz version 2.43.0 (0)
 -->
<!-- Title: yapre/src/systems/yinput.cpp Pages: 1 -->
<svg width="1058pt" height="196pt"
 viewBox="0.00 0.00 1057.50 196.00" xmlns="http://www.w3.org/2000/svg" xmlns:xlink="http://www.w3.org/1999/xlink">
<g id="graph0" class="graph" transform="scale(1 1) rotate(0) translate(4 192)">
<title>yapre/src/systems/yinput.cpp</title>
<!-- Node1 -->
<g id="node1" class="node">
<title>Node1</title>
<g id="a_node1"><a xlink:title=" ">
<polygon fill="#bfbfbf" stroke="black" points="536.5,-168.5 536.5,-187.5 696.5,-187.5 696.5,-168.5 536.5,-168.5"/>
<text text-anchor="middle" x="616.5" y="-175.5" font-family="Helvetica,sans-Serif" font-size="10.00">yapre/src/systems/yinput.cpp</text>
</a>
</g>
</g>
<!-- Node2 -->
<g id="node2" class="node">
<title>Node2</title>
<g id="a_node2"><a xlink:href="ycore_8h.html" target="_top" xlink:title=" ">
<polygon fill="none" stroke="black" points="0,-112.5 0,-131.5 53,-131.5 53,-112.5 0,-112.5"/>
<text text-anchor="middle" x="26.5" y="-119.5" font-family="Helvetica,sans-Serif" font-size="10.00">ycore.h</text>
</a>
</g>
</g>
<!-- Node1&#45;&gt;Node2 -->
<g id="edge1" class="edge">
<title>Node1&#45;&gt;Node2</title>
<path fill="none" stroke="midnightblue" d="M536.49,-172.82C430.67,-166.72 238.53,-153.7 75.5,-132 71.51,-131.47 67.36,-130.84 63.23,-130.15"/>
<polygon fill="midnightblue" stroke="midnightblue" points="63.58,-126.66 53.13,-128.38 62.37,-133.55 63.58,-126.66"/>
</g>
<!-- Node4 -->
<g id="node4" class="node">
<title>Node4</title>
<g id="a_node4"><a xlink:href="yinput_8h.html" target="_top" xlink:title=" ">
<polygon fill="none" stroke="black" points="84.5,-112.5 84.5,-131.5 140.5,-131.5 140.5,-112.5 84.5,-112.5"/>
<text text-anchor="middle" x="112.5" y="-119.5" font-family="Helvetica,sans-Serif" font-size="10.00">yinput.h</text>
</a>
</g>
</g>
<!-- Node1&#45;&gt;Node4 -->
<g id="edge3" class="edge">
<title>Node1&#45;&gt;Node4</title>
<path fill="none" stroke="midnightblue" d="M536.92,-168.47C426.9,-156.69 232.65,-135.87 150.69,-127.09"/>
<polygon fill="midnightblue" stroke="midnightblue" points="150.89,-123.59 140.57,-126.01 150.14,-130.55 150.89,-123.59"/>
</g>
<!-- Node6 -->
<g id="node6" class="node">
<title>Node6</title>
<g id="a_node6"><a xlink:href="yluabind_8hpp.html" target="_top" xlink:title=" ">
<polygon fill="none" stroke="black" points="434.5,-112.5 434.5,-131.5 514.5,-131.5 514.5,-112.5 434.5,-112.5"/>
<text text-anchor="middle" x="474.5" y="-119.5" font-family="Helvetica,sans-Serif" font-size="10.00">yluabind.hpp</text>
</a>
</g>
</g>
<!-- Node1&#45;&gt;Node6 -->
<g id="edge6" class="edge">
<title>Node1&#45;&gt;Node6</title>
<path fill="none" stroke="midnightblue" d="M594,-168.44C570.42,-159.48 533.18,-145.31 506.54,-135.18"/>
<polygon fill="midnightblue" stroke="midnightblue" points="507.49,-131.8 496.9,-131.52 505,-138.34 507.49,-131.8"/>
</g>
<!-- Node13 -->
<g id="node13" class="node">
<title>Node13</title>
<g id="a_node13"><a xlink:title=" ">
<polygon fill="none" stroke="#bfbfbf" points="677,-56.5 677,-75.5 770,-75.5 770,-56.5 677,-56.5"/>
<text text-anchor="middle" x="723.5" y="-63.5" font-family="Helvetica,sans-Serif" font-size="10.00">unordered_map</text>
</a>
</g>
</g>
<!-- Node1&#45;&gt;Node13 -->
<g id="edge28" class="edge">
<title>Node1&#45;&gt;Node13</title>
<path fill="none" stroke="midnightblue" d="M624.9,-168.37C642.79,-149.97 684.91,-106.67 707.89,-83.05"/>
<polygon fill="midnightblue" stroke="midnightblue" points="710.68,-85.2 715.14,-75.59 705.66,-80.32 710.68,-85.2"/>
</g>
<!-- Node16 -->
<g id="node16" class="node">
<title>Node16</title>
<g id="a_node16"><a xlink:href="yrenderer_8h.html" target="_top" xlink:title=" ">
<polygon fill="none" stroke="black" points="796.5,-112.5 796.5,-131.5 868.5,-131.5 868.5,-112.5 796.5,-112.5"/>
<text text-anchor="middle" x="832.5" y="-119.5" font-family="Helvetica,sans-Serif" font-size="10.00">yrenderer.h</text>
</a>
</g>
</g>
<!-- Node1&#45;&gt;Node16 -->
<g id="edge18" class="edge">
<title>Node1&#45;&gt;Node16</title>
<path fill="none" stroke="midnightblue" d="M650.73,-168.44C688.01,-159.12 747.77,-144.18 788.51,-134"/>
<polygon fill="midnightblue" stroke="midnightblue" points="789.58,-137.34 798.43,-131.52 787.88,-130.55 789.58,-137.34"/>
</g>
<!-- Node21 -->
<g id="node21" class="node">
<title>Node21</title>
<g id="a_node21"><a xlink:title=" ">
<polygon fill="none" stroke="#bfbfbf" points="886.5,-112.5 886.5,-131.5 930.5,-131.5 930.5,-112.5 886.5,-112.5"/>
<text text-anchor="middle" x="908.5" y="-119.5" font-family="Helvetica,sans-Serif" font-size="10.00">SDL.h</text>
</a>
</g>
</g>
<!-- Node1&#45;&gt;Node21 -->
<g id="edge27" class="edge">
<title>Node1&#45;&gt;Node21</title>
<path fill="none" stroke="midnightblue" d="M677.27,-168.49C728.13,-160.92 802.76,-148.78 876.33,-132.07"/>
<polygon fill="midnightblue" stroke="midnightblue" points="877.27,-135.44 886.23,-129.79 875.7,-128.62 877.27,-135.44"/>
</g>
<!-- Node3 -->
<g id="node3" class="node">
<title>Node3</title>
<g id="a_node3"><a xlink:title=" ">
<polygon fill="none" stroke="#bfbfbf" points="151.5,-0.5 151.5,-19.5 195.5,-19.5 195.5,-0.5 151.5,-0.5"/>
<text text-anchor="middle" x="173.5" y="-7.5" font-family="Helvetica,sans-Serif" font-size="10.00">string</text>
</a>
</g>
</g>
<!-- Node2&#45;&gt;Node3 -->
<g id="edge2" class="edge">
<title>Node2&#45;&gt;Node3</title>
<path fill="none" stroke="midnightblue" d="M29.37,-112.21C34.29,-98.45 45.55,-71.77 63.5,-56 85.78,-36.43 117.72,-24.65 141.44,-18.08"/>
<polygon fill="midnightblue" stroke="midnightblue" points="142.58,-21.4 151.38,-15.5 140.82,-14.63 142.58,-21.4"/>
</g>
<!-- Node4&#45;&gt;Node3 -->
<g id="edge5" class="edge">
<title>Node4&#45;&gt;Node3</title>
<path fill="none" stroke="midnightblue" d="M99.81,-112.36C83.11,-99.88 57.33,-76.12 70.5,-56 86.04,-32.25 117.18,-20.96 141.17,-15.64"/>
<polygon fill="midnightblue" stroke="midnightblue" points="142.14,-19.01 151.28,-13.65 140.79,-12.15 142.14,-19.01"/>
</g>
<!-- Node5 -->
<g id="node5" class="node">
<title>Node5</title>
<g id="a_node5"><a xlink:title=" ">
<polygon fill="none" stroke="#bfbfbf" points="80,-56.5 80,-75.5 145,-75.5 145,-56.5 80,-56.5"/>
<text text-anchor="middle" x="112.5" y="-63.5" font-family="Helvetica,sans-Serif" font-size="10.00">functional</text>
</a>
</g>
</g>
<!-- Node4&#45;&gt;Node5 -->
<g id="edge4" class="edge">
<title>Node4&#45;&gt;Node5</title>
<path fill="none" stroke="midnightblue" d="M112.5,-112.08C112.5,-105.01 112.5,-94.86 112.5,-85.99"/>
<polygon fill="midnightblue" stroke="midnightblue" points="116,-85.75 112.5,-75.75 109,-85.75 116,-85.75"/>
</g>
<!-- Node6&#45;&gt;Node3 -->
<g id="edge12" class="edge">
<title>Node6&#45;&gt;Node3</title>
<path fill="none" stroke="midnightblue" d="M434.43,-119.75C365.33,-116.79 227.74,-107.06 192.5,-76 179.43,-64.48 175.12,-44.51 173.82,-29.74"/>
<polygon fill="midnightblue" stroke="midnightblue" points="177.31,-29.49 173.3,-19.68 170.32,-29.84 177.31,-29.49"/>
</g>
<!-- Node6&#45;&gt;Node5 -->
<g id="edge10" class="edge">
<title>Node6&#45;&gt;Node5</title>
<path fill="none" stroke="midnightblue" d="M434.13,-115.85C374.11,-108.06 257.85,-92.43 159.5,-76 158.04,-75.76 156.56,-75.5 155.06,-75.24"/>
<polygon fill="midnightblue" stroke="midnightblue" points="155.54,-71.77 145.08,-73.45 154.3,-78.66 155.54,-71.77"/>
</g>
<!-- Node7 -->
<g id="node7" class="node">
<title>Node7</title>
<g id="a_node7"><a xlink:title=" ">
<polygon fill="none" stroke="#bfbfbf" points="202,-56.5 202,-75.5 261,-75.5 261,-56.5 202,-56.5"/>
<text text-anchor="middle" x="231.5" y="-63.5" font-family="Helvetica,sans-Serif" font-size="10.00">lauxlib.h</text>
</a>
</g>
</g>
<!-- Node6&#45;&gt;Node7 -->
<g id="edge7" class="edge">
<title>Node6&#45;&gt;Node7</title>
<path fill="none" stroke="midnightblue" d="M434.77,-112.48C395.54,-104.03 333.57,-90.55 271.35,-76.4"/>
<polygon fill="midnightblue" stroke="midnightblue" points="271.89,-72.93 261.36,-74.12 270.33,-79.76 271.89,-72.93"/>
</g>
<!-- Node8 -->
<g id="node8" class="node">
<title>Node8</title>
<g id="a_node8"><a xlink:title=" ">
<polygon fill="none" stroke="#bfbfbf" points="279,-56.5 279,-75.5 320,-75.5 320,-56.5 279,-56.5"/>
<text text-anchor="middle" x="299.5" y="-63.5" font-family="Helvetica,sans-Serif" font-size="10.00">lua.h</text>
</a>
</g>
</g>
<!-- Node6&#45;&gt;Node8 -->
<g id="edge8" class="edge">
<title>Node6&#45;&gt;Node8</title>
<path fill="none" stroke="midnightblue" d="M446.78,-112.47C419.3,-104.02 375.75,-90.61 329.65,-76.35"/>
<polygon fill="midnightblue" stroke="midnightblue" points="330.68,-73.01 320.09,-73.4 328.61,-79.69 330.68,-73.01"/>
</g>
<!-- Node9 -->
<g id="node9" class="node">
<title>Node9</title>
<g id="a_node9"><a xlink:title=" ">
<polygon fill="none" stroke="#bfbfbf" points="338,-56.5 338,-75.5 391,-75.5 391,-56.5 338,-56.5"/>
<text text-anchor="middle" x="364.5" y="-63.5" font-family="Helvetica,sans-Serif" font-size="10.00">lualib.h</text>
</a>
</g>
</g>
<!-- Node6&#45;&gt;Node9 -->
<g id="edge9" class="edge">
<title>Node6&#45;&gt;Node9</title>
<path fill="none" stroke="midnightblue" d="M456.83,-112.32C439.11,-103.62 411.6,-90.12 391.21,-80.11"/>
<polygon fill="midnightblue" stroke="midnightblue" points="392.65,-76.92 382.13,-75.65 389.56,-83.2 392.65,-76.92"/>
</g>
<!-- Node10 -->
<g id="node10" class="node">
<title>Node10</title>
<g id="a_node10"><a xlink:title=" ">
<polygon fill="none" stroke="#bfbfbf" points="409.5,-56.5 409.5,-75.5 469.5,-75.5 469.5,-56.5 409.5,-56.5"/>
<text text-anchor="middle" x="439.5" y="-63.5" font-family="Helvetica,sans-Serif" font-size="10.00">iostream</text>
</a>
</g>
</g>
<!-- Node6&#45;&gt;Node10 -->
<g id="edge11" class="edge">
<title>Node6&#45;&gt;Node10</title>
<path fill="none" stroke="midnightblue" d="M468.72,-112.08C463.83,-104.53 456.67,-93.49 450.67,-84.23"/>
<polygon fill="midnightblue" stroke="midnightblue" points="453.55,-82.24 445.17,-75.75 447.67,-86.05 453.55,-82.24"/>
</g>
<!-- Node11 -->
<g id="node11" class="node">
<title>Node11</title>
<g id="a_node11"><a xlink:title=" ">
<polygon fill="none" stroke="#bfbfbf" points="788,-56.5 788,-75.5 829,-75.5 829,-56.5 788,-56.5"/>
<text text-anchor="middle" x="808.5" y="-63.5" font-family="Helvetica,sans-Serif" font-size="10.00">tuple</text>
</a>
</g>
</g>
<!-- Node6&#45;&gt;Node11 -->
<g id="edge13" class="edge">
<title>Node6&#45;&gt;Node11</title>
<path fill="none" stroke="midnightblue" d="M514.83,-117.06C571.67,-111.06 678.64,-98.18 777.82,-76.11"/>
<polygon fill="midnightblue" stroke="midnightblue" points="778.71,-79.5 787.7,-73.88 777.17,-72.67 778.71,-79.5"/>
</g>
<!-- Node12 -->
<g id="node12" class="node">
<title>Node12</title>
<g id="a_node12"><a xlink:title=" ">
<polygon fill="none" stroke="#bfbfbf" points="488,-56.5 488,-75.5 557,-75.5 557,-56.5 488,-56.5"/>
<text text-anchor="middle" x="522.5" y="-63.5" font-family="Helvetica,sans-Serif" font-size="10.00">type_traits</text>
</a>
</g>
</g>
<!-- Node6&#45;&gt;Node12 -->
<g id="edge14" class="edge">
<title>Node6&#45;&gt;Node12</title>
<path fill="none" stroke="midnightblue" d="M482.43,-112.08C489.35,-104.3 499.57,-92.8 507.95,-83.37"/>
<polygon fill="midnightblue" stroke="midnightblue" points="510.69,-85.55 514.72,-75.75 505.46,-80.9 510.69,-85.55"/>
</g>
<!-- Node6&#45;&gt;Node13 -->
<g id="edge15" class="edge">
<title>Node6&#45;&gt;Node13</title>
<path fill="none" stroke="midnightblue" d="M513.95,-112.44C557.39,-103.02 627.29,-87.87 674.28,-77.68"/>
<polygon fill="midnightblue" stroke="midnightblue" points="675.2,-81.06 684.23,-75.52 673.72,-74.22 675.2,-81.06"/>
</g>
<!-- Node14 -->
<g id="node14" class="node">
<title>Node14</title>
<g id="a_node14"><a xlink:title=" ">
<polygon fill="none" stroke="#bfbfbf" points="575,-56.5 575,-75.5 620,-75.5 620,-56.5 575,-56.5"/>
<text text-anchor="middle" x="597.5" y="-63.5" font-family="Helvetica,sans-Serif" font-size="10.00">utility</text>
</a>
</g>
</g>
<!-- Node6&#45;&gt;Node14 -->
<g id="edge16" class="edge">
<title>Node6&#45;&gt;Node14</title>
<path fill="none" stroke="midnightblue" d="M493.99,-112.44C514.14,-103.6 545.82,-89.69 568.83,-79.59"/>
<polygon fill="midnightblue" stroke="midnightblue" points="570.35,-82.74 578.1,-75.52 567.54,-76.33 570.35,-82.74"/>
</g>
<!-- Node15 -->
<g id="node15" class="node">
<title>Node15</title>
<g id="a_node15"><a xlink:title=" ">
<polygon fill="none" stroke="#bfbfbf" points="683,-0.5 683,-19.5 730,-19.5 730,-0.5 683,-0.5"/>
<text text-anchor="middle" x="706.5" y="-7.5" font-family="Helvetica,sans-Serif" font-size="10.00">vector</text>
</a>
</g>
</g>
<!-- Node6&#45;&gt;Node15 -->
<g id="edge17" class="edge">
<title>Node6&#45;&gt;Node15</title>
<path fill="none" stroke="midnightblue" d="M514.79,-114.12C547.16,-107.48 593.07,-95.52 629.5,-76 653.44,-63.17 676.66,-42 691.23,-27.32"/>
<polygon fill="midnightblue" stroke="midnightblue" points="693.95,-29.55 698.39,-19.93 688.92,-24.68 693.95,-29.55"/>
</g>
<!-- Node16&#45;&gt;Node3 -->
<g id="edge25" class="edge">
<title>Node16&#45;&gt;Node3</title>
<path fill="none" stroke="midnightblue" d="M837.04,-112.08C843.41,-98.15 852.74,-71.23 838.5,-56 794.98,-9.43 333.78,-9.69 206.1,-10.67"/>
<polygon fill="midnightblue" stroke="midnightblue" points="205.78,-7.17 195.81,-10.75 205.84,-14.17 205.78,-7.17"/>
</g>
<!-- Node16&#45;&gt;Node11 -->
<g id="edge26" class="edge">
<title>Node16&#45;&gt;Node11</title>
<path fill="none" stroke="midnightblue" d="M828.54,-112.08C825.29,-104.77 820.58,-94.18 816.55,-85.1"/>
<polygon fill="midnightblue" stroke="midnightblue" points="819.65,-83.47 812.39,-75.75 813.25,-86.31 819.65,-83.47"/>
</g>
<!-- Node17 -->
<g id="node17" class="node">
<title>Node17</title>
<g id="a_node17"><a xlink:title=" ">
<polygon fill="none" stroke="#bfbfbf" points="971.5,-56.5 971.5,-75.5 1049.5,-75.5 1049.5,-56.5 971.5,-56.5"/>
<text text-anchor="middle" x="1010.5" y="-63.5" font-family="Helvetica,sans-Serif" font-size="10.00">glm/glm.hpp</text>
</a>
</g>
</g>
<!-- Node16&#45;&gt;Node17 -->
<g id="edge19" class="edge">
<title>Node16&#45;&gt;Node17</title>
<path fill="none" stroke="midnightblue" d="M860.7,-112.44C890.91,-103.28 939.01,-88.69 972.53,-78.52"/>
<polygon fill="midnightblue" stroke="midnightblue" points="973.87,-81.77 982.43,-75.52 971.84,-75.07 973.87,-81.77"/>
</g>
<!-- Node18 -->
<g id="node18" class="node">
<title>Node18</title>
<g id="a_node18"><a xlink:href="ytexture_8h.html" target="_top" xlink:title=" ">
<polygon fill="none" stroke="black" points="886,-56.5 886,-75.5 953,-75.5 953,-56.5 886,-56.5"/>
<text text-anchor="middle" x="919.5" y="-63.5" font-family="Helvetica,sans-Serif" font-size="10.00">ytexture.h</text>
</a>
</g>
</g>
<!-- Node16&#45;&gt;Node18 -->
<g id="edge20" class="edge">
<title>Node16&#45;&gt;Node18</title>
<path fill="none" stroke="midnightblue" d="M846.48,-112.32C860.05,-103.9 880.88,-90.97 896.82,-81.07"/>
<polygon fill="midnightblue" stroke="midnightblue" points="898.91,-83.9 905.56,-75.65 895.21,-77.95 898.91,-83.9"/>
</g>
<!-- Node18&#45;&gt;Node3 -->
<g id="edge22" class="edge">
<title>Node18&#45;&gt;Node3</title>
<path fill="none" stroke="midnightblue" d="M885.75,-58.14C880.98,-57.33 876.13,-56.58 871.5,-56 616.04,-23.94 304.94,-14.12 205.6,-11.69"/>
<polygon fill="midnightblue" stroke="midnightblue" points="205.68,-8.19 195.6,-11.45 205.51,-15.19 205.68,-8.19"/>
</g>
<!-- Node18&#45;&gt;Node15 -->
<g id="edge23" class="edge">
<title>Node18&#45;&gt;Node15</title>
<path fill="none" stroke="midnightblue" d="M885.75,-56.44C845.82,-46.32 779.76,-29.57 739.96,-19.48"/>
<polygon fill="midnightblue" stroke="midnightblue" points="740.75,-16.07 730.2,-17.01 739.03,-22.86 740.75,-16.07"/>
</g>
<!-- Node19 -->
<g id="node19" class="node">
<title>Node19</title>
<g id="a_node19"><a xlink:title=" ">
<polygon fill="none" stroke="#bfbfbf" points="848.5,-0.5 848.5,-19.5 906.5,-19.5 906.5,-0.5 848.5,-0.5"/>
<text text-anchor="middle" x="877.5" y="-7.5" font-family="Helvetica,sans-Serif" font-size="10.00">memory</text>
</a>
</g>
</g>
<!-- Node18&#45;&gt;Node19 -->
<g id="edge21" class="edge">
<title>Node18&#45;&gt;Node19</title>
<path fill="none" stroke="midnightblue" d="M912.56,-56.08C906.57,-48.38 897.75,-37.03 890.45,-27.65"/>
<polygon fill="midnightblue" stroke="midnightblue" points="893.21,-25.5 884.31,-19.75 887.68,-29.79 893.21,-25.5"/>
</g>
<!-- Node20 -->
<g id="node20" class="node">
<title>Node20</title>
<g id="a_node20"><a xlink:title=" ">
<polygon fill="none" stroke="#bfbfbf" points="925,-0.5 925,-19.5 996,-19.5 996,-0.5 925,-0.5"/>
<text text-anchor="middle" x="960.5" y="-7.5" font-family="Helvetica,sans-Serif" font-size="10.00">glad/glad.h</text>
</a>
</g>
</g>
<!-- Node18&#45;&gt;Node20 -->
<g id="edge24" class="edge">
<title>Node18&#45;&gt;Node20</title>
<path fill="none" stroke="midnightblue" d="M926.27,-56.08C932.06,-48.46 940.56,-37.26 947.64,-27.94"/>
<polygon fill="midnightblue" stroke="midnightblue" points="950.6,-29.83 953.86,-19.75 945.02,-25.6 950.6,-29.83"/>
</g>
</g>
</svg>
