<?xml version="1.0" encoding="UTF-8" standalone="no"?>
<!DOCTYPE svg PUBLIC "-//W3C//DTD SVG 1.1//EN"
 "http://www.w3.org/Graphics/SVG/1.1/DTD/svg11.dtd">
<!-- Generated by graphviz version 5.0.0 (20220707.1540)
 -->
<!-- Title: yapre/src/systems/yinput.cpp Pages: 1 -->
<svg width="987pt" height="196pt"
 viewBox="0.00 0.00 986.50 196.00" xmlns="http://www.w3.org/2000/svg" xmlns:xlink="http://www.w3.org/1999/xlink">
<g id="graph0" class="graph" transform="scale(1 1) rotate(0) translate(4 192)">
<title>yapre/src/systems/yinput.cpp</title>
<!-- Node1 -->
<g id="node1" class="node">
<title>Node1</title>
<g id="a_node1"><a xlink:title=" ">
<polygon fill="#bfbfbf" stroke="black" points="504.5,-168.5 504.5,-187.5 650.5,-187.5 650.5,-168.5 504.5,-168.5"/>
<text text-anchor="middle" x="577.5" y="-175.5" font-family="Helvetica,sans-Serif" font-size="10.00">yapre/src/systems/yinput.cpp</text>
</a>
</g>
</g>
<!-- Node2 -->
<g id="node2" class="node">
<title>Node2</title>
<g id="a_node2"><a xlink:href="ycore_8h.html" target="_top" xlink:title=" ">
<polygon fill="none" stroke="black" points="0,-112.5 0,-131.5 49,-131.5 49,-112.5 0,-112.5"/>
<text text-anchor="middle" x="24.5" y="-119.5" font-family="Helvetica,sans-Serif" font-size="10.00">ycore.h</text>
</a>
</g>
</g>
<!-- Node1&#45;&gt;Node2 -->
<g id="edge1" class="edge">
<title>Node1&#45;&gt;Node2</title>
<path fill="none" stroke="midnightblue" d="M504.34,-172.81C405.71,-166.63 224.79,-153.44 71.5,-132 67.54,-131.45 63.41,-130.78 59.31,-130.07"/>
<polygon fill="midnightblue" stroke="midnightblue" points="59.77,-126.6 49.3,-128.23 58.51,-133.48 59.77,-126.6"/>
</g>
<!-- Node4 -->
<g id="node4" class="node">
<title>Node4</title>
<g id="a_node4"><a xlink:href="yinput_8h.html" target="_top" xlink:title=" ">
<polygon fill="none" stroke="black" points="81,-112.5 81,-131.5 132,-131.5 132,-112.5 81,-112.5"/>
<text text-anchor="middle" x="106.5" y="-119.5" font-family="Helvetica,sans-Serif" font-size="10.00">yinput.h</text>
</a>
</g>
</g>
<!-- Node1&#45;&gt;Node4 -->
<g id="edge3" class="edge">
<title>Node1&#45;&gt;Node4</title>
<path fill="none" stroke="midnightblue" d="M504.42,-168.62C401.89,-156.87 219.25,-135.93 142.28,-127.1"/>
<polygon fill="midnightblue" stroke="midnightblue" points="142.47,-123.6 132.14,-125.94 141.67,-130.56 142.47,-123.6"/>
</g>
<!-- Node6 -->
<g id="node6" class="node">
<title>Node6</title>
<g id="a_node6"><a xlink:href="yluabind_8hpp.html" target="_top" xlink:title=" ">
<polygon fill="none" stroke="black" points="411,-112.5 411,-131.5 482,-131.5 482,-112.5 411,-112.5"/>
<text text-anchor="middle" x="446.5" y="-119.5" font-family="Helvetica,sans-Serif" font-size="10.00">yluabind.hpp</text>
</a>
</g>
</g>
<!-- Node1&#45;&gt;Node6 -->
<g id="edge6" class="edge">
<title>Node1&#45;&gt;Node6</title>
<path fill="none" stroke="midnightblue" d="M556.74,-168.44C535.18,-159.56 501.24,-145.56 476.71,-135.45"/>
<polygon fill="midnightblue" stroke="midnightblue" points="477.74,-132.09 467.16,-131.52 475.07,-138.56 477.74,-132.09"/>
</g>
<!-- Node13 -->
<g id="node13" class="node">
<title>Node13</title>
<g id="a_node13"><a xlink:title=" ">
<polygon fill="none" stroke="#bfbfbf" points="635,-56.5 635,-75.5 718,-75.5 718,-56.5 635,-56.5"/>
<text text-anchor="middle" x="676.5" y="-63.5" font-family="Helvetica,sans-Serif" font-size="10.00">unordered_map</text>
</a>
</g>
</g>
<!-- Node1&#45;&gt;Node13 -->
<g id="edge28" class="edge">
<title>Node1&#45;&gt;Node13</title>
<path fill="none" stroke="midnightblue" d="M585.27,-168.37C601.82,-149.97 640.8,-106.67 662.05,-83.05"/>
<polygon fill="midnightblue" stroke="midnightblue" points="664.68,-85.37 668.77,-75.59 659.48,-80.68 664.68,-85.37"/>
</g>
<!-- Node16 -->
<g id="node16" class="node">
<title>Node16</title>
<g id="a_node16"><a xlink:href="yrenderer_8h.html" target="_top" xlink:title=" ">
<polygon fill="none" stroke="black" points="746,-112.5 746,-131.5 811,-131.5 811,-112.5 746,-112.5"/>
<text text-anchor="middle" x="778.5" y="-119.5" font-family="Helvetica,sans-Serif" font-size="10.00">yrenderer.h</text>
</a>
</g>
</g>
<!-- Node1&#45;&gt;Node16 -->
<g id="edge18" class="edge">
<title>Node1&#45;&gt;Node16</title>
<path fill="none" stroke="midnightblue" d="M609.35,-168.44C643.9,-159.16 699.18,-144.31 737.08,-134.13"/>
<polygon fill="midnightblue" stroke="midnightblue" points="738.05,-137.49 746.8,-131.52 736.23,-130.73 738.05,-137.49"/>
</g>
<!-- Node21 -->
<g id="node21" class="node">
<title>Node21</title>
<g id="a_node21"><a xlink:title=" ">
<polygon fill="none" stroke="#bfbfbf" points="829.5,-112.5 829.5,-131.5 873.5,-131.5 873.5,-112.5 829.5,-112.5"/>
<text text-anchor="middle" x="851.5" y="-119.5" font-family="Helvetica,sans-Serif" font-size="10.00">SDL.h</text>
</a>
</g>
</g>
<!-- Node1&#45;&gt;Node21 -->
<g id="edge27" class="edge">
<title>Node1&#45;&gt;Node21</title>
<path fill="none" stroke="midnightblue" d="M632.35,-168.44C679.6,-160.71 749.77,-148.37 819.4,-132.08"/>
<polygon fill="midnightblue" stroke="midnightblue" points="820.29,-135.47 829.22,-129.76 818.68,-128.65 820.29,-135.47"/>
</g>
<!-- Node3 -->
<g id="node3" class="node">
<title>Node3</title>
<g id="a_node3"><a xlink:title=" ">
<polygon fill="none" stroke="#bfbfbf" points="144,-0.5 144,-19.5 185,-19.5 185,-0.5 144,-0.5"/>
<text text-anchor="middle" x="164.5" y="-7.5" font-family="Helvetica,sans-Serif" font-size="10.00">string</text>
</a>
</g>
</g>
<!-- Node2&#45;&gt;Node3 -->
<g id="edge2" class="edge">
<title>Node2&#45;&gt;Node3</title>
<path fill="none" stroke="midnightblue" d="M27.27,-112.25C32.01,-98.55 42.92,-71.95 60.5,-56 81.48,-36.97 111.75,-25.12 134.23,-18.38"/>
<polygon fill="midnightblue" stroke="midnightblue" points="135.27,-21.72 143.95,-15.64 133.37,-14.99 135.27,-21.72"/>
</g>
<!-- Node4&#45;&gt;Node3 -->
<g id="edge5" class="edge">
<title>Node4&#45;&gt;Node3</title>
<path fill="none" stroke="midnightblue" d="M94.86,-112.49C79.21,-99.99 54.75,-75.97 67.5,-56 82.05,-33.2 111.46,-21.78 134.1,-16.17"/>
<polygon fill="midnightblue" stroke="midnightblue" points="134.94,-19.57 143.94,-13.98 133.42,-12.73 134.94,-19.57"/>
</g>
<!-- Node5 -->
<g id="node5" class="node">
<title>Node5</title>
<g id="a_node5"><a xlink:title=" ">
<polygon fill="none" stroke="#bfbfbf" points="77,-56.5 77,-75.5 136,-75.5 136,-56.5 77,-56.5"/>
<text text-anchor="middle" x="106.5" y="-63.5" font-family="Helvetica,sans-Serif" font-size="10.00">functional</text>
</a>
</g>
</g>
<!-- Node4&#45;&gt;Node5 -->
<g id="edge4" class="edge">
<title>Node4&#45;&gt;Node5</title>
<path fill="none" stroke="midnightblue" d="M106.5,-112.08C106.5,-105.01 106.5,-94.86 106.5,-85.99"/>
<polygon fill="midnightblue" stroke="midnightblue" points="110,-85.75 106.5,-75.75 103,-85.75 110,-85.75"/>
</g>
<!-- Node6&#45;&gt;Node3 -->
<g id="edge12" class="edge">
<title>Node6&#45;&gt;Node3</title>
<path fill="none" stroke="midnightblue" d="M410.88,-119.48C347.01,-116.02 216.57,-105.47 183.5,-76 170.49,-64.41 166.18,-44.45 164.85,-29.7"/>
<polygon fill="midnightblue" stroke="midnightblue" points="168.34,-29.46 164.32,-19.66 161.35,-29.83 168.34,-29.46"/>
</g>
<!-- Node6&#45;&gt;Node5 -->
<g id="edge10" class="edge">
<title>Node6&#45;&gt;Node5</title>
<path fill="none" stroke="midnightblue" d="M410.86,-116.18C355.16,-108.51 244.15,-92.68 150.5,-76 149.06,-75.74 147.6,-75.48 146.12,-75.2"/>
<polygon fill="midnightblue" stroke="midnightblue" points="146.76,-71.76 136.28,-73.31 145.44,-78.64 146.76,-71.76"/>
</g>
<!-- Node7 -->
<g id="node7" class="node">
<title>Node7</title>
<g id="a_node7"><a xlink:title=" ">
<polygon fill="none" stroke="#bfbfbf" points="193,-56.5 193,-75.5 246,-75.5 246,-56.5 193,-56.5"/>
<text text-anchor="middle" x="219.5" y="-63.5" font-family="Helvetica,sans-Serif" font-size="10.00">lauxlib.h</text>
</a>
</g>
</g>
<!-- Node6&#45;&gt;Node7 -->
<g id="edge7" class="edge">
<title>Node6&#45;&gt;Node7</title>
<path fill="none" stroke="midnightblue" d="M410.91,-112.77C374.55,-104.32 316.19,-90.68 256.25,-76.16"/>
<polygon fill="midnightblue" stroke="midnightblue" points="256.77,-72.68 246.23,-73.72 255.12,-79.48 256.77,-72.68"/>
</g>
<!-- Node8 -->
<g id="node8" class="node">
<title>Node8</title>
<g id="a_node8"><a xlink:title=" ">
<polygon fill="none" stroke="#bfbfbf" points="264.5,-56.5 264.5,-75.5 302.5,-75.5 302.5,-56.5 264.5,-56.5"/>
<text text-anchor="middle" x="283.5" y="-63.5" font-family="Helvetica,sans-Serif" font-size="10.00">lua.h</text>
</a>
</g>
</g>
<!-- Node6&#45;&gt;Node8 -->
<g id="edge8" class="edge">
<title>Node6&#45;&gt;Node8</title>
<path fill="none" stroke="midnightblue" d="M420.67,-112.44C391.15,-102.66 342.97,-86.7 312.27,-76.53"/>
<polygon fill="midnightblue" stroke="midnightblue" points="313.18,-73.15 302.59,-73.32 310.98,-79.79 313.18,-73.15"/>
</g>
<!-- Node9 -->
<g id="node9" class="node">
<title>Node9</title>
<g id="a_node9"><a xlink:title=" ">
<polygon fill="none" stroke="#bfbfbf" points="321,-56.5 321,-75.5 368,-75.5 368,-56.5 321,-56.5"/>
<text text-anchor="middle" x="344.5" y="-63.5" font-family="Helvetica,sans-Serif" font-size="10.00">lualib.h</text>
</a>
</g>
</g>
<!-- Node6&#45;&gt;Node9 -->
<g id="edge9" class="edge">
<title>Node6&#45;&gt;Node9</title>
<path fill="none" stroke="midnightblue" d="M430.11,-112.32C413.83,-103.7 388.63,-90.36 369.78,-80.39"/>
<polygon fill="midnightblue" stroke="midnightblue" points="371.32,-77.24 360.85,-75.65 368.05,-83.43 371.32,-77.24"/>
</g>
<!-- Node10 -->
<g id="node10" class="node">
<title>Node10</title>
<g id="a_node10"><a xlink:title=" ">
<polygon fill="none" stroke="#bfbfbf" points="386.5,-56.5 386.5,-75.5 440.5,-75.5 440.5,-56.5 386.5,-56.5"/>
<text text-anchor="middle" x="413.5" y="-63.5" font-family="Helvetica,sans-Serif" font-size="10.00">iostream</text>
</a>
</g>
</g>
<!-- Node6&#45;&gt;Node10 -->
<g id="edge11" class="edge">
<title>Node6&#45;&gt;Node10</title>
<path fill="none" stroke="midnightblue" d="M441.05,-112.08C436.49,-104.61 429.83,-93.72 424.21,-84.52"/>
<polygon fill="midnightblue" stroke="midnightblue" points="427.05,-82.46 418.85,-75.75 421.08,-86.11 427.05,-82.46"/>
</g>
<!-- Node11 -->
<g id="node11" class="node">
<title>Node11</title>
<g id="a_node11"><a xlink:title=" ">
<polygon fill="none" stroke="#bfbfbf" points="736.5,-56.5 736.5,-75.5 774.5,-75.5 774.5,-56.5 736.5,-56.5"/>
<text text-anchor="middle" x="755.5" y="-63.5" font-family="Helvetica,sans-Serif" font-size="10.00">tuple</text>
</a>
</g>
</g>
<!-- Node6&#45;&gt;Node11 -->
<g id="edge13" class="edge">
<title>Node6&#45;&gt;Node11</title>
<path fill="none" stroke="midnightblue" d="M482.33,-117.04C534.23,-110.91 633.45,-97.75 726.48,-75.94"/>
<polygon fill="midnightblue" stroke="midnightblue" points="727.41,-79.31 736.33,-73.59 725.79,-72.5 727.41,-79.31"/>
</g>
<!-- Node12 -->
<g id="node12" class="node">
<title>Node12</title>
<g id="a_node12"><a xlink:title=" ">
<polygon fill="none" stroke="#bfbfbf" points="458.5,-56.5 458.5,-75.5 520.5,-75.5 520.5,-56.5 458.5,-56.5"/>
<text text-anchor="middle" x="489.5" y="-63.5" font-family="Helvetica,sans-Serif" font-size="10.00">type_traits</text>
</a>
</g>
</g>
<!-- Node6&#45;&gt;Node12 -->
<g id="edge14" class="edge">
<title>Node6&#45;&gt;Node12</title>
<path fill="none" stroke="midnightblue" d="M453.6,-112.08C459.74,-104.38 468.77,-93.03 476.24,-83.65"/>
<polygon fill="midnightblue" stroke="midnightblue" points="479.04,-85.75 482.53,-75.75 473.56,-81.39 479.04,-85.75"/>
</g>
<!-- Node6&#45;&gt;Node13 -->
<g id="edge15" class="edge">
<title>Node6&#45;&gt;Node13</title>
<path fill="none" stroke="midnightblue" d="M482.19,-112.62C521.99,-103.28 586.5,-88.13 630.17,-77.88"/>
<polygon fill="midnightblue" stroke="midnightblue" points="631.04,-81.27 639.97,-75.58 629.44,-74.45 631.04,-81.27"/>
</g>
<!-- Node14 -->
<g id="node14" class="node">
<title>Node14</title>
<g id="a_node14"><a xlink:title=" ">
<polygon fill="none" stroke="#bfbfbf" points="538.5,-56.5 538.5,-75.5 578.5,-75.5 578.5,-56.5 538.5,-56.5"/>
<text text-anchor="middle" x="558.5" y="-63.5" font-family="Helvetica,sans-Serif" font-size="10.00">utility</text>
</a>
</g>
</g>
<!-- Node6&#45;&gt;Node14 -->
<g id="edge16" class="edge">
<title>Node6&#45;&gt;Node14</title>
<path fill="none" stroke="midnightblue" d="M464.49,-112.32C482.54,-103.62 510.55,-90.12 531.3,-80.11"/>
<polygon fill="midnightblue" stroke="midnightblue" points="533.06,-83.15 540.55,-75.65 530.02,-76.84 533.06,-83.15"/>
</g>
<!-- Node15 -->
<g id="node15" class="node">
<title>Node15</title>
<g id="a_node15"><a xlink:title=" ">
<polygon fill="none" stroke="#bfbfbf" points="640.5,-0.5 640.5,-19.5 684.5,-19.5 684.5,-0.5 640.5,-0.5"/>
<text text-anchor="middle" x="662.5" y="-7.5" font-family="Helvetica,sans-Serif" font-size="10.00">vector</text>
</a>
</g>
</g>
<!-- Node6&#45;&gt;Node15 -->
<g id="edge17" class="edge">
<title>Node6&#45;&gt;Node15</title>
<path fill="none" stroke="midnightblue" d="M482.01,-113.88C511.54,-106.99 554,-94.8 587.5,-76 610.83,-62.91 633.44,-41.79 647.63,-27.19"/>
<polygon fill="midnightblue" stroke="midnightblue" points="650.26,-29.51 654.6,-19.85 645.18,-24.7 650.26,-29.51"/>
</g>
<!-- Node16&#45;&gt;Node3 -->
<g id="edge25" class="edge">
<title>Node16&#45;&gt;Node3</title>
<path fill="none" stroke="midnightblue" d="M782.83,-112.09C788.89,-98.16 797.68,-71.25 783.5,-56 743.16,-12.63 315.45,-10.56 195.57,-10.84"/>
<polygon fill="midnightblue" stroke="midnightblue" points="195.26,-7.35 185.27,-10.88 195.28,-14.35 195.26,-7.35"/>
</g>
<!-- Node16&#45;&gt;Node11 -->
<g id="edge26" class="edge">
<title>Node16&#45;&gt;Node11</title>
<path fill="none" stroke="midnightblue" d="M774.7,-112.08C771.59,-104.77 767.08,-94.18 763.21,-85.1"/>
<polygon fill="midnightblue" stroke="midnightblue" points="766.37,-83.58 759.23,-75.75 759.93,-86.32 766.37,-83.58"/>
</g>
<!-- Node17 -->
<g id="node17" class="node">
<title>Node17</title>
<g id="a_node17"><a xlink:title=" ">
<polygon fill="none" stroke="#bfbfbf" points="908.5,-56.5 908.5,-75.5 978.5,-75.5 978.5,-56.5 908.5,-56.5"/>
<text text-anchor="middle" x="943.5" y="-63.5" font-family="Helvetica,sans-Serif" font-size="10.00">glm/glm.hpp</text>
</a>
</g>
</g>
<!-- Node16&#45;&gt;Node17 -->
<g id="edge19" class="edge">
<title>Node16&#45;&gt;Node17</title>
<path fill="none" stroke="midnightblue" d="M804.64,-112.44C832.52,-103.32 876.85,-88.81 907.9,-78.65"/>
<polygon fill="midnightblue" stroke="midnightblue" points="909.06,-81.95 917.48,-75.52 906.88,-75.3 909.06,-81.95"/>
</g>
<!-- Node18 -->
<g id="node18" class="node">
<title>Node18</title>
<g id="a_node18"><a xlink:href="ytexture_8h.html" target="_top" xlink:title=" ">
<polygon fill="none" stroke="black" points="830.5,-56.5 830.5,-75.5 890.5,-75.5 890.5,-56.5 830.5,-56.5"/>
<text text-anchor="middle" x="860.5" y="-63.5" font-family="Helvetica,sans-Serif" font-size="10.00">ytexture.h</text>
</a>
</g>
</g>
<!-- Node16&#45;&gt;Node18 -->
<g id="edge20" class="edge">
<title>Node16&#45;&gt;Node18</title>
<path fill="none" stroke="midnightblue" d="M791.67,-112.32C804.35,-103.98 823.73,-91.21 838.71,-81.35"/>
<polygon fill="midnightblue" stroke="midnightblue" points="840.93,-84.08 847.36,-75.65 837.08,-78.23 840.93,-84.08"/>
</g>
<!-- Node18&#45;&gt;Node3 -->
<g id="edge22" class="edge">
<title>Node18&#45;&gt;Node3</title>
<path fill="none" stroke="midnightblue" d="M830.29,-58.27C825.69,-57.41 820.98,-56.61 816.5,-56 578.85,-23.64 289.13,-14.04 195.36,-11.68"/>
<polygon fill="midnightblue" stroke="midnightblue" points="195.24,-8.17 185.16,-11.43 195.07,-15.17 195.24,-8.17"/>
</g>
<!-- Node18&#45;&gt;Node15 -->
<g id="edge23" class="edge">
<title>Node18&#45;&gt;Node15</title>
<path fill="none" stroke="midnightblue" d="M830.43,-56.8C793.74,-46.79 731.98,-29.95 694.46,-19.72"/>
<polygon fill="midnightblue" stroke="midnightblue" points="695.13,-16.27 684.56,-17.02 693.29,-23.02 695.13,-16.27"/>
</g>
<!-- Node19 -->
<g id="node19" class="node">
<title>Node19</title>
<g id="a_node19"><a xlink:title=" ">
<polygon fill="none" stroke="#bfbfbf" points="796.5,-0.5 796.5,-19.5 848.5,-19.5 848.5,-0.5 796.5,-0.5"/>
<text text-anchor="middle" x="822.5" y="-7.5" font-family="Helvetica,sans-Serif" font-size="10.00">memory</text>
</a>
</g>
</g>
<!-- Node18&#45;&gt;Node19 -->
<g id="edge21" class="edge">
<title>Node18&#45;&gt;Node19</title>
<path fill="none" stroke="midnightblue" d="M854.23,-56.08C848.86,-48.46 840.98,-37.26 834.42,-27.94"/>
<polygon fill="midnightblue" stroke="midnightblue" points="837.28,-25.91 828.66,-19.75 831.55,-29.94 837.28,-25.91"/>
</g>
<!-- Node20 -->
<g id="node20" class="node">
<title>Node20</title>
<g id="a_node20"><a xlink:title=" ">
<polygon fill="none" stroke="#bfbfbf" points="866.5,-0.5 866.5,-19.5 930.5,-19.5 930.5,-0.5 866.5,-0.5"/>
<text text-anchor="middle" x="898.5" y="-7.5" font-family="Helvetica,sans-Serif" font-size="10.00">glad/glad.h</text>
</a>
</g>
</g>
<!-- Node18&#45;&gt;Node20 -->
<g id="edge24" class="edge">
<title>Node18&#45;&gt;Node20</title>
<path fill="none" stroke="midnightblue" d="M866.77,-56.08C872.14,-48.46 880.02,-37.26 886.58,-27.94"/>
<polygon fill="midnightblue" stroke="midnightblue" points="889.45,-29.94 892.34,-19.75 883.72,-25.91 889.45,-29.94"/>
</g>
</g>
</svg>
