<?xml version="1.0" encoding="UTF-8" standalone="no"?>
<!DOCTYPE svg PUBLIC "-//W3C//DTD SVG 1.1//EN"
 "http://www.w3.org/Graphics/SVG/1.1/DTD/svg11.dtd">
<!-- Generated by graphviz version 2.43.0 (0)
 -->
<!-- Title: yapre/src/systems/ylua.cpp Pages: 1 -->
<svg width="1206pt" height="252pt"
 viewBox="0.00 0.00 1205.97 252.00" xmlns="http://www.w3.org/2000/svg" xmlns:xlink="http://www.w3.org/1999/xlink">
<g id="graph0" class="graph" transform="scale(1 1) rotate(0) translate(4 248)">
<title>yapre/src/systems/ylua.cpp</title>
<!-- Node1 -->
<g id="node1" class="node">
<title>Node1</title>
<g id="a_node1"><a xlink:title=" ">
<polygon fill="#bfbfbf" stroke="black" points="696.97,-224.5 696.97,-243.5 846.97,-243.5 846.97,-224.5 696.97,-224.5"/>
<text text-anchor="middle" x="771.97" y="-231.5" font-family="Helvetica,sans-Serif" font-size="10.00">yapre/src/systems/ylua.cpp</text>
</a>
</g>
</g>
<!-- Node2 -->
<g id="node2" class="node">
<title>Node2</title>
<g id="a_node2"><a xlink:href="ylua_8h.html" target="_top" xlink:title=" ">
<polygon fill="none" stroke="black" points="32.47,-168.5 32.47,-187.5 79.47,-187.5 79.47,-168.5 32.47,-168.5"/>
<text text-anchor="middle" x="55.97" y="-175.5" font-family="Helvetica,sans-Serif" font-size="10.00">ylua.h</text>
</a>
</g>
</g>
<!-- Node1&#45;&gt;Node2 -->
<g id="edge1" class="edge">
<title>Node1&#45;&gt;Node2</title>
<path fill="none" stroke="midnightblue" d="M696.65,-229.74C574.65,-224.02 326.33,-210.6 116.97,-188 108.09,-187.04 98.53,-185.75 89.67,-184.45"/>
<polygon fill="midnightblue" stroke="midnightblue" points="90.08,-180.97 79.67,-182.94 89.03,-187.89 90.08,-180.97"/>
</g>
<!-- Node3 -->
<g id="node3" class="node">
<title>Node3</title>
<g id="a_node3"><a xlink:title=" ">
<polygon fill="none" stroke="#bfbfbf" points="243.97,-0.5 243.97,-19.5 287.97,-19.5 287.97,-0.5 243.97,-0.5"/>
<text text-anchor="middle" x="265.97" y="-7.5" font-family="Helvetica,sans-Serif" font-size="10.00">string</text>
</a>
</g>
</g>
<!-- Node1&#45;&gt;Node3 -->
<g id="edge38" class="edge">
<title>Node1&#45;&gt;Node3</title>
<path fill="none" stroke="midnightblue" d="M696.68,-231.23C511.24,-226.5 45.82,-212.27 22.97,-188 -17.67,-144.85 0.51,-98.36 41.97,-56 68.23,-29.17 178.13,-17.41 233.62,-13.11"/>
<polygon fill="midnightblue" stroke="midnightblue" points="233.92,-16.6 243.63,-12.37 233.4,-9.61 233.92,-16.6"/>
</g>
<!-- Node4 -->
<g id="node4" class="node">
<title>Node4</title>
<g id="a_node4"><a xlink:href="yluainterface_8inl.html" target="_top" xlink:title=" ">
<polygon fill="none" stroke="black" points="341.97,-168.5 341.97,-187.5 437.97,-187.5 437.97,-168.5 341.97,-168.5"/>
<text text-anchor="middle" x="389.97" y="-175.5" font-family="Helvetica,sans-Serif" font-size="10.00">yluainterface.inl</text>
</a>
</g>
</g>
<!-- Node1&#45;&gt;Node4 -->
<g id="edge3" class="edge">
<title>Node1&#45;&gt;Node4</title>
<path fill="none" stroke="midnightblue" d="M711.44,-224.44C639.25,-214.24 519.44,-197.3 448.26,-187.24"/>
<polygon fill="midnightblue" stroke="midnightblue" points="448.51,-183.74 438.12,-185.81 447.53,-190.67 448.51,-183.74"/>
</g>
<!-- Node8 -->
<g id="node8" class="node">
<title>Node8</title>
<g id="a_node8"><a xlink:title=" ">
<polygon fill="none" stroke="#bfbfbf" points="85.47,-56.5 85.47,-75.5 150.47,-75.5 150.47,-56.5 85.47,-56.5"/>
<text text-anchor="middle" x="117.97" y="-63.5" font-family="Helvetica,sans-Serif" font-size="10.00">functional</text>
</a>
</g>
</g>
<!-- Node1&#45;&gt;Node8 -->
<g id="edge36" class="edge">
<title>Node1&#45;&gt;Node8</title>
<path fill="none" stroke="midnightblue" d="M696.73,-229.75C608.76,-224.92 459.13,-213.52 332.97,-188 249.6,-171.14 214.74,-187.13 149.97,-132 135.77,-119.92 127.29,-100.04 122.66,-85.44"/>
<polygon fill="midnightblue" stroke="midnightblue" points="125.94,-84.18 119.84,-75.52 119.21,-86.1 125.94,-84.18"/>
</g>
<!-- Node9 -->
<g id="node9" class="node">
<title>Node9</title>
<g id="a_node9"><a xlink:href="yluabind_8hpp.html" target="_top" xlink:title=" ">
<polygon fill="none" stroke="black" points="731.97,-112.5 731.97,-131.5 811.97,-131.5 811.97,-112.5 731.97,-112.5"/>
<text text-anchor="middle" x="771.97" y="-119.5" font-family="Helvetica,sans-Serif" font-size="10.00">yluabind.hpp</text>
</a>
</g>
</g>
<!-- Node1&#45;&gt;Node9 -->
<g id="edge42" class="edge">
<title>Node1&#45;&gt;Node9</title>
<path fill="none" stroke="midnightblue" d="M771.97,-224.37C771.97,-206.62 771.97,-165.67 771.97,-141.6"/>
<polygon fill="midnightblue" stroke="midnightblue" points="775.47,-141.59 771.97,-131.59 768.47,-141.59 775.47,-141.59"/>
</g>
<!-- Node10 -->
<g id="node10" class="node">
<title>Node10</title>
<g id="a_node10"><a xlink:title=" ">
<polygon fill="none" stroke="#bfbfbf" points="930.47,-56.5 930.47,-75.5 989.47,-75.5 989.47,-56.5 930.47,-56.5"/>
<text text-anchor="middle" x="959.97" y="-63.5" font-family="Helvetica,sans-Serif" font-size="10.00">lauxlib.h</text>
</a>
</g>
</g>
<!-- Node1&#45;&gt;Node10 -->
<g id="edge39" class="edge">
<title>Node1&#45;&gt;Node10</title>
<path fill="none" stroke="midnightblue" d="M781.81,-224.31C812.01,-197.64 903.66,-116.72 942.39,-82.52"/>
<polygon fill="midnightblue" stroke="midnightblue" points="945.04,-84.85 950.22,-75.61 940.41,-79.6 945.04,-84.85"/>
</g>
<!-- Node11 -->
<g id="node11" class="node">
<title>Node11</title>
<g id="a_node11"><a xlink:title=" ">
<polygon fill="none" stroke="#bfbfbf" points="1007.47,-56.5 1007.47,-75.5 1048.47,-75.5 1048.47,-56.5 1007.47,-56.5"/>
<text text-anchor="middle" x="1027.97" y="-63.5" font-family="Helvetica,sans-Serif" font-size="10.00">lua.h</text>
</a>
</g>
</g>
<!-- Node1&#45;&gt;Node11 -->
<g id="edge40" class="edge">
<title>Node1&#45;&gt;Node11</title>
<path fill="none" stroke="midnightblue" d="M786.54,-224.38C801.54,-215.44 825.54,-200.99 845.97,-188 904.79,-150.58 972.92,-104.55 1006.7,-81.54"/>
<polygon fill="midnightblue" stroke="midnightblue" points="1009,-84.21 1015.29,-75.69 1005.05,-78.43 1009,-84.21"/>
</g>
<!-- Node12 -->
<g id="node12" class="node">
<title>Node12</title>
<g id="a_node12"><a xlink:title=" ">
<polygon fill="none" stroke="#bfbfbf" points="1066.47,-56.5 1066.47,-75.5 1119.47,-75.5 1119.47,-56.5 1066.47,-56.5"/>
<text text-anchor="middle" x="1092.97" y="-63.5" font-family="Helvetica,sans-Serif" font-size="10.00">lualib.h</text>
</a>
</g>
</g>
<!-- Node1&#45;&gt;Node12 -->
<g id="edge41" class="edge">
<title>Node1&#45;&gt;Node12</title>
<path fill="none" stroke="midnightblue" d="M792.93,-224.4C813.72,-215.72 846.39,-201.67 873.97,-188 946.93,-151.84 1030.47,-103.75 1069.97,-80.6"/>
<polygon fill="midnightblue" stroke="midnightblue" points="1071.75,-83.61 1078.6,-75.53 1068.2,-77.58 1071.75,-83.61"/>
</g>
<!-- Node13 -->
<g id="node13" class="node">
<title>Node13</title>
<g id="a_node13"><a xlink:title=" ">
<polygon fill="none" stroke="#bfbfbf" points="1137.97,-56.5 1137.97,-75.5 1197.97,-75.5 1197.97,-56.5 1137.97,-56.5"/>
<text text-anchor="middle" x="1167.97" y="-63.5" font-family="Helvetica,sans-Serif" font-size="10.00">iostream</text>
</a>
</g>
</g>
<!-- Node1&#45;&gt;Node13 -->
<g id="edge37" class="edge">
<title>Node1&#45;&gt;Node13</title>
<path fill="none" stroke="midnightblue" d="M800.75,-224.44C828.31,-215.99 870.92,-202.31 906.97,-188 994.94,-153.07 1095.7,-103.54 1142.1,-80.18"/>
<polygon fill="midnightblue" stroke="midnightblue" points="1143.81,-83.24 1151.16,-75.6 1140.65,-76.99 1143.81,-83.24"/>
</g>
<!-- Node2&#45;&gt;Node3 -->
<g id="edge2" class="edge">
<title>Node2&#45;&gt;Node3</title>
<path fill="none" stroke="midnightblue" d="M51.35,-168.34C46.91,-159.49 40.51,-145.22 37.97,-132 31.19,-96.8 36.89,-78.28 64.97,-56 90.85,-35.45 184.16,-21.12 234.02,-14.73"/>
<polygon fill="midnightblue" stroke="midnightblue" points="234.47,-18.21 243.96,-13.49 233.6,-11.26 234.47,-18.21"/>
</g>
<!-- Node5 -->
<g id="node5" class="node">
<title>Node5</title>
<g id="a_node5"><a xlink:href="yaudio_8h.html" target="_top" xlink:title=" ">
<polygon fill="none" stroke="black" points="485.47,-112.5 485.47,-131.5 544.47,-131.5 544.47,-112.5 485.47,-112.5"/>
<text text-anchor="middle" x="514.97" y="-119.5" font-family="Helvetica,sans-Serif" font-size="10.00">yaudio.h</text>
</a>
</g>
</g>
<!-- Node4&#45;&gt;Node5 -->
<g id="edge4" class="edge">
<title>Node4&#45;&gt;Node5</title>
<path fill="none" stroke="midnightblue" d="M409.77,-168.44C430.25,-159.6 462.45,-145.69 485.83,-135.59"/>
<polygon fill="midnightblue" stroke="midnightblue" points="487.46,-138.7 495.25,-131.52 484.68,-132.27 487.46,-138.7"/>
</g>
<!-- Node6 -->
<g id="node6" class="node">
<title>Node6</title>
<g id="a_node6"><a xlink:href="ycore_8h.html" target="_top" xlink:title=" ">
<polygon fill="none" stroke="black" points="323.47,-112.5 323.47,-131.5 376.47,-131.5 376.47,-112.5 323.47,-112.5"/>
<text text-anchor="middle" x="349.97" y="-119.5" font-family="Helvetica,sans-Serif" font-size="10.00">ycore.h</text>
</a>
</g>
</g>
<!-- Node4&#45;&gt;Node6 -->
<g id="edge5" class="edge">
<title>Node4&#45;&gt;Node6</title>
<path fill="none" stroke="midnightblue" d="M383.36,-168.08C377.71,-160.46 369.42,-149.26 362.52,-139.94"/>
<polygon fill="midnightblue" stroke="midnightblue" points="365.21,-137.7 356.45,-131.75 359.59,-141.87 365.21,-137.7"/>
</g>
<!-- Node7 -->
<g id="node7" class="node">
<title>Node7</title>
<g id="a_node7"><a xlink:href="yinput_8h.html" target="_top" xlink:title=" ">
<polygon fill="none" stroke="black" points="46.97,-112.5 46.97,-131.5 102.97,-131.5 102.97,-112.5 46.97,-112.5"/>
<text text-anchor="middle" x="74.97" y="-119.5" font-family="Helvetica,sans-Serif" font-size="10.00">yinput.h</text>
</a>
</g>
</g>
<!-- Node4&#45;&gt;Node7 -->
<g id="edge7" class="edge">
<title>Node4&#45;&gt;Node7</title>
<path fill="none" stroke="midnightblue" d="M341.78,-168.74C278.99,-157.98 170.46,-139.37 113.08,-129.53"/>
<polygon fill="midnightblue" stroke="midnightblue" points="113.43,-126.04 102.99,-127.8 112.25,-132.94 113.43,-126.04"/>
</g>
<!-- Node4&#45;&gt;Node9 -->
<g id="edge10" class="edge">
<title>Node4&#45;&gt;Node9</title>
<path fill="none" stroke="midnightblue" d="M438.35,-170.16C511.11,-159.87 648.05,-140.52 721.83,-130.09"/>
<polygon fill="midnightblue" stroke="midnightblue" points="722.4,-133.54 731.81,-128.68 721.42,-126.61 722.4,-133.54"/>
</g>
<!-- Node19 -->
<g id="node19" class="node">
<title>Node19</title>
<g id="a_node19"><a xlink:href="yrenderer_8h.html" target="_top" xlink:title=" ">
<polygon fill="none" stroke="black" points="394.97,-112.5 394.97,-131.5 466.97,-131.5 466.97,-112.5 394.97,-112.5"/>
<text text-anchor="middle" x="430.97" y="-119.5" font-family="Helvetica,sans-Serif" font-size="10.00">yrenderer.h</text>
</a>
</g>
</g>
<!-- Node4&#45;&gt;Node19 -->
<g id="edge22" class="edge">
<title>Node4&#45;&gt;Node19</title>
<path fill="none" stroke="midnightblue" d="M396.74,-168.08C402.53,-160.46 411.03,-149.26 418.1,-139.94"/>
<polygon fill="midnightblue" stroke="midnightblue" points="421.06,-141.83 424.32,-131.75 415.49,-137.6 421.06,-141.83"/>
</g>
<!-- Node24 -->
<g id="node24" class="node">
<title>Node24</title>
<g id="a_node24"><a xlink:href="yrepl_8h.html" target="_top" xlink:title=" ">
<polygon fill="none" stroke="black" points="254.97,-112.5 254.97,-131.5 304.97,-131.5 304.97,-112.5 254.97,-112.5"/>
<text text-anchor="middle" x="279.97" y="-119.5" font-family="Helvetica,sans-Serif" font-size="10.00">yrepl.h</text>
</a>
</g>
</g>
<!-- Node4&#45;&gt;Node24 -->
<g id="edge31" class="edge">
<title>Node4&#45;&gt;Node24</title>
<path fill="none" stroke="midnightblue" d="M372.29,-168.32C354.57,-159.62 327.06,-146.12 306.68,-136.11"/>
<polygon fill="midnightblue" stroke="midnightblue" points="308.12,-132.92 297.6,-131.65 305.03,-139.2 308.12,-132.92"/>
</g>
<!-- Node25 -->
<g id="node25" class="node">
<title>Node25</title>
<g id="a_node25"><a xlink:href="yscheduler_8h.html" target="_top" xlink:title=" ">
<polygon fill="none" stroke="black" points="158.97,-112.5 158.97,-131.5 236.97,-131.5 236.97,-112.5 158.97,-112.5"/>
<text text-anchor="middle" x="197.97" y="-119.5" font-family="Helvetica,sans-Serif" font-size="10.00">yscheduler.h</text>
</a>
</g>
</g>
<!-- Node4&#45;&gt;Node25 -->
<g id="edge33" class="edge">
<title>Node4&#45;&gt;Node25</title>
<path fill="none" stroke="midnightblue" d="M359.54,-168.44C326.68,-159.2 274.18,-144.44 237.99,-134.26"/>
<polygon fill="midnightblue" stroke="midnightblue" points="238.82,-130.85 228.25,-131.52 236.93,-137.59 238.82,-130.85"/>
</g>
<!-- Node6&#45;&gt;Node3 -->
<g id="edge6" class="edge">
<title>Node6&#45;&gt;Node3</title>
<path fill="none" stroke="midnightblue" d="M341.38,-112.39C332.78,-103.58 319.36,-89.34 308.97,-76 296.92,-60.54 284.74,-41.76 276.44,-28.38"/>
<polygon fill="midnightblue" stroke="midnightblue" points="279.33,-26.41 271.13,-19.7 273.36,-30.06 279.33,-26.41"/>
</g>
<!-- Node7&#45;&gt;Node3 -->
<g id="edge9" class="edge">
<title>Node7&#45;&gt;Node3</title>
<path fill="none" stroke="midnightblue" d="M72.07,-112.31C68.13,-98.69 62.96,-72.19 75.97,-56 95.45,-31.75 184.65,-19.14 233.6,-13.95"/>
<polygon fill="midnightblue" stroke="midnightblue" points="234.08,-17.42 243.67,-12.92 233.37,-10.45 234.08,-17.42"/>
</g>
<!-- Node7&#45;&gt;Node8 -->
<g id="edge8" class="edge">
<title>Node7&#45;&gt;Node8</title>
<path fill="none" stroke="midnightblue" d="M82.07,-112.08C88.2,-104.38 97.24,-93.03 104.71,-83.65"/>
<polygon fill="midnightblue" stroke="midnightblue" points="107.51,-85.75 111,-75.75 102.03,-81.39 107.51,-85.75"/>
</g>
<!-- Node9&#45;&gt;Node3 -->
<g id="edge16" class="edge">
<title>Node9&#45;&gt;Node3</title>
<path fill="none" stroke="midnightblue" d="M731.61,-116.69C684.1,-110.84 603.27,-98.44 536.97,-76 518.14,-69.63 515.78,-62.4 496.97,-56 428.21,-32.6 343.57,-20 298.25,-14.48"/>
<polygon fill="midnightblue" stroke="midnightblue" points="298.48,-10.99 288.14,-13.29 297.66,-17.94 298.48,-10.99"/>
</g>
<!-- Node9&#45;&gt;Node8 -->
<g id="edge14" class="edge">
<title>Node9&#45;&gt;Node8</title>
<path fill="none" stroke="midnightblue" d="M731.78,-118.77C617.13,-112.3 289.02,-92.97 160.87,-75.89"/>
<polygon fill="midnightblue" stroke="midnightblue" points="161.29,-72.41 150.9,-74.51 160.33,-79.35 161.29,-72.41"/>
</g>
<!-- Node9&#45;&gt;Node10 -->
<g id="edge11" class="edge">
<title>Node9&#45;&gt;Node10</title>
<path fill="none" stroke="midnightblue" d="M801.76,-112.44C833.8,-103.24 884.9,-88.56 920.32,-78.39"/>
<polygon fill="midnightblue" stroke="midnightblue" points="921.67,-81.64 930.32,-75.52 919.74,-74.91 921.67,-81.64"/>
</g>
<!-- Node9&#45;&gt;Node11 -->
<g id="edge12" class="edge">
<title>Node9&#45;&gt;Node11</title>
<path fill="none" stroke="midnightblue" d="M812.03,-114.37C855.56,-106.88 927.31,-93.69 997.55,-76.16"/>
<polygon fill="midnightblue" stroke="midnightblue" points="998.61,-79.51 1007.45,-73.66 996.89,-72.72 998.61,-79.51"/>
</g>
<!-- Node9&#45;&gt;Node12 -->
<g id="edge13" class="edge">
<title>Node9&#45;&gt;Node12</title>
<path fill="none" stroke="midnightblue" d="M811.97,-115.93C865.58,-108.88 963.83,-95 1056.46,-76.16"/>
<polygon fill="midnightblue" stroke="midnightblue" points="1057.19,-79.59 1066.28,-74.14 1055.77,-72.73 1057.19,-79.59"/>
</g>
<!-- Node9&#45;&gt;Node13 -->
<g id="edge15" class="edge">
<title>Node9&#45;&gt;Node13</title>
<path fill="none" stroke="midnightblue" d="M812.05,-117.29C876.5,-111.02 1007.32,-97.12 1127.67,-76.07"/>
<polygon fill="midnightblue" stroke="midnightblue" points="1128.56,-79.47 1137.8,-74.28 1127.34,-72.58 1128.56,-79.47"/>
</g>
<!-- Node14 -->
<g id="node14" class="node">
<title>Node14</title>
<g id="a_node14"><a xlink:title=" ">
<polygon fill="none" stroke="#bfbfbf" points="447.47,-56.5 447.47,-75.5 488.47,-75.5 488.47,-56.5 447.47,-56.5"/>
<text text-anchor="middle" x="467.97" y="-63.5" font-family="Helvetica,sans-Serif" font-size="10.00">tuple</text>
</a>
</g>
</g>
<!-- Node9&#45;&gt;Node14 -->
<g id="edge17" class="edge">
<title>Node9&#45;&gt;Node14</title>
<path fill="none" stroke="midnightblue" d="M731.66,-115.36C678.87,-107.73 583.57,-93.07 502.97,-76 501.51,-75.69 500.02,-75.36 498.52,-75.02"/>
<polygon fill="midnightblue" stroke="midnightblue" points="499.17,-71.58 488.63,-72.63 497.52,-78.38 499.17,-71.58"/>
</g>
<!-- Node15 -->
<g id="node15" class="node">
<title>Node15</title>
<g id="a_node15"><a xlink:title=" ">
<polygon fill="none" stroke="#bfbfbf" points="630.47,-56.5 630.47,-75.5 699.47,-75.5 699.47,-56.5 630.47,-56.5"/>
<text text-anchor="middle" x="664.97" y="-63.5" font-family="Helvetica,sans-Serif" font-size="10.00">type_traits</text>
</a>
</g>
</g>
<!-- Node9&#45;&gt;Node15 -->
<g id="edge18" class="edge">
<title>Node9&#45;&gt;Node15</title>
<path fill="none" stroke="midnightblue" d="M754.78,-112.32C737.62,-103.66 711.02,-90.24 691.22,-80.25"/>
<polygon fill="midnightblue" stroke="midnightblue" points="692.62,-77.04 682.12,-75.65 689.47,-83.28 692.62,-77.04"/>
</g>
<!-- Node16 -->
<g id="node16" class="node">
<title>Node16</title>
<g id="a_node16"><a xlink:title=" ">
<polygon fill="none" stroke="#bfbfbf" points="717.47,-56.5 717.47,-75.5 810.47,-75.5 810.47,-56.5 717.47,-56.5"/>
<text text-anchor="middle" x="763.97" y="-63.5" font-family="Helvetica,sans-Serif" font-size="10.00">unordered_map</text>
</a>
</g>
</g>
<!-- Node9&#45;&gt;Node16 -->
<g id="edge19" class="edge">
<title>Node9&#45;&gt;Node16</title>
<path fill="none" stroke="midnightblue" d="M770.65,-112.08C769.59,-104.93 768.06,-94.64 766.74,-85.69"/>
<polygon fill="midnightblue" stroke="midnightblue" points="770.19,-85.13 765.26,-75.75 763.27,-86.16 770.19,-85.13"/>
</g>
<!-- Node17 -->
<g id="node17" class="node">
<title>Node17</title>
<g id="a_node17"><a xlink:title=" ">
<polygon fill="none" stroke="#bfbfbf" points="828.47,-56.5 828.47,-75.5 873.47,-75.5 873.47,-56.5 828.47,-56.5"/>
<text text-anchor="middle" x="850.97" y="-63.5" font-family="Helvetica,sans-Serif" font-size="10.00">utility</text>
</a>
</g>
</g>
<!-- Node9&#45;&gt;Node17 -->
<g id="edge20" class="edge">
<title>Node9&#45;&gt;Node17</title>
<path fill="none" stroke="midnightblue" d="M784.66,-112.32C796.87,-103.98 815.55,-91.21 829.97,-81.35"/>
<polygon fill="midnightblue" stroke="midnightblue" points="832.03,-84.19 838.31,-75.65 828.07,-78.41 832.03,-84.19"/>
</g>
<!-- Node18 -->
<g id="node18" class="node">
<title>Node18</title>
<g id="a_node18"><a xlink:title=" ">
<polygon fill="none" stroke="#bfbfbf" points="793.47,-0.5 793.47,-19.5 840.47,-19.5 840.47,-0.5 793.47,-0.5"/>
<text text-anchor="middle" x="816.97" y="-7.5" font-family="Helvetica,sans-Serif" font-size="10.00">vector</text>
</a>
</g>
</g>
<!-- Node9&#45;&gt;Node18 -->
<g id="edge21" class="edge">
<title>Node9&#45;&gt;Node18</title>
<path fill="none" stroke="midnightblue" d="M812.13,-116.01C837.05,-110.61 867.22,-99.37 882.97,-76 896.77,-55.51 870.24,-36.21 846.82,-24.04"/>
<polygon fill="midnightblue" stroke="midnightblue" points="848.27,-20.86 837.76,-19.59 845.19,-27.14 848.27,-20.86"/>
</g>
<!-- Node19&#45;&gt;Node3 -->
<g id="edge29" class="edge">
<title>Node19&#45;&gt;Node3</title>
<path fill="none" stroke="midnightblue" d="M410.77,-112.46C392.22,-104.24 364.3,-90.88 341.97,-76 319.78,-61.21 296.86,-40.78 282.08,-26.79"/>
<polygon fill="midnightblue" stroke="midnightblue" points="284.39,-24.16 274.76,-19.76 279.54,-29.21 284.39,-24.16"/>
</g>
<!-- Node19&#45;&gt;Node14 -->
<g id="edge30" class="edge">
<title>Node19&#45;&gt;Node14</title>
<path fill="none" stroke="midnightblue" d="M437.08,-112.08C442.25,-104.53 449.81,-93.49 456.16,-84.23"/>
<polygon fill="midnightblue" stroke="midnightblue" points="459.21,-85.98 461.97,-75.75 453.43,-82.02 459.21,-85.98"/>
</g>
<!-- Node20 -->
<g id="node20" class="node">
<title>Node20</title>
<g id="a_node20"><a xlink:title=" ">
<polygon fill="none" stroke="#bfbfbf" points="350.97,-56.5 350.97,-75.5 428.97,-75.5 428.97,-56.5 350.97,-56.5"/>
<text text-anchor="middle" x="389.97" y="-63.5" font-family="Helvetica,sans-Serif" font-size="10.00">glm/glm.hpp</text>
</a>
</g>
</g>
<!-- Node19&#45;&gt;Node20 -->
<g id="edge23" class="edge">
<title>Node19&#45;&gt;Node20</title>
<path fill="none" stroke="midnightblue" d="M424.2,-112.08C418.41,-104.46 409.91,-93.26 402.83,-83.94"/>
<polygon fill="midnightblue" stroke="midnightblue" points="405.45,-81.6 396.61,-75.75 399.87,-85.83 405.45,-81.6"/>
</g>
<!-- Node21 -->
<g id="node21" class="node">
<title>Node21</title>
<g id="a_node21"><a xlink:href="ytexture_8h.html" target="_top" xlink:title=" ">
<polygon fill="none" stroke="black" points="545.47,-56.5 545.47,-75.5 612.47,-75.5 612.47,-56.5 545.47,-56.5"/>
<text text-anchor="middle" x="578.97" y="-63.5" font-family="Helvetica,sans-Serif" font-size="10.00">ytexture.h</text>
</a>
</g>
</g>
<!-- Node19&#45;&gt;Node21 -->
<g id="edge24" class="edge">
<title>Node19&#45;&gt;Node21</title>
<path fill="none" stroke="midnightblue" d="M454.42,-112.44C479.1,-103.44 518.15,-89.19 545.94,-79.05"/>
<polygon fill="midnightblue" stroke="midnightblue" points="547.43,-82.23 555.63,-75.52 545.03,-75.66 547.43,-82.23"/>
</g>
<!-- Node21&#45;&gt;Node3 -->
<g id="edge26" class="edge">
<title>Node21&#45;&gt;Node3</title>
<path fill="none" stroke="midnightblue" d="M545.41,-58.63C540.57,-57.74 535.64,-56.83 530.97,-56 447.08,-41.01 348.04,-24.51 298.14,-16.28"/>
<polygon fill="midnightblue" stroke="midnightblue" points="298.41,-12.78 287.98,-14.61 297.27,-19.69 298.41,-12.78"/>
</g>
<!-- Node21&#45;&gt;Node18 -->
<g id="edge27" class="edge">
<title>Node21&#45;&gt;Node18</title>
<path fill="none" stroke="midnightblue" d="M612.56,-57.38C657.85,-47.1 738.03,-28.91 783.34,-18.63"/>
<polygon fill="midnightblue" stroke="midnightblue" points="784.28,-22.01 793.26,-16.38 782.73,-15.18 784.28,-22.01"/>
</g>
<!-- Node22 -->
<g id="node22" class="node">
<title>Node22</title>
<g id="a_node22"><a xlink:title=" ">
<polygon fill="none" stroke="#bfbfbf" points="590.97,-0.5 590.97,-19.5 648.97,-19.5 648.97,-0.5 590.97,-0.5"/>
<text text-anchor="middle" x="619.97" y="-7.5" font-family="Helvetica,sans-Serif" font-size="10.00">memory</text>
</a>
</g>
</g>
<!-- Node21&#45;&gt;Node22 -->
<g id="edge25" class="edge">
<title>Node21&#45;&gt;Node22</title>
<path fill="none" stroke="midnightblue" d="M585.74,-56.08C591.53,-48.46 600.03,-37.26 607.1,-27.94"/>
<polygon fill="midnightblue" stroke="midnightblue" points="610.06,-29.83 613.32,-19.75 604.49,-25.6 610.06,-29.83"/>
</g>
<!-- Node23 -->
<g id="node23" class="node">
<title>Node23</title>
<g id="a_node23"><a xlink:title=" ">
<polygon fill="none" stroke="#bfbfbf" points="501.47,-0.5 501.47,-19.5 572.47,-19.5 572.47,-0.5 501.47,-0.5"/>
<text text-anchor="middle" x="536.97" y="-7.5" font-family="Helvetica,sans-Serif" font-size="10.00">glad/glad.h</text>
</a>
</g>
</g>
<!-- Node21&#45;&gt;Node23 -->
<g id="edge28" class="edge">
<title>Node21&#45;&gt;Node23</title>
<path fill="none" stroke="midnightblue" d="M572.03,-56.08C566.04,-48.38 557.21,-37.03 549.92,-27.65"/>
<polygon fill="midnightblue" stroke="midnightblue" points="552.68,-25.5 543.77,-19.75 547.15,-29.79 552.68,-25.5"/>
</g>
<!-- Node24&#45;&gt;Node3 -->
<g id="edge32" class="edge">
<title>Node24&#45;&gt;Node3</title>
<path fill="none" stroke="midnightblue" d="M277.93,-112.43C275.87,-103.41 272.73,-88.79 270.97,-76 268.84,-60.56 267.55,-42.93 266.82,-29.93"/>
<polygon fill="midnightblue" stroke="midnightblue" points="270.31,-29.68 266.31,-19.87 263.32,-30.03 270.31,-29.68"/>
</g>
<!-- Node25&#45;&gt;Node8 -->
<g id="edge35" class="edge">
<title>Node25&#45;&gt;Node8</title>
<path fill="none" stroke="midnightblue" d="M185.11,-112.32C172.75,-103.98 153.84,-91.21 139.23,-81.35"/>
<polygon fill="midnightblue" stroke="midnightblue" points="141.03,-78.35 130.79,-75.65 137.12,-84.15 141.03,-78.35"/>
</g>
<!-- Node26 -->
<g id="node26" class="node">
<title>Node26</title>
<g id="a_node26"><a xlink:title=" ">
<polygon fill="none" stroke="#bfbfbf" points="168.97,-56.5 168.97,-75.5 218.97,-75.5 218.97,-56.5 168.97,-56.5"/>
<text text-anchor="middle" x="193.97" y="-63.5" font-family="Helvetica,sans-Serif" font-size="10.00">chrono</text>
</a>
</g>
</g>
<!-- Node25&#45;&gt;Node26 -->
<g id="edge34" class="edge">
<title>Node25&#45;&gt;Node26</title>
<path fill="none" stroke="midnightblue" d="M197.31,-112.08C196.78,-105.01 196.03,-94.86 195.37,-85.99"/>
<polygon fill="midnightblue" stroke="midnightblue" points="198.84,-85.47 194.62,-75.75 191.86,-85.98 198.84,-85.47"/>
</g>
</g>
</svg>
