<?xml version="1.0" encoding="UTF-8" standalone="no"?>
<!DOCTYPE svg PUBLIC "-//W3C//DTD SVG 1.1//EN"
 "http://www.w3.org/Graphics/SVG/1.1/DTD/svg11.dtd">
<!-- Generated by graphviz version 5.0.0 (20220707.1540)
 -->
<!-- Title: yapre/src/yluainterface.inl Pages: 1 -->
<svg width="1231pt" height="196pt"
 viewBox="0.00 0.00 1230.50 196.00" xmlns="http://www.w3.org/2000/svg" xmlns:xlink="http://www.w3.org/1999/xlink">
<g id="graph0" class="graph" transform="scale(1 1) rotate(0) translate(4 192)">
<title>yapre/src/yluainterface.inl</title>
<!-- Node1 -->
<g id="node1" class="node">
<title>Node1</title>
<g id="a_node1"><a xlink:title=" ">
<polygon fill="#bfbfbf" stroke="black" points="174.5,-168.5 174.5,-187.5 302.5,-187.5 302.5,-168.5 174.5,-168.5"/>
<text text-anchor="middle" x="238.5" y="-175.5" font-family="Helvetica,sans-Serif" font-size="10.00">yapre/src/yluainterface.inl</text>
</a>
</g>
</g>
<!-- Node2 -->
<g id="node2" class="node">
<title>Node2</title>
<g id="a_node2"><a xlink:href="yaudio_8h.html" target="_top" xlink:title=" ">
<polygon fill="none" stroke="black" points="0,-112.5 0,-131.5 53,-131.5 53,-112.5 0,-112.5"/>
<text text-anchor="middle" x="26.5" y="-119.5" font-family="Helvetica,sans-Serif" font-size="10.00">yaudio.h</text>
</a>
</g>
</g>
<!-- Node1&#45;&gt;Node2 -->
<g id="edge1" class="edge">
<title>Node1&#45;&gt;Node2</title>
<path fill="none" stroke="midnightblue" d="M204.91,-168.44C166.24,-158.59 102.95,-142.47 63.07,-132.32"/>
<polygon fill="midnightblue" stroke="midnightblue" points="63.78,-128.88 53.22,-129.81 62.05,-135.67 63.78,-128.88"/>
</g>
<!-- Node3 -->
<g id="node3" class="node">
<title>Node3</title>
<g id="a_node3"><a xlink:href="ycore_8h.html" target="_top" xlink:title=" ">
<polygon fill="none" stroke="black" points="136,-112.5 136,-131.5 185,-131.5 185,-112.5 136,-112.5"/>
<text text-anchor="middle" x="160.5" y="-119.5" font-family="Helvetica,sans-Serif" font-size="10.00">ycore.h</text>
</a>
</g>
</g>
<!-- Node1&#45;&gt;Node3 -->
<g id="edge2" class="edge">
<title>Node1&#45;&gt;Node3</title>
<path fill="none" stroke="midnightblue" d="M225.97,-168.32C213.91,-159.98 195.47,-147.21 181.23,-137.35"/>
<polygon fill="midnightblue" stroke="midnightblue" points="183.22,-134.47 173,-131.65 179.23,-140.22 183.22,-134.47"/>
</g>
<!-- Node5 -->
<g id="node5" class="node">
<title>Node5</title>
<g id="a_node5"><a xlink:href="yinput_8h.html" target="_top" xlink:title=" ">
<polygon fill="none" stroke="black" points="292,-112.5 292,-131.5 343,-131.5 343,-112.5 292,-112.5"/>
<text text-anchor="middle" x="317.5" y="-119.5" font-family="Helvetica,sans-Serif" font-size="10.00">yinput.h</text>
</a>
</g>
</g>
<!-- Node1&#45;&gt;Node5 -->
<g id="edge4" class="edge">
<title>Node1&#45;&gt;Node5</title>
<path fill="none" stroke="midnightblue" d="M251.19,-168.32C263.4,-159.98 282.08,-147.21 296.5,-137.35"/>
<polygon fill="midnightblue" stroke="midnightblue" points="298.56,-140.19 304.84,-131.65 294.61,-134.41 298.56,-140.19"/>
</g>
<!-- Node7 -->
<g id="node7" class="node">
<title>Node7</title>
<g id="a_node7"><a xlink:href="yluabind_8hpp.html" target="_top" xlink:title=" ">
<polygon fill="none" stroke="black" points="567,-112.5 567,-131.5 638,-131.5 638,-112.5 567,-112.5"/>
<text text-anchor="middle" x="602.5" y="-119.5" font-family="Helvetica,sans-Serif" font-size="10.00">yluabind.hpp</text>
</a>
</g>
</g>
<!-- Node1&#45;&gt;Node7 -->
<g id="edge7" class="edge">
<title>Node1&#45;&gt;Node7</title>
<path fill="none" stroke="midnightblue" d="M296.18,-168.44C368.39,-157.73 490.62,-139.6 556.74,-129.79"/>
<polygon fill="midnightblue" stroke="midnightblue" points="557.48,-133.22 566.86,-128.29 556.45,-126.29 557.48,-133.22"/>
</g>
<!-- Node17 -->
<g id="node17" class="node">
<title>Node17</title>
<g id="a_node17"><a xlink:href="yrenderer_8h.html" target="_top" xlink:title=" ">
<polygon fill="none" stroke="black" points="974,-112.5 974,-131.5 1039,-131.5 1039,-112.5 974,-112.5"/>
<text text-anchor="middle" x="1006.5" y="-119.5" font-family="Helvetica,sans-Serif" font-size="10.00">yrenderer.h</text>
</a>
</g>
</g>
<!-- Node1&#45;&gt;Node17 -->
<g id="edge19" class="edge">
<title>Node1&#45;&gt;Node17</title>
<path fill="none" stroke="midnightblue" d="M302.66,-172.49C455.02,-161.78 835.4,-135.03 963.57,-126.02"/>
<polygon fill="midnightblue" stroke="midnightblue" points="964.04,-129.49 973.77,-125.3 963.55,-122.51 964.04,-129.49"/>
</g>
<!-- Node22 -->
<g id="node22" class="node">
<title>Node22</title>
<g id="a_node22"><a xlink:href="yrepl_8h.html" target="_top" xlink:title=" ">
<polygon fill="none" stroke="black" points="71.5,-112.5 71.5,-131.5 117.5,-131.5 117.5,-112.5 71.5,-112.5"/>
<text text-anchor="middle" x="94.5" y="-119.5" font-family="Helvetica,sans-Serif" font-size="10.00">yrepl.h</text>
</a>
</g>
</g>
<!-- Node1&#45;&gt;Node22 -->
<g id="edge28" class="edge">
<title>Node1&#45;&gt;Node22</title>
<path fill="none" stroke="midnightblue" d="M215.68,-168.44C191.67,-159.44 153.67,-145.19 126.63,-135.05"/>
<polygon fill="midnightblue" stroke="midnightblue" points="127.8,-131.75 117.21,-131.52 125.34,-138.3 127.8,-131.75"/>
</g>
<!-- Node23 -->
<g id="node23" class="node">
<title>Node23</title>
<g id="a_node23"><a xlink:href="yscheduler_8h.html" target="_top" xlink:title=" ">
<polygon fill="none" stroke="black" points="203,-112.5 203,-131.5 274,-131.5 274,-112.5 203,-112.5"/>
<text text-anchor="middle" x="238.5" y="-119.5" font-family="Helvetica,sans-Serif" font-size="10.00">yscheduler.h</text>
</a>
</g>
</g>
<!-- Node1&#45;&gt;Node23 -->
<g id="edge30" class="edge">
<title>Node1&#45;&gt;Node23</title>
<path fill="none" stroke="midnightblue" d="M238.5,-168.08C238.5,-161.01 238.5,-150.86 238.5,-141.99"/>
<polygon fill="midnightblue" stroke="midnightblue" points="242,-141.75 238.5,-131.75 235,-141.75 242,-141.75"/>
</g>
<!-- Node4 -->
<g id="node4" class="node">
<title>Node4</title>
<g id="a_node4"><a xlink:title=" ">
<polygon fill="none" stroke="#bfbfbf" points="581,-0.5 581,-19.5 622,-19.5 622,-0.5 581,-0.5"/>
<text text-anchor="middle" x="601.5" y="-7.5" font-family="Helvetica,sans-Serif" font-size="10.00">string</text>
</a>
</g>
</g>
<!-- Node3&#45;&gt;Node4 -->
<g id="edge3" class="edge">
<title>Node3&#45;&gt;Node4</title>
<path fill="none" stroke="midnightblue" d="M158.73,-112.38C156.42,-98.37 154.27,-70.73 169.5,-56 198.31,-28.15 477.1,-15.52 570.89,-12.04"/>
<polygon fill="midnightblue" stroke="midnightblue" points="571.02,-15.54 580.89,-11.68 570.77,-8.54 571.02,-15.54"/>
</g>
<!-- Node5&#45;&gt;Node4 -->
<g id="edge6" class="edge">
<title>Node5&#45;&gt;Node4</title>
<path fill="none" stroke="midnightblue" d="M303.97,-112.35C285.43,-99.46 256.17,-74.72 272.5,-56 311.06,-11.8 496.2,-9.44 570.52,-10.32"/>
<polygon fill="midnightblue" stroke="midnightblue" points="570.6,-13.83 580.65,-10.47 570.71,-6.83 570.6,-13.83"/>
</g>
<!-- Node6 -->
<g id="node6" class="node">
<title>Node6</title>
<g id="a_node6"><a xlink:title=" ">
<polygon fill="none" stroke="#bfbfbf" points="281,-56.5 281,-75.5 340,-75.5 340,-56.5 281,-56.5"/>
<text text-anchor="middle" x="310.5" y="-63.5" font-family="Helvetica,sans-Serif" font-size="10.00">functional</text>
</a>
</g>
</g>
<!-- Node5&#45;&gt;Node6 -->
<g id="edge5" class="edge">
<title>Node5&#45;&gt;Node6</title>
<path fill="none" stroke="midnightblue" d="M316.34,-112.08C315.42,-104.93 314.08,-94.64 312.92,-85.69"/>
<polygon fill="midnightblue" stroke="midnightblue" points="316.39,-85.22 311.63,-75.75 309.45,-86.12 316.39,-85.22"/>
</g>
<!-- Node7&#45;&gt;Node4 -->
<g id="edge13" class="edge">
<title>Node7&#45;&gt;Node4</title>
<path fill="none" stroke="midnightblue" d="M638.35,-120.07C701.44,-117.59 828.21,-108.57 855.5,-76 861.21,-69.19 861.21,-62.81 855.5,-56 827.34,-22.41 693.74,-13.88 632.41,-11.72"/>
<polygon fill="midnightblue" stroke="midnightblue" points="632.29,-8.22 622.18,-11.4 632.07,-15.21 632.29,-8.22"/>
</g>
<!-- Node7&#45;&gt;Node6 -->
<g id="edge11" class="edge">
<title>Node7&#45;&gt;Node6</title>
<path fill="none" stroke="midnightblue" d="M566.78,-115.23C519.55,-107.48 433.52,-92.92 350.16,-76.05"/>
<polygon fill="midnightblue" stroke="midnightblue" points="350.77,-72.6 340.28,-74.04 349.38,-79.46 350.77,-72.6"/>
</g>
<!-- Node8 -->
<g id="node8" class="node">
<title>Node8</title>
<g id="a_node8"><a xlink:title=" ">
<polygon fill="none" stroke="#bfbfbf" points="417,-56.5 417,-75.5 470,-75.5 470,-56.5 417,-56.5"/>
<text text-anchor="middle" x="443.5" y="-63.5" font-family="Helvetica,sans-Serif" font-size="10.00">lauxlib.h</text>
</a>
</g>
</g>
<!-- Node7&#45;&gt;Node8 -->
<g id="edge8" class="edge">
<title>Node7&#45;&gt;Node8</title>
<path fill="none" stroke="midnightblue" d="M577.31,-112.44C550.56,-103.36 508.1,-88.94 478.19,-78.78"/>
<polygon fill="midnightblue" stroke="midnightblue" points="479.17,-75.42 468.58,-75.52 476.92,-82.05 479.17,-75.42"/>
</g>
<!-- Node9 -->
<g id="node9" class="node">
<title>Node9</title>
<g id="a_node9"><a xlink:title=" ">
<polygon fill="none" stroke="#bfbfbf" points="488.5,-56.5 488.5,-75.5 526.5,-75.5 526.5,-56.5 488.5,-56.5"/>
<text text-anchor="middle" x="507.5" y="-63.5" font-family="Helvetica,sans-Serif" font-size="10.00">lua.h</text>
</a>
</g>
</g>
<!-- Node7&#45;&gt;Node9 -->
<g id="edge9" class="edge">
<title>Node7&#45;&gt;Node9</title>
<path fill="none" stroke="midnightblue" d="M587.24,-112.32C572.28,-103.82 549.25,-90.73 531.77,-80.8"/>
<polygon fill="midnightblue" stroke="midnightblue" points="533.15,-77.55 522.73,-75.65 529.69,-83.64 533.15,-77.55"/>
</g>
<!-- Node10 -->
<g id="node10" class="node">
<title>Node10</title>
<g id="a_node10"><a xlink:title=" ">
<polygon fill="none" stroke="#bfbfbf" points="545,-56.5 545,-75.5 592,-75.5 592,-56.5 545,-56.5"/>
<text text-anchor="middle" x="568.5" y="-63.5" font-family="Helvetica,sans-Serif" font-size="10.00">lualib.h</text>
</a>
</g>
</g>
<!-- Node7&#45;&gt;Node10 -->
<g id="edge10" class="edge">
<title>Node7&#45;&gt;Node10</title>
<path fill="none" stroke="midnightblue" d="M596.89,-112.08C592.13,-104.53 585.18,-93.49 579.35,-84.23"/>
<polygon fill="midnightblue" stroke="midnightblue" points="582.3,-82.35 574.01,-75.75 576.38,-86.08 582.3,-82.35"/>
</g>
<!-- Node11 -->
<g id="node11" class="node">
<title>Node11</title>
<g id="a_node11"><a xlink:title=" ">
<polygon fill="none" stroke="#bfbfbf" points="610.5,-56.5 610.5,-75.5 664.5,-75.5 664.5,-56.5 610.5,-56.5"/>
<text text-anchor="middle" x="637.5" y="-63.5" font-family="Helvetica,sans-Serif" font-size="10.00">iostream</text>
</a>
</g>
</g>
<!-- Node7&#45;&gt;Node11 -->
<g id="edge12" class="edge">
<title>Node7&#45;&gt;Node11</title>
<path fill="none" stroke="midnightblue" d="M608.28,-112.08C613.17,-104.53 620.33,-93.49 626.33,-84.23"/>
<polygon fill="midnightblue" stroke="midnightblue" points="629.33,-86.05 631.83,-75.75 623.45,-82.24 629.33,-86.05"/>
</g>
<!-- Node12 -->
<g id="node12" class="node">
<title>Node12</title>
<g id="a_node12"><a xlink:title=" ">
<polygon fill="none" stroke="#bfbfbf" points="940.5,-56.5 940.5,-75.5 978.5,-75.5 978.5,-56.5 940.5,-56.5"/>
<text text-anchor="middle" x="959.5" y="-63.5" font-family="Helvetica,sans-Serif" font-size="10.00">tuple</text>
</a>
</g>
</g>
<!-- Node7&#45;&gt;Node12 -->
<g id="edge14" class="edge">
<title>Node7&#45;&gt;Node12</title>
<path fill="none" stroke="midnightblue" d="M638.23,-117.55C698.21,-111.43 822.74,-97.26 926.5,-76 927.78,-75.74 929.08,-75.46 930.39,-75.16"/>
<polygon fill="midnightblue" stroke="midnightblue" points="931.55,-78.47 940.41,-72.65 929.85,-71.68 931.55,-78.47"/>
</g>
<!-- Node13 -->
<g id="node13" class="node">
<title>Node13</title>
<g id="a_node13"><a xlink:title=" ">
<polygon fill="none" stroke="#bfbfbf" points="682.5,-56.5 682.5,-75.5 744.5,-75.5 744.5,-56.5 682.5,-56.5"/>
<text text-anchor="middle" x="713.5" y="-63.5" font-family="Helvetica,sans-Serif" font-size="10.00">type_traits</text>
</a>
</g>
</g>
<!-- Node7&#45;&gt;Node13 -->
<g id="edge15" class="edge">
<title>Node7&#45;&gt;Node13</title>
<path fill="none" stroke="midnightblue" d="M620.33,-112.32C638.22,-103.62 665.98,-90.12 686.55,-80.11"/>
<polygon fill="midnightblue" stroke="midnightblue" points="688.25,-83.18 695.71,-75.65 685.19,-76.88 688.25,-83.18"/>
</g>
<!-- Node14 -->
<g id="node14" class="node">
<title>Node14</title>
<g id="a_node14"><a xlink:title=" ">
<polygon fill="none" stroke="#bfbfbf" points="763,-56.5 763,-75.5 846,-75.5 846,-56.5 763,-56.5"/>
<text text-anchor="middle" x="804.5" y="-63.5" font-family="Helvetica,sans-Serif" font-size="10.00">unordered_map</text>
</a>
</g>
</g>
<!-- Node7&#45;&gt;Node14 -->
<g id="edge16" class="edge">
<title>Node7&#45;&gt;Node14</title>
<path fill="none" stroke="midnightblue" d="M634.51,-112.44C669.23,-103.16 724.79,-88.31 762.88,-78.13"/>
<polygon fill="midnightblue" stroke="midnightblue" points="763.89,-81.48 772.64,-75.52 762.08,-74.72 763.89,-81.48"/>
</g>
<!-- Node15 -->
<g id="node15" class="node">
<title>Node15</title>
<g id="a_node15"><a xlink:title=" ">
<polygon fill="none" stroke="#bfbfbf" points="358.5,-56.5 358.5,-75.5 398.5,-75.5 398.5,-56.5 358.5,-56.5"/>
<text text-anchor="middle" x="378.5" y="-63.5" font-family="Helvetica,sans-Serif" font-size="10.00">utility</text>
</a>
</g>
</g>
<!-- Node7&#45;&gt;Node15 -->
<g id="edge17" class="edge">
<title>Node7&#45;&gt;Node15</title>
<path fill="none" stroke="midnightblue" d="M566.93,-113.46C527.9,-105.02 463.47,-90.6 408.5,-76 408.4,-75.97 408.3,-75.95 408.2,-75.92"/>
<polygon fill="midnightblue" stroke="midnightblue" points="409.36,-72.61 398.78,-73.28 407.46,-79.35 409.36,-72.61"/>
</g>
<!-- Node16 -->
<g id="node16" class="node">
<title>Node16</title>
<g id="a_node16"><a xlink:title=" ">
<polygon fill="none" stroke="#bfbfbf" points="939.5,-0.5 939.5,-19.5 983.5,-19.5 983.5,-0.5 939.5,-0.5"/>
<text text-anchor="middle" x="961.5" y="-7.5" font-family="Helvetica,sans-Serif" font-size="10.00">vector</text>
</a>
</g>
</g>
<!-- Node7&#45;&gt;Node16 -->
<g id="edge18" class="edge">
<title>Node7&#45;&gt;Node16</title>
<path fill="none" stroke="midnightblue" d="M638.31,-120.16C691.25,-117.8 792.63,-108.94 871.5,-76 899.93,-64.13 927.94,-41.74 944.98,-26.6"/>
<polygon fill="midnightblue" stroke="midnightblue" points="947.38,-29.15 952.41,-19.82 942.66,-23.97 947.38,-29.15"/>
</g>
<!-- Node17&#45;&gt;Node4 -->
<g id="edge26" class="edge">
<title>Node17&#45;&gt;Node4</title>
<path fill="none" stroke="midnightblue" d="M1006.76,-112.24C1006.67,-98.03 1004.21,-70.11 987.5,-56 934.1,-10.91 714.28,-9.33 632.41,-10.37"/>
<polygon fill="midnightblue" stroke="midnightblue" points="632.19,-6.87 622.25,-10.52 632.3,-13.87 632.19,-6.87"/>
</g>
<!-- Node17&#45;&gt;Node12 -->
<g id="edge27" class="edge">
<title>Node17&#45;&gt;Node12</title>
<path fill="none" stroke="midnightblue" d="M998.74,-112.08C991.96,-104.3 981.96,-92.8 973.74,-83.37"/>
<polygon fill="midnightblue" stroke="midnightblue" points="976.32,-81 967.12,-75.75 971.04,-85.59 976.32,-81"/>
</g>
<!-- Node18 -->
<g id="node18" class="node">
<title>Node18</title>
<g id="a_node18"><a xlink:title=" ">
<polygon fill="none" stroke="#bfbfbf" points="1034.5,-56.5 1034.5,-75.5 1104.5,-75.5 1104.5,-56.5 1034.5,-56.5"/>
<text text-anchor="middle" x="1069.5" y="-63.5" font-family="Helvetica,sans-Serif" font-size="10.00">glm/glm.hpp</text>
</a>
</g>
</g>
<!-- Node17&#45;&gt;Node18 -->
<g id="edge20" class="edge">
<title>Node17&#45;&gt;Node18</title>
<path fill="none" stroke="midnightblue" d="M1016.62,-112.32C1026.03,-104.26 1040.24,-92.08 1051.57,-82.37"/>
<polygon fill="midnightblue" stroke="midnightblue" points="1053.88,-85 1059.19,-75.83 1049.32,-79.68 1053.88,-85"/>
</g>
<!-- Node19 -->
<g id="node19" class="node">
<title>Node19</title>
<g id="a_node19"><a xlink:href="ytexture_8h.html" target="_top" xlink:title=" ">
<polygon fill="none" stroke="black" points="1122.5,-56.5 1122.5,-75.5 1182.5,-75.5 1182.5,-56.5 1122.5,-56.5"/>
<text text-anchor="middle" x="1152.5" y="-63.5" font-family="Helvetica,sans-Serif" font-size="10.00">ytexture.h</text>
</a>
</g>
</g>
<!-- Node17&#45;&gt;Node19 -->
<g id="edge21" class="edge">
<title>Node17&#45;&gt;Node19</title>
<path fill="none" stroke="midnightblue" d="M1029.63,-112.44C1053.98,-103.44 1092.51,-89.19 1119.92,-79.05"/>
<polygon fill="midnightblue" stroke="midnightblue" points="1121.31,-82.27 1129.47,-75.52 1118.88,-75.7 1121.31,-82.27"/>
</g>
<!-- Node19&#45;&gt;Node4 -->
<g id="edge23" class="edge">
<title>Node19&#45;&gt;Node4</title>
<path fill="none" stroke="midnightblue" d="M1122.35,-57.61C1119.37,-57.01 1116.38,-56.46 1113.5,-56 932.53,-27.31 712.46,-15.69 632.45,-12.22"/>
<polygon fill="midnightblue" stroke="midnightblue" points="632.25,-8.71 622.11,-11.78 631.95,-15.7 632.25,-8.71"/>
</g>
<!-- Node19&#45;&gt;Node16 -->
<g id="edge24" class="edge">
<title>Node19&#45;&gt;Node16</title>
<path fill="none" stroke="midnightblue" d="M1122.24,-56.44C1087.1,-46.51 1029.4,-30.2 993.53,-20.05"/>
<polygon fill="midnightblue" stroke="midnightblue" points="994.16,-16.6 983.58,-17.24 992.25,-23.33 994.16,-16.6"/>
</g>
<!-- Node20 -->
<g id="node20" class="node">
<title>Node20</title>
<g id="a_node20"><a xlink:title=" ">
<polygon fill="none" stroke="#bfbfbf" points="1088.5,-0.5 1088.5,-19.5 1140.5,-19.5 1140.5,-0.5 1088.5,-0.5"/>
<text text-anchor="middle" x="1114.5" y="-7.5" font-family="Helvetica,sans-Serif" font-size="10.00">memory</text>
</a>
</g>
</g>
<!-- Node19&#45;&gt;Node20 -->
<g id="edge22" class="edge">
<title>Node19&#45;&gt;Node20</title>
<path fill="none" stroke="midnightblue" d="M1146.23,-56.08C1140.86,-48.46 1132.98,-37.26 1126.42,-27.94"/>
<polygon fill="midnightblue" stroke="midnightblue" points="1129.28,-25.91 1120.66,-19.75 1123.55,-29.94 1129.28,-25.91"/>
</g>
<!-- Node21 -->
<g id="node21" class="node">
<title>Node21</title>
<g id="a_node21"><a xlink:title=" ">
<polygon fill="none" stroke="#bfbfbf" points="1158.5,-0.5 1158.5,-19.5 1222.5,-19.5 1222.5,-0.5 1158.5,-0.5"/>
<text text-anchor="middle" x="1190.5" y="-7.5" font-family="Helvetica,sans-Serif" font-size="10.00">glad/glad.h</text>
</a>
</g>
</g>
<!-- Node19&#45;&gt;Node21 -->
<g id="edge25" class="edge">
<title>Node19&#45;&gt;Node21</title>
<path fill="none" stroke="midnightblue" d="M1158.77,-56.08C1164.14,-48.46 1172.02,-37.26 1178.58,-27.94"/>
<polygon fill="midnightblue" stroke="midnightblue" points="1181.45,-29.94 1184.34,-19.75 1175.72,-25.91 1181.45,-29.94"/>
</g>
<!-- Node22&#45;&gt;Node4 -->
<g id="edge29" class="edge">
<title>Node22&#45;&gt;Node4</title>
<path fill="none" stroke="midnightblue" d="M99.6,-112.41C108.74,-97.9 129.41,-68.89 155.5,-56 228.76,-19.81 481.93,-12.71 570.56,-11.33"/>
<polygon fill="midnightblue" stroke="midnightblue" points="570.82,-14.83 580.77,-11.19 570.72,-7.83 570.82,-14.83"/>
</g>
<!-- Node23&#45;&gt;Node6 -->
<g id="edge32" class="edge">
<title>Node23&#45;&gt;Node6</title>
<path fill="none" stroke="midnightblue" d="M250.07,-112.32C260.92,-104.18 277.38,-91.84 290.38,-82.09"/>
<polygon fill="midnightblue" stroke="midnightblue" points="292.82,-84.63 298.72,-75.83 288.62,-79.03 292.82,-84.63"/>
</g>
<!-- Node24 -->
<g id="node24" class="node">
<title>Node24</title>
<g id="a_node24"><a xlink:title=" ">
<polygon fill="none" stroke="#bfbfbf" points="178.5,-56.5 178.5,-75.5 224.5,-75.5 224.5,-56.5 178.5,-56.5"/>
<text text-anchor="middle" x="201.5" y="-63.5" font-family="Helvetica,sans-Serif" font-size="10.00">chrono</text>
</a>
</g>
</g>
<!-- Node23&#45;&gt;Node24 -->
<g id="edge31" class="edge">
<title>Node23&#45;&gt;Node24</title>
<path fill="none" stroke="midnightblue" d="M232.39,-112.08C227.22,-104.53 219.65,-93.49 213.31,-84.23"/>
<polygon fill="midnightblue" stroke="midnightblue" points="216.04,-82.02 207.5,-75.75 210.26,-85.98 216.04,-82.02"/>
</g>
</g>
</svg>
