<?xml version="1.0" encoding="UTF-8" standalone="no"?>
<!DOCTYPE svg PUBLIC "-//W3C//DTD SVG 1.1//EN"
 "http://www.w3.org/Graphics/SVG/1.1/DTD/svg11.dtd">
<!-- Generated by graphviz version 2.43.0 (0)
 -->
<!-- Title: yapre/src/yluainterface.inl Pages: 1 -->
<svg width="1318pt" height="196pt"
 viewBox="0.00 0.00 1318.00 196.00" xmlns="http://www.w3.org/2000/svg" xmlns:xlink="http://www.w3.org/1999/xlink">
<g id="graph0" class="graph" transform="scale(1 1) rotate(0) translate(4 192)">
<title>yapre/src/yluainterface.inl</title>
<!-- Node1 -->
<g id="node1" class="node">
<title>Node1</title>
<g id="a_node1"><a xlink:title=" ">
<polygon fill="#bfbfbf" stroke="black" points="184.5,-168.5 184.5,-187.5 328.5,-187.5 328.5,-168.5 184.5,-168.5"/>
<text text-anchor="middle" x="256.5" y="-175.5" font-family="Helvetica,sans-Serif" font-size="10.00">yapre/src/yluainterface.inl</text>
</a>
</g>
</g>
<!-- Node2 -->
<g id="node2" class="node">
<title>Node2</title>
<g id="a_node2"><a xlink:href="yaudio_8h.html" target="_top" xlink:title=" ">
<polygon fill="none" stroke="black" points="0,-112.5 0,-131.5 59,-131.5 59,-112.5 0,-112.5"/>
<text text-anchor="middle" x="29.5" y="-119.5" font-family="Helvetica,sans-Serif" font-size="10.00">yaudio.h</text>
</a>
</g>
</g>
<!-- Node1&#45;&gt;Node2 -->
<g id="edge1" class="edge">
<title>Node1&#45;&gt;Node2</title>
<path fill="none" stroke="midnightblue" d="M220.53,-168.44C179.21,-158.61 111.64,-142.54 68.92,-132.38"/>
<polygon fill="midnightblue" stroke="midnightblue" points="69.69,-128.96 59.15,-130.05 68.07,-135.77 69.69,-128.96"/>
</g>
<!-- Node3 -->
<g id="node3" class="node">
<title>Node3</title>
<g id="a_node3"><a xlink:href="ycore_8h.html" target="_top" xlink:title=" ">
<polygon fill="none" stroke="black" points="146,-112.5 146,-131.5 199,-131.5 199,-112.5 146,-112.5"/>
<text text-anchor="middle" x="172.5" y="-119.5" font-family="Helvetica,sans-Serif" font-size="10.00">ycore.h</text>
</a>
</g>
</g>
<!-- Node1&#45;&gt;Node3 -->
<g id="edge2" class="edge">
<title>Node1&#45;&gt;Node3</title>
<path fill="none" stroke="midnightblue" d="M243,-168.32C229.9,-159.9 209.79,-146.97 194.39,-137.07"/>
<polygon fill="midnightblue" stroke="midnightblue" points="196.27,-134.12 185.96,-131.65 192.48,-140.01 196.27,-134.12"/>
</g>
<!-- Node5 -->
<g id="node5" class="node">
<title>Node5</title>
<g id="a_node5"><a xlink:href="yinput_8h.html" target="_top" xlink:title=" ">
<polygon fill="none" stroke="black" points="313.5,-112.5 313.5,-131.5 369.5,-131.5 369.5,-112.5 313.5,-112.5"/>
<text text-anchor="middle" x="341.5" y="-119.5" font-family="Helvetica,sans-Serif" font-size="10.00">yinput.h</text>
</a>
</g>
</g>
<!-- Node1&#45;&gt;Node5 -->
<g id="edge4" class="edge">
<title>Node1&#45;&gt;Node5</title>
<path fill="none" stroke="midnightblue" d="M270.16,-168.32C283.42,-159.9 303.77,-146.97 319.35,-137.07"/>
<polygon fill="midnightblue" stroke="midnightblue" points="321.31,-139.97 327.88,-131.65 317.56,-134.06 321.31,-139.97"/>
</g>
<!-- Node7 -->
<g id="node7" class="node">
<title>Node7</title>
<g id="a_node7"><a xlink:href="yluabind_8hpp.html" target="_top" xlink:title=" ">
<polygon fill="none" stroke="black" points="604.5,-112.5 604.5,-131.5 684.5,-131.5 684.5,-112.5 604.5,-112.5"/>
<text text-anchor="middle" x="644.5" y="-119.5" font-family="Helvetica,sans-Serif" font-size="10.00">yluabind.hpp</text>
</a>
</g>
</g>
<!-- Node1&#45;&gt;Node7 -->
<g id="edge7" class="edge">
<title>Node1&#45;&gt;Node7</title>
<path fill="none" stroke="midnightblue" d="M317.98,-168.44C394.46,-157.8 523.56,-139.83 594.35,-129.98"/>
<polygon fill="midnightblue" stroke="midnightblue" points="594.94,-133.43 604.36,-128.59 593.97,-126.5 594.94,-133.43"/>
</g>
<!-- Node17 -->
<g id="node17" class="node">
<title>Node17</title>
<g id="a_node17"><a xlink:href="yrenderer_8h.html" target="_top" xlink:title=" ">
<polygon fill="none" stroke="black" points="1039.5,-112.5 1039.5,-131.5 1111.5,-131.5 1111.5,-112.5 1039.5,-112.5"/>
<text text-anchor="middle" x="1075.5" y="-119.5" font-family="Helvetica,sans-Serif" font-size="10.00">yrenderer.h</text>
</a>
</g>
</g>
<!-- Node1&#45;&gt;Node17 -->
<g id="edge19" class="edge">
<title>Node1&#45;&gt;Node17</title>
<path fill="none" stroke="midnightblue" d="M328.82,-172.23C493.6,-161.37 893.15,-135.02 1029.22,-126.05"/>
<polygon fill="midnightblue" stroke="midnightblue" points="1029.56,-129.54 1039.31,-125.39 1029.1,-122.55 1029.56,-129.54"/>
</g>
<!-- Node22 -->
<g id="node22" class="node">
<title>Node22</title>
<g id="a_node22"><a xlink:href="yrepl_8h.html" target="_top" xlink:title=" ">
<polygon fill="none" stroke="black" points="77.5,-112.5 77.5,-131.5 127.5,-131.5 127.5,-112.5 77.5,-112.5"/>
<text text-anchor="middle" x="102.5" y="-119.5" font-family="Helvetica,sans-Serif" font-size="10.00">yrepl.h</text>
</a>
</g>
</g>
<!-- Node1&#45;&gt;Node22 -->
<g id="edge28" class="edge">
<title>Node1&#45;&gt;Node22</title>
<path fill="none" stroke="midnightblue" d="M232.1,-168.44C206.3,-159.4 165.42,-145.06 136.48,-134.92"/>
<polygon fill="midnightblue" stroke="midnightblue" points="137.38,-131.52 126.79,-131.52 135.07,-138.13 137.38,-131.52"/>
</g>
<!-- Node23 -->
<g id="node23" class="node">
<title>Node23</title>
<g id="a_node23"><a xlink:href="yscheduler_8h.html" target="_top" xlink:title=" ">
<polygon fill="none" stroke="black" points="217.5,-112.5 217.5,-131.5 295.5,-131.5 295.5,-112.5 217.5,-112.5"/>
<text text-anchor="middle" x="256.5" y="-119.5" font-family="Helvetica,sans-Serif" font-size="10.00">yscheduler.h</text>
</a>
</g>
</g>
<!-- Node1&#45;&gt;Node23 -->
<g id="edge30" class="edge">
<title>Node1&#45;&gt;Node23</title>
<path fill="none" stroke="midnightblue" d="M256.5,-168.08C256.5,-161.01 256.5,-150.86 256.5,-141.99"/>
<polygon fill="midnightblue" stroke="midnightblue" points="260,-141.75 256.5,-131.75 253,-141.75 260,-141.75"/>
</g>
<!-- Node4 -->
<g id="node4" class="node">
<title>Node4</title>
<g id="a_node4"><a xlink:title=" ">
<polygon fill="none" stroke="#bfbfbf" points="621.5,-0.5 621.5,-19.5 665.5,-19.5 665.5,-0.5 621.5,-0.5"/>
<text text-anchor="middle" x="643.5" y="-7.5" font-family="Helvetica,sans-Serif" font-size="10.00">string</text>
</a>
</g>
</g>
<!-- Node3&#45;&gt;Node4 -->
<g id="edge3" class="edge">
<title>Node3&#45;&gt;Node4</title>
<path fill="none" stroke="midnightblue" d="M171.02,-112.33C169.18,-98.25 167.93,-70.52 183.5,-56 214.72,-26.9 511.74,-15.09 611.22,-11.93"/>
<polygon fill="midnightblue" stroke="midnightblue" points="611.4,-15.42 621.28,-11.62 611.18,-8.43 611.4,-15.42"/>
</g>
<!-- Node5&#45;&gt;Node4 -->
<g id="edge6" class="edge">
<title>Node5&#45;&gt;Node4</title>
<path fill="none" stroke="midnightblue" d="M326.17,-112.34C305.58,-99.64 273.44,-75.38 290.5,-56 311.57,-32.07 528.23,-17.47 611.31,-12.72"/>
<polygon fill="midnightblue" stroke="midnightblue" points="611.65,-16.2 621.44,-12.15 611.26,-9.21 611.65,-16.2"/>
</g>
<!-- Node6 -->
<g id="node6" class="node">
<title>Node6</title>
<g id="a_node6"><a xlink:title=" ">
<polygon fill="none" stroke="#bfbfbf" points="299,-56.5 299,-75.5 364,-75.5 364,-56.5 299,-56.5"/>
<text text-anchor="middle" x="331.5" y="-63.5" font-family="Helvetica,sans-Serif" font-size="10.00">functional</text>
</a>
</g>
</g>
<!-- Node5&#45;&gt;Node6 -->
<g id="edge5" class="edge">
<title>Node5&#45;&gt;Node6</title>
<path fill="none" stroke="midnightblue" d="M339.85,-112.08C338.52,-104.93 336.62,-94.64 334.96,-85.69"/>
<polygon fill="midnightblue" stroke="midnightblue" points="338.38,-84.95 333.12,-75.75 331.5,-86.22 338.38,-84.95"/>
</g>
<!-- Node7&#45;&gt;Node4 -->
<g id="edge13" class="edge">
<title>Node7&#45;&gt;Node4</title>
<path fill="none" stroke="midnightblue" d="M684.66,-120.56C753.79,-118.87 890.7,-111.05 920.5,-76 926.26,-69.23 926.26,-62.77 920.5,-56 889.4,-19.44 742.09,-12.5 675.87,-11.24"/>
<polygon fill="midnightblue" stroke="midnightblue" points="675.65,-7.74 665.6,-11.08 675.54,-14.74 675.65,-7.74"/>
</g>
<!-- Node7&#45;&gt;Node6 -->
<g id="edge11" class="edge">
<title>Node7&#45;&gt;Node6</title>
<path fill="none" stroke="midnightblue" d="M604.45,-114.95C553.39,-107.1 462.16,-92.63 373.94,-76.01"/>
<polygon fill="midnightblue" stroke="midnightblue" points="374.51,-72.55 364.03,-74.13 373.2,-79.43 374.51,-72.55"/>
</g>
<!-- Node8 -->
<g id="node8" class="node">
<title>Node8</title>
<g id="a_node8"><a xlink:title=" ">
<polygon fill="none" stroke="#bfbfbf" points="445,-56.5 445,-75.5 504,-75.5 504,-56.5 445,-56.5"/>
<text text-anchor="middle" x="474.5" y="-63.5" font-family="Helvetica,sans-Serif" font-size="10.00">lauxlib.h</text>
</a>
</g>
</g>
<!-- Node7&#45;&gt;Node8 -->
<g id="edge8" class="edge">
<title>Node7&#45;&gt;Node8</title>
<path fill="none" stroke="midnightblue" d="M617.56,-112.44C588.84,-103.32 543.17,-88.81 511.18,-78.65"/>
<polygon fill="midnightblue" stroke="midnightblue" points="511.9,-75.21 501.31,-75.52 509.78,-81.88 511.9,-75.21"/>
</g>
<!-- Node9 -->
<g id="node9" class="node">
<title>Node9</title>
<g id="a_node9"><a xlink:title=" ">
<polygon fill="none" stroke="#bfbfbf" points="522,-56.5 522,-75.5 563,-75.5 563,-56.5 522,-56.5"/>
<text text-anchor="middle" x="542.5" y="-63.5" font-family="Helvetica,sans-Serif" font-size="10.00">lua.h</text>
</a>
</g>
</g>
<!-- Node7&#45;&gt;Node9 -->
<g id="edge9" class="edge">
<title>Node7&#45;&gt;Node9</title>
<path fill="none" stroke="midnightblue" d="M628.11,-112.32C611.83,-103.7 586.63,-90.36 567.78,-80.39"/>
<polygon fill="midnightblue" stroke="midnightblue" points="569.32,-77.24 558.85,-75.65 566.05,-83.43 569.32,-77.24"/>
</g>
<!-- Node10 -->
<g id="node10" class="node">
<title>Node10</title>
<g id="a_node10"><a xlink:title=" ">
<polygon fill="none" stroke="#bfbfbf" points="581,-56.5 581,-75.5 634,-75.5 634,-56.5 581,-56.5"/>
<text text-anchor="middle" x="607.5" y="-63.5" font-family="Helvetica,sans-Serif" font-size="10.00">lualib.h</text>
</a>
</g>
</g>
<!-- Node7&#45;&gt;Node10 -->
<g id="edge10" class="edge">
<title>Node7&#45;&gt;Node10</title>
<path fill="none" stroke="midnightblue" d="M638.39,-112.08C633.22,-104.53 625.65,-93.49 619.31,-84.23"/>
<polygon fill="midnightblue" stroke="midnightblue" points="622.04,-82.02 613.5,-75.75 616.26,-85.98 622.04,-82.02"/>
</g>
<!-- Node11 -->
<g id="node11" class="node">
<title>Node11</title>
<g id="a_node11"><a xlink:title=" ">
<polygon fill="none" stroke="#bfbfbf" points="652.5,-56.5 652.5,-75.5 712.5,-75.5 712.5,-56.5 652.5,-56.5"/>
<text text-anchor="middle" x="682.5" y="-63.5" font-family="Helvetica,sans-Serif" font-size="10.00">iostream</text>
</a>
</g>
</g>
<!-- Node7&#45;&gt;Node11 -->
<g id="edge12" class="edge">
<title>Node7&#45;&gt;Node11</title>
<path fill="none" stroke="midnightblue" d="M650.77,-112.08C656.14,-104.46 664.02,-93.26 670.58,-83.94"/>
<polygon fill="midnightblue" stroke="midnightblue" points="673.45,-85.94 676.34,-75.75 667.72,-81.91 673.45,-85.94"/>
</g>
<!-- Node12 -->
<g id="node12" class="node">
<title>Node12</title>
<g id="a_node12"><a xlink:title=" ">
<polygon fill="none" stroke="#bfbfbf" points="1006,-56.5 1006,-75.5 1047,-75.5 1047,-56.5 1006,-56.5"/>
<text text-anchor="middle" x="1026.5" y="-63.5" font-family="Helvetica,sans-Serif" font-size="10.00">tuple</text>
</a>
</g>
</g>
<!-- Node7&#45;&gt;Node12 -->
<g id="edge14" class="edge">
<title>Node7&#45;&gt;Node12</title>
<path fill="none" stroke="midnightblue" d="M684.57,-117.42C749.43,-111.26 881.3,-97.23 991.5,-76 992.96,-75.72 994.46,-75.41 995.96,-75.09"/>
<polygon fill="midnightblue" stroke="midnightblue" points="996.94,-78.45 1005.87,-72.75 995.33,-71.64 996.94,-78.45"/>
</g>
<!-- Node13 -->
<g id="node13" class="node">
<title>Node13</title>
<g id="a_node13"><a xlink:title=" ">
<polygon fill="none" stroke="#bfbfbf" points="731,-56.5 731,-75.5 800,-75.5 800,-56.5 731,-56.5"/>
<text text-anchor="middle" x="765.5" y="-63.5" font-family="Helvetica,sans-Serif" font-size="10.00">type_traits</text>
</a>
</g>
</g>
<!-- Node7&#45;&gt;Node13 -->
<g id="edge15" class="edge">
<title>Node7&#45;&gt;Node13</title>
<path fill="none" stroke="midnightblue" d="M663.67,-112.44C683.41,-103.64 714.39,-89.81 736.99,-79.72"/>
<polygon fill="midnightblue" stroke="midnightblue" points="738.71,-82.79 746.42,-75.52 735.86,-76.4 738.71,-82.79"/>
</g>
<!-- Node14 -->
<g id="node14" class="node">
<title>Node14</title>
<g id="a_node14"><a xlink:title=" ">
<polygon fill="none" stroke="#bfbfbf" points="818,-56.5 818,-75.5 911,-75.5 911,-56.5 818,-56.5"/>
<text text-anchor="middle" x="864.5" y="-63.5" font-family="Helvetica,sans-Serif" font-size="10.00">unordered_map</text>
</a>
</g>
</g>
<!-- Node7&#45;&gt;Node14 -->
<g id="edge16" class="edge">
<title>Node7&#45;&gt;Node14</title>
<path fill="none" stroke="midnightblue" d="M679.36,-112.44C717.42,-103.1 778.46,-88.12 819.96,-77.93"/>
<polygon fill="midnightblue" stroke="midnightblue" points="820.93,-81.3 829.8,-75.52 819.26,-74.5 820.93,-81.3"/>
</g>
<!-- Node15 -->
<g id="node15" class="node">
<title>Node15</title>
<g id="a_node15"><a xlink:title=" ">
<polygon fill="none" stroke="#bfbfbf" points="382,-56.5 382,-75.5 427,-75.5 427,-56.5 382,-56.5"/>
<text text-anchor="middle" x="404.5" y="-63.5" font-family="Helvetica,sans-Serif" font-size="10.00">utility</text>
</a>
</g>
</g>
<!-- Node7&#45;&gt;Node15 -->
<g id="edge17" class="edge">
<title>Node7&#45;&gt;Node15</title>
<path fill="none" stroke="midnightblue" d="M604.46,-113.09C564.5,-105.04 501.15,-91.81 437.05,-76.02"/>
<polygon fill="midnightblue" stroke="midnightblue" points="437.73,-72.58 427.18,-73.56 436.04,-79.37 437.73,-72.58"/>
</g>
<!-- Node16 -->
<g id="node16" class="node">
<title>Node16</title>
<g id="a_node16"><a xlink:title=" ">
<polygon fill="none" stroke="#bfbfbf" points="1005,-0.5 1005,-19.5 1052,-19.5 1052,-0.5 1005,-0.5"/>
<text text-anchor="middle" x="1028.5" y="-7.5" font-family="Helvetica,sans-Serif" font-size="10.00">vector</text>
</a>
</g>
</g>
<!-- Node7&#45;&gt;Node16 -->
<g id="edge18" class="edge">
<title>Node7&#45;&gt;Node16</title>
<path fill="none" stroke="midnightblue" d="M684.76,-120.57C742.53,-118.69 851.37,-110.4 936.5,-76 965.48,-64.29 994.14,-41.86 1011.58,-26.67"/>
<polygon fill="midnightblue" stroke="midnightblue" points="1014.06,-29.14 1019.19,-19.87 1009.4,-23.92 1014.06,-29.14"/>
</g>
<!-- Node17&#45;&gt;Node4 -->
<g id="edge26" class="edge">
<title>Node17&#45;&gt;Node4</title>
<path fill="none" stroke="midnightblue" d="M1075.77,-112.23C1075.7,-97.99 1073.26,-70.05 1056.5,-56 1027.45,-31.66 767.72,-16.95 675.67,-12.47"/>
<polygon fill="midnightblue" stroke="midnightblue" points="675.7,-8.97 665.55,-11.98 675.37,-15.96 675.7,-8.97"/>
</g>
<!-- Node17&#45;&gt;Node12 -->
<g id="edge27" class="edge">
<title>Node17&#45;&gt;Node12</title>
<path fill="none" stroke="midnightblue" d="M1067.41,-112.08C1060.34,-104.3 1049.91,-92.8 1041.35,-83.37"/>
<polygon fill="midnightblue" stroke="midnightblue" points="1043.75,-80.8 1034.44,-75.75 1038.57,-85.51 1043.75,-80.8"/>
</g>
<!-- Node18 -->
<g id="node18" class="node">
<title>Node18</title>
<g id="a_node18"><a xlink:title=" ">
<polygon fill="none" stroke="#bfbfbf" points="1103.5,-56.5 1103.5,-75.5 1181.5,-75.5 1181.5,-56.5 1103.5,-56.5"/>
<text text-anchor="middle" x="1142.5" y="-63.5" font-family="Helvetica,sans-Serif" font-size="10.00">glm/glm.hpp</text>
</a>
</g>
</g>
<!-- Node17&#45;&gt;Node18 -->
<g id="edge20" class="edge">
<title>Node17&#45;&gt;Node18</title>
<path fill="none" stroke="midnightblue" d="M1086.26,-112.32C1096.27,-104.26 1111.39,-92.08 1123.43,-82.37"/>
<polygon fill="midnightblue" stroke="midnightblue" points="1125.95,-84.83 1131.54,-75.83 1121.56,-79.38 1125.95,-84.83"/>
</g>
<!-- Node19 -->
<g id="node19" class="node">
<title>Node19</title>
<g id="a_node19"><a xlink:href="ytexture_8h.html" target="_top" xlink:title=" ">
<polygon fill="none" stroke="black" points="1200,-56.5 1200,-75.5 1267,-75.5 1267,-56.5 1200,-56.5"/>
<text text-anchor="middle" x="1233.5" y="-63.5" font-family="Helvetica,sans-Serif" font-size="10.00">ytexture.h</text>
</a>
</g>
</g>
<!-- Node17&#45;&gt;Node19 -->
<g id="edge21" class="edge">
<title>Node17&#45;&gt;Node19</title>
<path fill="none" stroke="midnightblue" d="M1100.54,-112.44C1127.12,-103.36 1169.31,-88.94 1199.02,-78.78"/>
<polygon fill="midnightblue" stroke="midnightblue" points="1200.25,-82.06 1208.58,-75.52 1197.99,-75.44 1200.25,-82.06"/>
</g>
<!-- Node19&#45;&gt;Node4 -->
<g id="edge23" class="edge">
<title>Node19&#45;&gt;Node4</title>
<path fill="none" stroke="midnightblue" d="M1199.77,-57.53C1196.64,-56.96 1193.52,-56.44 1190.5,-56 996.3,-27.8 760.56,-15.85 675.79,-12.25"/>
<polygon fill="midnightblue" stroke="midnightblue" points="675.89,-8.76 665.76,-11.84 675.6,-15.75 675.89,-8.76"/>
</g>
<!-- Node19&#45;&gt;Node16 -->
<g id="edge24" class="edge">
<title>Node19&#45;&gt;Node16</title>
<path fill="none" stroke="midnightblue" d="M1201.02,-56.44C1162.98,-46.42 1100.31,-29.92 1061.89,-19.79"/>
<polygon fill="midnightblue" stroke="midnightblue" points="1062.76,-16.41 1052.2,-17.24 1060.98,-23.18 1062.76,-16.41"/>
</g>
<!-- Node20 -->
<g id="node20" class="node">
<title>Node20</title>
<g id="a_node20"><a xlink:title=" ">
<polygon fill="none" stroke="#bfbfbf" points="1162.5,-0.5 1162.5,-19.5 1220.5,-19.5 1220.5,-0.5 1162.5,-0.5"/>
<text text-anchor="middle" x="1191.5" y="-7.5" font-family="Helvetica,sans-Serif" font-size="10.00">memory</text>
</a>
</g>
</g>
<!-- Node19&#45;&gt;Node20 -->
<g id="edge22" class="edge">
<title>Node19&#45;&gt;Node20</title>
<path fill="none" stroke="midnightblue" d="M1226.56,-56.08C1220.57,-48.38 1211.75,-37.03 1204.45,-27.65"/>
<polygon fill="midnightblue" stroke="midnightblue" points="1207.21,-25.5 1198.31,-19.75 1201.68,-29.79 1207.21,-25.5"/>
</g>
<!-- Node21 -->
<g id="node21" class="node">
<title>Node21</title>
<g id="a_node21"><a xlink:title=" ">
<polygon fill="none" stroke="#bfbfbf" points="1239,-0.5 1239,-19.5 1310,-19.5 1310,-0.5 1239,-0.5"/>
<text text-anchor="middle" x="1274.5" y="-7.5" font-family="Helvetica,sans-Serif" font-size="10.00">glad/glad.h</text>
</a>
</g>
</g>
<!-- Node19&#45;&gt;Node21 -->
<g id="edge25" class="edge">
<title>Node19&#45;&gt;Node21</title>
<path fill="none" stroke="midnightblue" d="M1240.27,-56.08C1246.06,-48.46 1254.56,-37.26 1261.64,-27.94"/>
<polygon fill="midnightblue" stroke="midnightblue" points="1264.6,-29.83 1267.86,-19.75 1259.02,-25.6 1264.6,-29.83"/>
</g>
<!-- Node22&#45;&gt;Node4 -->
<g id="edge29" class="edge">
<title>Node22&#45;&gt;Node4</title>
<path fill="none" stroke="midnightblue" d="M108.32,-112.38C118.67,-97.84 141.84,-68.77 169.5,-56 248.45,-19.56 517.78,-12.62 611.24,-11.31"/>
<polygon fill="midnightblue" stroke="midnightblue" points="611.29,-14.81 621.25,-11.18 611.2,-7.81 611.29,-14.81"/>
</g>
<!-- Node23&#45;&gt;Node6 -->
<g id="edge32" class="edge">
<title>Node23&#45;&gt;Node6</title>
<path fill="none" stroke="midnightblue" d="M268.55,-112.32C279.96,-104.11 297.33,-91.6 310.93,-81.81"/>
<polygon fill="midnightblue" stroke="midnightblue" points="313.16,-84.52 319.23,-75.83 309.07,-78.84 313.16,-84.52"/>
</g>
<!-- Node24 -->
<g id="node24" class="node">
<title>Node24</title>
<g id="a_node24"><a xlink:title=" ">
<polygon fill="none" stroke="#bfbfbf" points="192.5,-56.5 192.5,-75.5 242.5,-75.5 242.5,-56.5 192.5,-56.5"/>
<text text-anchor="middle" x="217.5" y="-63.5" font-family="Helvetica,sans-Serif" font-size="10.00">chrono</text>
</a>
</g>
</g>
<!-- Node23&#45;&gt;Node24 -->
<g id="edge31" class="edge">
<title>Node23&#45;&gt;Node24</title>
<path fill="none" stroke="midnightblue" d="M250.06,-112.08C244.55,-104.46 236.47,-93.26 229.74,-83.94"/>
<polygon fill="midnightblue" stroke="midnightblue" points="232.51,-81.81 223.82,-75.75 226.84,-85.91 232.51,-81.81"/>
</g>
</g>
</svg>
