<?xml version="1.0" encoding="UTF-8" standalone="no"?>
<!DOCTYPE svg PUBLIC "-//W3C//DTD SVG 1.1//EN"
 "http://www.w3.org/Graphics/SVG/1.1/DTD/svg11.dtd">
<!-- Generated by graphviz version 2.43.0 (0)
 -->
<!-- Title: yapre/src/yluabind.hpp Pages: 1 -->
<svg width="1044pt" height="140pt"
 viewBox="0.00 0.00 1044.00 140.00" xmlns="http://www.w3.org/2000/svg" xmlns:xlink="http://www.w3.org/1999/xlink">
<g id="graph0" class="graph" transform="scale(1 1) rotate(0) translate(4 136)">
<title>yapre/src/yluabind.hpp</title>
<!-- Node1 -->
<g id="node1" class="node">
<title>Node1</title>
<g id="a_node1"><a xlink:title=" ">
<polygon fill="#bfbfbf" stroke="black" points="420,-112.5 420,-131.5 548,-131.5 548,-112.5 420,-112.5"/>
<text text-anchor="middle" x="484" y="-119.5" font-family="Helvetica,sans-Serif" font-size="10.00">yapre/src/yluabind.hpp</text>
</a>
</g>
</g>
<!-- Node2 -->
<g id="node2" class="node">
<title>Node2</title>
<g id="a_node2"><a xlink:href="yaudio_8cpp.html" target="_top" xlink:title=" ">
<polygon fill="none" stroke="black" points="0,-56.5 0,-75.5 162,-75.5 162,-56.5 0,-56.5"/>
<text text-anchor="middle" x="81" y="-63.5" font-family="Helvetica,sans-Serif" font-size="10.00">yapre/src/systems/yaudio.cpp</text>
</a>
</g>
</g>
<!-- Node1&#45;&gt;Node2 -->
<g id="edge1" class="edge">
<title>Node1&#45;&gt;Node2</title>
<path fill="none" stroke="midnightblue" d="M410.15,-111.1C334.05,-100.91 216.65,-85.18 144.56,-75.52"/>
<polygon fill="midnightblue" stroke="midnightblue" points="409.77,-114.58 420.14,-112.44 410.7,-107.65 409.77,-114.58"/>
</g>
<!-- Node3 -->
<g id="node3" class="node">
<title>Node3</title>
<g id="a_node3"><a xlink:href="yinput_8cpp.html" target="_top" xlink:title=" ">
<polygon fill="none" stroke="black" points="180,-56.5 180,-75.5 340,-75.5 340,-56.5 180,-56.5"/>
<text text-anchor="middle" x="260" y="-63.5" font-family="Helvetica,sans-Serif" font-size="10.00">yapre/src/systems/yinput.cpp</text>
</a>
</g>
</g>
<!-- Node1&#45;&gt;Node3 -->
<g id="edge2" class="edge">
<title>Node1&#45;&gt;Node3</title>
<path fill="none" stroke="midnightblue" d="M438.74,-110.09C396.42,-99.89 334.09,-84.86 295.33,-75.52"/>
<polygon fill="midnightblue" stroke="midnightblue" points="437.96,-113.5 448.51,-112.44 439.61,-106.7 437.96,-113.5"/>
</g>
<!-- Node4 -->
<g id="node4" class="node">
<title>Node4</title>
<g id="a_node4"><a xlink:href="ylua_8cpp.html" target="_top" xlink:title=" ">
<polygon fill="none" stroke="black" points="591,-0.5 591,-19.5 741,-19.5 741,-0.5 591,-0.5"/>
<text text-anchor="middle" x="666" y="-7.5" font-family="Helvetica,sans-Serif" font-size="10.00">yapre/src/systems/ylua.cpp</text>
</a>
</g>
</g>
<!-- Node1&#45;&gt;Node4 -->
<g id="edge3" class="edge">
<title>Node1&#45;&gt;Node4</title>
<path fill="none" stroke="midnightblue" d="M439.7,-109.35C405.42,-98.2 366.9,-79.6 387,-56 412.73,-25.79 517.33,-15.79 590.86,-12.52"/>
<polygon fill="midnightblue" stroke="midnightblue" points="439.08,-112.82 449.67,-112.43 441.15,-106.13 439.08,-112.82"/>
</g>
<!-- Node5 -->
<g id="node5" class="node">
<title>Node5</title>
<g id="a_node5"><a xlink:href="yrenderer_8cpp.html" target="_top" xlink:title=" ">
<polygon fill="none" stroke="black" points="396,-56.5 396,-75.5 572,-75.5 572,-56.5 396,-56.5"/>
<text text-anchor="middle" x="484" y="-63.5" font-family="Helvetica,sans-Serif" font-size="10.00">yapre/src/systems/yrenderer.cpp</text>
</a>
</g>
</g>
<!-- Node1&#45;&gt;Node5 -->
<g id="edge4" class="edge">
<title>Node1&#45;&gt;Node5</title>
<path fill="none" stroke="midnightblue" d="M484,-101.8C484,-92.91 484,-82.78 484,-75.75"/>
<polygon fill="midnightblue" stroke="midnightblue" points="480.5,-102.08 484,-112.08 487.5,-102.08 480.5,-102.08"/>
</g>
<!-- Node6 -->
<g id="node6" class="node">
<title>Node6</title>
<g id="a_node6"><a xlink:href="yrepl_8cpp.html" target="_top" xlink:title=" ">
<polygon fill="none" stroke="black" points="590,-56.5 590,-75.5 744,-75.5 744,-56.5 590,-56.5"/>
<text text-anchor="middle" x="667" y="-63.5" font-family="Helvetica,sans-Serif" font-size="10.00">yapre/src/systems/yrepl.cpp</text>
</a>
</g>
</g>
<!-- Node1&#45;&gt;Node6 -->
<g id="edge5" class="edge">
<title>Node1&#45;&gt;Node6</title>
<path fill="none" stroke="midnightblue" d="M522.74,-109.57C557.26,-99.38 607.01,-84.7 638.14,-75.52"/>
<polygon fill="midnightblue" stroke="midnightblue" points="521.6,-106.26 513,-112.44 523.58,-112.97 521.6,-106.26"/>
</g>
<!-- Node7 -->
<g id="node7" class="node">
<title>Node7</title>
<g id="a_node7"><a xlink:href="ycore_8cpp.html" target="_top" xlink:title=" ">
<polygon fill="none" stroke="black" points="762,-56.5 762,-75.5 874,-75.5 874,-56.5 762,-56.5"/>
<text text-anchor="middle" x="818" y="-63.5" font-family="Helvetica,sans-Serif" font-size="10.00">yapre/src/ycore.cpp</text>
</a>
</g>
</g>
<!-- Node1&#45;&gt;Node7 -->
<g id="edge6" class="edge">
<title>Node1&#45;&gt;Node7</title>
<path fill="none" stroke="midnightblue" d="M547.15,-110.79C610.26,-100.59 706.18,-85.08 765.32,-75.52"/>
<polygon fill="midnightblue" stroke="midnightblue" points="546.24,-107.39 536.92,-112.44 547.35,-114.3 546.24,-107.39"/>
</g>
<!-- Node8 -->
<g id="node8" class="node">
<title>Node8</title>
<g id="a_node8"><a xlink:href="yluainterface_8inl.html" target="_top" xlink:title=" ">
<polygon fill="none" stroke="black" points="892,-56.5 892,-75.5 1036,-75.5 1036,-56.5 892,-56.5"/>
<text text-anchor="middle" x="964" y="-63.5" font-family="Helvetica,sans-Serif" font-size="10.00">yapre/src/yluainterface.inl</text>
</a>
</g>
</g>
<!-- Node1&#45;&gt;Node8 -->
<g id="edge7" class="edge">
<title>Node1&#45;&gt;Node8</title>
<path fill="none" stroke="midnightblue" d="M558.19,-112.65C649.08,-102.43 802.01,-85.22 891.92,-75.11"/>
<polygon fill="midnightblue" stroke="midnightblue" points="557.78,-109.18 548.24,-113.77 558.57,-116.13 557.78,-109.18"/>
</g>
<!-- Node8&#45;&gt;Node4 -->
<g id="edge8" class="edge">
<title>Node8&#45;&gt;Node4</title>
<path fill="none" stroke="midnightblue" d="M906.61,-54.6C850.29,-44.4 765.44,-29.02 713,-19.52"/>
<polygon fill="midnightblue" stroke="midnightblue" points="906.32,-58.1 916.78,-56.44 907.57,-51.22 906.32,-58.1"/>
</g>
</g>
</svg>
