<?xml version="1.0" encoding="UTF-8" standalone="no"?>
<!DOCTYPE svg PUBLIC "-//W3C//DTD SVG 1.1//EN"
 "http://www.w3.org/Graphics/SVG/1.1/DTD/svg11.dtd">
<!-- Generated by graphviz version 2.43.0 (0)
 -->
<!-- Title: yapre/src/systems/ylua.h Pages: 1 -->
<svg width="476pt" height="140pt"
 viewBox="0.00 0.00 475.50 140.00" xmlns="http://www.w3.org/2000/svg" xmlns:xlink="http://www.w3.org/1999/xlink">
<g id="graph0" class="graph" transform="scale(1 1) rotate(0) translate(4 136)">
<title>yapre/src/systems/ylua.h</title>
<!-- Node1 -->
<g id="node1" class="node">
<title>Node1</title>
<g id="a_node1"><a xlink:title=" ">
<polygon fill="#bfbfbf" stroke="black" points="175.5,-112.5 175.5,-131.5 314.5,-131.5 314.5,-112.5 175.5,-112.5"/>
<text text-anchor="middle" x="245" y="-119.5" font-family="Helvetica,sans-Serif" font-size="10.00">yapre/src/systems/ylua.h</text>
</a>
</g>
</g>
<!-- Node2 -->
<g id="node2" class="node">
<title>Node2</title>
<g id="a_node2"><a xlink:href="ylua_8cpp.html" target="_top" xlink:title=" ">
<polygon fill="none" stroke="black" points="0,-56.5 0,-75.5 150,-75.5 150,-56.5 0,-56.5"/>
<text text-anchor="middle" x="75" y="-63.5" font-family="Helvetica,sans-Serif" font-size="10.00">yapre/src/systems/ylua.cpp</text>
</a>
</g>
</g>
<!-- Node1&#45;&gt;Node2 -->
<g id="edge1" class="edge">
<title>Node1&#45;&gt;Node2</title>
<path fill="none" stroke="midnightblue" d="M208.18,-109.3C176.15,-99.13 130.48,-84.62 101.81,-75.52"/>
<polygon fill="midnightblue" stroke="midnightblue" points="207.47,-112.75 218.06,-112.44 209.59,-106.08 207.47,-112.75"/>
</g>
<!-- Node3 -->
<g id="node3" class="node">
<title>Node3</title>
<g id="a_node3"><a xlink:href="yrepl_8cpp.html" target="_top" xlink:title=" ">
<polygon fill="none" stroke="black" points="168,-56.5 168,-75.5 322,-75.5 322,-56.5 168,-56.5"/>
<text text-anchor="middle" x="245" y="-63.5" font-family="Helvetica,sans-Serif" font-size="10.00">yapre/src/systems/yrepl.cpp</text>
</a>
</g>
</g>
<!-- Node1&#45;&gt;Node3 -->
<g id="edge2" class="edge">
<title>Node1&#45;&gt;Node3</title>
<path fill="none" stroke="midnightblue" d="M245,-101.8C245,-92.91 245,-82.78 245,-75.75"/>
<polygon fill="midnightblue" stroke="midnightblue" points="241.5,-102.08 245,-112.08 248.5,-102.08 241.5,-102.08"/>
</g>
<!-- Node4 -->
<g id="node4" class="node">
<title>Node4</title>
<g id="a_node4"><a xlink:href="ysystems_8inl.html" target="_top" xlink:title=" ">
<polygon fill="none" stroke="black" points="340.5,-56.5 340.5,-75.5 467.5,-75.5 467.5,-56.5 340.5,-56.5"/>
<text text-anchor="middle" x="404" y="-63.5" font-family="Helvetica,sans-Serif" font-size="10.00">yapre/src/ysystems.inl</text>
</a>
</g>
</g>
<!-- Node1&#45;&gt;Node4 -->
<g id="edge3" class="edge">
<title>Node1&#45;&gt;Node4</title>
<path fill="none" stroke="midnightblue" d="M279.83,-109.17C309.77,-99 352.22,-84.59 378.92,-75.52"/>
<polygon fill="midnightblue" stroke="midnightblue" points="278.54,-105.91 270.19,-112.44 280.79,-112.54 278.54,-105.91"/>
</g>
<!-- Node5 -->
<g id="node5" class="node">
<title>Node5</title>
<g id="a_node5"><a xlink:href="ycore_8cpp.html" target="_top" xlink:title=" ">
<polygon fill="none" stroke="black" points="348,-0.5 348,-19.5 460,-19.5 460,-0.5 348,-0.5"/>
<text text-anchor="middle" x="404" y="-7.5" font-family="Helvetica,sans-Serif" font-size="10.00">yapre/src/ycore.cpp</text>
</a>
</g>
</g>
<!-- Node4&#45;&gt;Node5 -->
<g id="edge4" class="edge">
<title>Node4&#45;&gt;Node5</title>
<path fill="none" stroke="midnightblue" d="M404,-45.8C404,-36.91 404,-26.78 404,-19.75"/>
<polygon fill="midnightblue" stroke="midnightblue" points="400.5,-46.08 404,-56.08 407.5,-46.08 400.5,-46.08"/>
</g>
</g>
</svg>
