<?xml version="1.0" encoding="UTF-8" standalone="no"?>
<!DOCTYPE svg PUBLIC "-//W3C//DTD SVG 1.1//EN"
 "http://www.w3.org/Graphics/SVG/1.1/DTD/svg11.dtd">
<!-- Generated by graphviz version 3.0.0 (20220226.1711)
 -->
<!-- Title: yapre/src/systems/ylua.cpp Pages: 1 -->
<svg width="1135pt" height="252pt"
 viewBox="0.00 0.00 1134.88 252.00" xmlns="http://www.w3.org/2000/svg" xmlns:xlink="http://www.w3.org/1999/xlink">
<g id="graph0" class="graph" transform="scale(1 1) rotate(0) translate(4 248)">
<title>yapre/src/systems/ylua.cpp</title>
<!-- Node1 -->
<g id="node1" class="node">
<title>Node1</title>
<g id="a_node1"><a xlink:title=" ">
<polygon fill="#bfbfbf" stroke="black" points="661.38,-224.5 661.38,-243.5 798.38,-243.5 798.38,-224.5 661.38,-224.5"/>
<text text-anchor="middle" x="729.88" y="-231.5" font-family="Helvetica,sans-Serif" font-size="10.00">yapre/src/systems/ylua.cpp</text>
</a>
</g>
</g>
<!-- Node2 -->
<g id="node2" class="node">
<title>Node2</title>
<g id="a_node2"><a xlink:href="ylua_8h.html" target="_top" xlink:title=" ">
<polygon fill="none" stroke="black" points="32.38,-168.5 32.38,-187.5 75.38,-187.5 75.38,-168.5 32.38,-168.5"/>
<text text-anchor="middle" x="53.88" y="-175.5" font-family="Helvetica,sans-Serif" font-size="10.00">ylua.h</text>
</a>
</g>
</g>
<!-- Node1&#45;&gt;Node2 -->
<g id="edge1" class="edge">
<title>Node1&#45;&gt;Node2</title>
<path fill="none" stroke="midnightblue" d="M661.24,-229.76C547.15,-223.98 311.39,-210.35 112.88,-188 103.92,-186.99 94.24,-185.63 85.36,-184.27"/>
<polygon fill="midnightblue" stroke="midnightblue" points="85.82,-180.8 75.4,-182.7 84.73,-187.72 85.82,-180.8"/>
</g>
<!-- Node3 -->
<g id="node3" class="node">
<title>Node3</title>
<g id="a_node3"><a xlink:title=" ">
<polygon fill="none" stroke="#bfbfbf" points="235.38,-0.5 235.38,-19.5 276.38,-19.5 276.38,-0.5 235.38,-0.5"/>
<text text-anchor="middle" x="255.88" y="-7.5" font-family="Helvetica,sans-Serif" font-size="10.00">string</text>
</a>
</g>
</g>
<!-- Node1&#45;&gt;Node3 -->
<g id="edge38" class="edge">
<title>Node1&#45;&gt;Node3</title>
<path fill="none" stroke="midnightblue" d="M661.35,-231.15C488.06,-226.12 44.52,-211.07 22.88,-188 -17.68,-144.78 0.61,-98.55 41.88,-56 66.91,-30.19 172.09,-17.93 225.08,-13.31"/>
<polygon fill="midnightblue" stroke="midnightblue" points="225.58,-16.78 235.25,-12.46 224.99,-9.8 225.58,-16.78"/>
</g>
<!-- Node4 -->
<g id="node4" class="node">
<title>Node4</title>
<g id="a_node4"><a xlink:href="yluainterface_8inl.html" target="_top" xlink:title=" ">
<polygon fill="none" stroke="black" points="328.38,-168.5 328.38,-187.5 413.38,-187.5 413.38,-168.5 328.38,-168.5"/>
<text text-anchor="middle" x="370.88" y="-175.5" font-family="Helvetica,sans-Serif" font-size="10.00">yluainterface.inl</text>
</a>
</g>
</g>
<!-- Node1&#45;&gt;Node4 -->
<g id="edge3" class="edge">
<title>Node1&#45;&gt;Node4</title>
<path fill="none" stroke="midnightblue" d="M672.99,-224.44C604.49,-214.14 490.36,-196.97 423.71,-186.95"/>
<polygon fill="midnightblue" stroke="midnightblue" points="423.85,-183.43 413.44,-185.4 422.81,-190.35 423.85,-183.43"/>
</g>
<!-- Node8 -->
<g id="node8" class="node">
<title>Node8</title>
<g id="a_node8"><a xlink:title=" ">
<polygon fill="none" stroke="#bfbfbf" points="85.38,-56.5 85.38,-75.5 144.38,-75.5 144.38,-56.5 85.38,-56.5"/>
<text text-anchor="middle" x="114.88" y="-63.5" font-family="Helvetica,sans-Serif" font-size="10.00">functional</text>
</a>
</g>
</g>
<!-- Node1&#45;&gt;Node8 -->
<g id="edge36" class="edge">
<title>Node1&#45;&gt;Node8</title>
<path fill="none" stroke="midnightblue" d="M661.2,-229.77C579.03,-224.92 437.67,-213.45 318.88,-188 239.85,-171.07 206.67,-185.25 145.88,-132 132.09,-119.92 123.92,-100.36 119.47,-85.84"/>
<polygon fill="midnightblue" stroke="midnightblue" points="122.77,-84.65 116.75,-75.94 116.02,-86.51 122.77,-84.65"/>
</g>
<!-- Node9 -->
<g id="node9" class="node">
<title>Node9</title>
<g id="a_node9"><a xlink:href="yluabind_8hpp.html" target="_top" xlink:title=" ">
<polygon fill="none" stroke="black" points="694.38,-112.5 694.38,-131.5 765.38,-131.5 765.38,-112.5 694.38,-112.5"/>
<text text-anchor="middle" x="729.88" y="-119.5" font-family="Helvetica,sans-Serif" font-size="10.00">yluabind.hpp</text>
</a>
</g>
</g>
<!-- Node1&#45;&gt;Node9 -->
<g id="edge42" class="edge">
<title>Node1&#45;&gt;Node9</title>
<path fill="none" stroke="midnightblue" d="M729.88,-224.37C729.88,-206.62 729.88,-165.67 729.88,-141.6"/>
<polygon fill="midnightblue" stroke="midnightblue" points="733.38,-141.59 729.88,-131.59 726.38,-141.59 733.38,-141.59"/>
</g>
<!-- Node10 -->
<g id="node10" class="node">
<title>Node10</title>
<g id="a_node10"><a xlink:title=" ">
<polygon fill="none" stroke="#bfbfbf" points="879.38,-56.5 879.38,-75.5 932.38,-75.5 932.38,-56.5 879.38,-56.5"/>
<text text-anchor="middle" x="905.88" y="-63.5" font-family="Helvetica,sans-Serif" font-size="10.00">lauxlib.h</text>
</a>
</g>
</g>
<!-- Node1&#45;&gt;Node10 -->
<g id="edge39" class="edge">
<title>Node1&#45;&gt;Node10</title>
<path fill="none" stroke="midnightblue" d="M739.34,-224.08C767.88,-197.15 853.38,-116.51 889.49,-82.45"/>
<polygon fill="midnightblue" stroke="midnightblue" points="891.92,-84.98 896.79,-75.57 887.12,-79.88 891.92,-84.98"/>
</g>
<!-- Node11 -->
<g id="node11" class="node">
<title>Node11</title>
<g id="a_node11"><a xlink:title=" ">
<polygon fill="none" stroke="#bfbfbf" points="950.88,-56.5 950.88,-75.5 988.88,-75.5 988.88,-56.5 950.88,-56.5"/>
<text text-anchor="middle" x="969.88" y="-63.5" font-family="Helvetica,sans-Serif" font-size="10.00">lua.h</text>
</a>
</g>
</g>
<!-- Node1&#45;&gt;Node11 -->
<g id="edge40" class="edge">
<title>Node1&#45;&gt;Node11</title>
<path fill="none" stroke="midnightblue" d="M743.68,-224.39C757.89,-215.47 780.61,-201.04 799.88,-188 854.76,-150.86 918.02,-105.01 949.65,-81.86"/>
<polygon fill="midnightblue" stroke="midnightblue" points="952.06,-84.44 958.06,-75.7 947.92,-78.79 952.06,-84.44"/>
</g>
<!-- Node12 -->
<g id="node12" class="node">
<title>Node12</title>
<g id="a_node12"><a xlink:title=" ">
<polygon fill="none" stroke="#bfbfbf" points="1007.38,-56.5 1007.38,-75.5 1054.38,-75.5 1054.38,-56.5 1007.38,-56.5"/>
<text text-anchor="middle" x="1030.88" y="-63.5" font-family="Helvetica,sans-Serif" font-size="10.00">lualib.h</text>
</a>
</g>
</g>
<!-- Node1&#45;&gt;Node12 -->
<g id="edge41" class="edge">
<title>Node1&#45;&gt;Node12</title>
<path fill="none" stroke="midnightblue" d="M749.85,-224.44C769.67,-215.78 800.76,-201.76 826.88,-188 894.72,-152.26 971.8,-104.49 1008.79,-81.1"/>
<polygon fill="midnightblue" stroke="midnightblue" points="1010.73,-84.02 1017.3,-75.71 1006.98,-78.11 1010.73,-84.02"/>
</g>
<!-- Node13 -->
<g id="node13" class="node">
<title>Node13</title>
<g id="a_node13"><a xlink:title=" ">
<polygon fill="none" stroke="#bfbfbf" points="1072.88,-56.5 1072.88,-75.5 1126.88,-75.5 1126.88,-56.5 1072.88,-56.5"/>
<text text-anchor="middle" x="1099.88" y="-63.5" font-family="Helvetica,sans-Serif" font-size="10.00">iostream</text>
</a>
</g>
</g>
<!-- Node1&#45;&gt;Node13 -->
<g id="edge37" class="edge">
<title>Node1&#45;&gt;Node13</title>
<path fill="none" stroke="midnightblue" d="M757.7,-224.45C784.09,-216.07 824.69,-202.47 858.88,-188 940.24,-153.55 1032.62,-104.13 1075.55,-80.54"/>
<polygon fill="midnightblue" stroke="midnightblue" points="1077.35,-83.54 1084.42,-75.65 1073.97,-77.41 1077.35,-83.54"/>
</g>
<!-- Node2&#45;&gt;Node3 -->
<g id="edge2" class="edge">
<title>Node2&#45;&gt;Node3</title>
<path fill="none" stroke="midnightblue" d="M49.76,-168.28C45.82,-159.38 40.13,-145.07 37.88,-132 31.81,-96.82 36.19,-78.54 63.88,-56 110.55,-18.01 183.66,-10.97 224.89,-10.3"/>
<polygon fill="midnightblue" stroke="midnightblue" points="225.15,-13.79 235.14,-10.25 225.12,-6.79 225.15,-13.79"/>
</g>
<!-- Node5 -->
<g id="node5" class="node">
<title>Node5</title>
<g id="a_node5"><a xlink:href="yaudio_8h.html" target="_top" xlink:title=" ">
<polygon fill="none" stroke="black" points="459.38,-112.5 459.38,-131.5 512.38,-131.5 512.38,-112.5 459.38,-112.5"/>
<text text-anchor="middle" x="485.88" y="-119.5" font-family="Helvetica,sans-Serif" font-size="10.00">yaudio.h</text>
</a>
</g>
</g>
<!-- Node4&#45;&gt;Node5 -->
<g id="edge4" class="edge">
<title>Node4&#45;&gt;Node5</title>
<path fill="none" stroke="midnightblue" d="M389.1,-168.44C407.77,-159.68 437.03,-145.94 458.49,-135.86"/>
<polygon fill="midnightblue" stroke="midnightblue" points="460.17,-138.93 467.74,-131.52 457.2,-132.6 460.17,-138.93"/>
</g>
<!-- Node6 -->
<g id="node6" class="node">
<title>Node6</title>
<g id="a_node6"><a xlink:href="ycore_8h.html" target="_top" xlink:title=" ">
<polygon fill="none" stroke="black" points="309.38,-112.5 309.38,-131.5 358.38,-131.5 358.38,-112.5 309.38,-112.5"/>
<text text-anchor="middle" x="333.88" y="-119.5" font-family="Helvetica,sans-Serif" font-size="10.00">ycore.h</text>
</a>
</g>
</g>
<!-- Node4&#45;&gt;Node6 -->
<g id="edge5" class="edge">
<title>Node4&#45;&gt;Node6</title>
<path fill="none" stroke="midnightblue" d="M364.77,-168.08C359.59,-160.53 352.03,-149.49 345.68,-140.23"/>
<polygon fill="midnightblue" stroke="midnightblue" points="348.41,-138.02 339.87,-131.75 342.64,-141.98 348.41,-138.02"/>
</g>
<!-- Node7 -->
<g id="node7" class="node">
<title>Node7</title>
<g id="a_node7"><a xlink:href="yinput_8h.html" target="_top" xlink:title=" ">
<polygon fill="none" stroke="black" points="47.38,-112.5 47.38,-131.5 98.38,-131.5 98.38,-112.5 47.38,-112.5"/>
<text text-anchor="middle" x="72.88" y="-119.5" font-family="Helvetica,sans-Serif" font-size="10.00">yinput.h</text>
</a>
</g>
</g>
<!-- Node4&#45;&gt;Node7 -->
<g id="edge7" class="edge">
<title>Node4&#45;&gt;Node7</title>
<path fill="none" stroke="midnightblue" d="M328.18,-169.26C269.21,-158.58 163.9,-139.49 108.77,-129.5"/>
<polygon fill="midnightblue" stroke="midnightblue" points="109.23,-126.03 98.76,-127.69 107.98,-132.92 109.23,-126.03"/>
</g>
<!-- Node4&#45;&gt;Node9 -->
<g id="edge10" class="edge">
<title>Node4&#45;&gt;Node9</title>
<path fill="none" stroke="midnightblue" d="M413.47,-170.59C481.48,-160.36 614.07,-140.42 684.06,-129.89"/>
<polygon fill="midnightblue" stroke="midnightblue" points="684.96,-133.3 694.33,-128.35 683.92,-126.37 684.96,-133.3"/>
</g>
<!-- Node19 -->
<g id="node19" class="node">
<title>Node19</title>
<g id="a_node19"><a xlink:href="yrenderer_8h.html" target="_top" xlink:title=" ">
<polygon fill="none" stroke="black" points="376.38,-112.5 376.38,-131.5 441.38,-131.5 441.38,-112.5 376.38,-112.5"/>
<text text-anchor="middle" x="408.88" y="-119.5" font-family="Helvetica,sans-Serif" font-size="10.00">yrenderer.h</text>
</a>
</g>
</g>
<!-- Node4&#45;&gt;Node19 -->
<g id="edge22" class="edge">
<title>Node4&#45;&gt;Node19</title>
<path fill="none" stroke="midnightblue" d="M377.15,-168.08C382.52,-160.46 390.39,-149.26 396.95,-139.94"/>
<polygon fill="midnightblue" stroke="midnightblue" points="399.82,-141.94 402.72,-131.75 394.1,-137.91 399.82,-141.94"/>
</g>
<!-- Node24 -->
<g id="node24" class="node">
<title>Node24</title>
<g id="a_node24"><a xlink:href="yrepl_8h.html" target="_top" xlink:title=" ">
<polygon fill="none" stroke="black" points="244.88,-112.5 244.88,-131.5 290.88,-131.5 290.88,-112.5 244.88,-112.5"/>
<text text-anchor="middle" x="267.88" y="-119.5" font-family="Helvetica,sans-Serif" font-size="10.00">yrepl.h</text>
</a>
</g>
</g>
<!-- Node4&#45;&gt;Node24 -->
<g id="edge31" class="edge">
<title>Node4&#45;&gt;Node24</title>
<path fill="none" stroke="midnightblue" d="M354.33,-168.32C337.88,-159.7 312.44,-146.36 293.41,-136.39"/>
<polygon fill="midnightblue" stroke="midnightblue" points="294.87,-133.2 284.38,-131.65 291.61,-139.4 294.87,-133.2"/>
</g>
<!-- Node25 -->
<g id="node25" class="node">
<title>Node25</title>
<g id="a_node25"><a xlink:href="yscheduler_8h.html" target="_top" xlink:title=" ">
<polygon fill="none" stroke="black" points="155.38,-112.5 155.38,-131.5 226.38,-131.5 226.38,-112.5 155.38,-112.5"/>
<text text-anchor="middle" x="190.88" y="-119.5" font-family="Helvetica,sans-Serif" font-size="10.00">yscheduler.h</text>
</a>
</g>
</g>
<!-- Node4&#45;&gt;Node25 -->
<g id="edge33" class="edge">
<title>Node4&#45;&gt;Node25</title>
<path fill="none" stroke="midnightblue" d="M342.35,-168.44C311.81,-159.28 263.17,-144.69 229.27,-134.52"/>
<polygon fill="midnightblue" stroke="midnightblue" points="229.85,-131.04 219.26,-131.52 227.84,-137.74 229.85,-131.04"/>
</g>
<!-- Node6&#45;&gt;Node3 -->
<g id="edge6" class="edge">
<title>Node6&#45;&gt;Node3</title>
<path fill="none" stroke="midnightblue" d="M326.7,-112.19C319.47,-103.23 308.11,-88.86 298.88,-76 287.44,-60.08 275.18,-41.37 266.69,-28.12"/>
<polygon fill="midnightblue" stroke="midnightblue" points="269.56,-26.11 261.24,-19.55 263.66,-29.87 269.56,-26.11"/>
</g>
<!-- Node7&#45;&gt;Node3 -->
<g id="edge9" class="edge">
<title>Node7&#45;&gt;Node3</title>
<path fill="none" stroke="midnightblue" d="M70.33,-112.28C66.92,-98.63 62.71,-72.08 75.88,-56 94.57,-33.16 178.71,-19.97 225.04,-14.31"/>
<polygon fill="midnightblue" stroke="midnightblue" points="225.61,-17.76 235.13,-13.12 224.79,-10.81 225.61,-17.76"/>
</g>
<!-- Node7&#45;&gt;Node8 -->
<g id="edge8" class="edge">
<title>Node7&#45;&gt;Node8</title>
<path fill="none" stroke="midnightblue" d="M79.81,-112.08C85.8,-104.38 94.63,-93.03 101.92,-83.65"/>
<polygon fill="midnightblue" stroke="midnightblue" points="104.69,-85.79 108.07,-75.75 99.17,-81.5 104.69,-85.79"/>
</g>
<!-- Node9&#45;&gt;Node3 -->
<g id="edge16" class="edge">
<title>Node9&#45;&gt;Node3</title>
<path fill="none" stroke="midnightblue" d="M694.26,-116.68C650.74,-110.71 575.34,-98.08 513.88,-76 495.91,-69.55 493.85,-62.42 475.88,-56 410.56,-32.66 329.76,-20.03 286.56,-14.49"/>
<polygon fill="midnightblue" stroke="midnightblue" points="286.77,-10.99 276.42,-13.24 285.91,-17.94 286.77,-10.99"/>
</g>
<!-- Node9&#45;&gt;Node8 -->
<g id="edge14" class="edge">
<title>Node9&#45;&gt;Node8</title>
<path fill="none" stroke="midnightblue" d="M693.99,-118.9C588.1,-112.59 277.26,-93.28 154.81,-75.86"/>
<polygon fill="midnightblue" stroke="midnightblue" points="155,-72.35 144.6,-74.34 153.97,-79.27 155,-72.35"/>
</g>
<!-- Node9&#45;&gt;Node10 -->
<g id="edge11" class="edge">
<title>Node9&#45;&gt;Node10</title>
<path fill="none" stroke="midnightblue" d="M757.76,-112.44C787.98,-103.17 836.31,-88.34 869.5,-78.16"/>
<polygon fill="midnightblue" stroke="midnightblue" points="870.74,-81.44 879.27,-75.16 868.68,-74.75 870.74,-81.44"/>
</g>
<!-- Node9&#45;&gt;Node11 -->
<g id="edge12" class="edge">
<title>Node9&#45;&gt;Node11</title>
<path fill="none" stroke="midnightblue" d="M765.4,-114.61C805.73,-107.09 873.68,-93.69 940.78,-76.08"/>
<polygon fill="midnightblue" stroke="midnightblue" points="941.91,-79.41 950.67,-73.46 940.11,-72.64 941.91,-79.41"/>
</g>
<!-- Node9&#45;&gt;Node12 -->
<g id="edge13" class="edge">
<title>Node9&#45;&gt;Node12</title>
<path fill="none" stroke="midnightblue" d="M765.64,-116.15C815.37,-109.17 908.36,-95.18 997.18,-75.96"/>
<polygon fill="midnightblue" stroke="midnightblue" points="998.13,-79.33 1007.15,-73.77 996.64,-72.5 998.13,-79.33"/>
</g>
<!-- Node9&#45;&gt;Node13 -->
<g id="edge15" class="edge">
<title>Node9&#45;&gt;Node13</title>
<path fill="none" stroke="midnightblue" d="M765.68,-117.5C825.31,-111.37 948.87,-97.48 1062.88,-76"/>
<polygon fill="midnightblue" stroke="midnightblue" points="1063.65,-79.42 1072.82,-74.11 1062.34,-72.54 1063.65,-79.42"/>
</g>
<!-- Node14 -->
<g id="node14" class="node">
<title>Node14</title>
<g id="a_node14"><a xlink:title=" ">
<polygon fill="none" stroke="#bfbfbf" points="428.88,-56.5 428.88,-75.5 466.88,-75.5 466.88,-56.5 428.88,-56.5"/>
<text text-anchor="middle" x="447.88" y="-63.5" font-family="Helvetica,sans-Serif" font-size="10.00">tuple</text>
</a>
</g>
</g>
<!-- Node9&#45;&gt;Node14 -->
<g id="edge17" class="edge">
<title>Node9&#45;&gt;Node14</title>
<path fill="none" stroke="midnightblue" d="M694.22,-115.56C645.7,-107.93 556.29,-93.06 480.88,-76 479.6,-75.71 478.31,-75.41 477,-75.09"/>
<polygon fill="midnightblue" stroke="midnightblue" points="477.56,-71.62 467,-72.52 475.81,-78.4 477.56,-71.62"/>
</g>
<!-- Node15 -->
<g id="node15" class="node">
<title>Node15</title>
<g id="a_node15"><a xlink:title=" ">
<polygon fill="none" stroke="#bfbfbf" points="600.88,-56.5 600.88,-75.5 662.88,-75.5 662.88,-56.5 600.88,-56.5"/>
<text text-anchor="middle" x="631.88" y="-63.5" font-family="Helvetica,sans-Serif" font-size="10.00">type_traits</text>
</a>
</g>
</g>
<!-- Node9&#45;&gt;Node15 -->
<g id="edge18" class="edge">
<title>Node9&#45;&gt;Node15</title>
<path fill="none" stroke="midnightblue" d="M714.13,-112.32C698.56,-103.74 674.5,-90.49 656.42,-80.52"/>
<polygon fill="midnightblue" stroke="midnightblue" points="658.03,-77.42 647.58,-75.65 654.65,-83.55 658.03,-77.42"/>
</g>
<!-- Node16 -->
<g id="node16" class="node">
<title>Node16</title>
<g id="a_node16"><a xlink:title=" ">
<polygon fill="none" stroke="#bfbfbf" points="681.38,-56.5 681.38,-75.5 764.38,-75.5 764.38,-56.5 681.38,-56.5"/>
<text text-anchor="middle" x="722.88" y="-63.5" font-family="Helvetica,sans-Serif" font-size="10.00">unordered_map</text>
</a>
</g>
</g>
<!-- Node9&#45;&gt;Node16 -->
<g id="edge19" class="edge">
<title>Node9&#45;&gt;Node16</title>
<path fill="none" stroke="midnightblue" d="M728.72,-112.08C727.79,-104.93 726.46,-94.64 725.3,-85.69"/>
<polygon fill="midnightblue" stroke="midnightblue" points="728.77,-85.22 724.01,-75.75 721.82,-86.12 728.77,-85.22"/>
</g>
<!-- Node17 -->
<g id="node17" class="node">
<title>Node17</title>
<g id="a_node17"><a xlink:title=" ">
<polygon fill="none" stroke="#bfbfbf" points="782.88,-56.5 782.88,-75.5 822.88,-75.5 822.88,-56.5 782.88,-56.5"/>
<text text-anchor="middle" x="802.88" y="-63.5" font-family="Helvetica,sans-Serif" font-size="10.00">utility</text>
</a>
</g>
</g>
<!-- Node9&#45;&gt;Node17 -->
<g id="edge20" class="edge">
<title>Node9&#45;&gt;Node17</title>
<path fill="none" stroke="midnightblue" d="M741.6,-112.32C752.71,-104.11 769.62,-91.6 782.86,-81.81"/>
<polygon fill="midnightblue" stroke="midnightblue" points="784.98,-84.59 790.93,-75.83 780.81,-78.97 784.98,-84.59"/>
</g>
<!-- Node18 -->
<g id="node18" class="node">
<title>Node18</title>
<g id="a_node18"><a xlink:title=" ">
<polygon fill="none" stroke="#bfbfbf" points="750.88,-0.5 750.88,-19.5 794.88,-19.5 794.88,-0.5 750.88,-0.5"/>
<text text-anchor="middle" x="772.88" y="-7.5" font-family="Helvetica,sans-Serif" font-size="10.00">vector</text>
</a>
</g>
</g>
<!-- Node9&#45;&gt;Node18 -->
<g id="edge21" class="edge">
<title>Node9&#45;&gt;Node18</title>
<path fill="none" stroke="midnightblue" d="M765.61,-115.39C788.79,-109.7 817.29,-98.38 831.88,-76 844.62,-56.45 821.01,-37.03 799.97,-24.58"/>
<polygon fill="midnightblue" stroke="midnightblue" points="801.67,-21.52 791.23,-19.69 798.25,-27.63 801.67,-21.52"/>
</g>
<!-- Node19&#45;&gt;Node3 -->
<g id="edge29" class="edge">
<title>Node19&#45;&gt;Node3</title>
<path fill="none" stroke="midnightblue" d="M392.43,-112.5C376.47,-104 351.81,-90.18 331.88,-76 310.15,-60.55 287.14,-40.24 272.21,-26.47"/>
<polygon fill="midnightblue" stroke="midnightblue" points="274.5,-23.82 264.8,-19.56 269.73,-28.94 274.5,-23.82"/>
</g>
<!-- Node19&#45;&gt;Node14 -->
<g id="edge30" class="edge">
<title>Node19&#45;&gt;Node14</title>
<path fill="none" stroke="midnightblue" d="M415.32,-112.08C420.82,-104.46 428.91,-93.26 435.64,-83.94"/>
<polygon fill="midnightblue" stroke="midnightblue" points="438.54,-85.91 441.56,-75.75 432.86,-81.81 438.54,-85.91"/>
</g>
<!-- Node20 -->
<g id="node20" class="node">
<title>Node20</title>
<g id="a_node20"><a xlink:title=" ">
<polygon fill="none" stroke="#bfbfbf" points="340.88,-56.5 340.88,-75.5 410.88,-75.5 410.88,-56.5 340.88,-56.5"/>
<text text-anchor="middle" x="375.88" y="-63.5" font-family="Helvetica,sans-Serif" font-size="10.00">glm/glm.hpp</text>
</a>
</g>
</g>
<!-- Node19&#45;&gt;Node20 -->
<g id="edge23" class="edge">
<title>Node19&#45;&gt;Node20</title>
<path fill="none" stroke="midnightblue" d="M403.43,-112.08C398.86,-104.61 392.21,-93.72 386.58,-84.52"/>
<polygon fill="midnightblue" stroke="midnightblue" points="389.42,-82.46 381.22,-75.75 383.45,-86.11 389.42,-82.46"/>
</g>
<!-- Node21 -->
<g id="node21" class="node">
<title>Node21</title>
<g id="a_node21"><a xlink:href="ytexture_8h.html" target="_top" xlink:title=" ">
<polygon fill="none" stroke="black" points="522.88,-56.5 522.88,-75.5 582.88,-75.5 582.88,-56.5 522.88,-56.5"/>
<text text-anchor="middle" x="552.88" y="-63.5" font-family="Helvetica,sans-Serif" font-size="10.00">ytexture.h</text>
</a>
</g>
</g>
<!-- Node19&#45;&gt;Node21 -->
<g id="edge24" class="edge">
<title>Node19&#45;&gt;Node21</title>
<path fill="none" stroke="midnightblue" d="M431.69,-112.44C455.71,-103.44 493.7,-89.19 520.74,-79.05"/>
<polygon fill="midnightblue" stroke="midnightblue" points="522.03,-82.3 530.17,-75.52 519.57,-75.75 522.03,-82.3"/>
</g>
<!-- Node21&#45;&gt;Node3 -->
<g id="edge26" class="edge">
<title>Node21&#45;&gt;Node3</title>
<path fill="none" stroke="midnightblue" d="M522.6,-58.7C518.01,-57.78 513.32,-56.85 508.88,-56 428.82,-40.7 334.19,-24.32 286.55,-16.19"/>
<polygon fill="midnightblue" stroke="midnightblue" points="287.02,-12.72 276.57,-14.5 285.84,-19.62 287.02,-12.72"/>
</g>
<!-- Node21&#45;&gt;Node18 -->
<g id="edge27" class="edge">
<title>Node21&#45;&gt;Node18</title>
<path fill="none" stroke="midnightblue" d="M583,-57.6C624.43,-47.44 698.63,-29.22 740.97,-18.83"/>
<polygon fill="midnightblue" stroke="midnightblue" points="741.88,-22.21 750.75,-16.43 740.21,-15.41 741.88,-22.21"/>
</g>
<!-- Node22 -->
<g id="node22" class="node">
<title>Node22</title>
<g id="a_node22"><a xlink:title=" ">
<polygon fill="none" stroke="#bfbfbf" points="564.88,-0.5 564.88,-19.5 616.88,-19.5 616.88,-0.5 564.88,-0.5"/>
<text text-anchor="middle" x="590.88" y="-7.5" font-family="Helvetica,sans-Serif" font-size="10.00">memory</text>
</a>
</g>
</g>
<!-- Node21&#45;&gt;Node22 -->
<g id="edge25" class="edge">
<title>Node21&#45;&gt;Node22</title>
<path fill="none" stroke="midnightblue" d="M559.15,-56.08C564.52,-48.46 572.39,-37.26 578.95,-27.94"/>
<polygon fill="midnightblue" stroke="midnightblue" points="581.82,-29.94 584.72,-19.75 576.1,-25.91 581.82,-29.94"/>
</g>
<!-- Node23 -->
<g id="node23" class="node">
<title>Node23</title>
<g id="a_node23"><a xlink:title=" ">
<polygon fill="none" stroke="#bfbfbf" points="482.88,-0.5 482.88,-19.5 546.88,-19.5 546.88,-0.5 482.88,-0.5"/>
<text text-anchor="middle" x="514.88" y="-7.5" font-family="Helvetica,sans-Serif" font-size="10.00">glad/glad.h</text>
</a>
</g>
</g>
<!-- Node21&#45;&gt;Node23 -->
<g id="edge28" class="edge">
<title>Node21&#45;&gt;Node23</title>
<path fill="none" stroke="midnightblue" d="M546.6,-56.08C541.23,-48.46 533.36,-37.26 526.8,-27.94"/>
<polygon fill="midnightblue" stroke="midnightblue" points="529.65,-25.91 521.03,-19.75 523.93,-29.94 529.65,-25.91"/>
</g>
<!-- Node24&#45;&gt;Node3 -->
<g id="edge32" class="edge">
<title>Node24&#45;&gt;Node3</title>
<path fill="none" stroke="midnightblue" d="M266.33,-112.4C264.76,-103.36 262.35,-88.72 260.88,-76 259.08,-60.52 257.77,-42.89 256.94,-29.9"/>
<polygon fill="midnightblue" stroke="midnightblue" points="260.43,-29.62 256.34,-19.85 253.44,-30.04 260.43,-29.62"/>
</g>
<!-- Node25&#45;&gt;Node8 -->
<g id="edge35" class="edge">
<title>Node25&#45;&gt;Node8</title>
<path fill="none" stroke="midnightblue" d="M178.66,-112.32C167.1,-104.11 149.5,-91.6 135.71,-81.81"/>
<polygon fill="midnightblue" stroke="midnightblue" points="137.49,-78.77 127.31,-75.83 133.43,-84.48 137.49,-78.77"/>
</g>
<!-- Node26 -->
<g id="node26" class="node">
<title>Node26</title>
<g id="a_node26"><a xlink:title=" ">
<polygon fill="none" stroke="#bfbfbf" points="162.88,-56.5 162.88,-75.5 208.88,-75.5 208.88,-56.5 162.88,-56.5"/>
<text text-anchor="middle" x="185.88" y="-63.5" font-family="Helvetica,sans-Serif" font-size="10.00">chrono</text>
</a>
</g>
</g>
<!-- Node25&#45;&gt;Node26 -->
<g id="edge34" class="edge">
<title>Node25&#45;&gt;Node26</title>
<path fill="none" stroke="midnightblue" d="M190.05,-112.08C189.39,-105.01 188.46,-94.86 187.63,-85.99"/>
<polygon fill="midnightblue" stroke="midnightblue" points="191.09,-85.39 186.69,-75.75 184.12,-86.03 191.09,-85.39"/>
</g>
</g>
</svg>
