<?xml version="1.0" encoding="UTF-8" standalone="no"?>
<!DOCTYPE svg PUBLIC "-//W3C//DTD SVG 1.1//EN"
 "http://www.w3.org/Graphics/SVG/1.1/DTD/svg11.dtd">
<!-- Generated by graphviz version 2.50.0 (20211204.2007)
 -->
<!-- Title: yapre/src/yluabind.hpp Pages: 1 -->
<svg width="962pt" height="140pt"
 viewBox="0.00 0.00 962.00 140.00" xmlns="http://www.w3.org/2000/svg" xmlns:xlink="http://www.w3.org/1999/xlink">
<g id="graph0" class="graph" transform="scale(1 1) rotate(0) translate(4 136)">
<title>yapre/src/yluabind.hpp</title>
<!-- Node1 -->
<g id="node1" class="node">
<title>Node1</title>
<g id="a_node1"><a xlink:title=" ">
<polygon fill="#bfbfbf" stroke="black" points="390.5,-112.5 390.5,-131.5 505.5,-131.5 505.5,-112.5 390.5,-112.5"/>
<text text-anchor="middle" x="448" y="-119.5" font-family="Helvetica,sans-Serif" font-size="10.00">yapre/src/yluabind.hpp</text>
</a>
</g>
</g>
<!-- Node2 -->
<g id="node2" class="node">
<title>Node2</title>
<g id="a_node2"><a xlink:href="yaudio_8cpp.html" target="_top" xlink:title=" ">
<polygon fill="none" stroke="black" points="0,-56.5 0,-75.5 148,-75.5 148,-56.5 0,-56.5"/>
<text text-anchor="middle" x="74" y="-63.5" font-family="Helvetica,sans-Serif" font-size="10.00">yapre/src/systems/yaudio.cpp</text>
</a>
</g>
</g>
<!-- Node1&#45;&gt;Node2 -->
<g id="edge1" class="edge">
<title>Node1&#45;&gt;Node2</title>
<path fill="none" stroke="midnightblue" d="M380.25,-111.22C309.63,-101.02 200.07,-85.2 132.92,-75.51"/>
<polygon fill="midnightblue" stroke="midnightblue" points="379.98,-114.72 390.38,-112.68 380.98,-107.79 379.98,-114.72"/>
</g>
<!-- Node3 -->
<g id="node3" class="node">
<title>Node3</title>
<g id="a_node3"><a xlink:href="yinput_8cpp.html" target="_top" xlink:title=" ">
<polygon fill="none" stroke="black" points="166,-56.5 166,-75.5 312,-75.5 312,-56.5 166,-56.5"/>
<text text-anchor="middle" x="239" y="-63.5" font-family="Helvetica,sans-Serif" font-size="10.00">yapre/src/systems/yinput.cpp</text>
</a>
</g>
</g>
<!-- Node1&#45;&gt;Node3 -->
<g id="edge2" class="edge">
<title>Node1&#45;&gt;Node3</title>
<path fill="none" stroke="midnightblue" d="M405.02,-109.89C365.55,-99.7 307.9,-84.8 271.96,-75.52"/>
<polygon fill="midnightblue" stroke="midnightblue" points="404.33,-113.33 414.88,-112.44 406.08,-106.55 404.33,-113.33"/>
</g>
<!-- Node4 -->
<g id="node4" class="node">
<title>Node4</title>
<g id="a_node4"><a xlink:href="ylua_8cpp.html" target="_top" xlink:title=" ">
<polygon fill="none" stroke="black" points="546.5,-0.5 546.5,-19.5 683.5,-19.5 683.5,-0.5 546.5,-0.5"/>
<text text-anchor="middle" x="615" y="-7.5" font-family="Helvetica,sans-Serif" font-size="10.00">yapre/src/systems/ylua.cpp</text>
</a>
</g>
</g>
<!-- Node1&#45;&gt;Node4 -->
<g id="edge3" class="edge">
<title>Node1&#45;&gt;Node4</title>
<path fill="none" stroke="midnightblue" d="M408.86,-109.16C377.31,-97.62 341.08,-78.55 360,-56 383.37,-28.15 479.01,-17.53 546.26,-13.48"/>
<polygon fill="midnightblue" stroke="midnightblue" points="407.84,-112.51 418.43,-112.49 410.14,-105.9 407.84,-112.51"/>
</g>
<!-- Node5 -->
<g id="node5" class="node">
<title>Node5</title>
<g id="a_node5"><a xlink:href="yrenderer_8cpp.html" target="_top" xlink:title=" ">
<polygon fill="none" stroke="black" points="368.5,-56.5 368.5,-75.5 527.5,-75.5 527.5,-56.5 368.5,-56.5"/>
<text text-anchor="middle" x="448" y="-63.5" font-family="Helvetica,sans-Serif" font-size="10.00">yapre/src/systems/yrenderer.cpp</text>
</a>
</g>
</g>
<!-- Node1&#45;&gt;Node5 -->
<g id="edge4" class="edge">
<title>Node1&#45;&gt;Node5</title>
<path fill="none" stroke="midnightblue" d="M448,-101.8C448,-92.91 448,-82.78 448,-75.75"/>
<polygon fill="midnightblue" stroke="midnightblue" points="444.5,-102.08 448,-112.08 451.5,-102.08 444.5,-102.08"/>
</g>
<!-- Node6 -->
<g id="node6" class="node">
<title>Node6</title>
<g id="a_node6"><a xlink:href="yrepl_8cpp.html" target="_top" xlink:title=" ">
<polygon fill="none" stroke="black" points="546,-56.5 546,-75.5 686,-75.5 686,-56.5 546,-56.5"/>
<text text-anchor="middle" x="616" y="-63.5" font-family="Helvetica,sans-Serif" font-size="10.00">yapre/src/systems/yrepl.cpp</text>
</a>
</g>
</g>
<!-- Node1&#45;&gt;Node6 -->
<g id="edge5" class="edge">
<title>Node1&#45;&gt;Node6</title>
<path fill="none" stroke="midnightblue" d="M484.39,-109.3C516.04,-99.13 561.17,-84.62 589.5,-75.52"/>
<polygon fill="midnightblue" stroke="midnightblue" points="483.07,-106.05 474.62,-112.44 485.21,-112.72 483.07,-106.05"/>
</g>
<!-- Node7 -->
<g id="node7" class="node">
<title>Node7</title>
<g id="a_node7"><a xlink:href="ycore_8cpp.html" target="_top" xlink:title=" ">
<polygon fill="none" stroke="black" points="704.5,-56.5 704.5,-75.5 807.5,-75.5 807.5,-56.5 704.5,-56.5"/>
<text text-anchor="middle" x="756" y="-63.5" font-family="Helvetica,sans-Serif" font-size="10.00">yapre/src/ycore.cpp</text>
</a>
</g>
</g>
<!-- Node1&#45;&gt;Node7 -->
<g id="edge6" class="edge">
<title>Node1&#45;&gt;Node7</title>
<path fill="none" stroke="midnightblue" d="M506.95,-110.66C565.16,-100.46 653.11,-85.04 707.42,-75.52"/>
<polygon fill="midnightblue" stroke="midnightblue" points="506.05,-107.27 496.8,-112.44 507.26,-114.16 506.05,-107.27"/>
</g>
<!-- Node8 -->
<g id="node8" class="node">
<title>Node8</title>
<g id="a_node8"><a xlink:href="yluainterface_8inl.html" target="_top" xlink:title=" ">
<polygon fill="none" stroke="black" points="826,-56.5 826,-75.5 954,-75.5 954,-56.5 826,-56.5"/>
<text text-anchor="middle" x="890" y="-63.5" font-family="Helvetica,sans-Serif" font-size="10.00">yapre/src/yluainterface.inl</text>
</a>
</g>
</g>
<!-- Node1&#45;&gt;Node8 -->
<g id="edge7" class="edge">
<title>Node1&#45;&gt;Node8</title>
<path fill="none" stroke="midnightblue" d="M515.64,-112.78C589.65,-103.78 711.77,-88.9 817,-76 819.92,-75.64 822.9,-75.28 825.91,-74.91"/>
<polygon fill="midnightblue" stroke="midnightblue" points="515.03,-109.33 505.53,-114.01 515.88,-116.28 515.03,-109.33"/>
</g>
<!-- Node8&#45;&gt;Node4 -->
<g id="edge8" class="edge">
<title>Node8&#45;&gt;Node4</title>
<path fill="none" stroke="midnightblue" d="M836.39,-54.47C784.42,-44.27 706.56,-28.98 658.37,-19.52"/>
<polygon fill="midnightblue" stroke="midnightblue" points="835.94,-57.95 846.43,-56.44 837.29,-51.08 835.94,-57.95"/>
</g>
</g>
</svg>
