<?xml version="1.0" encoding="UTF-8" standalone="no"?>
<!DOCTYPE svg PUBLIC "-//W3C//DTD SVG 1.1//EN"
 "http://www.w3.org/Graphics/SVG/1.1/DTD/svg11.dtd">
<!-- Generated by graphviz version 2.50.0 (20211204.2007)
 -->
<!-- Title: yapre/src/systems/yrenderer.h Pages: 1 -->
<svg width="334pt" height="140pt"
 viewBox="0.00 0.00 334.00 140.00" xmlns="http://www.w3.org/2000/svg" xmlns:xlink="http://www.w3.org/1999/xlink">
<g id="graph0" class="graph" transform="scale(1 1) rotate(0) translate(4 136)">
<title>yapre/src/systems/yrenderer.h</title>
<!-- Node1 -->
<g id="node1" class="node">
<title>Node1</title>
<g id="a_node1"><a xlink:title=" ">
<polygon fill="#bfbfbf" stroke="black" points="52.5,-112.5 52.5,-131.5 201.5,-131.5 201.5,-112.5 52.5,-112.5"/>
<text text-anchor="middle" x="127" y="-119.5" font-family="Helvetica,sans-Serif" font-size="10.00">yapre/src/systems/yrenderer.h</text>
</a>
</g>
</g>
<!-- Node2 -->
<g id="node2" class="node">
<title>Node2</title>
<g id="a_node2"><a xlink:title=" ">
<polygon fill="none" stroke="#bfbfbf" points="0,-56.5 0,-75.5 70,-75.5 70,-56.5 0,-56.5"/>
<text text-anchor="middle" x="35" y="-63.5" font-family="Helvetica,sans-Serif" font-size="10.00">glm/glm.hpp</text>
</a>
</g>
</g>
<!-- Node1&#45;&gt;Node2 -->
<g id="edge1" class="edge">
<title>Node1&#45;&gt;Node2</title>
<path fill="none" stroke="midnightblue" d="M112.22,-112.32C97.73,-103.82 75.43,-90.73 58.51,-80.8"/>
<polygon fill="midnightblue" stroke="midnightblue" points="60.14,-77.7 49.74,-75.65 56.6,-83.74 60.14,-77.7"/>
</g>
<!-- Node3 -->
<g id="node3" class="node">
<title>Node3</title>
<g id="a_node3"><a xlink:href="ytexture_8h.html" target="_top" xlink:title=" ">
<polygon fill="none" stroke="black" points="126,-56.5 126,-75.5 186,-75.5 186,-56.5 126,-56.5"/>
<text text-anchor="middle" x="156" y="-63.5" font-family="Helvetica,sans-Serif" font-size="10.00">ytexture.h</text>
</a>
</g>
</g>
<!-- Node1&#45;&gt;Node3 -->
<g id="edge2" class="edge">
<title>Node1&#45;&gt;Node3</title>
<path fill="none" stroke="midnightblue" d="M131.79,-112.08C135.76,-104.69 141.53,-93.95 146.43,-84.81"/>
<polygon fill="midnightblue" stroke="midnightblue" points="149.65,-86.22 151.3,-75.75 143.49,-82.91 149.65,-86.22"/>
</g>
<!-- Node5 -->
<g id="node5" class="node">
<title>Node5</title>
<g id="a_node5"><a xlink:title=" ">
<polygon fill="none" stroke="#bfbfbf" points="70.5,-0.5 70.5,-19.5 111.5,-19.5 111.5,-0.5 70.5,-0.5"/>
<text text-anchor="middle" x="91" y="-7.5" font-family="Helvetica,sans-Serif" font-size="10.00">string</text>
</a>
</g>
</g>
<!-- Node1&#45;&gt;Node5 -->
<g id="edge7" class="edge">
<title>Node1&#45;&gt;Node5</title>
<path fill="none" stroke="midnightblue" d="M124.18,-112.37C118.34,-94.54 104.84,-53.3 96.98,-29.27"/>
<polygon fill="midnightblue" stroke="midnightblue" points="100.25,-28.01 93.81,-19.59 93.6,-30.18 100.25,-28.01"/>
</g>
<!-- Node8 -->
<g id="node8" class="node">
<title>Node8</title>
<g id="a_node8"><a xlink:title=" ">
<polygon fill="none" stroke="#bfbfbf" points="204,-56.5 204,-75.5 242,-75.5 242,-56.5 204,-56.5"/>
<text text-anchor="middle" x="223" y="-63.5" font-family="Helvetica,sans-Serif" font-size="10.00">tuple</text>
</a>
</g>
</g>
<!-- Node1&#45;&gt;Node8 -->
<g id="edge8" class="edge">
<title>Node1&#45;&gt;Node8</title>
<path fill="none" stroke="midnightblue" d="M142.42,-112.32C157.54,-103.82 180.82,-90.73 198.47,-80.8"/>
<polygon fill="midnightblue" stroke="midnightblue" points="200.61,-83.61 207.61,-75.65 197.18,-77.51 200.61,-83.61"/>
</g>
<!-- Node4 -->
<g id="node4" class="node">
<title>Node4</title>
<g id="a_node4"><a xlink:title=" ">
<polygon fill="none" stroke="#bfbfbf" points="130,-0.5 130,-19.5 182,-19.5 182,-0.5 130,-0.5"/>
<text text-anchor="middle" x="156" y="-7.5" font-family="Helvetica,sans-Serif" font-size="10.00">memory</text>
</a>
</g>
</g>
<!-- Node3&#45;&gt;Node4 -->
<g id="edge3" class="edge">
<title>Node3&#45;&gt;Node4</title>
<path fill="none" stroke="midnightblue" d="M156,-56.08C156,-49.01 156,-38.86 156,-29.99"/>
<polygon fill="midnightblue" stroke="midnightblue" points="159.5,-29.75 156,-19.75 152.5,-29.75 159.5,-29.75"/>
</g>
<!-- Node3&#45;&gt;Node5 -->
<g id="edge4" class="edge">
<title>Node3&#45;&gt;Node5</title>
<path fill="none" stroke="midnightblue" d="M145.56,-56.32C135.85,-48.26 121.18,-36.08 109.5,-26.37"/>
<polygon fill="midnightblue" stroke="midnightblue" points="111.56,-23.53 101.63,-19.83 107.09,-28.92 111.56,-23.53"/>
</g>
<!-- Node6 -->
<g id="node6" class="node">
<title>Node6</title>
<g id="a_node6"><a xlink:title=" ">
<polygon fill="none" stroke="#bfbfbf" points="200,-0.5 200,-19.5 244,-19.5 244,-0.5 200,-0.5"/>
<text text-anchor="middle" x="222" y="-7.5" font-family="Helvetica,sans-Serif" font-size="10.00">vector</text>
</a>
</g>
</g>
<!-- Node3&#45;&gt;Node6 -->
<g id="edge5" class="edge">
<title>Node3&#45;&gt;Node6</title>
<path fill="none" stroke="midnightblue" d="M166.6,-56.32C176.46,-48.26 191.35,-36.08 203.22,-26.37"/>
<polygon fill="midnightblue" stroke="midnightblue" points="205.68,-28.88 211.2,-19.83 201.25,-23.46 205.68,-28.88"/>
</g>
<!-- Node7 -->
<g id="node7" class="node">
<title>Node7</title>
<g id="a_node7"><a xlink:title=" ">
<polygon fill="none" stroke="#bfbfbf" points="262,-0.5 262,-19.5 326,-19.5 326,-0.5 262,-0.5"/>
<text text-anchor="middle" x="294" y="-7.5" font-family="Helvetica,sans-Serif" font-size="10.00">glad/glad.h</text>
</a>
</g>
</g>
<!-- Node3&#45;&gt;Node7 -->
<g id="edge6" class="edge">
<title>Node3&#45;&gt;Node7</title>
<path fill="none" stroke="midnightblue" d="M177.87,-56.44C200.78,-47.48 236.98,-33.31 262.87,-23.18"/>
<polygon fill="midnightblue" stroke="midnightblue" points="264.2,-26.42 272.24,-19.52 261.65,-19.9 264.2,-26.42"/>
</g>
</g>
</svg>
