<?xml version="1.0" encoding="UTF-8" standalone="no"?>
<!DOCTYPE svg PUBLIC "-//W3C//DTD SVG 1.1//EN"
 "http://www.w3.org/Graphics/SVG/1.1/DTD/svg11.dtd">
<!-- Generated by graphviz version 5.0.0 (20220707.1540)
 -->
<!-- Title: yapre/src/systems/yrenderer.cpp Pages: 1 -->
<svg width="1333pt" height="196pt"
 viewBox="0.00 0.00 1333.03 196.00" xmlns="http://www.w3.org/2000/svg" xmlns:xlink="http://www.w3.org/1999/xlink">
<g id="graph0" class="graph" transform="scale(1 1) rotate(0) translate(4 192)">
<title>yapre/src/systems/yrenderer.cpp</title>
<!-- Node1 -->
<g id="node1" class="node">
<title>Node1</title>
<g id="a_node1"><a xlink:title=" ">
<polygon fill="#bfbfbf" stroke="black" points="570.53,-168.5 570.53,-187.5 729.53,-187.5 729.53,-168.5 570.53,-168.5"/>
<text text-anchor="middle" x="650.03" y="-175.5" font-family="Helvetica,sans-Serif" font-size="10.00">yapre/src/systems/yrenderer.cpp</text>
</a>
</g>
</g>
<!-- Node2 -->
<g id="node2" class="node">
<title>Node2</title>
<g id="a_node2"><a xlink:href="yrenderer_8h.html" target="_top" xlink:title=" ">
<polygon fill="none" stroke="black" points="305.53,-112.5 305.53,-131.5 370.53,-131.5 370.53,-112.5 305.53,-112.5"/>
<text text-anchor="middle" x="338.03" y="-119.5" font-family="Helvetica,sans-Serif" font-size="10.00">yrenderer.h</text>
</a>
</g>
</g>
<!-- Node1&#45;&gt;Node2 -->
<g id="edge1" class="edge">
<title>Node1&#45;&gt;Node2</title>
<path fill="none" stroke="midnightblue" d="M597.68,-168.44C544.18,-159.62 458.73,-145.31 385.03,-132 383.57,-131.74 382.09,-131.47 380.59,-131.19"/>
<polygon fill="midnightblue" stroke="midnightblue" points="381.1,-127.73 370.63,-129.33 379.82,-134.61 381.1,-127.73"/>
</g>
<!-- Node3 -->
<g id="node3" class="node">
<title>Node3</title>
<g id="a_node3"><a xlink:title=" ">
<polygon fill="none" stroke="#bfbfbf" points="214.03,-56.5 214.03,-75.5 284.03,-75.5 284.03,-56.5 214.03,-56.5"/>
<text text-anchor="middle" x="249.03" y="-63.5" font-family="Helvetica,sans-Serif" font-size="10.00">glm/glm.hpp</text>
</a>
</g>
</g>
<!-- Node1&#45;&gt;Node3 -->
<g id="edge11" class="edge">
<title>Node1&#45;&gt;Node3</title>
<path fill="none" stroke="midnightblue" d="M570.36,-174.18C480.49,-169.74 340.98,-158.68 296.03,-132 277.93,-121.26 264.82,-100.55 257.12,-85.38"/>
<polygon fill="midnightblue" stroke="midnightblue" points="260.1,-83.5 252.65,-75.96 253.77,-86.49 260.1,-83.5"/>
</g>
<!-- Node4 -->
<g id="node4" class="node">
<title>Node4</title>
<g id="a_node4"><a xlink:href="ytexture_8h.html" target="_top" xlink:title=" ">
<polygon fill="none" stroke="black" points="340.03,-56.5 340.03,-75.5 400.03,-75.5 400.03,-56.5 340.03,-56.5"/>
<text text-anchor="middle" x="370.03" y="-63.5" font-family="Helvetica,sans-Serif" font-size="10.00">ytexture.h</text>
</a>
</g>
</g>
<!-- Node1&#45;&gt;Node4 -->
<g id="edge35" class="edge">
<title>Node1&#45;&gt;Node4</title>
<path fill="none" stroke="midnightblue" d="M570.32,-170.1C529.56,-164.11 480.22,-152.91 440.03,-132 417.15,-120.1 396.24,-98.68 383.35,-83.69"/>
<polygon fill="midnightblue" stroke="midnightblue" points="385.81,-81.18 376.73,-75.73 380.43,-85.66 385.81,-81.18"/>
</g>
<!-- Node5 -->
<g id="node5" class="node">
<title>Node5</title>
<g id="a_node5"><a xlink:title=" ">
<polygon fill="none" stroke="#bfbfbf" points="91.03,-0.5 91.03,-19.5 143.03,-19.5 143.03,-0.5 91.03,-0.5"/>
<text text-anchor="middle" x="117.03" y="-7.5" font-family="Helvetica,sans-Serif" font-size="10.00">memory</text>
</a>
</g>
</g>
<!-- Node1&#45;&gt;Node5 -->
<g id="edge42" class="edge">
<title>Node1&#45;&gt;Node5</title>
<path fill="none" stroke="midnightblue" d="M570.5,-176.86C470.39,-175.11 293.77,-166.74 147.03,-132 81.01,-116.37 43.2,-132.08 5.03,-76 -16.6,-44.22 40.64,-25.89 81.04,-17.23"/>
<polygon fill="midnightblue" stroke="midnightblue" points="81.78,-20.65 90.88,-15.23 80.39,-13.79 81.78,-20.65"/>
</g>
<!-- Node7 -->
<g id="node7" class="node">
<title>Node7</title>
<g id="a_node7"><a xlink:title=" ">
<polygon fill="none" stroke="#bfbfbf" points="774.03,-0.5 774.03,-19.5 818.03,-19.5 818.03,-0.5 774.03,-0.5"/>
<text text-anchor="middle" x="796.03" y="-7.5" font-family="Helvetica,sans-Serif" font-size="10.00">vector</text>
</a>
</g>
</g>
<!-- Node1&#45;&gt;Node7 -->
<g id="edge46" class="edge">
<title>Node1&#45;&gt;Node7</title>
<path fill="none" stroke="midnightblue" d="M674.61,-168.46C692.84,-161.11 717.34,-149 734.03,-132 763.55,-101.94 782.04,-54.97 790.54,-29.29"/>
<polygon fill="midnightblue" stroke="midnightblue" points="793.89,-30.29 793.57,-19.7 787.22,-28.18 793.89,-30.29"/>
</g>
<!-- Node8 -->
<g id="node8" class="node">
<title>Node8</title>
<g id="a_node8"><a xlink:title=" ">
<polygon fill="none" stroke="#bfbfbf" points="351.03,-0.5 351.03,-19.5 415.03,-19.5 415.03,-0.5 351.03,-0.5"/>
<text text-anchor="middle" x="383.03" y="-7.5" font-family="Helvetica,sans-Serif" font-size="10.00">glad/glad.h</text>
</a>
</g>
</g>
<!-- Node1&#45;&gt;Node8 -->
<g id="edge10" class="edge">
<title>Node1&#45;&gt;Node8</title>
<path fill="none" stroke="midnightblue" d="M659.26,-168.4C681.03,-147.1 731.52,-91.11 701.03,-56 665.85,-15.49 503.85,-10.46 425.59,-10.45"/>
<polygon fill="midnightblue" stroke="midnightblue" points="425.11,-6.95 415.12,-10.48 425.13,-13.95 425.11,-6.95"/>
</g>
<!-- Node9 -->
<g id="node9" class="node">
<title>Node9</title>
<g id="a_node9"><a xlink:title=" ">
<polygon fill="none" stroke="#bfbfbf" points="418.03,-56.5 418.03,-75.5 456.03,-75.5 456.03,-56.5 418.03,-56.5"/>
<text text-anchor="middle" x="437.03" y="-63.5" font-family="Helvetica,sans-Serif" font-size="10.00">tuple</text>
</a>
</g>
</g>
<!-- Node1&#45;&gt;Node9 -->
<g id="edge44" class="edge">
<title>Node1&#45;&gt;Node9</title>
<path fill="none" stroke="midnightblue" d="M581.26,-168.48C533.04,-161.16 474.09,-149.07 456.03,-132 443.49,-120.15 439.08,-100.52 437.6,-85.93"/>
<polygon fill="midnightblue" stroke="midnightblue" points="441.07,-85.31 436.95,-75.55 434.09,-85.75 441.07,-85.31"/>
</g>
<!-- Node10 -->
<g id="node10" class="node">
<title>Node10</title>
<g id="a_node10"><a xlink:href="yfont_8h.html" target="_top" xlink:title=" ">
<polygon fill="none" stroke="black" points="545.53,-112.5 545.53,-131.5 592.53,-131.5 592.53,-112.5 545.53,-112.5"/>
<text text-anchor="middle" x="569.03" y="-119.5" font-family="Helvetica,sans-Serif" font-size="10.00">yfont.h</text>
</a>
</g>
</g>
<!-- Node1&#45;&gt;Node10 -->
<g id="edge12" class="edge">
<title>Node1&#45;&gt;Node10</title>
<path fill="none" stroke="midnightblue" d="M637.01,-168.32C624.5,-159.98 605.35,-147.21 590.56,-137.35"/>
<polygon fill="midnightblue" stroke="midnightblue" points="592.27,-134.29 582.01,-131.65 588.39,-140.11 592.27,-134.29"/>
</g>
<!-- Node13 -->
<g id="node13" class="node">
<title>Node13</title>
<g id="a_node13"><a xlink:title=" ">
<polygon fill="none" stroke="#bfbfbf" points="608.53,-56.5 608.53,-75.5 691.53,-75.5 691.53,-56.5 608.53,-56.5"/>
<text text-anchor="middle" x="650.03" y="-63.5" font-family="Helvetica,sans-Serif" font-size="10.00">unordered_map</text>
</a>
</g>
</g>
<!-- Node1&#45;&gt;Node13 -->
<g id="edge45" class="edge">
<title>Node1&#45;&gt;Node13</title>
<path fill="none" stroke="midnightblue" d="M650.03,-168.37C650.03,-150.62 650.03,-109.67 650.03,-85.6"/>
<polygon fill="midnightblue" stroke="midnightblue" points="653.53,-85.59 650.03,-75.59 646.53,-85.59 653.53,-85.59"/>
</g>
<!-- Node14 -->
<g id="node14" class="node">
<title>Node14</title>
<g id="a_node14"><a xlink:href="yluabind_8hpp.html" target="_top" xlink:title=" ">
<polygon fill="none" stroke="black" points="824.53,-112.5 824.53,-131.5 895.53,-131.5 895.53,-112.5 824.53,-112.5"/>
<text text-anchor="middle" x="860.03" y="-119.5" font-family="Helvetica,sans-Serif" font-size="10.00">yluabind.hpp</text>
</a>
</g>
</g>
<!-- Node1&#45;&gt;Node14 -->
<g id="edge18" class="edge">
<title>Node1&#45;&gt;Node14</title>
<path fill="none" stroke="midnightblue" d="M683.3,-168.44C719.48,-159.14 777.4,-144.25 817.01,-134.06"/>
<polygon fill="midnightblue" stroke="midnightblue" points="818.09,-137.4 826.91,-131.52 816.35,-130.62 818.09,-137.4"/>
</g>
<!-- Node19 -->
<g id="node19" class="node">
<title>Node19</title>
<g id="a_node19"><a xlink:title=" ">
<polygon fill="none" stroke="#bfbfbf" points="1271.03,-56.5 1271.03,-75.5 1325.03,-75.5 1325.03,-56.5 1271.03,-56.5"/>
<text text-anchor="middle" x="1298.03" y="-63.5" font-family="Helvetica,sans-Serif" font-size="10.00">iostream</text>
</a>
</g>
</g>
<!-- Node1&#45;&gt;Node19 -->
<g id="edge41" class="edge">
<title>Node1&#45;&gt;Node19</title>
<path fill="none" stroke="midnightblue" d="M729.73,-169.36C780.83,-162.91 848.03,-151.5 905.03,-132 923.09,-125.82 924.79,-117.61 943.03,-112 1076.34,-70.99 1119.68,-99.99 1261.08,-75.91"/>
<polygon fill="midnightblue" stroke="midnightblue" points="1261.74,-79.35 1270.98,-74.17 1260.53,-72.46 1261.74,-79.35"/>
</g>
<!-- Node22 -->
<g id="node22" class="node">
<title>Node22</title>
<g id="a_node22"><a xlink:href="yshader_8h.html" target="_top" xlink:title=" ">
<polygon fill="none" stroke="black" points="156.53,-112.5 156.53,-131.5 215.53,-131.5 215.53,-112.5 156.53,-112.5"/>
<text text-anchor="middle" x="186.03" y="-119.5" font-family="Helvetica,sans-Serif" font-size="10.00">yshader.h</text>
</a>
</g>
</g>
<!-- Node1&#45;&gt;Node22 -->
<g id="edge30" class="edge">
<title>Node1&#45;&gt;Node22</title>
<path fill="none" stroke="midnightblue" d="M570.44,-168.78C489.46,-160.26 360.39,-146.2 249.03,-132 241.48,-131.04 233.44,-129.94 225.71,-128.86"/>
<polygon fill="midnightblue" stroke="midnightblue" points="226.2,-125.39 215.81,-127.44 225.21,-132.32 226.2,-125.39"/>
</g>
<!-- Node24 -->
<g id="node24" class="node">
<title>Node24</title>
<g id="a_node24"><a xlink:href="ywindow_8h.html" target="_top" xlink:title=" ">
<polygon fill="none" stroke="black" points="465.03,-112.5 465.03,-131.5 527.03,-131.5 527.03,-112.5 465.03,-112.5"/>
<text text-anchor="middle" x="496.03" y="-119.5" font-family="Helvetica,sans-Serif" font-size="10.00">ywindow.h</text>
</a>
</g>
</g>
<!-- Node1&#45;&gt;Node24 -->
<g id="edge36" class="edge">
<title>Node1&#45;&gt;Node24</title>
<path fill="none" stroke="midnightblue" d="M625.63,-168.44C599.83,-159.4 558.95,-145.06 530.01,-134.92"/>
<polygon fill="midnightblue" stroke="midnightblue" points="530.91,-131.52 520.31,-131.52 528.59,-138.13 530.91,-131.52"/>
</g>
<!-- Node25 -->
<g id="node25" class="node">
<title>Node25</title>
<g id="a_node25"><a xlink:title=" ">
<polygon fill="none" stroke="#bfbfbf" points="952.03,-112.5 952.03,-131.5 996.03,-131.5 996.03,-112.5 952.03,-112.5"/>
<text text-anchor="middle" x="974.03" y="-119.5" font-family="Helvetica,sans-Serif" font-size="10.00">SDL.h</text>
</a>
</g>
</g>
<!-- Node1&#45;&gt;Node25 -->
<g id="edge38" class="edge">
<title>Node1&#45;&gt;Node25</title>
<path fill="none" stroke="midnightblue" d="M715.52,-168.48C774.09,-160.45 862.14,-147.38 938.03,-132 939.31,-131.74 940.61,-131.47 941.92,-131.18"/>
<polygon fill="midnightblue" stroke="midnightblue" points="943.06,-134.51 952.01,-128.84 941.48,-127.69 943.06,-134.51"/>
</g>
<!-- Node26 -->
<g id="node26" class="node">
<title>Node26</title>
<g id="a_node26"><a xlink:title=" ">
<polygon fill="none" stroke="#bfbfbf" points="1014.03,-112.5 1014.03,-131.5 1070.03,-131.5 1070.03,-112.5 1014.03,-112.5"/>
<text text-anchor="middle" x="1042.03" y="-119.5" font-family="Helvetica,sans-Serif" font-size="10.00">algorithm</text>
</a>
</g>
</g>
<!-- Node1&#45;&gt;Node26 -->
<g id="edge39" class="edge">
<title>Node1&#45;&gt;Node26</title>
<path fill="none" stroke="midnightblue" d="M729.73,-169.49C799.61,-162.31 904.1,-150.14 1003.87,-132.04"/>
<polygon fill="midnightblue" stroke="midnightblue" points="1004.61,-135.46 1013.82,-130.21 1003.35,-128.57 1004.61,-135.46"/>
</g>
<!-- Node27 -->
<g id="node27" class="node">
<title>Node27</title>
<g id="a_node27"><a xlink:title=" ">
<polygon fill="none" stroke="#bfbfbf" points="1088.03,-112.5 1088.03,-131.5 1138.03,-131.5 1138.03,-112.5 1088.03,-112.5"/>
<text text-anchor="middle" x="1113.03" y="-119.5" font-family="Helvetica,sans-Serif" font-size="10.00">fstream</text>
</a>
</g>
</g>
<!-- Node1&#45;&gt;Node27 -->
<g id="edge40" class="edge">
<title>Node1&#45;&gt;Node27</title>
<path fill="none" stroke="midnightblue" d="M729.62,-172.34C813.95,-166.56 951.05,-154.8 1077.98,-131.93"/>
<polygon fill="midnightblue" stroke="midnightblue" points="1078.67,-135.36 1087.87,-130.12 1077.41,-128.48 1078.67,-135.36"/>
</g>
<!-- Node28 -->
<g id="node28" class="node">
<title>Node28</title>
<g id="a_node28"><a xlink:title=" ">
<polygon fill="none" stroke="#bfbfbf" points="1156.03,-112.5 1156.03,-131.5 1208.03,-131.5 1208.03,-112.5 1156.03,-112.5"/>
<text text-anchor="middle" x="1182.03" y="-119.5" font-family="Helvetica,sans-Serif" font-size="10.00">sstream</text>
</a>
</g>
</g>
<!-- Node1&#45;&gt;Node28 -->
<g id="edge43" class="edge">
<title>Node1&#45;&gt;Node28</title>
<path fill="none" stroke="midnightblue" d="M729.73,-173.75C826.21,-168.92 993.65,-157.71 1145.76,-131.96"/>
<polygon fill="midnightblue" stroke="midnightblue" points="1146.49,-135.38 1155.75,-130.24 1145.3,-128.48 1146.49,-135.38"/>
</g>
<!-- Node2&#45;&gt;Node3 -->
<g id="edge2" class="edge">
<title>Node2&#45;&gt;Node3</title>
<path fill="none" stroke="midnightblue" d="M323.73,-112.32C309.84,-103.9 288.53,-90.97 272.22,-81.07"/>
<polygon fill="midnightblue" stroke="midnightblue" points="273.66,-77.85 263.29,-75.65 270.03,-83.83 273.66,-77.85"/>
</g>
<!-- Node2&#45;&gt;Node4 -->
<g id="edge3" class="edge">
<title>Node2&#45;&gt;Node4</title>
<path fill="none" stroke="midnightblue" d="M343.31,-112.08C347.74,-104.61 354.19,-93.72 359.65,-84.52"/>
<polygon fill="midnightblue" stroke="midnightblue" points="362.75,-86.14 364.84,-75.75 356.73,-82.57 362.75,-86.14"/>
</g>
<!-- Node6 -->
<g id="node6" class="node">
<title>Node6</title>
<g id="a_node6"><a xlink:title=" ">
<polygon fill="none" stroke="#bfbfbf" points="291.53,-0.5 291.53,-19.5 332.53,-19.5 332.53,-0.5 291.53,-0.5"/>
<text text-anchor="middle" x="312.03" y="-7.5" font-family="Helvetica,sans-Serif" font-size="10.00">string</text>
</a>
</g>
</g>
<!-- Node2&#45;&gt;Node6 -->
<g id="edge8" class="edge">
<title>Node2&#45;&gt;Node6</title>
<path fill="none" stroke="midnightblue" d="M335.99,-112.37C331.79,-94.62 322.11,-53.67 316.42,-29.6"/>
<polygon fill="midnightblue" stroke="midnightblue" points="319.76,-28.52 314.06,-19.59 312.95,-30.13 319.76,-28.52"/>
</g>
<!-- Node2&#45;&gt;Node9 -->
<g id="edge9" class="edge">
<title>Node2&#45;&gt;Node9</title>
<path fill="none" stroke="midnightblue" d="M353.93,-112.32C369.67,-103.74 393.97,-90.49 412.24,-80.52"/>
<polygon fill="midnightblue" stroke="midnightblue" points="414.06,-83.52 421.16,-75.65 410.71,-77.37 414.06,-83.52"/>
</g>
<!-- Node4&#45;&gt;Node5 -->
<g id="edge4" class="edge">
<title>Node4&#45;&gt;Node5</title>
<path fill="none" stroke="midnightblue" d="M340.01,-58.59C293.33,-48.63 203.49,-29.46 153.27,-18.74"/>
<polygon fill="midnightblue" stroke="midnightblue" points="153.69,-15.25 143.18,-16.58 152.23,-22.09 153.69,-15.25"/>
</g>
<!-- Node4&#45;&gt;Node6 -->
<g id="edge5" class="edge">
<title>Node4&#45;&gt;Node6</title>
<path fill="none" stroke="midnightblue" d="M360.71,-56.32C352.13,-48.34 339.22,-36.31 328.84,-26.65"/>
<polygon fill="midnightblue" stroke="midnightblue" points="331.22,-24.09 321.52,-19.83 326.45,-29.21 331.22,-24.09"/>
</g>
<!-- Node4&#45;&gt;Node7 -->
<g id="edge6" class="edge">
<title>Node4&#45;&gt;Node7</title>
<path fill="none" stroke="midnightblue" d="M400.19,-57.69C403.17,-57.07 406.15,-56.5 409.03,-56 539.4,-33.45 696.49,-19.09 763.35,-13.57"/>
<polygon fill="midnightblue" stroke="midnightblue" points="763.97,-17.03 773.65,-12.73 763.4,-10.05 763.97,-17.03"/>
</g>
<!-- Node4&#45;&gt;Node8 -->
<g id="edge7" class="edge">
<title>Node4&#45;&gt;Node8</title>
<path fill="none" stroke="midnightblue" d="M372.17,-56.08C373.9,-48.93 376.37,-38.64 378.53,-29.69"/>
<polygon fill="midnightblue" stroke="midnightblue" points="381.98,-30.29 380.92,-19.75 375.18,-28.65 381.98,-30.29"/>
</g>
<!-- Node10&#45;&gt;Node3 -->
<g id="edge15" class="edge">
<title>Node10&#45;&gt;Node3</title>
<path fill="none" stroke="midnightblue" d="M545.31,-114.19C542.2,-113.4 539.05,-112.65 536.03,-112 451.3,-93.86 351.03,-79.8 294.24,-72.51"/>
<polygon fill="midnightblue" stroke="midnightblue" points="294.52,-69.02 284.16,-71.23 293.64,-75.97 294.52,-69.02"/>
</g>
<!-- Node10&#45;&gt;Node4 -->
<g id="edge13" class="edge">
<title>Node10&#45;&gt;Node4</title>
<path fill="none" stroke="midnightblue" d="M545.24,-114.51C542.14,-113.66 539.01,-112.81 536.03,-112 493.07,-100.32 443.85,-86.98 410.23,-77.88"/>
<polygon fill="midnightblue" stroke="midnightblue" points="410.89,-74.43 400.32,-75.2 409.06,-81.19 410.89,-74.43"/>
</g>
<!-- Node11 -->
<g id="node11" class="node">
<title>Node11</title>
<g id="a_node11"><a xlink:title=" ">
<polygon fill="none" stroke="#bfbfbf" points="534.03,-56.5 534.03,-75.5 590.03,-75.5 590.03,-56.5 534.03,-56.5"/>
<text text-anchor="middle" x="562.03" y="-63.5" font-family="Helvetica,sans-Serif" font-size="10.00">ft2build.h</text>
</a>
</g>
</g>
<!-- Node10&#45;&gt;Node11 -->
<g id="edge14" class="edge">
<title>Node10&#45;&gt;Node11</title>
<path fill="none" stroke="midnightblue" d="M567.87,-112.08C566.94,-104.93 565.61,-94.64 564.45,-85.69"/>
<polygon fill="midnightblue" stroke="midnightblue" points="567.92,-85.22 563.16,-75.75 560.98,-86.12 567.92,-85.22"/>
</g>
<!-- Node12 -->
<g id="node12" class="node">
<title>Node12</title>
<g id="a_node12"><a xlink:title=" ">
<polygon fill="none" stroke="#bfbfbf" points="474.53,-56.5 474.53,-75.5 515.53,-75.5 515.53,-56.5 474.53,-56.5"/>
<text text-anchor="middle" x="495.03" y="-63.5" font-family="Helvetica,sans-Serif" font-size="10.00">utf8.h</text>
</a>
</g>
</g>
<!-- Node10&#45;&gt;Node12 -->
<g id="edge16" class="edge">
<title>Node10&#45;&gt;Node12</title>
<path fill="none" stroke="midnightblue" d="M557.14,-112.32C545.88,-104.11 528.74,-91.6 515.32,-81.81"/>
<polygon fill="midnightblue" stroke="midnightblue" points="517.27,-78.9 507.13,-75.83 513.15,-84.56 517.27,-78.9"/>
</g>
<!-- Node10&#45;&gt;Node13 -->
<g id="edge17" class="edge">
<title>Node10&#45;&gt;Node13</title>
<path fill="none" stroke="midnightblue" d="M582.04,-112.32C594.56,-103.98 613.71,-91.21 628.5,-81.35"/>
<polygon fill="midnightblue" stroke="midnightblue" points="630.67,-84.11 637.05,-75.65 626.78,-78.29 630.67,-84.11"/>
</g>
<!-- Node14&#45;&gt;Node6 -->
<g id="edge24" class="edge">
<title>Node14&#45;&gt;Node6</title>
<path fill="none" stroke="midnightblue" d="M843.4,-112.32C815.04,-97.95 755.14,-69.47 701.03,-56 548.61,-18.05 501.26,-49.82 342.66,-19.7"/>
<polygon fill="midnightblue" stroke="midnightblue" points="343.04,-16.2 332.55,-17.72 341.7,-23.07 343.04,-16.2"/>
</g>
<!-- Node14&#45;&gt;Node7 -->
<g id="edge29" class="edge">
<title>Node14&#45;&gt;Node7</title>
<path fill="none" stroke="midnightblue" d="M895.82,-112.92C939.01,-102.8 1006.8,-85.64 1014.03,-76 1019.36,-68.89 1019.64,-62.89 1014.03,-56 990.97,-27.7 883.24,-16.66 828.35,-12.82"/>
<polygon fill="midnightblue" stroke="midnightblue" points="828.33,-9.31 818.12,-12.15 827.87,-16.3 828.33,-9.31"/>
</g>
<!-- Node14&#45;&gt;Node9 -->
<g id="edge25" class="edge">
<title>Node14&#45;&gt;Node9</title>
<path fill="none" stroke="midnightblue" d="M824.51,-119.31C756.49,-115.56 603.16,-104.69 466.02,-75.81"/>
<polygon fill="midnightblue" stroke="midnightblue" points="466.68,-72.38 456.17,-73.7 465.22,-79.22 466.68,-72.38"/>
</g>
<!-- Node14&#45;&gt;Node13 -->
<g id="edge27" class="edge">
<title>Node14&#45;&gt;Node13</title>
<path fill="none" stroke="midnightblue" d="M826.75,-112.44C790.58,-103.14 732.65,-88.25 693.05,-78.06"/>
<polygon fill="midnightblue" stroke="midnightblue" points="693.7,-74.62 683.15,-75.52 691.96,-81.4 693.7,-74.62"/>
</g>
<!-- Node15 -->
<g id="node15" class="node">
<title>Node15</title>
<g id="a_node15"><a xlink:title=" ">
<polygon fill="none" stroke="#bfbfbf" points="1199.53,-56.5 1199.53,-75.5 1252.53,-75.5 1252.53,-56.5 1199.53,-56.5"/>
<text text-anchor="middle" x="1226.03" y="-63.5" font-family="Helvetica,sans-Serif" font-size="10.00">lauxlib.h</text>
</a>
</g>
</g>
<!-- Node14&#45;&gt;Node15 -->
<g id="edge19" class="edge">
<title>Node14&#45;&gt;Node15</title>
<path fill="none" stroke="midnightblue" d="M895.77,-114.34C900.56,-113.52 905.41,-112.71 910.03,-112 1030.88,-93.37 1065.01,-98.95 1189.45,-75.9"/>
<polygon fill="midnightblue" stroke="midnightblue" points="1190.19,-79.32 1199.37,-74.03 1188.89,-72.44 1190.19,-79.32"/>
</g>
<!-- Node16 -->
<g id="node16" class="node">
<title>Node16</title>
<g id="a_node16"><a xlink:title=" ">
<polygon fill="none" stroke="#bfbfbf" points="824.03,-56.5 824.03,-75.5 862.03,-75.5 862.03,-56.5 824.03,-56.5"/>
<text text-anchor="middle" x="843.03" y="-63.5" font-family="Helvetica,sans-Serif" font-size="10.00">lua.h</text>
</a>
</g>
</g>
<!-- Node14&#45;&gt;Node16 -->
<g id="edge20" class="edge">
<title>Node14&#45;&gt;Node16</title>
<path fill="none" stroke="midnightblue" d="M857.22,-112.08C854.94,-104.85 851.66,-94.41 848.82,-85.4"/>
<polygon fill="midnightblue" stroke="midnightblue" points="852.12,-84.24 845.78,-75.75 845.45,-86.34 852.12,-84.24"/>
</g>
<!-- Node17 -->
<g id="node17" class="node">
<title>Node17</title>
<g id="a_node17"><a xlink:title=" ">
<polygon fill="none" stroke="#bfbfbf" points="880.53,-56.5 880.53,-75.5 927.53,-75.5 927.53,-56.5 880.53,-56.5"/>
<text text-anchor="middle" x="904.03" y="-63.5" font-family="Helvetica,sans-Serif" font-size="10.00">lualib.h</text>
</a>
</g>
</g>
<!-- Node14&#45;&gt;Node17 -->
<g id="edge21" class="edge">
<title>Node14&#45;&gt;Node17</title>
<path fill="none" stroke="midnightblue" d="M867.29,-112.08C873.57,-104.38 882.81,-93.03 890.46,-83.65"/>
<polygon fill="midnightblue" stroke="midnightblue" points="893.29,-85.71 896.9,-75.75 887.87,-81.29 893.29,-85.71"/>
</g>
<!-- Node18 -->
<g id="node18" class="node">
<title>Node18</title>
<g id="a_node18"><a xlink:title=" ">
<polygon fill="none" stroke="#bfbfbf" points="945.53,-56.5 945.53,-75.5 1004.53,-75.5 1004.53,-56.5 945.53,-56.5"/>
<text text-anchor="middle" x="975.03" y="-63.5" font-family="Helvetica,sans-Serif" font-size="10.00">functional</text>
</a>
</g>
</g>
<!-- Node14&#45;&gt;Node18 -->
<g id="edge22" class="edge">
<title>Node14&#45;&gt;Node18</title>
<path fill="none" stroke="midnightblue" d="M878.25,-112.44C896.92,-103.68 926.18,-89.94 947.64,-79.86"/>
<polygon fill="midnightblue" stroke="midnightblue" points="949.33,-82.93 956.89,-75.52 946.35,-76.6 949.33,-82.93"/>
</g>
<!-- Node14&#45;&gt;Node19 -->
<g id="edge23" class="edge">
<title>Node14&#45;&gt;Node19</title>
<path fill="none" stroke="midnightblue" d="M895.75,-114.23C900.54,-113.42 905.4,-112.65 910.03,-112 1062.56,-90.5 1105.38,-102.62 1261.06,-75.93"/>
<polygon fill="midnightblue" stroke="midnightblue" points="1261.74,-79.36 1270.99,-74.2 1260.54,-72.47 1261.74,-79.36"/>
</g>
<!-- Node20 -->
<g id="node20" class="node">
<title>Node20</title>
<g id="a_node20"><a xlink:title=" ">
<polygon fill="none" stroke="#bfbfbf" points="1061.03,-56.5 1061.03,-75.5 1123.03,-75.5 1123.03,-56.5 1061.03,-56.5"/>
<text text-anchor="middle" x="1092.03" y="-63.5" font-family="Helvetica,sans-Serif" font-size="10.00">type_traits</text>
</a>
</g>
</g>
<!-- Node14&#45;&gt;Node20 -->
<g id="edge26" class="edge">
<title>Node14&#45;&gt;Node20</title>
<path fill="none" stroke="midnightblue" d="M895.77,-112.68C937.63,-102.94 1006.84,-86.83 1050.9,-76.57"/>
<polygon fill="midnightblue" stroke="midnightblue" points="1051.77,-79.96 1060.71,-74.29 1050.18,-73.15 1051.77,-79.96"/>
</g>
<!-- Node21 -->
<g id="node21" class="node">
<title>Node21</title>
<g id="a_node21"><a xlink:title=" ">
<polygon fill="none" stroke="#bfbfbf" points="1141.03,-56.5 1141.03,-75.5 1181.03,-75.5 1181.03,-56.5 1141.03,-56.5"/>
<text text-anchor="middle" x="1161.03" y="-63.5" font-family="Helvetica,sans-Serif" font-size="10.00">utility</text>
</a>
</g>
</g>
<!-- Node14&#45;&gt;Node21 -->
<g id="edge28" class="edge">
<title>Node14&#45;&gt;Node21</title>
<path fill="none" stroke="midnightblue" d="M895.79,-114.48C900.58,-113.64 905.42,-112.79 910.03,-112 1005.38,-95.69 1032.96,-98.65 1130.83,-76.01"/>
<polygon fill="midnightblue" stroke="midnightblue" points="1131.91,-79.35 1140.85,-73.66 1130.31,-72.54 1131.91,-79.35"/>
</g>
<!-- Node22&#45;&gt;Node3 -->
<g id="edge33" class="edge">
<title>Node22&#45;&gt;Node3</title>
<path fill="none" stroke="midnightblue" d="M196.15,-112.32C205.55,-104.26 219.77,-92.08 231.1,-82.37"/>
<polygon fill="midnightblue" stroke="midnightblue" points="233.41,-85 238.72,-75.83 228.85,-79.68 233.41,-85"/>
</g>
<!-- Node22&#45;&gt;Node6 -->
<g id="edge31" class="edge">
<title>Node22&#45;&gt;Node6</title>
<path fill="none" stroke="midnightblue" d="M180.09,-112.1C171.95,-98.67 159.65,-72.98 172.03,-56 196.93,-21.84 248.19,-13.04 281.29,-11.09"/>
<polygon fill="midnightblue" stroke="midnightblue" points="281.5,-14.59 291.34,-10.67 281.21,-7.59 281.5,-14.59"/>
</g>
<!-- Node22&#45;&gt;Node8 -->
<g id="edge32" class="edge">
<title>Node22&#45;&gt;Node8</title>
<path fill="none" stroke="midnightblue" d="M185.98,-112.48C186.39,-98.61 189.28,-71.18 205.03,-56 210,-51.2 289.94,-32.25 340.98,-20.53"/>
<polygon fill="midnightblue" stroke="midnightblue" points="341.81,-23.93 350.77,-18.28 340.24,-17.1 341.81,-23.93"/>
</g>
<!-- Node23 -->
<g id="node23" class="node">
<title>Node23</title>
<g id="a_node23"><a xlink:title=" ">
<polygon fill="none" stroke="#bfbfbf" points="14.53,-56.5 14.53,-75.5 119.53,-75.5 119.53,-56.5 14.53,-56.5"/>
<text text-anchor="middle" x="67.03" y="-63.5" font-family="Helvetica,sans-Serif" font-size="10.00">glm/gtc/type_ptr.hpp</text>
</a>
</g>
</g>
<!-- Node22&#45;&gt;Node23 -->
<g id="edge34" class="edge">
<title>Node22&#45;&gt;Node23</title>
<path fill="none" stroke="midnightblue" d="M167.17,-112.44C147.76,-103.64 117.3,-89.81 95.06,-79.72"/>
<polygon fill="midnightblue" stroke="midnightblue" points="96.35,-76.46 85.79,-75.52 93.45,-82.84 96.35,-76.46"/>
</g>
<!-- Node24&#45;&gt;Node9 -->
<g id="edge37" class="edge">
<title>Node24&#45;&gt;Node9</title>
<path fill="none" stroke="midnightblue" d="M486.55,-112.32C477.83,-104.34 464.68,-92.31 454.13,-82.65"/>
<polygon fill="midnightblue" stroke="midnightblue" points="456.42,-80 446.68,-75.83 451.69,-85.17 456.42,-80"/>
</g>
</g>
</svg>
