<?xml version="1.0" encoding="UTF-8" standalone="no"?>
<!DOCTYPE svg PUBLIC "-//W3C//DTD SVG 1.1//EN"
 "http://www.w3.org/Graphics/SVG/1.1/DTD/svg11.dtd">
<!-- Generated by graphviz version 2.43.0 (0)
 -->
<!-- Title: yapre/src/systems/yrenderer.cpp Pages: 1 -->
<svg width="1422pt" height="196pt"
 viewBox="0.00 0.00 1422.39 196.00" xmlns="http://www.w3.org/2000/svg" xmlns:xlink="http://www.w3.org/1999/xlink">
<g id="graph0" class="graph" transform="scale(1 1) rotate(0) translate(4 192)">
<title>yapre/src/systems/yrenderer.cpp</title>
<!-- Node1 -->
<g id="node1" class="node">
<title>Node1</title>
<g id="a_node1"><a xlink:title=" ">
<polygon fill="#bfbfbf" stroke="black" points="607.39,-168.5 607.39,-187.5 783.39,-187.5 783.39,-168.5 607.39,-168.5"/>
<text text-anchor="middle" x="695.39" y="-175.5" font-family="Helvetica,sans-Serif" font-size="10.00">yapre/src/systems/yrenderer.cpp</text>
</a>
</g>
</g>
<!-- Node2 -->
<g id="node2" class="node">
<title>Node2</title>
<g id="a_node2"><a xlink:href="yrenderer_8h.html" target="_top" xlink:title=" ">
<polygon fill="none" stroke="black" points="328.39,-112.5 328.39,-131.5 400.39,-131.5 400.39,-112.5 328.39,-112.5"/>
<text text-anchor="middle" x="364.39" y="-119.5" font-family="Helvetica,sans-Serif" font-size="10.00">yrenderer.h</text>
</a>
</g>
</g>
<!-- Node1&#45;&gt;Node2 -->
<g id="edge1" class="edge">
<title>Node1&#45;&gt;Node2</title>
<path fill="none" stroke="midnightblue" d="M640.15,-168.48C583.45,-159.65 492.68,-145.31 414.39,-132 413.12,-131.78 411.83,-131.56 410.52,-131.34"/>
<polygon fill="midnightblue" stroke="midnightblue" points="410.88,-127.85 400.42,-129.57 409.67,-134.74 410.88,-127.85"/>
</g>
<!-- Node3 -->
<g id="node3" class="node">
<title>Node3</title>
<g id="a_node3"><a xlink:title=" ">
<polygon fill="none" stroke="#bfbfbf" points="226.39,-56.5 226.39,-75.5 304.39,-75.5 304.39,-56.5 226.39,-56.5"/>
<text text-anchor="middle" x="265.39" y="-63.5" font-family="Helvetica,sans-Serif" font-size="10.00">glm/glm.hpp</text>
</a>
</g>
</g>
<!-- Node1&#45;&gt;Node3 -->
<g id="edge11" class="edge">
<title>Node1&#45;&gt;Node3</title>
<path fill="none" stroke="midnightblue" d="M607.28,-173.94C512.05,-169.33 367.46,-158.16 319.39,-132 299.51,-121.19 283.99,-99.81 274.78,-84.53"/>
<polygon fill="midnightblue" stroke="midnightblue" points="277.65,-82.49 269.67,-75.53 271.57,-85.95 277.65,-82.49"/>
</g>
<!-- Node4 -->
<g id="node4" class="node">
<title>Node4</title>
<g id="a_node4"><a xlink:href="ytexture_8h.html" target="_top" xlink:title=" ">
<polygon fill="none" stroke="black" points="360.89,-56.5 360.89,-75.5 427.89,-75.5 427.89,-56.5 360.89,-56.5"/>
<text text-anchor="middle" x="394.39" y="-63.5" font-family="Helvetica,sans-Serif" font-size="10.00">ytexture.h</text>
</a>
</g>
</g>
<!-- Node1&#45;&gt;Node4 -->
<g id="edge35" class="edge">
<title>Node1&#45;&gt;Node4</title>
<path fill="none" stroke="midnightblue" d="M607.23,-170.12C563.99,-164.13 512.14,-152.94 469.39,-132 445.1,-120.11 422.41,-98.37 408.48,-83.32"/>
<polygon fill="midnightblue" stroke="midnightblue" points="410.97,-80.86 401.69,-75.76 405.76,-85.54 410.97,-80.86"/>
</g>
<!-- Node5 -->
<g id="node5" class="node">
<title>Node5</title>
<g id="a_node5"><a xlink:title=" ">
<polygon fill="none" stroke="#bfbfbf" points="96.39,-0.5 96.39,-19.5 154.39,-19.5 154.39,-0.5 96.39,-0.5"/>
<text text-anchor="middle" x="125.39" y="-7.5" font-family="Helvetica,sans-Serif" font-size="10.00">memory</text>
</a>
</g>
</g>
<!-- Node1&#45;&gt;Node5 -->
<g id="edge42" class="edge">
<title>Node1&#45;&gt;Node5</title>
<path fill="none" stroke="midnightblue" d="M607.17,-176.86C499.7,-175.05 313.18,-166.55 157.39,-132 87.1,-116.41 46.57,-135.06 5.39,-76 -17.7,-42.89 43.07,-25.07 86.32,-16.84"/>
<polygon fill="midnightblue" stroke="midnightblue" points="87.11,-20.26 96.33,-15.05 85.87,-13.37 87.11,-20.26"/>
</g>
<!-- Node7 -->
<g id="node7" class="node">
<title>Node7</title>
<g id="a_node7"><a xlink:title=" ">
<polygon fill="none" stroke="#bfbfbf" points="822.89,-0.5 822.89,-19.5 869.89,-19.5 869.89,-0.5 822.89,-0.5"/>
<text text-anchor="middle" x="846.39" y="-7.5" font-family="Helvetica,sans-Serif" font-size="10.00">vector</text>
</a>
</g>
</g>
<!-- Node1&#45;&gt;Node7 -->
<g id="edge46" class="edge">
<title>Node1&#45;&gt;Node7</title>
<path fill="none" stroke="midnightblue" d="M722.25,-168.49C741.48,-161.29 766.96,-149.34 784.39,-132 814.26,-102.29 832.62,-55.18 840.99,-29.38"/>
<polygon fill="midnightblue" stroke="midnightblue" points="844.36,-30.33 843.98,-19.75 837.68,-28.26 844.36,-30.33"/>
</g>
<!-- Node8 -->
<g id="node8" class="node">
<title>Node8</title>
<g id="a_node8"><a xlink:title=" ">
<polygon fill="none" stroke="#bfbfbf" points="372.89,-0.5 372.89,-19.5 443.89,-19.5 443.89,-0.5 372.89,-0.5"/>
<text text-anchor="middle" x="408.39" y="-7.5" font-family="Helvetica,sans-Serif" font-size="10.00">glad/glad.h</text>
</a>
</g>
</g>
<!-- Node1&#45;&gt;Node8 -->
<g id="edge10" class="edge">
<title>Node1&#45;&gt;Node8</title>
<path fill="none" stroke="midnightblue" d="M705.24,-168.44C728.48,-147.26 782.53,-91.5 751.39,-56 732.07,-33.99 543.12,-19.4 454.2,-13.7"/>
<polygon fill="midnightblue" stroke="midnightblue" points="454.33,-10.2 444.13,-13.06 453.89,-17.18 454.33,-10.2"/>
</g>
<!-- Node9 -->
<g id="node9" class="node">
<title>Node9</title>
<g id="a_node9"><a xlink:title=" ">
<polygon fill="none" stroke="#bfbfbf" points="445.89,-56.5 445.89,-75.5 486.89,-75.5 486.89,-56.5 445.89,-56.5"/>
<text text-anchor="middle" x="466.39" y="-63.5" font-family="Helvetica,sans-Serif" font-size="10.00">tuple</text>
</a>
</g>
</g>
<!-- Node1&#45;&gt;Node9 -->
<g id="edge44" class="edge">
<title>Node1&#45;&gt;Node9</title>
<path fill="none" stroke="midnightblue" d="M616.06,-168.49C564.87,-161.43 504.4,-149.67 485.39,-132 472.75,-120.25 468.36,-100.61 466.91,-85.99"/>
<polygon fill="midnightblue" stroke="midnightblue" points="470.38,-85.35 466.28,-75.58 463.39,-85.78 470.38,-85.35"/>
</g>
<!-- Node10 -->
<g id="node10" class="node">
<title>Node10</title>
<g id="a_node10"><a xlink:href="yfont_8h.html" target="_top" xlink:title=" ">
<polygon fill="none" stroke="black" points="580.89,-112.5 580.89,-131.5 631.89,-131.5 631.89,-112.5 580.89,-112.5"/>
<text text-anchor="middle" x="606.39" y="-119.5" font-family="Helvetica,sans-Serif" font-size="10.00">yfont.h</text>
</a>
</g>
</g>
<!-- Node1&#45;&gt;Node10 -->
<g id="edge12" class="edge">
<title>Node1&#45;&gt;Node10</title>
<path fill="none" stroke="midnightblue" d="M681.09,-168.32C667.2,-159.9 645.89,-146.97 629.58,-137.07"/>
<polygon fill="midnightblue" stroke="midnightblue" points="631.02,-133.85 620.65,-131.65 627.39,-139.83 631.02,-133.85"/>
</g>
<!-- Node13 -->
<g id="node13" class="node">
<title>Node13</title>
<g id="a_node13"><a xlink:title=" ">
<polygon fill="none" stroke="#bfbfbf" points="648.89,-56.5 648.89,-75.5 741.89,-75.5 741.89,-56.5 648.89,-56.5"/>
<text text-anchor="middle" x="695.39" y="-63.5" font-family="Helvetica,sans-Serif" font-size="10.00">unordered_map</text>
</a>
</g>
</g>
<!-- Node1&#45;&gt;Node13 -->
<g id="edge45" class="edge">
<title>Node1&#45;&gt;Node13</title>
<path fill="none" stroke="midnightblue" d="M695.39,-168.37C695.39,-150.62 695.39,-109.67 695.39,-85.6"/>
<polygon fill="midnightblue" stroke="midnightblue" points="698.89,-85.59 695.39,-75.59 691.89,-85.59 698.89,-85.59"/>
</g>
<!-- Node14 -->
<g id="node14" class="node">
<title>Node14</title>
<g id="a_node14"><a xlink:href="yluabind_8hpp.html" target="_top" xlink:title=" ">
<polygon fill="none" stroke="black" points="874.39,-112.5 874.39,-131.5 954.39,-131.5 954.39,-112.5 874.39,-112.5"/>
<text text-anchor="middle" x="914.39" y="-119.5" font-family="Helvetica,sans-Serif" font-size="10.00">yluabind.hpp</text>
</a>
</g>
</g>
<!-- Node1&#45;&gt;Node14 -->
<g id="edge18" class="edge">
<title>Node1&#45;&gt;Node14</title>
<path fill="none" stroke="midnightblue" d="M730.09,-168.44C767.97,-159.1 828.74,-144.12 870.05,-133.93"/>
<polygon fill="midnightblue" stroke="midnightblue" points="870.98,-137.31 879.85,-131.52 869.3,-130.51 870.98,-137.31"/>
</g>
<!-- Node19 -->
<g id="node19" class="node">
<title>Node19</title>
<g id="a_node19"><a xlink:title=" ">
<polygon fill="none" stroke="#bfbfbf" points="1354.39,-56.5 1354.39,-75.5 1414.39,-75.5 1414.39,-56.5 1354.39,-56.5"/>
<text text-anchor="middle" x="1384.39" y="-63.5" font-family="Helvetica,sans-Serif" font-size="10.00">iostream</text>
</a>
</g>
</g>
<!-- Node1&#45;&gt;Node19 -->
<g id="edge41" class="edge">
<title>Node1&#45;&gt;Node19</title>
<path fill="none" stroke="midnightblue" d="M783.4,-169.35C836.55,-162.99 905.05,-151.68 963.39,-132 981.47,-125.9 983.12,-117.54 1001.39,-112 1145.34,-68.36 1191.77,-99.91 1344.04,-76"/>
<polygon fill="midnightblue" stroke="midnightblue" points="1344.92,-79.4 1354.23,-74.34 1343.79,-72.5 1344.92,-79.4"/>
</g>
<!-- Node22 -->
<g id="node22" class="node">
<title>Node22</title>
<g id="a_node22"><a xlink:href="yshader_8h.html" target="_top" xlink:title=" ">
<polygon fill="none" stroke="black" points="166.39,-112.5 166.39,-131.5 230.39,-131.5 230.39,-112.5 166.39,-112.5"/>
<text text-anchor="middle" x="198.39" y="-119.5" font-family="Helvetica,sans-Serif" font-size="10.00">yshader.h</text>
</a>
</g>
</g>
<!-- Node1&#45;&gt;Node22 -->
<g id="edge30" class="edge">
<title>Node1&#45;&gt;Node22</title>
<path fill="none" stroke="midnightblue" d="M609.65,-168.47C523.59,-159.79 387.21,-145.69 269.39,-132 260.05,-130.92 250.03,-129.69 240.55,-128.49"/>
<polygon fill="midnightblue" stroke="midnightblue" points="240.89,-125.01 230.53,-127.22 240.01,-131.95 240.89,-125.01"/>
</g>
<!-- Node24 -->
<g id="node24" class="node">
<title>Node24</title>
<g id="a_node24"><a xlink:href="ywindow_8h.html" target="_top" xlink:title=" ">
<polygon fill="none" stroke="black" points="494.39,-112.5 494.39,-131.5 562.39,-131.5 562.39,-112.5 494.39,-112.5"/>
<text text-anchor="middle" x="528.39" y="-119.5" font-family="Helvetica,sans-Serif" font-size="10.00">ywindow.h</text>
</a>
</g>
</g>
<!-- Node1&#45;&gt;Node24 -->
<g id="edge36" class="edge">
<title>Node1&#45;&gt;Node24</title>
<path fill="none" stroke="midnightblue" d="M668.93,-168.44C640.71,-159.32 595.85,-144.81 564.42,-134.65"/>
<polygon fill="midnightblue" stroke="midnightblue" points="565.32,-131.26 554.73,-131.52 563.16,-137.92 565.32,-131.26"/>
</g>
<!-- Node25 -->
<g id="node25" class="node">
<title>Node25</title>
<g id="a_node25"><a xlink:title=" ">
<polygon fill="none" stroke="#bfbfbf" points="1010.39,-112.5 1010.39,-131.5 1054.39,-131.5 1054.39,-112.5 1010.39,-112.5"/>
<text text-anchor="middle" x="1032.39" y="-119.5" font-family="Helvetica,sans-Serif" font-size="10.00">SDL.h</text>
</a>
</g>
</g>
<!-- Node1&#45;&gt;Node25 -->
<g id="edge38" class="edge">
<title>Node1&#45;&gt;Node25</title>
<path fill="none" stroke="midnightblue" d="M765.36,-168.49C826.58,-160.57 917.75,-147.67 996.39,-132 997.67,-131.75 998.97,-131.47 1000.28,-131.19"/>
<polygon fill="midnightblue" stroke="midnightblue" points="1001.42,-134.52 1010.38,-128.86 999.85,-127.7 1001.42,-134.52"/>
</g>
<!-- Node26 -->
<g id="node26" class="node">
<title>Node26</title>
<g id="a_node26"><a xlink:title=" ">
<polygon fill="none" stroke="#bfbfbf" points="1072.39,-112.5 1072.39,-131.5 1136.39,-131.5 1136.39,-112.5 1072.39,-112.5"/>
<text text-anchor="middle" x="1104.39" y="-119.5" font-family="Helvetica,sans-Serif" font-size="10.00">algorithm</text>
</a>
</g>
</g>
<!-- Node1&#45;&gt;Node26 -->
<g id="edge39" class="edge">
<title>Node1&#45;&gt;Node26</title>
<path fill="none" stroke="midnightblue" d="M783.46,-168.59C855.82,-161.14 961.16,-149.04 1062.14,-132.07"/>
<polygon fill="midnightblue" stroke="midnightblue" points="1062.94,-135.49 1072.21,-130.36 1061.77,-128.59 1062.94,-135.49"/>
</g>
<!-- Node27 -->
<g id="node27" class="node">
<title>Node27</title>
<g id="a_node27"><a xlink:title=" ">
<polygon fill="none" stroke="#bfbfbf" points="1154.89,-112.5 1154.89,-131.5 1209.89,-131.5 1209.89,-112.5 1154.89,-112.5"/>
<text text-anchor="middle" x="1182.39" y="-119.5" font-family="Helvetica,sans-Serif" font-size="10.00">fstream</text>
</a>
</g>
</g>
<!-- Node1&#45;&gt;Node27 -->
<g id="edge40" class="edge">
<title>Node1&#45;&gt;Node27</title>
<path fill="none" stroke="midnightblue" d="M783.4,-171.83C872.16,-165.79 1013.2,-153.93 1144.36,-131.94"/>
<polygon fill="midnightblue" stroke="midnightblue" points="1145.32,-135.33 1154.59,-130.2 1144.15,-128.43 1145.32,-135.33"/>
</g>
<!-- Node28 -->
<g id="node28" class="node">
<title>Node28</title>
<g id="a_node28"><a xlink:title=" ">
<polygon fill="none" stroke="#bfbfbf" points="1228.39,-112.5 1228.39,-131.5 1284.39,-131.5 1284.39,-112.5 1228.39,-112.5"/>
<text text-anchor="middle" x="1256.39" y="-119.5" font-family="Helvetica,sans-Serif" font-size="10.00">sstream</text>
</a>
</g>
</g>
<!-- Node1&#45;&gt;Node28 -->
<g id="edge43" class="edge">
<title>Node1&#45;&gt;Node28</title>
<path fill="none" stroke="midnightblue" d="M783.51,-173.55C885.91,-168.61 1060.01,-157.35 1218.28,-131.94"/>
<polygon fill="midnightblue" stroke="midnightblue" points="1218.89,-135.39 1228.2,-130.33 1217.76,-128.48 1218.89,-135.39"/>
</g>
<!-- Node2&#45;&gt;Node3 -->
<g id="edge2" class="edge">
<title>Node2&#45;&gt;Node3</title>
<path fill="none" stroke="midnightblue" d="M348.48,-112.32C332.75,-103.74 308.44,-90.49 290.18,-80.52"/>
<polygon fill="midnightblue" stroke="midnightblue" points="291.71,-77.37 281.25,-75.65 288.36,-83.52 291.71,-77.37"/>
</g>
<!-- Node2&#45;&gt;Node4 -->
<g id="edge3" class="edge">
<title>Node2&#45;&gt;Node4</title>
<path fill="none" stroke="midnightblue" d="M369.34,-112.08C373.49,-104.61 379.54,-93.72 384.65,-84.52"/>
<polygon fill="midnightblue" stroke="midnightblue" points="387.73,-86.19 389.53,-75.75 381.61,-82.79 387.73,-86.19"/>
</g>
<!-- Node6 -->
<g id="node6" class="node">
<title>Node6</title>
<g id="a_node6"><a xlink:title=" ">
<polygon fill="none" stroke="#bfbfbf" points="310.39,-0.5 310.39,-19.5 354.39,-19.5 354.39,-0.5 310.39,-0.5"/>
<text text-anchor="middle" x="332.39" y="-7.5" font-family="Helvetica,sans-Serif" font-size="10.00">string</text>
</a>
</g>
</g>
<!-- Node2&#45;&gt;Node6 -->
<g id="edge8" class="edge">
<title>Node2&#45;&gt;Node6</title>
<path fill="none" stroke="midnightblue" d="M361.88,-112.37C356.69,-94.54 344.69,-53.3 337.7,-29.27"/>
<polygon fill="midnightblue" stroke="midnightblue" points="341.04,-28.22 334.89,-19.59 334.32,-30.17 341.04,-28.22"/>
</g>
<!-- Node2&#45;&gt;Node9 -->
<g id="edge9" class="edge">
<title>Node2&#45;&gt;Node9</title>
<path fill="none" stroke="midnightblue" d="M380.78,-112.32C397.06,-103.7 422.25,-90.36 441.1,-80.39"/>
<polygon fill="midnightblue" stroke="midnightblue" points="442.84,-83.43 450.04,-75.65 439.56,-77.24 442.84,-83.43"/>
</g>
<!-- Node4&#45;&gt;Node5 -->
<g id="edge4" class="edge">
<title>Node4&#45;&gt;Node5</title>
<path fill="none" stroke="midnightblue" d="M360.86,-58.27C310.95,-48.25 217.33,-29.46 164.41,-18.83"/>
<polygon fill="midnightblue" stroke="midnightblue" points="164.89,-15.36 154.39,-16.82 163.51,-22.22 164.89,-15.36"/>
</g>
<!-- Node4&#45;&gt;Node6 -->
<g id="edge5" class="edge">
<title>Node4&#45;&gt;Node6</title>
<path fill="none" stroke="midnightblue" d="M384.43,-56.32C375.26,-48.34 361.45,-36.31 350.36,-26.65"/>
<polygon fill="midnightblue" stroke="midnightblue" points="352.37,-23.76 342.53,-19.83 347.77,-29.04 352.37,-23.76"/>
</g>
<!-- Node4&#45;&gt;Node7 -->
<g id="edge6" class="edge">
<title>Node4&#45;&gt;Node7</title>
<path fill="none" stroke="midnightblue" d="M428.26,-57.43C431,-56.91 433.74,-56.43 436.39,-56 575.24,-33.56 742.38,-19.07 812.66,-13.53"/>
<polygon fill="midnightblue" stroke="midnightblue" points="813,-17.02 822.7,-12.75 812.46,-10.04 813,-17.02"/>
</g>
<!-- Node4&#45;&gt;Node8 -->
<g id="edge7" class="edge">
<title>Node4&#45;&gt;Node8</title>
<path fill="none" stroke="midnightblue" d="M396.7,-56.08C398.55,-48.93 401.22,-38.64 403.54,-29.69"/>
<polygon fill="midnightblue" stroke="midnightblue" points="407,-30.31 406.12,-19.75 400.22,-28.55 407,-30.31"/>
</g>
<!-- Node10&#45;&gt;Node3 -->
<g id="edge15" class="edge">
<title>Node10&#45;&gt;Node3</title>
<path fill="none" stroke="midnightblue" d="M580.84,-114.1C577.67,-113.34 574.46,-112.62 571.39,-112 481.57,-93.9 375.54,-79.94 314.82,-72.64"/>
<polygon fill="midnightblue" stroke="midnightblue" points="315.09,-69.14 304.74,-71.44 314.26,-76.1 315.09,-69.14"/>
</g>
<!-- Node10&#45;&gt;Node4 -->
<g id="edge13" class="edge">
<title>Node10&#45;&gt;Node4</title>
<path fill="none" stroke="midnightblue" d="M580.78,-114.41C577.61,-113.59 574.43,-112.78 571.39,-112 525.95,-100.38 473.94,-87.17 438.11,-78.08"/>
<polygon fill="midnightblue" stroke="midnightblue" points="438.55,-74.58 428,-75.52 436.83,-81.37 438.55,-74.58"/>
</g>
<!-- Node11 -->
<g id="node11" class="node">
<title>Node11</title>
<g id="a_node11"><a xlink:title=" ">
<polygon fill="none" stroke="#bfbfbf" points="568.39,-56.5 568.39,-75.5 630.39,-75.5 630.39,-56.5 568.39,-56.5"/>
<text text-anchor="middle" x="599.39" y="-63.5" font-family="Helvetica,sans-Serif" font-size="10.00">ft2build.h</text>
</a>
</g>
</g>
<!-- Node10&#45;&gt;Node11 -->
<g id="edge14" class="edge">
<title>Node10&#45;&gt;Node11</title>
<path fill="none" stroke="midnightblue" d="M605.23,-112.08C604.3,-104.93 602.97,-94.64 601.81,-85.69"/>
<polygon fill="midnightblue" stroke="midnightblue" points="605.28,-85.22 600.52,-75.75 598.34,-86.12 605.28,-85.22"/>
</g>
<!-- Node12 -->
<g id="node12" class="node">
<title>Node12</title>
<g id="a_node12"><a xlink:title=" ">
<polygon fill="none" stroke="#bfbfbf" points="504.89,-56.5 504.89,-75.5 549.89,-75.5 549.89,-56.5 504.89,-56.5"/>
<text text-anchor="middle" x="527.39" y="-63.5" font-family="Helvetica,sans-Serif" font-size="10.00">utf8.h</text>
</a>
</g>
</g>
<!-- Node10&#45;&gt;Node12 -->
<g id="edge16" class="edge">
<title>Node10&#45;&gt;Node12</title>
<path fill="none" stroke="midnightblue" d="M593.69,-112.32C581.49,-103.98 562.81,-91.21 548.38,-81.35"/>
<polygon fill="midnightblue" stroke="midnightblue" points="550.28,-78.41 540.05,-75.65 546.33,-84.19 550.28,-78.41"/>
</g>
<!-- Node10&#45;&gt;Node13 -->
<g id="edge17" class="edge">
<title>Node10&#45;&gt;Node13</title>
<path fill="none" stroke="midnightblue" d="M620.69,-112.32C634.57,-103.9 655.88,-90.97 672.19,-81.07"/>
<polygon fill="midnightblue" stroke="midnightblue" points="674.39,-83.83 681.12,-75.65 670.76,-77.85 674.39,-83.83"/>
</g>
<!-- Node14&#45;&gt;Node6 -->
<g id="edge24" class="edge">
<title>Node14&#45;&gt;Node6</title>
<path fill="none" stroke="midnightblue" d="M897.32,-112.28C868.22,-97.86 806.78,-69.32 751.39,-56 586.21,-16.28 535.46,-50.92 364.7,-19.88"/>
<polygon fill="midnightblue" stroke="midnightblue" points="365.09,-16.4 354.62,-18 363.8,-23.28 365.09,-16.4"/>
</g>
<!-- Node14&#45;&gt;Node7 -->
<g id="edge29" class="edge">
<title>Node14&#45;&gt;Node7</title>
<path fill="none" stroke="midnightblue" d="M954.74,-112.66C1001.07,-102.68 1071.71,-86.06 1079.39,-76 1084.78,-68.94 1085.05,-62.86 1079.39,-56 1054.51,-25.86 938.57,-15.68 880.18,-12.43"/>
<polygon fill="midnightblue" stroke="midnightblue" points="880.15,-8.92 869.98,-11.9 879.78,-15.91 880.15,-8.92"/>
</g>
<!-- Node14&#45;&gt;Node9 -->
<g id="edge25" class="edge">
<title>Node14&#45;&gt;Node9</title>
<path fill="none" stroke="midnightblue" d="M874.12,-119.27C800.67,-115.57 640.02,-104.87 497,-76"/>
<polygon fill="midnightblue" stroke="midnightblue" points="497.67,-72.56 487.17,-73.98 496.26,-79.42 497.67,-72.56"/>
</g>
<!-- Node14&#45;&gt;Node13 -->
<g id="edge27" class="edge">
<title>Node14&#45;&gt;Node13</title>
<path fill="none" stroke="midnightblue" d="M879.69,-112.44C841.8,-103.1 781.04,-88.12 739.72,-77.93"/>
<polygon fill="midnightblue" stroke="midnightblue" points="740.47,-74.51 729.93,-75.52 738.8,-81.31 740.47,-74.51"/>
</g>
<!-- Node15 -->
<g id="node15" class="node">
<title>Node15</title>
<g id="a_node15"><a xlink:title=" ">
<polygon fill="none" stroke="#bfbfbf" points="1276.89,-56.5 1276.89,-75.5 1335.89,-75.5 1335.89,-56.5 1276.89,-56.5"/>
<text text-anchor="middle" x="1306.39" y="-63.5" font-family="Helvetica,sans-Serif" font-size="10.00">lauxlib.h</text>
</a>
</g>
</g>
<!-- Node14&#45;&gt;Node15 -->
<g id="edge19" class="edge">
<title>Node14&#45;&gt;Node15</title>
<path fill="none" stroke="midnightblue" d="M954.46,-114.11C959.15,-113.37 963.87,-112.65 968.39,-112 1098.07,-93.42 1134.41,-99.21 1266.48,-76.18"/>
<polygon fill="midnightblue" stroke="midnightblue" points="1267.34,-79.58 1276.58,-74.4 1266.13,-72.69 1267.34,-79.58"/>
</g>
<!-- Node16 -->
<g id="node16" class="node">
<title>Node16</title>
<g id="a_node16"><a xlink:title=" ">
<polygon fill="none" stroke="#bfbfbf" points="874.89,-56.5 874.89,-75.5 915.89,-75.5 915.89,-56.5 874.89,-56.5"/>
<text text-anchor="middle" x="895.39" y="-63.5" font-family="Helvetica,sans-Serif" font-size="10.00">lua.h</text>
</a>
</g>
</g>
<!-- Node14&#45;&gt;Node16 -->
<g id="edge20" class="edge">
<title>Node14&#45;&gt;Node16</title>
<path fill="none" stroke="midnightblue" d="M911.25,-112.08C908.7,-104.85 905.03,-94.41 901.86,-85.4"/>
<polygon fill="midnightblue" stroke="midnightblue" points="905.09,-84.02 898.47,-75.75 898.48,-86.35 905.09,-84.02"/>
</g>
<!-- Node17 -->
<g id="node17" class="node">
<title>Node17</title>
<g id="a_node17"><a xlink:title=" ">
<polygon fill="none" stroke="#bfbfbf" points="933.89,-56.5 933.89,-75.5 986.89,-75.5 986.89,-56.5 933.89,-56.5"/>
<text text-anchor="middle" x="960.39" y="-63.5" font-family="Helvetica,sans-Serif" font-size="10.00">lualib.h</text>
</a>
</g>
</g>
<!-- Node14&#45;&gt;Node17 -->
<g id="edge21" class="edge">
<title>Node14&#45;&gt;Node17</title>
<path fill="none" stroke="midnightblue" d="M921.98,-112.08C928.61,-104.3 938.41,-92.8 946.45,-83.37"/>
<polygon fill="midnightblue" stroke="midnightblue" points="949.11,-85.63 952.93,-75.75 943.78,-81.09 949.11,-85.63"/>
</g>
<!-- Node18 -->
<g id="node18" class="node">
<title>Node18</title>
<g id="a_node18"><a xlink:title=" ">
<polygon fill="none" stroke="#bfbfbf" points="1004.89,-56.5 1004.89,-75.5 1069.89,-75.5 1069.89,-56.5 1004.89,-56.5"/>
<text text-anchor="middle" x="1037.39" y="-63.5" font-family="Helvetica,sans-Serif" font-size="10.00">functional</text>
</a>
</g>
</g>
<!-- Node14&#45;&gt;Node18 -->
<g id="edge22" class="edge">
<title>Node14&#45;&gt;Node18</title>
<path fill="none" stroke="midnightblue" d="M933.88,-112.44C954.03,-103.6 985.71,-89.69 1008.72,-79.59"/>
<polygon fill="midnightblue" stroke="midnightblue" points="1010.24,-82.74 1017.99,-75.52 1007.43,-76.33 1010.24,-82.74"/>
</g>
<!-- Node14&#45;&gt;Node19 -->
<g id="edge23" class="edge">
<title>Node14&#45;&gt;Node19</title>
<path fill="none" stroke="midnightblue" d="M954.45,-114C959.14,-113.28 963.86,-112.59 968.39,-112 1132.02,-90.58 1177.48,-102.49 1344.13,-76"/>
<polygon fill="midnightblue" stroke="midnightblue" points="1344.92,-79.42 1354.23,-74.37 1343.8,-72.51 1344.92,-79.42"/>
</g>
<!-- Node20 -->
<g id="node20" class="node">
<title>Node20</title>
<g id="a_node20"><a xlink:title=" ">
<polygon fill="none" stroke="#bfbfbf" points="1126.89,-56.5 1126.89,-75.5 1195.89,-75.5 1195.89,-56.5 1126.89,-56.5"/>
<text text-anchor="middle" x="1161.39" y="-63.5" font-family="Helvetica,sans-Serif" font-size="10.00">type_traits</text>
</a>
</g>
</g>
<!-- Node14&#45;&gt;Node20 -->
<g id="edge26" class="edge">
<title>Node14&#45;&gt;Node20</title>
<path fill="none" stroke="midnightblue" d="M953.53,-112.44C998.01,-102.72 1070.46,-86.88 1117.01,-76.7"/>
<polygon fill="midnightblue" stroke="midnightblue" points="1117.79,-80.11 1126.82,-74.56 1116.3,-73.27 1117.79,-80.11"/>
</g>
<!-- Node21 -->
<g id="node21" class="node">
<title>Node21</title>
<g id="a_node21"><a xlink:title=" ">
<polygon fill="none" stroke="#bfbfbf" points="1213.89,-56.5 1213.89,-75.5 1258.89,-75.5 1258.89,-56.5 1213.89,-56.5"/>
<text text-anchor="middle" x="1236.39" y="-63.5" font-family="Helvetica,sans-Serif" font-size="10.00">utility</text>
</a>
</g>
</g>
<!-- Node14&#45;&gt;Node21 -->
<g id="edge28" class="edge">
<title>Node14&#45;&gt;Node21</title>
<path fill="none" stroke="midnightblue" d="M954.48,-114.25C959.17,-113.48 963.88,-112.72 968.39,-112 1070.42,-95.75 1099.59,-98.7 1203.8,-76.12"/>
<polygon fill="midnightblue" stroke="midnightblue" points="1204.77,-79.5 1213.79,-73.93 1203.27,-72.66 1204.77,-79.5"/>
</g>
<!-- Node22&#45;&gt;Node3 -->
<g id="edge33" class="edge">
<title>Node22&#45;&gt;Node3</title>
<path fill="none" stroke="midnightblue" d="M209.15,-112.32C219.15,-104.26 234.27,-92.08 246.32,-82.37"/>
<polygon fill="midnightblue" stroke="midnightblue" points="248.84,-84.83 254.43,-75.83 244.44,-79.38 248.84,-84.83"/>
</g>
<!-- Node22&#45;&gt;Node6 -->
<g id="edge31" class="edge">
<title>Node22&#45;&gt;Node6</title>
<path fill="none" stroke="midnightblue" d="M192.42,-112.08C184.23,-98.61 171.88,-72.88 184.39,-56 210.91,-20.22 265.18,-11.91 300.12,-10.5"/>
<polygon fill="midnightblue" stroke="midnightblue" points="300.37,-13.99 310.29,-10.26 300.21,-7 300.37,-13.99"/>
</g>
<!-- Node22&#45;&gt;Node8 -->
<g id="edge32" class="edge">
<title>Node22&#45;&gt;Node8</title>
<path fill="none" stroke="midnightblue" d="M198.31,-112.45C198.68,-98.54 201.52,-71.05 217.39,-56 222.73,-50.94 307.83,-32.22 362.62,-20.58"/>
<polygon fill="midnightblue" stroke="midnightblue" points="363.41,-23.99 372.47,-18.49 361.96,-17.14 363.41,-23.99"/>
</g>
<!-- Node23 -->
<g id="node23" class="node">
<title>Node23</title>
<g id="a_node23"><a xlink:title=" ">
<polygon fill="none" stroke="#bfbfbf" points="14.89,-56.5 14.89,-75.5 131.89,-75.5 131.89,-56.5 14.89,-56.5"/>
<text text-anchor="middle" x="73.39" y="-63.5" font-family="Helvetica,sans-Serif" font-size="10.00">glm/gtc/type_ptr.hpp</text>
</a>
</g>
</g>
<!-- Node22&#45;&gt;Node23 -->
<g id="edge34" class="edge">
<title>Node22&#45;&gt;Node23</title>
<path fill="none" stroke="midnightblue" d="M178.58,-112.44C158.1,-103.6 125.9,-89.69 102.52,-79.59"/>
<polygon fill="midnightblue" stroke="midnightblue" points="103.67,-76.27 93.1,-75.52 100.89,-82.7 103.67,-76.27"/>
</g>
<!-- Node24&#45;&gt;Node9 -->
<g id="edge37" class="edge">
<title>Node24&#45;&gt;Node9</title>
<path fill="none" stroke="midnightblue" d="M518.43,-112.32C509.26,-104.34 495.45,-92.31 484.36,-82.65"/>
<polygon fill="midnightblue" stroke="midnightblue" points="486.37,-79.76 476.53,-75.83 481.77,-85.04 486.37,-79.76"/>
</g>
</g>
</svg>
