<?xml version="1.0" encoding="UTF-8" standalone="no"?>
<!DOCTYPE svg PUBLIC "-//W3C//DTD SVG 1.1//EN"
 "http://www.w3.org/Graphics/SVG/1.1/DTD/svg11.dtd">
<!-- Generated by graphviz version 2.43.0 (0)
 -->
<!-- Title: yapre/src/systems/yrenderer.h Pages: 1 -->
<svg width="816pt" height="140pt"
 viewBox="0.00 0.00 816.00 140.00" xmlns="http://www.w3.org/2000/svg" xmlns:xlink="http://www.w3.org/1999/xlink">
<g id="graph0" class="graph" transform="scale(1 1) rotate(0) translate(4 136)">
<title>yapre/src/systems/yrenderer.h</title>
<!-- Node1 -->
<g id="node1" class="node">
<title>Node1</title>
<g id="a_node1"><a xlink:title=" ">
<polygon fill="#bfbfbf" stroke="black" points="354,-112.5 354,-131.5 518,-131.5 518,-112.5 354,-112.5"/>
<text text-anchor="middle" x="436" y="-119.5" font-family="Helvetica,sans-Serif" font-size="10.00">yapre/src/systems/yrenderer.h</text>
</a>
</g>
</g>
<!-- Node2 -->
<g id="node2" class="node">
<title>Node2</title>
<g id="a_node2"><a xlink:href="yinput_8cpp.html" target="_top" xlink:title=" ">
<polygon fill="none" stroke="black" points="0,-56.5 0,-75.5 160,-75.5 160,-56.5 0,-56.5"/>
<text text-anchor="middle" x="80" y="-63.5" font-family="Helvetica,sans-Serif" font-size="10.00">yapre/src/systems/yinput.cpp</text>
</a>
</g>
</g>
<!-- Node1&#45;&gt;Node2 -->
<g id="edge1" class="edge">
<title>Node1&#45;&gt;Node2</title>
<path fill="none" stroke="midnightblue" d="M369.52,-110.92C302.27,-100.71 199.44,-85.12 136.15,-75.52"/>
<polygon fill="midnightblue" stroke="midnightblue" points="369.18,-114.4 379.59,-112.44 370.23,-107.48 369.18,-114.4"/>
</g>
<!-- Node3 -->
<g id="node3" class="node">
<title>Node3</title>
<g id="a_node3"><a xlink:href="yrenderer_8cpp.html" target="_top" xlink:title=" ">
<polygon fill="none" stroke="black" points="178,-56.5 178,-75.5 354,-75.5 354,-56.5 178,-56.5"/>
<text text-anchor="middle" x="266" y="-63.5" font-family="Helvetica,sans-Serif" font-size="10.00">yapre/src/systems/yrenderer.cpp</text>
</a>
</g>
</g>
<!-- Node1&#45;&gt;Node3 -->
<g id="edge2" class="edge">
<title>Node1&#45;&gt;Node3</title>
<path fill="none" stroke="midnightblue" d="M399.18,-109.3C367.15,-99.13 321.48,-84.62 292.81,-75.52"/>
<polygon fill="midnightblue" stroke="midnightblue" points="398.47,-112.75 409.06,-112.44 400.59,-106.08 398.47,-112.75"/>
</g>
<!-- Node4 -->
<g id="node4" class="node">
<title>Node4</title>
<g id="a_node4"><a xlink:href="ysystems_8inl.html" target="_top" xlink:title=" ">
<polygon fill="none" stroke="black" points="372.5,-56.5 372.5,-75.5 499.5,-75.5 499.5,-56.5 372.5,-56.5"/>
<text text-anchor="middle" x="436" y="-63.5" font-family="Helvetica,sans-Serif" font-size="10.00">yapre/src/ysystems.inl</text>
</a>
</g>
</g>
<!-- Node1&#45;&gt;Node4 -->
<g id="edge3" class="edge">
<title>Node1&#45;&gt;Node4</title>
<path fill="none" stroke="midnightblue" d="M436,-101.8C436,-92.91 436,-82.78 436,-75.75"/>
<polygon fill="midnightblue" stroke="midnightblue" points="432.5,-102.08 436,-112.08 439.5,-102.08 432.5,-102.08"/>
</g>
<!-- Node6 -->
<g id="node6" class="node">
<title>Node6</title>
<g id="a_node6"><a xlink:href="yluainterface_8inl.html" target="_top" xlink:title=" ">
<polygon fill="none" stroke="black" points="518,-56.5 518,-75.5 662,-75.5 662,-56.5 518,-56.5"/>
<text text-anchor="middle" x="590" y="-63.5" font-family="Helvetica,sans-Serif" font-size="10.00">yapre/src/yluainterface.inl</text>
</a>
</g>
</g>
<!-- Node1&#45;&gt;Node6 -->
<g id="edge5" class="edge">
<title>Node1&#45;&gt;Node6</title>
<path fill="none" stroke="midnightblue" d="M470.11,-109.04C499.09,-98.88 539.96,-84.55 565.71,-75.52"/>
<polygon fill="midnightblue" stroke="midnightblue" points="468.68,-105.83 460.4,-112.44 471,-112.44 468.68,-105.83"/>
</g>
<!-- Node8 -->
<g id="node8" class="node">
<title>Node8</title>
<g id="a_node8"><a xlink:href="ywindow_8cpp.html" target="_top" xlink:title=" ">
<polygon fill="none" stroke="black" points="680,-56.5 680,-75.5 808,-75.5 808,-56.5 680,-56.5"/>
<text text-anchor="middle" x="744" y="-63.5" font-family="Helvetica,sans-Serif" font-size="10.00">yapre/src/ywindow.cpp</text>
</a>
</g>
</g>
<!-- Node1&#45;&gt;Node8 -->
<g id="edge7" class="edge">
<title>Node1&#45;&gt;Node8</title>
<path fill="none" stroke="midnightblue" d="M494.95,-110.66C553.16,-100.46 641.11,-85.04 695.42,-75.52"/>
<polygon fill="midnightblue" stroke="midnightblue" points="494.05,-107.27 484.8,-112.44 495.26,-114.16 494.05,-107.27"/>
</g>
<!-- Node5 -->
<g id="node5" class="node">
<title>Node5</title>
<g id="a_node5"><a xlink:href="ycore_8cpp.html" target="_top" xlink:title=" ">
<polygon fill="none" stroke="black" points="380,-0.5 380,-19.5 492,-19.5 492,-0.5 380,-0.5"/>
<text text-anchor="middle" x="436" y="-7.5" font-family="Helvetica,sans-Serif" font-size="10.00">yapre/src/ycore.cpp</text>
</a>
</g>
</g>
<!-- Node4&#45;&gt;Node5 -->
<g id="edge4" class="edge">
<title>Node4&#45;&gt;Node5</title>
<path fill="none" stroke="midnightblue" d="M436,-45.8C436,-36.91 436,-26.78 436,-19.75"/>
<polygon fill="midnightblue" stroke="midnightblue" points="432.5,-46.08 436,-56.08 439.5,-46.08 432.5,-46.08"/>
</g>
<!-- Node7 -->
<g id="node7" class="node">
<title>Node7</title>
<g id="a_node7"><a xlink:href="ylua_8cpp.html" target="_top" xlink:title=" ">
<polygon fill="none" stroke="black" points="515,-0.5 515,-19.5 665,-19.5 665,-0.5 515,-0.5"/>
<text text-anchor="middle" x="590" y="-7.5" font-family="Helvetica,sans-Serif" font-size="10.00">yapre/src/systems/ylua.cpp</text>
</a>
</g>
</g>
<!-- Node6&#45;&gt;Node7 -->
<g id="edge6" class="edge">
<title>Node6&#45;&gt;Node7</title>
<path fill="none" stroke="midnightblue" d="M590,-45.8C590,-36.91 590,-26.78 590,-19.75"/>
<polygon fill="midnightblue" stroke="midnightblue" points="586.5,-46.08 590,-56.08 593.5,-46.08 586.5,-46.08"/>
</g>
</g>
</svg>
