<?xml version="1.0" encoding="UTF-8" standalone="no"?>
<!DOCTYPE svg PUBLIC "-//W3C//DTD SVG 1.1//EN"
 "http://www.w3.org/Graphics/SVG/1.1/DTD/svg11.dtd">
<!-- Generated by graphviz version 5.0.0 (20220707.1540)
 -->
<!-- Title: yapre/src/systems/yrepl.cpp Pages: 1 -->
<svg width="798pt" height="140pt"
 viewBox="0.00 0.00 798.00 140.00" xmlns="http://www.w3.org/2000/svg" xmlns:xlink="http://www.w3.org/1999/xlink">
<g id="graph0" class="graph" transform="scale(1 1) rotate(0) translate(4 136)">
<title>yapre/src/systems/yrepl.cpp</title>
<!-- Node1 -->
<g id="node1" class="node">
<title>Node1</title>
<g id="a_node1"><a xlink:title=" ">
<polygon fill="#bfbfbf" stroke="black" points="326,-112.5 326,-131.5 466,-131.5 466,-112.5 326,-112.5"/>
<text text-anchor="middle" x="396" y="-119.5" font-family="Helvetica,sans-Serif" font-size="10.00">yapre/src/systems/yrepl.cpp</text>
</a>
</g>
</g>
<!-- Node2 -->
<g id="node2" class="node">
<title>Node2</title>
<g id="a_node2"><a xlink:href="yrepl_8h.html" target="_top" xlink:title=" ">
<polygon fill="none" stroke="black" points="0,-56.5 0,-75.5 46,-75.5 46,-56.5 0,-56.5"/>
<text text-anchor="middle" x="23" y="-63.5" font-family="Helvetica,sans-Serif" font-size="10.00">yrepl.h</text>
</a>
</g>
</g>
<!-- Node1&#45;&gt;Node2 -->
<g id="edge1" class="edge">
<title>Node1&#45;&gt;Node2</title>
<path fill="none" stroke="midnightblue" d="M325.83,-113.78C257.62,-106.26 151.24,-93.16 60,-76 58.72,-75.76 57.42,-75.5 56.11,-75.23"/>
<polygon fill="midnightblue" stroke="midnightblue" points="56.53,-71.74 46.01,-72.99 55.02,-78.58 56.53,-71.74"/>
</g>
<!-- Node3 -->
<g id="node3" class="node">
<title>Node3</title>
<g id="a_node3"><a xlink:title=" ">
<polygon fill="none" stroke="#bfbfbf" points="2.5,-0.5 2.5,-19.5 43.5,-19.5 43.5,-0.5 2.5,-0.5"/>
<text text-anchor="middle" x="23" y="-7.5" font-family="Helvetica,sans-Serif" font-size="10.00">string</text>
</a>
</g>
</g>
<!-- Node1&#45;&gt;Node3 -->
<g id="edge25" class="edge">
<title>Node1&#45;&gt;Node3</title>
<path fill="none" stroke="midnightblue" d="M325.77,-115.41C249.42,-108.48 132.97,-95.2 93,-76 69.76,-64.83 48.93,-43.25 36.15,-28.03"/>
<polygon fill="midnightblue" stroke="midnightblue" points="38.61,-25.5 29.6,-19.93 33.17,-29.9 38.61,-25.5"/>
</g>
<!-- Node4 -->
<g id="node4" class="node">
<title>Node4</title>
<g id="a_node4"><a xlink:href="ycore_8h.html" target="_top" xlink:title=" ">
<polygon fill="none" stroke="black" points="102.5,-56.5 102.5,-75.5 151.5,-75.5 151.5,-56.5 102.5,-56.5"/>
<text text-anchor="middle" x="127" y="-63.5" font-family="Helvetica,sans-Serif" font-size="10.00">ycore.h</text>
</a>
</g>
</g>
<!-- Node1&#45;&gt;Node4 -->
<g id="edge3" class="edge">
<title>Node1&#45;&gt;Node4</title>
<path fill="none" stroke="midnightblue" d="M345.12,-112.48C299.41,-104.56 230.25,-91.92 161.89,-76.31"/>
<polygon fill="midnightblue" stroke="midnightblue" points="162.34,-72.83 151.81,-73.99 160.77,-79.65 162.34,-72.83"/>
</g>
<!-- Node5 -->
<g id="node5" class="node">
<title>Node5</title>
<g id="a_node5"><a xlink:href="ylua_8h.html" target="_top" xlink:title=" ">
<polygon fill="none" stroke="black" points="169.5,-56.5 169.5,-75.5 212.5,-75.5 212.5,-56.5 169.5,-56.5"/>
<text text-anchor="middle" x="191" y="-63.5" font-family="Helvetica,sans-Serif" font-size="10.00">ylua.h</text>
</a>
</g>
</g>
<!-- Node1&#45;&gt;Node5 -->
<g id="edge5" class="edge">
<title>Node1&#45;&gt;Node5</title>
<path fill="none" stroke="midnightblue" d="M361.03,-112.44C327.63,-104.17 275.66,-91.06 222.24,-76.27"/>
<polygon fill="midnightblue" stroke="midnightblue" points="223.17,-72.9 212.6,-73.59 221.3,-79.64 223.17,-72.9"/>
</g>
<!-- Node6 -->
<g id="node6" class="node">
<title>Node6</title>
<g id="a_node6"><a xlink:href="yluabind_8hpp.html" target="_top" xlink:title=" ">
<polygon fill="none" stroke="black" points="230.5,-56.5 230.5,-75.5 301.5,-75.5 301.5,-56.5 230.5,-56.5"/>
<text text-anchor="middle" x="266" y="-63.5" font-family="Helvetica,sans-Serif" font-size="10.00">yluabind.hpp</text>
</a>
</g>
</g>
<!-- Node1&#45;&gt;Node6 -->
<g id="edge7" class="edge">
<title>Node1&#45;&gt;Node6</title>
<path fill="none" stroke="midnightblue" d="M375.4,-112.44C354.01,-103.56 320.32,-89.56 295.98,-79.45"/>
<polygon fill="midnightblue" stroke="midnightblue" points="297.08,-76.12 286.5,-75.52 294.39,-82.58 297.08,-76.12"/>
</g>
<!-- Node17 -->
<g id="node17" class="node">
<title>Node17</title>
<g id="a_node17"><a xlink:title=" ">
<polygon fill="none" stroke="#bfbfbf" points="320,-56.5 320,-75.5 394,-75.5 394,-56.5 320,-56.5"/>
<text text-anchor="middle" x="357" y="-63.5" font-family="Helvetica,sans-Serif" font-size="10.00">linenoise.hpp</text>
</a>
</g>
</g>
<!-- Node1&#45;&gt;Node17 -->
<g id="edge19" class="edge">
<title>Node1&#45;&gt;Node17</title>
<path fill="none" stroke="midnightblue" d="M389.56,-112.08C384.05,-104.46 375.97,-93.26 369.24,-83.94"/>
<polygon fill="midnightblue" stroke="midnightblue" points="372.01,-81.81 363.32,-75.75 366.34,-85.91 372.01,-81.81"/>
</g>
<!-- Node18 -->
<g id="node18" class="node">
<title>Node18</title>
<g id="a_node18"><a xlink:title=" ">
<polygon fill="none" stroke="#bfbfbf" points="412,-56.5 412,-75.5 458,-75.5 458,-56.5 412,-56.5"/>
<text text-anchor="middle" x="435" y="-63.5" font-family="Helvetica,sans-Serif" font-size="10.00">chrono</text>
</a>
</g>
</g>
<!-- Node1&#45;&gt;Node18 -->
<g id="edge20" class="edge">
<title>Node1&#45;&gt;Node18</title>
<path fill="none" stroke="midnightblue" d="M402.44,-112.08C407.95,-104.46 416.03,-93.26 422.76,-83.94"/>
<polygon fill="midnightblue" stroke="midnightblue" points="425.66,-85.91 428.68,-75.75 419.99,-81.81 425.66,-85.91"/>
</g>
<!-- Node19 -->
<g id="node19" class="node">
<title>Node19</title>
<g id="a_node19"><a xlink:title=" ">
<polygon fill="none" stroke="#bfbfbf" points="476.5,-56.5 476.5,-75.5 525.5,-75.5 525.5,-56.5 476.5,-56.5"/>
<text text-anchor="middle" x="501" y="-63.5" font-family="Helvetica,sans-Serif" font-size="10.00">istream</text>
</a>
</g>
</g>
<!-- Node1&#45;&gt;Node19 -->
<g id="edge21" class="edge">
<title>Node1&#45;&gt;Node19</title>
<path fill="none" stroke="midnightblue" d="M412.87,-112.32C429.71,-103.66 455.81,-90.24 475.24,-80.25"/>
<polygon fill="midnightblue" stroke="midnightblue" points="476.88,-83.34 484.17,-75.65 473.68,-77.12 476.88,-83.34"/>
</g>
<!-- Node20 -->
<g id="node20" class="node">
<title>Node20</title>
<g id="a_node20"><a xlink:title=" ">
<polygon fill="none" stroke="#bfbfbf" points="544,-56.5 544,-75.5 596,-75.5 596,-56.5 544,-56.5"/>
<text text-anchor="middle" x="570" y="-63.5" font-family="Helvetica,sans-Serif" font-size="10.00">memory</text>
</a>
</g>
</g>
<!-- Node1&#45;&gt;Node20 -->
<g id="edge22" class="edge">
<title>Node1&#45;&gt;Node20</title>
<path fill="none" stroke="midnightblue" d="M423.57,-112.44C453.53,-103.15 501.5,-88.26 534.32,-78.07"/>
<polygon fill="midnightblue" stroke="midnightblue" points="535.47,-81.38 543.98,-75.08 533.39,-74.7 535.47,-81.38"/>
</g>
<!-- Node21 -->
<g id="node21" class="node">
<title>Node21</title>
<g id="a_node21"><a xlink:title=" ">
<polygon fill="none" stroke="#bfbfbf" points="614,-56.5 614,-75.5 658,-75.5 658,-56.5 614,-56.5"/>
<text text-anchor="middle" x="636" y="-63.5" font-family="Helvetica,sans-Serif" font-size="10.00">mutex</text>
</a>
</g>
</g>
<!-- Node1&#45;&gt;Node21 -->
<g id="edge23" class="edge">
<title>Node1&#45;&gt;Node21</title>
<path fill="none" stroke="midnightblue" d="M439.84,-112.5C480.12,-104.47 541.67,-91.69 603.74,-76.19"/>
<polygon fill="midnightblue" stroke="midnightblue" points="604.86,-79.52 613.7,-73.68 603.15,-72.73 604.86,-79.52"/>
</g>
<!-- Node22 -->
<g id="node22" class="node">
<title>Node22</title>
<g id="a_node22"><a xlink:title=" ">
<polygon fill="none" stroke="#bfbfbf" points="676,-56.5 676,-75.5 728,-75.5 728,-56.5 676,-56.5"/>
<text text-anchor="middle" x="702" y="-63.5" font-family="Helvetica,sans-Serif" font-size="10.00">ostream</text>
</a>
</g>
</g>
<!-- Node1&#45;&gt;Node22 -->
<g id="edge24" class="edge">
<title>Node1&#45;&gt;Node22</title>
<path fill="none" stroke="midnightblue" d="M456.56,-112.49C509.41,-104.71 588.34,-92.25 665.76,-76.12"/>
<polygon fill="midnightblue" stroke="midnightblue" points="666.62,-79.51 675.68,-74.03 665.18,-72.66 666.62,-79.51"/>
</g>
<!-- Node23 -->
<g id="node23" class="node">
<title>Node23</title>
<g id="a_node23"><a xlink:title=" ">
<polygon fill="none" stroke="#bfbfbf" points="746,-56.5 746,-75.5 790,-75.5 790,-56.5 746,-56.5"/>
<text text-anchor="middle" x="768" y="-63.5" font-family="Helvetica,sans-Serif" font-size="10.00">thread</text>
</a>
</g>
</g>
<!-- Node1&#45;&gt;Node23 -->
<g id="edge26" class="edge">
<title>Node1&#45;&gt;Node23</title>
<path fill="none" stroke="midnightblue" d="M466.08,-114.88C533.15,-108.32 637.25,-96.28 735.91,-75.95"/>
<polygon fill="midnightblue" stroke="midnightblue" points="736.68,-79.37 745.75,-73.9 735.25,-72.52 736.68,-79.37"/>
</g>
<!-- Node2&#45;&gt;Node3 -->
<g id="edge2" class="edge">
<title>Node2&#45;&gt;Node3</title>
<path fill="none" stroke="midnightblue" d="M23,-56.08C23,-49.01 23,-38.86 23,-29.99"/>
<polygon fill="midnightblue" stroke="midnightblue" points="26.5,-29.75 23,-19.75 19.5,-29.75 26.5,-29.75"/>
</g>
<!-- Node4&#45;&gt;Node3 -->
<g id="edge4" class="edge">
<title>Node4&#45;&gt;Node3</title>
<path fill="none" stroke="midnightblue" d="M110.29,-56.32C93.69,-47.7 68,-34.36 48.78,-24.39"/>
<polygon fill="midnightblue" stroke="midnightblue" points="50.16,-21.16 39.67,-19.65 46.93,-27.37 50.16,-21.16"/>
</g>
<!-- Node5&#45;&gt;Node3 -->
<g id="edge6" class="edge">
<title>Node5&#45;&gt;Node3</title>
<path fill="none" stroke="midnightblue" d="M169.38,-58.05C139.91,-48.58 86.96,-31.56 53.47,-20.79"/>
<polygon fill="midnightblue" stroke="midnightblue" points="54.34,-17.4 43.75,-17.67 52.19,-24.06 54.34,-17.4"/>
</g>
<!-- Node6&#45;&gt;Node3 -->
<g id="edge13" class="edge">
<title>Node6&#45;&gt;Node3</title>
<path fill="none" stroke="midnightblue" d="M230.13,-57.65C179.47,-47.24 89.81,-28.72 53.62,-20.13"/>
<polygon fill="midnightblue" stroke="midnightblue" points="54.08,-16.64 43.53,-17.63 52.39,-23.44 54.08,-16.64"/>
</g>
<!-- Node7 -->
<g id="node7" class="node">
<title>Node7</title>
<g id="a_node7"><a xlink:title=" ">
<polygon fill="none" stroke="#bfbfbf" points="61.5,-0.5 61.5,-19.5 114.5,-19.5 114.5,-0.5 61.5,-0.5"/>
<text text-anchor="middle" x="88" y="-7.5" font-family="Helvetica,sans-Serif" font-size="10.00">lauxlib.h</text>
</a>
</g>
</g>
<!-- Node6&#45;&gt;Node7 -->
<g id="edge8" class="edge">
<title>Node6&#45;&gt;Node7</title>
<path fill="none" stroke="midnightblue" d="M237.8,-56.44C207.15,-47.15 158.07,-32.26 124.5,-22.07"/>
<polygon fill="midnightblue" stroke="midnightblue" points="125.2,-18.63 114.62,-19.08 123.17,-25.33 125.2,-18.63"/>
</g>
<!-- Node8 -->
<g id="node8" class="node">
<title>Node8</title>
<g id="a_node8"><a xlink:title=" ">
<polygon fill="none" stroke="#bfbfbf" points="133,-0.5 133,-19.5 171,-19.5 171,-0.5 133,-0.5"/>
<text text-anchor="middle" x="152" y="-7.5" font-family="Helvetica,sans-Serif" font-size="10.00">lua.h</text>
</a>
</g>
</g>
<!-- Node6&#45;&gt;Node8 -->
<g id="edge9" class="edge">
<title>Node6&#45;&gt;Node8</title>
<path fill="none" stroke="midnightblue" d="M247.94,-56.44C229.43,-47.68 200.42,-33.94 179.14,-23.86"/>
<polygon fill="midnightblue" stroke="midnightblue" points="180.51,-20.63 169.98,-19.52 177.52,-26.96 180.51,-20.63"/>
</g>
<!-- Node9 -->
<g id="node9" class="node">
<title>Node9</title>
<g id="a_node9"><a xlink:title=" ">
<polygon fill="none" stroke="#bfbfbf" points="189.5,-0.5 189.5,-19.5 236.5,-19.5 236.5,-0.5 189.5,-0.5"/>
<text text-anchor="middle" x="213" y="-7.5" font-family="Helvetica,sans-Serif" font-size="10.00">lualib.h</text>
</a>
</g>
</g>
<!-- Node6&#45;&gt;Node9 -->
<g id="edge10" class="edge">
<title>Node6&#45;&gt;Node9</title>
<path fill="none" stroke="midnightblue" d="M257.25,-56.08C249.53,-48.22 238.1,-36.57 228.78,-27.08"/>
<polygon fill="midnightblue" stroke="midnightblue" points="231.09,-24.44 221.59,-19.75 226.1,-29.34 231.09,-24.44"/>
</g>
<!-- Node10 -->
<g id="node10" class="node">
<title>Node10</title>
<g id="a_node10"><a xlink:title=" ">
<polygon fill="none" stroke="#bfbfbf" points="254.5,-0.5 254.5,-19.5 313.5,-19.5 313.5,-0.5 254.5,-0.5"/>
<text text-anchor="middle" x="284" y="-7.5" font-family="Helvetica,sans-Serif" font-size="10.00">functional</text>
</a>
</g>
</g>
<!-- Node6&#45;&gt;Node10 -->
<g id="edge11" class="edge">
<title>Node6&#45;&gt;Node10</title>
<path fill="none" stroke="midnightblue" d="M268.97,-56.08C271.38,-48.85 274.86,-38.41 277.87,-29.4"/>
<polygon fill="midnightblue" stroke="midnightblue" points="281.24,-30.34 281.08,-19.75 274.6,-28.13 281.24,-30.34"/>
</g>
<!-- Node11 -->
<g id="node11" class="node">
<title>Node11</title>
<g id="a_node11"><a xlink:title=" ">
<polygon fill="none" stroke="#bfbfbf" points="332,-0.5 332,-19.5 386,-19.5 386,-0.5 332,-0.5"/>
<text text-anchor="middle" x="359" y="-7.5" font-family="Helvetica,sans-Serif" font-size="10.00">iostream</text>
</a>
</g>
</g>
<!-- Node6&#45;&gt;Node11 -->
<g id="edge12" class="edge">
<title>Node6&#45;&gt;Node11</title>
<path fill="none" stroke="midnightblue" d="M280.94,-56.32C295.59,-47.82 318.13,-34.73 335.24,-24.8"/>
<polygon fill="midnightblue" stroke="midnightblue" points="337.2,-27.7 344.1,-19.65 333.69,-21.65 337.2,-27.7"/>
</g>
<!-- Node12 -->
<g id="node12" class="node">
<title>Node12</title>
<g id="a_node12"><a xlink:title=" ">
<polygon fill="none" stroke="#bfbfbf" points="404,-0.5 404,-19.5 442,-19.5 442,-0.5 404,-0.5"/>
<text text-anchor="middle" x="423" y="-7.5" font-family="Helvetica,sans-Serif" font-size="10.00">tuple</text>
</a>
</g>
</g>
<!-- Node6&#45;&gt;Node12 -->
<g id="edge14" class="edge">
<title>Node6&#45;&gt;Node12</title>
<path fill="none" stroke="midnightblue" d="M290.88,-56.44C318.88,-46.81 364.31,-31.19 393.92,-21"/>
<polygon fill="midnightblue" stroke="midnightblue" points="395.37,-24.21 403.68,-17.64 393.09,-17.59 395.37,-24.21"/>
</g>
<!-- Node13 -->
<g id="node13" class="node">
<title>Node13</title>
<g id="a_node13"><a xlink:title=" ">
<polygon fill="none" stroke="#bfbfbf" points="460,-0.5 460,-19.5 522,-19.5 522,-0.5 460,-0.5"/>
<text text-anchor="middle" x="491" y="-7.5" font-family="Helvetica,sans-Serif" font-size="10.00">type_traits</text>
</a>
</g>
</g>
<!-- Node6&#45;&gt;Node13 -->
<g id="edge15" class="edge">
<title>Node6&#45;&gt;Node13</title>
<path fill="none" stroke="midnightblue" d="M301.65,-56.44C342.03,-46.75 407.72,-30.99 450.13,-20.81"/>
<polygon fill="midnightblue" stroke="midnightblue" points="450.96,-24.21 459.86,-18.47 449.32,-17.4 450.96,-24.21"/>
</g>
<!-- Node14 -->
<g id="node14" class="node">
<title>Node14</title>
<g id="a_node14"><a xlink:title=" ">
<polygon fill="none" stroke="#bfbfbf" points="540.5,-0.5 540.5,-19.5 623.5,-19.5 623.5,-0.5 540.5,-0.5"/>
<text text-anchor="middle" x="582" y="-7.5" font-family="Helvetica,sans-Serif" font-size="10.00">unordered_map</text>
</a>
</g>
</g>
<!-- Node6&#45;&gt;Node14 -->
<g id="edge16" class="edge">
<title>Node6&#45;&gt;Node14</title>
<path fill="none" stroke="midnightblue" d="M301.84,-57.71C304.94,-57.12 308.02,-56.54 311,-56 405.34,-38.85 431.65,-36.73 530.17,-20.12"/>
<polygon fill="midnightblue" stroke="midnightblue" points="530.98,-23.53 540.26,-18.41 529.81,-16.63 530.98,-23.53"/>
</g>
<!-- Node15 -->
<g id="node15" class="node">
<title>Node15</title>
<g id="a_node15"><a xlink:title=" ">
<polygon fill="none" stroke="#bfbfbf" points="642,-0.5 642,-19.5 682,-19.5 682,-0.5 642,-0.5"/>
<text text-anchor="middle" x="662" y="-7.5" font-family="Helvetica,sans-Serif" font-size="10.00">utility</text>
</a>
</g>
</g>
<!-- Node6&#45;&gt;Node15 -->
<g id="edge17" class="edge">
<title>Node6&#45;&gt;Node15</title>
<path fill="none" stroke="midnightblue" d="M301.81,-57.55C304.91,-56.99 308.01,-56.47 311,-56 450.09,-34.36 490.25,-48.79 631.92,-19.85"/>
<polygon fill="midnightblue" stroke="midnightblue" points="632.77,-23.25 641.85,-17.79 631.34,-16.4 632.77,-23.25"/>
</g>
<!-- Node16 -->
<g id="node16" class="node">
<title>Node16</title>
<g id="a_node16"><a xlink:title=" ">
<polygon fill="none" stroke="#bfbfbf" points="700,-0.5 700,-19.5 744,-19.5 744,-0.5 700,-0.5"/>
<text text-anchor="middle" x="722" y="-7.5" font-family="Helvetica,sans-Serif" font-size="10.00">vector</text>
</a>
</g>
</g>
<!-- Node6&#45;&gt;Node16 -->
<g id="edge18" class="edge">
<title>Node6&#45;&gt;Node16</title>
<path fill="none" stroke="midnightblue" d="M301.8,-57.49C304.91,-56.95 308,-56.44 311,-56 475.65,-31.8 522.58,-51.03 689.89,-19.87"/>
<polygon fill="midnightblue" stroke="midnightblue" points="690.6,-23.3 699.77,-18 689.29,-16.42 690.6,-23.3"/>
</g>
</g>
</svg>
