<?xml version="1.0" encoding="UTF-8" standalone="no"?>
<!DOCTYPE svg PUBLIC "-//W3C//DTD SVG 1.1//EN"
 "http://www.w3.org/Graphics/SVG/1.1/DTD/svg11.dtd">
<!-- Generated by graphviz version 2.43.0 (0)
 -->
<!-- Title: yapre/src/systems/yrepl.h Pages: 1 -->
<svg width="473pt" height="140pt"
 viewBox="0.00 0.00 473.00 140.00" xmlns="http://www.w3.org/2000/svg" xmlns:xlink="http://www.w3.org/1999/xlink">
<g id="graph0" class="graph" transform="scale(1 1) rotate(0) translate(4 136)">
<title>yapre/src/systems/yrepl.h</title>
<!-- Node1 -->
<g id="node1" class="node">
<title>Node1</title>
<g id="a_node1"><a xlink:title=" ">
<polygon fill="#bfbfbf" stroke="black" points="164.5,-112.5 164.5,-131.5 307.5,-131.5 307.5,-112.5 164.5,-112.5"/>
<text text-anchor="middle" x="236" y="-119.5" font-family="Helvetica,sans-Serif" font-size="10.00">yapre/src/systems/yrepl.h</text>
</a>
</g>
</g>
<!-- Node2 -->
<g id="node2" class="node">
<title>Node2</title>
<g id="a_node2"><a xlink:href="yrepl_8cpp.html" target="_top" xlink:title=" ">
<polygon fill="none" stroke="black" points="0,-56.5 0,-75.5 154,-75.5 154,-56.5 0,-56.5"/>
<text text-anchor="middle" x="77" y="-63.5" font-family="Helvetica,sans-Serif" font-size="10.00">yapre/src/systems/yrepl.cpp</text>
</a>
</g>
</g>
<!-- Node1&#45;&gt;Node2 -->
<g id="edge1" class="edge">
<title>Node1&#45;&gt;Node2</title>
<path fill="none" stroke="midnightblue" d="M201.17,-109.17C171.23,-99 128.78,-84.59 102.08,-75.52"/>
<polygon fill="midnightblue" stroke="midnightblue" points="200.21,-112.54 210.81,-112.44 202.46,-105.91 200.21,-112.54"/>
</g>
<!-- Node3 -->
<g id="node3" class="node">
<title>Node3</title>
<g id="a_node3"><a xlink:href="ysystems_8inl.html" target="_top" xlink:title=" ">
<polygon fill="none" stroke="black" points="172.5,-56.5 172.5,-75.5 299.5,-75.5 299.5,-56.5 172.5,-56.5"/>
<text text-anchor="middle" x="236" y="-63.5" font-family="Helvetica,sans-Serif" font-size="10.00">yapre/src/ysystems.inl</text>
</a>
</g>
</g>
<!-- Node1&#45;&gt;Node3 -->
<g id="edge2" class="edge">
<title>Node1&#45;&gt;Node3</title>
<path fill="none" stroke="midnightblue" d="M236,-101.8C236,-92.91 236,-82.78 236,-75.75"/>
<polygon fill="midnightblue" stroke="midnightblue" points="232.5,-102.08 236,-112.08 239.5,-102.08 232.5,-102.08"/>
</g>
<!-- Node5 -->
<g id="node5" class="node">
<title>Node5</title>
<g id="a_node5"><a xlink:href="yluainterface_8inl.html" target="_top" xlink:title=" ">
<polygon fill="none" stroke="black" points="318,-56.5 318,-75.5 462,-75.5 462,-56.5 318,-56.5"/>
<text text-anchor="middle" x="390" y="-63.5" font-family="Helvetica,sans-Serif" font-size="10.00">yapre/src/yluainterface.inl</text>
</a>
</g>
</g>
<!-- Node1&#45;&gt;Node5 -->
<g id="edge4" class="edge">
<title>Node1&#45;&gt;Node5</title>
<path fill="none" stroke="midnightblue" d="M270.11,-109.04C299.09,-98.88 339.96,-84.55 365.71,-75.52"/>
<polygon fill="midnightblue" stroke="midnightblue" points="268.68,-105.83 260.4,-112.44 271,-112.44 268.68,-105.83"/>
</g>
<!-- Node4 -->
<g id="node4" class="node">
<title>Node4</title>
<g id="a_node4"><a xlink:href="ycore_8cpp.html" target="_top" xlink:title=" ">
<polygon fill="none" stroke="black" points="180,-0.5 180,-19.5 292,-19.5 292,-0.5 180,-0.5"/>
<text text-anchor="middle" x="236" y="-7.5" font-family="Helvetica,sans-Serif" font-size="10.00">yapre/src/ycore.cpp</text>
</a>
</g>
</g>
<!-- Node3&#45;&gt;Node4 -->
<g id="edge3" class="edge">
<title>Node3&#45;&gt;Node4</title>
<path fill="none" stroke="midnightblue" d="M236,-45.8C236,-36.91 236,-26.78 236,-19.75"/>
<polygon fill="midnightblue" stroke="midnightblue" points="232.5,-46.08 236,-56.08 239.5,-46.08 232.5,-46.08"/>
</g>
<!-- Node6 -->
<g id="node6" class="node">
<title>Node6</title>
<g id="a_node6"><a xlink:href="ylua_8cpp.html" target="_top" xlink:title=" ">
<polygon fill="none" stroke="black" points="315,-0.5 315,-19.5 465,-19.5 465,-0.5 315,-0.5"/>
<text text-anchor="middle" x="390" y="-7.5" font-family="Helvetica,sans-Serif" font-size="10.00">yapre/src/systems/ylua.cpp</text>
</a>
</g>
</g>
<!-- Node5&#45;&gt;Node6 -->
<g id="edge5" class="edge">
<title>Node5&#45;&gt;Node6</title>
<path fill="none" stroke="midnightblue" d="M390,-45.8C390,-36.91 390,-26.78 390,-19.75"/>
<polygon fill="midnightblue" stroke="midnightblue" points="386.5,-46.08 390,-56.08 393.5,-46.08 386.5,-46.08"/>
</g>
</g>
</svg>
