<?xml version="1.0" encoding="UTF-8" standalone="no"?>
<!DOCTYPE svg PUBLIC "-//W3C//DTD SVG 1.1//EN"
 "http://www.w3.org/Graphics/SVG/1.1/DTD/svg11.dtd">
<!-- Generated by graphviz version 3.0.0 (20220226.1711)
 -->
<!-- Title: yapre/src/systems/yrepl.h Pages: 1 -->
<svg width="428pt" height="140pt"
 viewBox="0.00 0.00 428.00 140.00" xmlns="http://www.w3.org/2000/svg" xmlns:xlink="http://www.w3.org/1999/xlink">
<g id="graph0" class="graph" transform="scale(1 1) rotate(0) translate(4 136)">
<title>yapre/src/systems/yrepl.h</title>
<!-- Node1 -->
<g id="node1" class="node">
<title>Node1</title>
<g id="a_node1"><a xlink:title=" ">
<polygon fill="#bfbfbf" stroke="black" points="157,-112.5 157,-131.5 287,-131.5 287,-112.5 157,-112.5"/>
<text text-anchor="middle" x="222" y="-119.5" font-family="Helvetica,sans-Serif" font-size="10.00">yapre/src/systems/yrepl.h</text>
</a>
</g>
</g>
<!-- Node2 -->
<g id="node2" class="node">
<title>Node2</title>
<g id="a_node2"><a xlink:href="yrepl_8cpp.html" target="_top" xlink:title=" ">
<polygon fill="none" stroke="black" points="0,-56.5 0,-75.5 140,-75.5 140,-56.5 0,-56.5"/>
<text text-anchor="middle" x="70" y="-63.5" font-family="Helvetica,sans-Serif" font-size="10.00">yapre/src/systems/yrepl.cpp</text>
</a>
</g>
</g>
<!-- Node1&#45;&gt;Node2 -->
<g id="edge1" class="edge">
<title>Node1&#45;&gt;Node2</title>
<path fill="none" stroke="midnightblue" d="M188.33,-109.04C159.73,-98.88 119.39,-84.55 93.97,-75.52"/>
<polygon fill="midnightblue" stroke="midnightblue" points="187.32,-112.39 197.92,-112.44 189.66,-105.8 187.32,-112.39"/>
</g>
<!-- Node3 -->
<g id="node3" class="node">
<title>Node3</title>
<g id="a_node3"><a xlink:href="yluainterface_8inl.html" target="_top" xlink:title=" ">
<polygon fill="none" stroke="black" points="158,-56.5 158,-75.5 286,-75.5 286,-56.5 158,-56.5"/>
<text text-anchor="middle" x="222" y="-63.5" font-family="Helvetica,sans-Serif" font-size="10.00">yapre/src/yluainterface.inl</text>
</a>
</g>
</g>
<!-- Node1&#45;&gt;Node3 -->
<g id="edge2" class="edge">
<title>Node1&#45;&gt;Node3</title>
<path fill="none" stroke="midnightblue" d="M222,-101.8C222,-92.91 222,-82.78 222,-75.75"/>
<polygon fill="midnightblue" stroke="midnightblue" points="218.5,-102.08 222,-112.08 225.5,-102.08 218.5,-102.08"/>
</g>
<!-- Node5 -->
<g id="node5" class="node">
<title>Node5</title>
<g id="a_node5"><a xlink:href="ysystems_8inl.html" target="_top" xlink:title=" ">
<polygon fill="none" stroke="black" points="304,-56.5 304,-75.5 420,-75.5 420,-56.5 304,-56.5"/>
<text text-anchor="middle" x="362" y="-63.5" font-family="Helvetica,sans-Serif" font-size="10.00">yapre/src/ysystems.inl</text>
</a>
</g>
</g>
<!-- Node1&#45;&gt;Node5 -->
<g id="edge4" class="edge">
<title>Node1&#45;&gt;Node5</title>
<path fill="none" stroke="midnightblue" d="M253.7,-108.77C280,-98.63 316.72,-84.47 339.92,-75.52"/>
<polygon fill="midnightblue" stroke="midnightblue" points="252.25,-105.58 244.18,-112.44 254.77,-112.11 252.25,-105.58"/>
</g>
<!-- Node4 -->
<g id="node4" class="node">
<title>Node4</title>
<g id="a_node4"><a xlink:href="ylua_8cpp.html" target="_top" xlink:title=" ">
<polygon fill="none" stroke="black" points="153.5,-0.5 153.5,-19.5 290.5,-19.5 290.5,-0.5 153.5,-0.5"/>
<text text-anchor="middle" x="222" y="-7.5" font-family="Helvetica,sans-Serif" font-size="10.00">yapre/src/systems/ylua.cpp</text>
</a>
</g>
</g>
<!-- Node3&#45;&gt;Node4 -->
<g id="edge3" class="edge">
<title>Node3&#45;&gt;Node4</title>
<path fill="none" stroke="midnightblue" d="M222,-45.8C222,-36.91 222,-26.78 222,-19.75"/>
<polygon fill="midnightblue" stroke="midnightblue" points="218.5,-46.08 222,-56.08 225.5,-46.08 218.5,-46.08"/>
</g>
<!-- Node6 -->
<g id="node6" class="node">
<title>Node6</title>
<g id="a_node6"><a xlink:href="ycore_8cpp.html" target="_top" xlink:title=" ">
<polygon fill="none" stroke="black" points="310.5,-0.5 310.5,-19.5 413.5,-19.5 413.5,-0.5 310.5,-0.5"/>
<text text-anchor="middle" x="362" y="-7.5" font-family="Helvetica,sans-Serif" font-size="10.00">yapre/src/ycore.cpp</text>
</a>
</g>
</g>
<!-- Node5&#45;&gt;Node6 -->
<g id="edge5" class="edge">
<title>Node5&#45;&gt;Node6</title>
<path fill="none" stroke="midnightblue" d="M362,-45.8C362,-36.91 362,-26.78 362,-19.75"/>
<polygon fill="midnightblue" stroke="midnightblue" points="358.5,-46.08 362,-56.08 365.5,-46.08 358.5,-46.08"/>
</g>
</g>
</svg>
