<?xml version="1.0" encoding="UTF-8" standalone="no"?>
<!DOCTYPE svg PUBLIC "-//W3C//DTD SVG 1.1//EN"
 "http://www.w3.org/Graphics/SVG/1.1/DTD/svg11.dtd">
<!-- Generated by graphviz version 2.43.0 (0)
 -->
<!-- Title: yapre/src/systems/yrepl.cpp Pages: 1 -->
<svg width="855pt" height="140pt"
 viewBox="0.00 0.00 855.00 140.00" xmlns="http://www.w3.org/2000/svg" xmlns:xlink="http://www.w3.org/1999/xlink">
<g id="graph0" class="graph" transform="scale(1 1) rotate(0) translate(4 136)">
<title>yapre/src/systems/yrepl.cpp</title>
<!-- Node1 -->
<g id="node1" class="node">
<title>Node1</title>
<g id="a_node1"><a xlink:title=" ">
<polygon fill="#bfbfbf" stroke="black" points="347,-112.5 347,-131.5 501,-131.5 501,-112.5 347,-112.5"/>
<text text-anchor="middle" x="424" y="-119.5" font-family="Helvetica,sans-Serif" font-size="10.00">yapre/src/systems/yrepl.cpp</text>
</a>
</g>
</g>
<!-- Node2 -->
<g id="node2" class="node">
<title>Node2</title>
<g id="a_node2"><a xlink:href="yrepl_8h.html" target="_top" xlink:title=" ">
<polygon fill="none" stroke="black" points="0,-56.5 0,-75.5 50,-75.5 50,-56.5 0,-56.5"/>
<text text-anchor="middle" x="25" y="-63.5" font-family="Helvetica,sans-Serif" font-size="10.00">yrepl.h</text>
</a>
</g>
</g>
<!-- Node1&#45;&gt;Node2 -->
<g id="edge1" class="edge">
<title>Node1&#45;&gt;Node2</title>
<path fill="none" stroke="midnightblue" d="M346.76,-113.66C273.63,-106.16 160.9,-93.19 64,-76 62.73,-75.77 61.44,-75.53 60.14,-75.28"/>
<polygon fill="midnightblue" stroke="midnightblue" points="60.6,-71.81 50.1,-73.19 59.17,-78.66 60.6,-71.81"/>
</g>
<!-- Node3 -->
<g id="node3" class="node">
<title>Node3</title>
<g id="a_node3"><a xlink:title=" ">
<polygon fill="none" stroke="#bfbfbf" points="3,-0.5 3,-19.5 47,-19.5 47,-0.5 3,-0.5"/>
<text text-anchor="middle" x="25" y="-7.5" font-family="Helvetica,sans-Serif" font-size="10.00">string</text>
</a>
</g>
</g>
<!-- Node1&#45;&gt;Node3 -->
<g id="edge25" class="edge">
<title>Node1&#45;&gt;Node3</title>
<path fill="none" stroke="midnightblue" d="M346.79,-115.64C264.44,-108.99 140.06,-96.04 97,-76 73.04,-64.85 51.4,-42.94 38.24,-27.66"/>
<polygon fill="midnightblue" stroke="midnightblue" points="40.92,-25.41 31.84,-19.96 35.54,-29.89 40.92,-25.41"/>
</g>
<!-- Node4 -->
<g id="node4" class="node">
<title>Node4</title>
<g id="a_node4"><a xlink:href="ycore_8h.html" target="_top" xlink:title=" ">
<polygon fill="none" stroke="black" points="106.5,-56.5 106.5,-75.5 159.5,-75.5 159.5,-56.5 106.5,-56.5"/>
<text text-anchor="middle" x="133" y="-63.5" font-family="Helvetica,sans-Serif" font-size="10.00">ycore.h</text>
</a>
</g>
</g>
<!-- Node1&#45;&gt;Node4 -->
<g id="edge3" class="edge">
<title>Node1&#45;&gt;Node4</title>
<path fill="none" stroke="midnightblue" d="M368.33,-112.49C318.54,-104.6 243.39,-91.97 169.63,-76.23"/>
<polygon fill="midnightblue" stroke="midnightblue" points="170.22,-72.78 159.7,-74.09 168.74,-79.62 170.22,-72.78"/>
</g>
<!-- Node5 -->
<g id="node5" class="node">
<title>Node5</title>
<g id="a_node5"><a xlink:href="ylua_8h.html" target="_top" xlink:title=" ">
<polygon fill="none" stroke="black" points="177.5,-56.5 177.5,-75.5 224.5,-75.5 224.5,-56.5 177.5,-56.5"/>
<text text-anchor="middle" x="201" y="-63.5" font-family="Helvetica,sans-Serif" font-size="10.00">ylua.h</text>
</a>
</g>
</g>
<!-- Node1&#45;&gt;Node5 -->
<g id="edge5" class="edge">
<title>Node1&#45;&gt;Node5</title>
<path fill="none" stroke="midnightblue" d="M386.42,-112.49C350.05,-104.17 293.13,-90.92 234.56,-76.08"/>
<polygon fill="midnightblue" stroke="midnightblue" points="235.32,-72.66 224.77,-73.58 233.6,-79.44 235.32,-72.66"/>
</g>
<!-- Node6 -->
<g id="node6" class="node">
<title>Node6</title>
<g id="a_node6"><a xlink:href="yluabind_8hpp.html" target="_top" xlink:title=" ">
<polygon fill="none" stroke="black" points="243,-56.5 243,-75.5 323,-75.5 323,-56.5 243,-56.5"/>
<text text-anchor="middle" x="283" y="-63.5" font-family="Helvetica,sans-Serif" font-size="10.00">yluabind.hpp</text>
</a>
</g>
</g>
<!-- Node1&#45;&gt;Node6 -->
<g id="edge7" class="edge">
<title>Node1&#45;&gt;Node6</title>
<path fill="none" stroke="midnightblue" d="M401.66,-112.44C378.25,-103.48 341.26,-89.31 314.81,-79.18"/>
<polygon fill="midnightblue" stroke="midnightblue" points="315.83,-75.82 305.24,-75.52 313.32,-82.36 315.83,-75.82"/>
</g>
<!-- Node17 -->
<g id="node17" class="node">
<title>Node17</title>
<g id="a_node17"><a xlink:title=" ">
<polygon fill="none" stroke="#bfbfbf" points="341,-56.5 341,-75.5 423,-75.5 423,-56.5 341,-56.5"/>
<text text-anchor="middle" x="382" y="-63.5" font-family="Helvetica,sans-Serif" font-size="10.00">linenoise.hpp</text>
</a>
</g>
</g>
<!-- Node1&#45;&gt;Node17 -->
<g id="edge19" class="edge">
<title>Node1&#45;&gt;Node17</title>
<path fill="none" stroke="midnightblue" d="M417.06,-112.08C411.07,-104.38 402.25,-93.03 394.95,-83.65"/>
<polygon fill="midnightblue" stroke="midnightblue" points="397.71,-81.5 388.81,-75.75 392.18,-85.79 397.71,-81.5"/>
</g>
<!-- Node18 -->
<g id="node18" class="node">
<title>Node18</title>
<g id="a_node18"><a xlink:title=" ">
<polygon fill="none" stroke="#bfbfbf" points="441,-56.5 441,-75.5 491,-75.5 491,-56.5 441,-56.5"/>
<text text-anchor="middle" x="466" y="-63.5" font-family="Helvetica,sans-Serif" font-size="10.00">chrono</text>
</a>
</g>
</g>
<!-- Node1&#45;&gt;Node18 -->
<g id="edge20" class="edge">
<title>Node1&#45;&gt;Node18</title>
<path fill="none" stroke="midnightblue" d="M430.94,-112.08C436.93,-104.38 445.75,-93.03 453.05,-83.65"/>
<polygon fill="midnightblue" stroke="midnightblue" points="455.82,-85.79 459.19,-75.75 450.29,-81.5 455.82,-85.79"/>
</g>
<!-- Node19 -->
<g id="node19" class="node">
<title>Node19</title>
<g id="a_node19"><a xlink:title=" ">
<polygon fill="none" stroke="#bfbfbf" points="509,-56.5 509,-75.5 563,-75.5 563,-56.5 509,-56.5"/>
<text text-anchor="middle" x="536" y="-63.5" font-family="Helvetica,sans-Serif" font-size="10.00">istream</text>
</a>
</g>
</g>
<!-- Node1&#45;&gt;Node19 -->
<g id="edge21" class="edge">
<title>Node1&#45;&gt;Node19</title>
<path fill="none" stroke="midnightblue" d="M441.99,-112.32C460.04,-103.62 488.05,-90.12 508.8,-80.11"/>
<polygon fill="midnightblue" stroke="midnightblue" points="510.56,-83.15 518.05,-75.65 507.52,-76.84 510.56,-83.15"/>
</g>
<!-- Node20 -->
<g id="node20" class="node">
<title>Node20</title>
<g id="a_node20"><a xlink:title=" ">
<polygon fill="none" stroke="#bfbfbf" points="581,-56.5 581,-75.5 639,-75.5 639,-56.5 581,-56.5"/>
<text text-anchor="middle" x="610" y="-63.5" font-family="Helvetica,sans-Serif" font-size="10.00">memory</text>
</a>
</g>
</g>
<!-- Node1&#45;&gt;Node20 -->
<g id="edge22" class="edge">
<title>Node1&#45;&gt;Node20</title>
<path fill="none" stroke="midnightblue" d="M453.47,-112.44C485.26,-103.21 536.03,-88.48 571.08,-78.3"/>
<polygon fill="midnightblue" stroke="midnightblue" points="572.34,-81.58 580.97,-75.43 570.39,-74.85 572.34,-81.58"/>
</g>
<!-- Node21 -->
<g id="node21" class="node">
<title>Node21</title>
<g id="a_node21"><a xlink:title=" ">
<polygon fill="none" stroke="#bfbfbf" points="657,-56.5 657,-75.5 705,-75.5 705,-56.5 657,-56.5"/>
<text text-anchor="middle" x="681" y="-63.5" font-family="Helvetica,sans-Serif" font-size="10.00">mutex</text>
</a>
</g>
</g>
<!-- Node1&#45;&gt;Node21 -->
<g id="edge23" class="edge">
<title>Node1&#45;&gt;Node21</title>
<path fill="none" stroke="midnightblue" d="M471.4,-112.45C514.75,-104.41 580.84,-91.6 647.12,-76.09"/>
<polygon fill="midnightblue" stroke="midnightblue" points="647.97,-79.48 656.9,-73.78 646.36,-72.67 647.97,-79.48"/>
</g>
<!-- Node22 -->
<g id="node22" class="node">
<title>Node22</title>
<g id="a_node22"><a xlink:title=" ">
<polygon fill="none" stroke="#bfbfbf" points="723.5,-56.5 723.5,-75.5 780.5,-75.5 780.5,-56.5 723.5,-56.5"/>
<text text-anchor="middle" x="752" y="-63.5" font-family="Helvetica,sans-Serif" font-size="10.00">ostream</text>
</a>
</g>
</g>
<!-- Node1&#45;&gt;Node22 -->
<g id="edge24" class="edge">
<title>Node1&#45;&gt;Node22</title>
<path fill="none" stroke="midnightblue" d="M488.47,-112.48C545.16,-104.65 630.1,-92.09 713.52,-75.96"/>
<polygon fill="midnightblue" stroke="midnightblue" points="714.27,-79.38 723.42,-74.02 712.93,-72.51 714.27,-79.38"/>
</g>
<!-- Node23 -->
<g id="node23" class="node">
<title>Node23</title>
<g id="a_node23"><a xlink:title=" ">
<polygon fill="none" stroke="#bfbfbf" points="799,-56.5 799,-75.5 847,-75.5 847,-56.5 799,-56.5"/>
<text text-anchor="middle" x="823" y="-63.5" font-family="Helvetica,sans-Serif" font-size="10.00">thread</text>
</a>
</g>
</g>
<!-- Node1&#45;&gt;Node23 -->
<g id="edge26" class="edge">
<title>Node1&#45;&gt;Node23</title>
<path fill="none" stroke="midnightblue" d="M501.27,-114.75C573.37,-108.19 684.04,-96.22 788.82,-75.98"/>
<polygon fill="midnightblue" stroke="midnightblue" points="789.8,-79.35 798.94,-73.99 788.46,-72.48 789.8,-79.35"/>
</g>
<!-- Node2&#45;&gt;Node3 -->
<g id="edge2" class="edge">
<title>Node2&#45;&gt;Node3</title>
<path fill="none" stroke="midnightblue" d="M25,-56.08C25,-49.01 25,-38.86 25,-29.99"/>
<polygon fill="midnightblue" stroke="midnightblue" points="28.5,-29.75 25,-19.75 21.5,-29.75 28.5,-29.75"/>
</g>
<!-- Node4&#45;&gt;Node3 -->
<g id="edge4" class="edge">
<title>Node4&#45;&gt;Node3</title>
<path fill="none" stroke="midnightblue" d="M115.65,-56.32C98.33,-47.66 71.48,-34.24 51.5,-24.25"/>
<polygon fill="midnightblue" stroke="midnightblue" points="52.82,-21 42.31,-19.65 49.69,-27.26 52.82,-21"/>
</g>
<!-- Node5&#45;&gt;Node3 -->
<g id="edge6" class="edge">
<title>Node5&#45;&gt;Node3</title>
<path fill="none" stroke="midnightblue" d="M177.26,-57.72C146.18,-48.18 91.57,-31.42 56.9,-20.79"/>
<polygon fill="midnightblue" stroke="midnightblue" points="57.84,-17.41 47.25,-17.83 55.78,-24.11 57.84,-17.41"/>
</g>
<!-- Node6&#45;&gt;Node3 -->
<g id="edge13" class="edge">
<title>Node6&#45;&gt;Node3</title>
<path fill="none" stroke="midnightblue" d="M242.76,-57.46C191.34,-47.75 104.22,-31.06 57.23,-20.1"/>
<polygon fill="midnightblue" stroke="midnightblue" points="57.83,-16.65 47.29,-17.72 56.2,-23.46 57.83,-16.65"/>
</g>
<!-- Node7 -->
<g id="node7" class="node">
<title>Node7</title>
<g id="a_node7"><a xlink:title=" ">
<polygon fill="none" stroke="#bfbfbf" points="65.5,-0.5 65.5,-19.5 124.5,-19.5 124.5,-0.5 65.5,-0.5"/>
<text text-anchor="middle" x="95" y="-7.5" font-family="Helvetica,sans-Serif" font-size="10.00">lauxlib.h</text>
</a>
</g>
</g>
<!-- Node6&#45;&gt;Node7 -->
<g id="edge8" class="edge">
<title>Node6&#45;&gt;Node7</title>
<path fill="none" stroke="midnightblue" d="M253.21,-56.44C221.17,-47.24 170.07,-32.56 134.65,-22.39"/>
<polygon fill="midnightblue" stroke="midnightblue" points="135.23,-18.91 124.65,-19.52 133.29,-25.64 135.23,-18.91"/>
</g>
<!-- Node8 -->
<g id="node8" class="node">
<title>Node8</title>
<g id="a_node8"><a xlink:title=" ">
<polygon fill="none" stroke="#bfbfbf" points="142.5,-0.5 142.5,-19.5 183.5,-19.5 183.5,-0.5 142.5,-0.5"/>
<text text-anchor="middle" x="163" y="-7.5" font-family="Helvetica,sans-Serif" font-size="10.00">lua.h</text>
</a>
</g>
</g>
<!-- Node6&#45;&gt;Node8 -->
<g id="edge9" class="edge">
<title>Node6&#45;&gt;Node8</title>
<path fill="none" stroke="midnightblue" d="M263.99,-56.44C244.41,-47.64 213.69,-33.81 191.27,-23.72"/>
<polygon fill="midnightblue" stroke="midnightblue" points="192.48,-20.43 181.93,-19.52 189.61,-26.81 192.48,-20.43"/>
</g>
<!-- Node9 -->
<g id="node9" class="node">
<title>Node9</title>
<g id="a_node9"><a xlink:title=" ">
<polygon fill="none" stroke="#bfbfbf" points="201.5,-0.5 201.5,-19.5 254.5,-19.5 254.5,-0.5 201.5,-0.5"/>
<text text-anchor="middle" x="228" y="-7.5" font-family="Helvetica,sans-Serif" font-size="10.00">lualib.h</text>
</a>
</g>
</g>
<!-- Node6&#45;&gt;Node9 -->
<g id="edge10" class="edge">
<title>Node6&#45;&gt;Node9</title>
<path fill="none" stroke="midnightblue" d="M273.92,-56.08C265.83,-48.14 253.8,-36.34 244.09,-26.8"/>
<polygon fill="midnightblue" stroke="midnightblue" points="246.5,-24.26 236.91,-19.75 241.6,-29.25 246.5,-24.26"/>
</g>
<!-- Node10 -->
<g id="node10" class="node">
<title>Node10</title>
<g id="a_node10"><a xlink:title=" ">
<polygon fill="none" stroke="#bfbfbf" points="272.5,-0.5 272.5,-19.5 337.5,-19.5 337.5,-0.5 272.5,-0.5"/>
<text text-anchor="middle" x="305" y="-7.5" font-family="Helvetica,sans-Serif" font-size="10.00">functional</text>
</a>
</g>
</g>
<!-- Node6&#45;&gt;Node10 -->
<g id="edge11" class="edge">
<title>Node6&#45;&gt;Node10</title>
<path fill="none" stroke="midnightblue" d="M286.63,-56.08C289.61,-48.77 293.93,-38.18 297.62,-29.1"/>
<polygon fill="midnightblue" stroke="midnightblue" points="300.9,-30.33 301.43,-19.75 294.42,-27.69 300.9,-30.33"/>
</g>
<!-- Node11 -->
<g id="node11" class="node">
<title>Node11</title>
<g id="a_node11"><a xlink:title=" ">
<polygon fill="none" stroke="#bfbfbf" points="356,-0.5 356,-19.5 416,-19.5 416,-0.5 356,-0.5"/>
<text text-anchor="middle" x="386" y="-7.5" font-family="Helvetica,sans-Serif" font-size="10.00">iostream</text>
</a>
</g>
</g>
<!-- Node6&#45;&gt;Node11 -->
<g id="edge12" class="edge">
<title>Node6&#45;&gt;Node11</title>
<path fill="none" stroke="midnightblue" d="M299.55,-56.32C315.99,-47.7 341.43,-34.36 360.47,-24.39"/>
<polygon fill="midnightblue" stroke="midnightblue" points="362.26,-27.4 369.49,-19.65 359.01,-21.2 362.26,-27.4"/>
</g>
<!-- Node12 -->
<g id="node12" class="node">
<title>Node12</title>
<g id="a_node12"><a xlink:title=" ">
<polygon fill="none" stroke="#bfbfbf" points="434.5,-0.5 434.5,-19.5 475.5,-19.5 475.5,-0.5 434.5,-0.5"/>
<text text-anchor="middle" x="455" y="-7.5" font-family="Helvetica,sans-Serif" font-size="10.00">tuple</text>
</a>
</g>
</g>
<!-- Node6&#45;&gt;Node12 -->
<g id="edge14" class="edge">
<title>Node6&#45;&gt;Node12</title>
<path fill="none" stroke="midnightblue" d="M310.25,-56.44C341.37,-46.68 392.13,-30.74 424.53,-20.57"/>
<polygon fill="midnightblue" stroke="midnightblue" points="425.86,-23.82 434.35,-17.48 423.76,-17.14 425.86,-23.82"/>
</g>
<!-- Node13 -->
<g id="node13" class="node">
<title>Node13</title>
<g id="a_node13"><a xlink:title=" ">
<polygon fill="none" stroke="#bfbfbf" points="493.5,-0.5 493.5,-19.5 562.5,-19.5 562.5,-0.5 493.5,-0.5"/>
<text text-anchor="middle" x="528" y="-7.5" font-family="Helvetica,sans-Serif" font-size="10.00">type_traits</text>
</a>
</g>
</g>
<!-- Node6&#45;&gt;Node13 -->
<g id="edge15" class="edge">
<title>Node6&#45;&gt;Node13</title>
<path fill="none" stroke="midnightblue" d="M321.82,-56.44C365.73,-46.77 437.1,-31.04 483.3,-20.85"/>
<polygon fill="midnightblue" stroke="midnightblue" points="484.31,-24.21 493.32,-18.64 482.8,-17.38 484.31,-24.21"/>
</g>
<!-- Node14 -->
<g id="node14" class="node">
<title>Node14</title>
<g id="a_node14"><a xlink:title=" ">
<polygon fill="none" stroke="#bfbfbf" points="580.5,-0.5 580.5,-19.5 673.5,-19.5 673.5,-0.5 580.5,-0.5"/>
<text text-anchor="middle" x="627" y="-7.5" font-family="Helvetica,sans-Serif" font-size="10.00">unordered_map</text>
</a>
</g>
</g>
<!-- Node6&#45;&gt;Node14 -->
<g id="edge16" class="edge">
<title>Node6&#45;&gt;Node14</title>
<path fill="none" stroke="midnightblue" d="M323.09,-57.53C326.1,-57 329.1,-56.48 332,-56 435.27,-38.77 463.79,-36.81 570.61,-20.2"/>
<polygon fill="midnightblue" stroke="midnightblue" points="571.16,-23.66 580.5,-18.65 570.08,-16.74 571.16,-23.66"/>
</g>
<!-- Node15 -->
<g id="node15" class="node">
<title>Node15</title>
<g id="a_node15"><a xlink:title=" ">
<polygon fill="none" stroke="#bfbfbf" points="691.5,-0.5 691.5,-19.5 736.5,-19.5 736.5,-0.5 691.5,-0.5"/>
<text text-anchor="middle" x="714" y="-7.5" font-family="Helvetica,sans-Serif" font-size="10.00">utility</text>
</a>
</g>
</g>
<!-- Node6&#45;&gt;Node15 -->
<g id="edge17" class="edge">
<title>Node6&#45;&gt;Node15</title>
<path fill="none" stroke="midnightblue" d="M323.07,-57.37C326.09,-56.88 329.09,-56.42 332,-56 484.06,-34.27 527.31,-49.34 681.59,-19.97"/>
<polygon fill="midnightblue" stroke="midnightblue" points="682.28,-23.4 691.43,-18.06 680.95,-16.53 682.28,-23.4"/>
</g>
<!-- Node16 -->
<g id="node16" class="node">
<title>Node16</title>
<g id="a_node16"><a xlink:title=" ">
<polygon fill="none" stroke="#bfbfbf" points="754.5,-0.5 754.5,-19.5 801.5,-19.5 801.5,-0.5 754.5,-0.5"/>
<text text-anchor="middle" x="778" y="-7.5" font-family="Helvetica,sans-Serif" font-size="10.00">vector</text>
</a>
</g>
</g>
<!-- Node6&#45;&gt;Node16 -->
<g id="edge18" class="edge">
<title>Node6&#45;&gt;Node16</title>
<path fill="none" stroke="midnightblue" d="M323.06,-57.32C326.08,-56.84 329.09,-56.39 332,-56 511.82,-31.72 562.53,-52.39 744.46,-19.98"/>
<polygon fill="midnightblue" stroke="midnightblue" points="745.13,-23.41 754.35,-18.18 743.89,-16.52 745.13,-23.41"/>
</g>
</g>
</svg>
