<?xml version="1.0" encoding="UTF-8" standalone="no"?>
<!DOCTYPE svg PUBLIC "-//W3C//DTD SVG 1.1//EN"
 "http://www.w3.org/Graphics/SVG/1.1/DTD/svg11.dtd">
<!-- Generated by graphviz version 2.43.0 (0)
 -->
<!-- Title: yapre/src/yscheduler.cpp Pages: 1 -->
<svg width="712pt" height="140pt"
 viewBox="0.00 0.00 711.50 140.00" xmlns="http://www.w3.org/2000/svg" xmlns:xlink="http://www.w3.org/1999/xlink">
<g id="graph0" class="graph" transform="scale(1 1) rotate(0) translate(4 136)">
<title>yapre/src/yscheduler.cpp</title>
<!-- Node1 -->
<g id="node1" class="node">
<title>Node1</title>
<g id="a_node1"><a xlink:title=" ">
<polygon fill="#bfbfbf" stroke="black" points="247.5,-112.5 247.5,-131.5 384.5,-131.5 384.5,-112.5 247.5,-112.5"/>
<text text-anchor="middle" x="316" y="-119.5" font-family="Helvetica,sans-Serif" font-size="10.00">yapre/src/yscheduler.cpp</text>
</a>
</g>
</g>
<!-- Node2 -->
<g id="node2" class="node">
<title>Node2</title>
<g id="a_node2"><a xlink:href="yscheduler_8h.html" target="_top" xlink:title=" ">
<polygon fill="none" stroke="black" points="43,-56.5 43,-75.5 121,-75.5 121,-56.5 43,-56.5"/>
<text text-anchor="middle" x="82" y="-63.5" font-family="Helvetica,sans-Serif" font-size="10.00">yscheduler.h</text>
</a>
</g>
</g>
<!-- Node1&#45;&gt;Node2 -->
<g id="edge1" class="edge">
<title>Node1&#45;&gt;Node2</title>
<path fill="none" stroke="midnightblue" d="M278.92,-112.44C238.27,-103.06 172.97,-87.99 128.82,-77.8"/>
<polygon fill="midnightblue" stroke="midnightblue" points="129.44,-74.35 118.9,-75.52 127.86,-81.18 129.44,-74.35"/>
</g>
<!-- Node3 -->
<g id="node3" class="node">
<title>Node3</title>
<g id="a_node3"><a xlink:title=" ">
<polygon fill="none" stroke="#bfbfbf" points="0,-0.5 0,-19.5 50,-19.5 50,-0.5 0,-0.5"/>
<text text-anchor="middle" x="25" y="-7.5" font-family="Helvetica,sans-Serif" font-size="10.00">chrono</text>
</a>
</g>
</g>
<!-- Node1&#45;&gt;Node3 -->
<g id="edge7" class="edge">
<title>Node1&#45;&gt;Node3</title>
<path fill="none" stroke="midnightblue" d="M247.29,-119.16C173.48,-115.65 62.88,-105.48 34,-76 22.3,-64.06 21.06,-44.44 22.13,-29.88"/>
<polygon fill="midnightblue" stroke="midnightblue" points="25.65,-29.86 23.32,-19.53 18.7,-29.06 25.65,-29.86"/>
</g>
<!-- Node4 -->
<g id="node4" class="node">
<title>Node4</title>
<g id="a_node4"><a xlink:title=" ">
<polygon fill="none" stroke="#bfbfbf" points="88.5,-0.5 88.5,-19.5 153.5,-19.5 153.5,-0.5 88.5,-0.5"/>
<text text-anchor="middle" x="121" y="-7.5" font-family="Helvetica,sans-Serif" font-size="10.00">functional</text>
</a>
</g>
</g>
<!-- Node1&#45;&gt;Node4 -->
<g id="edge8" class="edge">
<title>Node1&#45;&gt;Node4</title>
<path fill="none" stroke="midnightblue" d="M259.54,-112.46C230.49,-106 195.69,-94.89 169,-76 151.7,-63.75 138.09,-43.31 129.85,-28.62"/>
<polygon fill="midnightblue" stroke="midnightblue" points="132.81,-26.73 125.03,-19.54 126.63,-30.01 132.81,-26.73"/>
</g>
<!-- Node5 -->
<g id="node5" class="node">
<title>Node5</title>
<g id="a_node5"><a xlink:href="ycore_8h.html" target="_top" xlink:title=" ">
<polygon fill="none" stroke="black" points="177.5,-56.5 177.5,-75.5 230.5,-75.5 230.5,-56.5 177.5,-56.5"/>
<text text-anchor="middle" x="204" y="-63.5" font-family="Helvetica,sans-Serif" font-size="10.00">ycore.h</text>
</a>
</g>
</g>
<!-- Node1&#45;&gt;Node5 -->
<g id="edge4" class="edge">
<title>Node1&#45;&gt;Node5</title>
<path fill="none" stroke="midnightblue" d="M298.01,-112.32C279.96,-103.62 251.95,-90.12 231.2,-80.11"/>
<polygon fill="midnightblue" stroke="midnightblue" points="232.48,-76.84 221.95,-75.65 229.44,-83.15 232.48,-76.84"/>
</g>
<!-- Node7 -->
<g id="node7" class="node">
<title>Node7</title>
<g id="a_node7"><a xlink:title=" ">
<polygon fill="none" stroke="#bfbfbf" points="249,-56.5 249,-75.5 307,-75.5 307,-56.5 249,-56.5"/>
<text text-anchor="middle" x="278" y="-63.5" font-family="Helvetica,sans-Serif" font-size="10.00">asio.hpp</text>
</a>
</g>
</g>
<!-- Node1&#45;&gt;Node7 -->
<g id="edge6" class="edge">
<title>Node1&#45;&gt;Node7</title>
<path fill="none" stroke="midnightblue" d="M309.73,-112.08C304.36,-104.46 296.48,-93.26 289.92,-83.94"/>
<polygon fill="midnightblue" stroke="midnightblue" points="292.78,-81.91 284.16,-75.75 287.05,-85.94 292.78,-81.91"/>
</g>
<!-- Node8 -->
<g id="node8" class="node">
<title>Node8</title>
<g id="a_node8"><a xlink:title=" ">
<polygon fill="none" stroke="#bfbfbf" points="325,-56.5 325,-75.5 385,-75.5 385,-56.5 325,-56.5"/>
<text text-anchor="middle" x="355" y="-63.5" font-family="Helvetica,sans-Serif" font-size="10.00">iostream</text>
</a>
</g>
</g>
<!-- Node1&#45;&gt;Node8 -->
<g id="edge9" class="edge">
<title>Node1&#45;&gt;Node8</title>
<path fill="none" stroke="midnightblue" d="M322.44,-112.08C327.95,-104.46 336.03,-93.26 342.76,-83.94"/>
<polygon fill="midnightblue" stroke="midnightblue" points="345.66,-85.91 348.68,-75.75 339.99,-81.81 345.66,-85.91"/>
</g>
<!-- Node9 -->
<g id="node9" class="node">
<title>Node9</title>
<g id="a_node9"><a xlink:title=" ">
<polygon fill="none" stroke="#bfbfbf" points="403,-56.5 403,-75.5 461,-75.5 461,-56.5 403,-56.5"/>
<text text-anchor="middle" x="432" y="-63.5" font-family="Helvetica,sans-Serif" font-size="10.00">memory</text>
</a>
</g>
</g>
<!-- Node1&#45;&gt;Node9 -->
<g id="edge10" class="edge">
<title>Node1&#45;&gt;Node9</title>
<path fill="none" stroke="midnightblue" d="M334.38,-112.44C353.22,-103.68 382.73,-89.94 404.38,-79.86"/>
<polygon fill="midnightblue" stroke="midnightblue" points="406.12,-82.91 413.71,-75.52 403.16,-76.56 406.12,-82.91"/>
</g>
<!-- Node10 -->
<g id="node10" class="node">
<title>Node10</title>
<g id="a_node10"><a xlink:title=" ">
<polygon fill="none" stroke="#bfbfbf" points="479,-56.5 479,-75.5 527,-75.5 527,-56.5 479,-56.5"/>
<text text-anchor="middle" x="503" y="-63.5" font-family="Helvetica,sans-Serif" font-size="10.00">thread</text>
</a>
</g>
</g>
<!-- Node1&#45;&gt;Node10 -->
<g id="edge11" class="edge">
<title>Node1&#45;&gt;Node10</title>
<path fill="none" stroke="midnightblue" d="M345.63,-112.44C379.19,-102.75 433.77,-86.99 469.02,-76.81"/>
<polygon fill="midnightblue" stroke="midnightblue" points="470.22,-80.11 478.86,-73.97 468.28,-73.38 470.22,-80.11"/>
</g>
<!-- Node11 -->
<g id="node11" class="node">
<title>Node11</title>
<g id="a_node11"><a xlink:title=" ">
<polygon fill="none" stroke="#bfbfbf" points="545.5,-56.5 545.5,-75.5 638.5,-75.5 638.5,-56.5 545.5,-56.5"/>
<text text-anchor="middle" x="592" y="-63.5" font-family="Helvetica,sans-Serif" font-size="10.00">unordered_map</text>
</a>
</g>
</g>
<!-- Node1&#45;&gt;Node11 -->
<g id="edge12" class="edge">
<title>Node1&#45;&gt;Node11</title>
<path fill="none" stroke="midnightblue" d="M359.73,-112.44C408.18,-102.96 486.33,-87.67 538.42,-77.48"/>
<polygon fill="midnightblue" stroke="midnightblue" points="539.33,-80.87 548.47,-75.52 537.99,-74 539.33,-80.87"/>
</g>
<!-- Node12 -->
<g id="node12" class="node">
<title>Node12</title>
<g id="a_node12"><a xlink:title=" ">
<polygon fill="none" stroke="#bfbfbf" points="656.5,-56.5 656.5,-75.5 703.5,-75.5 703.5,-56.5 656.5,-56.5"/>
<text text-anchor="middle" x="680" y="-63.5" font-family="Helvetica,sans-Serif" font-size="10.00">vector</text>
</a>
</g>
</g>
<!-- Node1&#45;&gt;Node12 -->
<g id="edge13" class="edge">
<title>Node1&#45;&gt;Node12</title>
<path fill="none" stroke="midnightblue" d="M384.51,-114.53C449.73,-107.74 550.75,-95.56 646.48,-76.09"/>
<polygon fill="midnightblue" stroke="midnightblue" points="647.24,-79.51 656.33,-74.06 645.82,-72.65 647.24,-79.51"/>
</g>
<!-- Node2&#45;&gt;Node3 -->
<g id="edge2" class="edge">
<title>Node2&#45;&gt;Node3</title>
<path fill="none" stroke="midnightblue" d="M72.84,-56.32C64.5,-48.42 51.97,-36.55 41.82,-26.94"/>
<polygon fill="midnightblue" stroke="midnightblue" points="43.99,-24.17 34.32,-19.83 39.18,-29.25 43.99,-24.17"/>
</g>
<!-- Node2&#45;&gt;Node4 -->
<g id="edge3" class="edge">
<title>Node2&#45;&gt;Node4</title>
<path fill="none" stroke="midnightblue" d="M88.44,-56.08C93.95,-48.46 102.03,-37.26 108.76,-27.94"/>
<polygon fill="midnightblue" stroke="midnightblue" points="111.66,-29.91 114.68,-19.75 105.99,-25.81 111.66,-29.91"/>
</g>
<!-- Node6 -->
<g id="node6" class="node">
<title>Node6</title>
<g id="a_node6"><a xlink:title=" ">
<polygon fill="none" stroke="#bfbfbf" points="182,-0.5 182,-19.5 226,-19.5 226,-0.5 182,-0.5"/>
<text text-anchor="middle" x="204" y="-7.5" font-family="Helvetica,sans-Serif" font-size="10.00">string</text>
</a>
</g>
</g>
<!-- Node5&#45;&gt;Node6 -->
<g id="edge5" class="edge">
<title>Node5&#45;&gt;Node6</title>
<path fill="none" stroke="midnightblue" d="M204,-56.08C204,-49.01 204,-38.86 204,-29.99"/>
<polygon fill="midnightblue" stroke="midnightblue" points="207.5,-29.75 204,-19.75 200.5,-29.75 207.5,-29.75"/>
</g>
</g>
</svg>
