<?xml version="1.0" encoding="UTF-8" standalone="no"?>
<!DOCTYPE svg PUBLIC "-//W3C//DTD SVG 1.1//EN"
 "http://www.w3.org/Graphics/SVG/1.1/DTD/svg11.dtd">
<!-- Generated by graphviz version 2.50.0 (20211204.2007)
 -->
<!-- Title: yapre/src/yscheduler.cpp Pages: 1 -->
<svg width="665pt" height="140pt"
 viewBox="0.00 0.00 665.00 140.00" xmlns="http://www.w3.org/2000/svg" xmlns:xlink="http://www.w3.org/1999/xlink">
<g id="graph0" class="graph" transform="scale(1 1) rotate(0) translate(4 136)">
<title>yapre/src/yscheduler.cpp</title>
<!-- Node1 -->
<g id="node1" class="node">
<title>Node1</title>
<g id="a_node1"><a xlink:title=" ">
<polygon fill="#bfbfbf" stroke="black" points="235.5,-112.5 235.5,-131.5 360.5,-131.5 360.5,-112.5 235.5,-112.5"/>
<text text-anchor="middle" x="298" y="-119.5" font-family="Helvetica,sans-Serif" font-size="10.00">yapre/src/yscheduler.cpp</text>
</a>
</g>
</g>
<!-- Node2 -->
<g id="node2" class="node">
<title>Node2</title>
<g id="a_node2"><a xlink:href="yscheduler_8h.html" target="_top" xlink:title=" ">
<polygon fill="none" stroke="black" points="40.5,-56.5 40.5,-75.5 111.5,-75.5 111.5,-56.5 40.5,-56.5"/>
<text text-anchor="middle" x="76" y="-63.5" font-family="Helvetica,sans-Serif" font-size="10.00">yscheduler.h</text>
</a>
</g>
</g>
<!-- Node1&#45;&gt;Node2 -->
<g id="edge1" class="edge">
<title>Node1&#45;&gt;Node2</title>
<path fill="none" stroke="midnightblue" d="M262.82,-112.44C224.42,-103.1 162.82,-88.12 120.94,-77.93"/>
<polygon fill="midnightblue" stroke="midnightblue" points="121.56,-74.48 111.01,-75.52 119.9,-81.28 121.56,-74.48"/>
</g>
<!-- Node3 -->
<g id="node3" class="node">
<title>Node3</title>
<g id="a_node3"><a xlink:title=" ">
<polygon fill="none" stroke="#bfbfbf" points="0,-0.5 0,-19.5 46,-19.5 46,-0.5 0,-0.5"/>
<text text-anchor="middle" x="23" y="-7.5" font-family="Helvetica,sans-Serif" font-size="10.00">chrono</text>
</a>
</g>
</g>
<!-- Node1&#45;&gt;Node3 -->
<g id="edge7" class="edge">
<title>Node1&#45;&gt;Node3</title>
<path fill="none" stroke="midnightblue" d="M235.34,-118.85C165.39,-115.06 58.37,-104.62 31,-76 19.59,-64.07 18.55,-44.77 19.79,-30.29"/>
<polygon fill="midnightblue" stroke="midnightblue" points="23.31,-30.31 21.11,-19.94 16.37,-29.42 23.31,-30.31"/>
</g>
<!-- Node4 -->
<g id="node4" class="node">
<title>Node4</title>
<g id="a_node4"><a xlink:title=" ">
<polygon fill="none" stroke="#bfbfbf" points="85.5,-0.5 85.5,-19.5 144.5,-19.5 144.5,-0.5 85.5,-0.5"/>
<text text-anchor="middle" x="115" y="-7.5" font-family="Helvetica,sans-Serif" font-size="10.00">functional</text>
</a>
</g>
</g>
<!-- Node1&#45;&gt;Node4 -->
<g id="edge8" class="edge">
<title>Node1&#45;&gt;Node4</title>
<path fill="none" stroke="midnightblue" d="M246.42,-112.49C218.76,-105.99 185.26,-94.82 160,-76 143.37,-63.61 130.69,-43.2 123.09,-28.55"/>
<polygon fill="midnightblue" stroke="midnightblue" points="126.2,-26.94 118.66,-19.5 119.92,-30.02 126.2,-26.94"/>
</g>
<!-- Node5 -->
<g id="node5" class="node">
<title>Node5</title>
<g id="a_node5"><a xlink:href="ycore_8h.html" target="_top" xlink:title=" ">
<polygon fill="none" stroke="black" points="168.5,-56.5 168.5,-75.5 217.5,-75.5 217.5,-56.5 168.5,-56.5"/>
<text text-anchor="middle" x="193" y="-63.5" font-family="Helvetica,sans-Serif" font-size="10.00">ycore.h</text>
</a>
</g>
</g>
<!-- Node1&#45;&gt;Node5 -->
<g id="edge4" class="edge">
<title>Node1&#45;&gt;Node5</title>
<path fill="none" stroke="midnightblue" d="M281.13,-112.32C264.29,-103.66 238.19,-90.24 218.76,-80.25"/>
<polygon fill="midnightblue" stroke="midnightblue" points="220.32,-77.12 209.83,-75.65 217.12,-83.34 220.32,-77.12"/>
</g>
<!-- Node7 -->
<g id="node7" class="node">
<title>Node7</title>
<g id="a_node7"><a xlink:title=" ">
<polygon fill="none" stroke="#bfbfbf" points="235.5,-56.5 235.5,-75.5 288.5,-75.5 288.5,-56.5 235.5,-56.5"/>
<text text-anchor="middle" x="262" y="-63.5" font-family="Helvetica,sans-Serif" font-size="10.00">asio.hpp</text>
</a>
</g>
</g>
<!-- Node1&#45;&gt;Node7 -->
<g id="edge6" class="edge">
<title>Node1&#45;&gt;Node7</title>
<path fill="none" stroke="midnightblue" d="M292.06,-112.08C287.02,-104.53 279.66,-93.49 273.49,-84.23"/>
<polygon fill="midnightblue" stroke="midnightblue" points="276.29,-82.13 267.83,-75.75 270.47,-86.01 276.29,-82.13"/>
</g>
<!-- Node8 -->
<g id="node8" class="node">
<title>Node8</title>
<g id="a_node8"><a xlink:title=" ">
<polygon fill="none" stroke="#bfbfbf" points="307,-56.5 307,-75.5 361,-75.5 361,-56.5 307,-56.5"/>
<text text-anchor="middle" x="334" y="-63.5" font-family="Helvetica,sans-Serif" font-size="10.00">iostream</text>
</a>
</g>
</g>
<!-- Node1&#45;&gt;Node8 -->
<g id="edge9" class="edge">
<title>Node1&#45;&gt;Node8</title>
<path fill="none" stroke="midnightblue" d="M303.94,-112.08C308.98,-104.53 316.34,-93.49 322.51,-84.23"/>
<polygon fill="midnightblue" stroke="midnightblue" points="325.53,-86.01 328.17,-75.75 319.71,-82.13 325.53,-86.01"/>
</g>
<!-- Node9 -->
<g id="node9" class="node">
<title>Node9</title>
<g id="a_node9"><a xlink:title=" ">
<polygon fill="none" stroke="#bfbfbf" points="379,-56.5 379,-75.5 431,-75.5 431,-56.5 379,-56.5"/>
<text text-anchor="middle" x="405" y="-63.5" font-family="Helvetica,sans-Serif" font-size="10.00">memory</text>
</a>
</g>
</g>
<!-- Node1&#45;&gt;Node9 -->
<g id="edge10" class="edge">
<title>Node1&#45;&gt;Node9</title>
<path fill="none" stroke="midnightblue" d="M315.19,-112.32C332.35,-103.66 358.95,-90.24 378.75,-80.25"/>
<polygon fill="midnightblue" stroke="midnightblue" points="380.5,-83.28 387.85,-75.65 377.35,-77.04 380.5,-83.28"/>
</g>
<!-- Node10 -->
<g id="node10" class="node">
<title>Node10</title>
<g id="a_node10"><a xlink:title=" ">
<polygon fill="none" stroke="#bfbfbf" points="449,-56.5 449,-75.5 493,-75.5 493,-56.5 449,-56.5"/>
<text text-anchor="middle" x="471" y="-63.5" font-family="Helvetica,sans-Serif" font-size="10.00">thread</text>
</a>
</g>
</g>
<!-- Node1&#45;&gt;Node10 -->
<g id="edge11" class="edge">
<title>Node1&#45;&gt;Node10</title>
<path fill="none" stroke="midnightblue" d="M325.41,-112.44C356.28,-102.81 406.36,-87.18 439,-76.99"/>
<polygon fill="midnightblue" stroke="midnightblue" points="440.43,-80.21 448.93,-73.89 438.34,-73.53 440.43,-80.21"/>
</g>
<!-- Node11 -->
<g id="node11" class="node">
<title>Node11</title>
<g id="a_node11"><a xlink:title=" ">
<polygon fill="none" stroke="#bfbfbf" points="511.5,-56.5 511.5,-75.5 594.5,-75.5 594.5,-56.5 511.5,-56.5"/>
<text text-anchor="middle" x="553" y="-63.5" font-family="Helvetica,sans-Serif" font-size="10.00">unordered_map</text>
</a>
</g>
</g>
<!-- Node1&#45;&gt;Node11 -->
<g id="edge12" class="edge">
<title>Node1&#45;&gt;Node11</title>
<path fill="none" stroke="midnightblue" d="M338.41,-112.44C382.98,-103 454.77,-87.8 502.89,-77.61"/>
<polygon fill="midnightblue" stroke="midnightblue" points="503.73,-81.01 512.78,-75.52 502.28,-74.16 503.73,-81.01"/>
</g>
<!-- Node12 -->
<g id="node12" class="node">
<title>Node12</title>
<g id="a_node12"><a xlink:title=" ">
<polygon fill="none" stroke="#bfbfbf" points="613,-56.5 613,-75.5 657,-75.5 657,-56.5 613,-56.5"/>
<text text-anchor="middle" x="635" y="-63.5" font-family="Helvetica,sans-Serif" font-size="10.00">vector</text>
</a>
</g>
</g>
<!-- Node1&#45;&gt;Node12 -->
<g id="edge13" class="edge">
<title>Node1&#45;&gt;Node12</title>
<path fill="none" stroke="midnightblue" d="M360.57,-114.33C420.49,-107.38 513.55,-95.08 602.73,-76.03"/>
<polygon fill="midnightblue" stroke="midnightblue" points="603.71,-79.4 612.74,-73.86 602.23,-72.56 603.71,-79.4"/>
</g>
<!-- Node2&#45;&gt;Node3 -->
<g id="edge2" class="edge">
<title>Node2&#45;&gt;Node3</title>
<path fill="none" stroke="midnightblue" d="M67.25,-56.08C59.53,-48.22 48.1,-36.57 38.78,-27.08"/>
<polygon fill="midnightblue" stroke="midnightblue" points="41.09,-24.44 31.59,-19.75 36.1,-29.34 41.09,-24.44"/>
</g>
<!-- Node2&#45;&gt;Node4 -->
<g id="edge3" class="edge">
<title>Node2&#45;&gt;Node4</title>
<path fill="none" stroke="midnightblue" d="M82.44,-56.08C87.95,-48.46 96.03,-37.26 102.76,-27.94"/>
<polygon fill="midnightblue" stroke="midnightblue" points="105.66,-29.91 108.68,-19.75 99.99,-25.81 105.66,-29.91"/>
</g>
<!-- Node6 -->
<g id="node6" class="node">
<title>Node6</title>
<g id="a_node6"><a xlink:title=" ">
<polygon fill="none" stroke="#bfbfbf" points="172.5,-0.5 172.5,-19.5 213.5,-19.5 213.5,-0.5 172.5,-0.5"/>
<text text-anchor="middle" x="193" y="-7.5" font-family="Helvetica,sans-Serif" font-size="10.00">string</text>
</a>
</g>
</g>
<!-- Node5&#45;&gt;Node6 -->
<g id="edge5" class="edge">
<title>Node5&#45;&gt;Node6</title>
<path fill="none" stroke="midnightblue" d="M193,-56.08C193,-49.01 193,-38.86 193,-29.99"/>
<polygon fill="midnightblue" stroke="midnightblue" points="196.5,-29.75 193,-19.75 189.5,-29.75 196.5,-29.75"/>
</g>
</g>
</svg>
