<?xml version="1.0" encoding="UTF-8" standalone="no"?>
<!DOCTYPE svg PUBLIC "-//W3C//DTD SVG 1.1//EN"
 "http://www.w3.org/Graphics/SVG/1.1/DTD/svg11.dtd">
<!-- Generated by graphviz version 2.43.0 (0)
 -->
<!-- Title: yapre/src/systems/graphics/yshader.h Pages: 1 -->
<svg width="374pt" height="95pt"
 viewBox="0.00 0.00 373.50 95.00" xmlns="http://www.w3.org/2000/svg" xmlns:xlink="http://www.w3.org/1999/xlink">
<g id="graph0" class="graph" transform="scale(1 1) rotate(0) translate(4 91)">
<title>yapre/src/systems/graphics/yshader.h</title>
<!-- Node1 -->
<g id="node1" class="node">
<title>Node1</title>
<g id="a_node1"><a xlink:title=" ">
<polygon fill="#bfbfbf" stroke="black" points="69,-56.5 69,-86.5 219,-86.5 219,-56.5 69,-56.5"/>
<text text-anchor="start" x="77" y="-74.5" font-family="Helvetica,sans-Serif" font-size="10.00">yapre/src/systems/graphics</text>
<text text-anchor="middle" x="144" y="-63.5" font-family="Helvetica,sans-Serif" font-size="10.00">/yshader.h</text>
</a>
</g>
</g>
<!-- Node2 -->
<g id="node2" class="node">
<title>Node2</title>
<g id="a_node2"><a xlink:title=" ">
<polygon fill="none" stroke="#bfbfbf" points="0,-0.5 0,-19.5 44,-19.5 44,-0.5 0,-0.5"/>
<text text-anchor="middle" x="22" y="-7.5" font-family="Helvetica,sans-Serif" font-size="10.00">string</text>
</a>
</g>
</g>
<!-- Node1&#45;&gt;Node2 -->
<g id="edge1" class="edge">
<title>Node1&#45;&gt;Node2</title>
<path fill="none" stroke="midnightblue" d="M115.09,-56.4C94.98,-46.59 68.38,-33.62 48.76,-24.05"/>
<polygon fill="midnightblue" stroke="midnightblue" points="50.27,-20.9 39.75,-19.66 47.21,-27.19 50.27,-20.9"/>
</g>
<!-- Node3 -->
<g id="node3" class="node">
<title>Node3</title>
<g id="a_node3"><a xlink:title=" ">
<polygon fill="none" stroke="#bfbfbf" points="62.5,-0.5 62.5,-19.5 133.5,-19.5 133.5,-0.5 62.5,-0.5"/>
<text text-anchor="middle" x="98" y="-7.5" font-family="Helvetica,sans-Serif" font-size="10.00">glad/glad.h</text>
</a>
</g>
</g>
<!-- Node1&#45;&gt;Node3 -->
<g id="edge2" class="edge">
<title>Node1&#45;&gt;Node3</title>
<path fill="none" stroke="midnightblue" d="M133.1,-56.4C126.41,-47.75 117.82,-36.64 110.82,-27.58"/>
<polygon fill="midnightblue" stroke="midnightblue" points="113.58,-25.43 104.69,-19.66 108.04,-29.71 113.58,-25.43"/>
</g>
<!-- Node4 -->
<g id="node4" class="node">
<title>Node4</title>
<g id="a_node4"><a xlink:title=" ">
<polygon fill="none" stroke="#bfbfbf" points="152,-0.5 152,-19.5 230,-19.5 230,-0.5 152,-0.5"/>
<text text-anchor="middle" x="191" y="-7.5" font-family="Helvetica,sans-Serif" font-size="10.00">glm/glm.hpp</text>
</a>
</g>
</g>
<!-- Node1&#45;&gt;Node4 -->
<g id="edge3" class="edge">
<title>Node1&#45;&gt;Node4</title>
<path fill="none" stroke="midnightblue" d="M155.14,-56.4C161.97,-47.75 170.74,-36.64 177.91,-27.58"/>
<polygon fill="midnightblue" stroke="midnightblue" points="180.71,-29.67 184.16,-19.66 175.22,-25.34 180.71,-29.67"/>
</g>
<!-- Node5 -->
<g id="node5" class="node">
<title>Node5</title>
<g id="a_node5"><a xlink:title=" ">
<polygon fill="none" stroke="#bfbfbf" points="248.5,-0.5 248.5,-19.5 365.5,-19.5 365.5,-0.5 248.5,-0.5"/>
<text text-anchor="middle" x="307" y="-7.5" font-family="Helvetica,sans-Serif" font-size="10.00">glm/gtc/type_ptr.hpp</text>
</a>
</g>
</g>
<!-- Node1&#45;&gt;Node5 -->
<g id="edge4" class="edge">
<title>Node1&#45;&gt;Node5</title>
<path fill="none" stroke="midnightblue" d="M182.63,-56.4C210.34,-46.28 247.31,-32.79 273.72,-23.15"/>
<polygon fill="midnightblue" stroke="midnightblue" points="275.09,-26.37 283.28,-19.66 272.69,-19.8 275.09,-26.37"/>
</g>
</g>
</svg>
