<?xml version="1.0" encoding="UTF-8" standalone="no"?>
<!DOCTYPE svg PUBLIC "-//W3C//DTD SVG 1.1//EN"
 "http://www.w3.org/Graphics/SVG/1.1/DTD/svg11.dtd">
<!-- Generated by graphviz version 2.50.0 (20211204.2007)
 -->
<!-- Title: yapre/src/systems/graphics/yshader.cpp Pages: 1 -->
<svg width="382pt" height="151pt"
 viewBox="0.00 0.00 381.50 151.00" xmlns="http://www.w3.org/2000/svg" xmlns:xlink="http://www.w3.org/1999/xlink">
<g id="graph0" class="graph" transform="scale(1 1) rotate(0) translate(4 147)">
<title>yapre/src/systems/graphics/yshader.cpp</title>
<!-- Node1 -->
<g id="node1" class="node">
<title>Node1</title>
<g id="a_node1"><a xlink:title=" ">
<polygon fill="#bfbfbf" stroke="black" points="173,-112.5 173,-142.5 310,-142.5 310,-112.5 173,-112.5"/>
<text text-anchor="start" x="181" y="-130.5" font-family="Helvetica,sans-Serif" font-size="10.00">yapre/src/systems/graphics</text>
<text text-anchor="middle" x="241.5" y="-119.5" font-family="Helvetica,sans-Serif" font-size="10.00">/yshader.cpp</text>
</a>
</g>
</g>
<!-- Node2 -->
<g id="node2" class="node">
<title>Node2</title>
<g id="a_node2"><a xlink:href="yshader_8h.html" target="_top" xlink:title=" ">
<polygon fill="none" stroke="black" points="104,-56.5 104,-75.5 163,-75.5 163,-56.5 104,-56.5"/>
<text text-anchor="middle" x="133.5" y="-63.5" font-family="Helvetica,sans-Serif" font-size="10.00">yshader.h</text>
</a>
</g>
</g>
<!-- Node1&#45;&gt;Node2 -->
<g id="edge1" class="edge">
<title>Node1&#45;&gt;Node2</title>
<path fill="none" stroke="midnightblue" d="M215.91,-112.4C198.43,-102.77 175.41,-90.09 158.14,-80.58"/>
<polygon fill="midnightblue" stroke="midnightblue" points="159.66,-77.42 149.21,-75.66 156.28,-83.55 159.66,-77.42"/>
</g>
<!-- Node7 -->
<g id="node7" class="node">
<title>Node7</title>
<g id="a_node7"><a xlink:title=" ">
<polygon fill="none" stroke="#bfbfbf" points="181.5,-56.5 181.5,-75.5 231.5,-75.5 231.5,-56.5 181.5,-56.5"/>
<text text-anchor="middle" x="206.5" y="-63.5" font-family="Helvetica,sans-Serif" font-size="10.00">fstream</text>
</a>
</g>
</g>
<!-- Node1&#45;&gt;Node7 -->
<g id="edge6" class="edge">
<title>Node1&#45;&gt;Node7</title>
<path fill="none" stroke="midnightblue" d="M233.21,-112.4C228.28,-104.02 221.99,-93.33 216.75,-84.42"/>
<polygon fill="midnightblue" stroke="midnightblue" points="219.68,-82.5 211.59,-75.66 213.65,-86.05 219.68,-82.5"/>
</g>
<!-- Node8 -->
<g id="node8" class="node">
<title>Node8</title>
<g id="a_node8"><a xlink:title=" ">
<polygon fill="none" stroke="#bfbfbf" points="249.5,-56.5 249.5,-75.5 303.5,-75.5 303.5,-56.5 249.5,-56.5"/>
<text text-anchor="middle" x="276.5" y="-63.5" font-family="Helvetica,sans-Serif" font-size="10.00">iostream</text>
</a>
</g>
</g>
<!-- Node1&#45;&gt;Node8 -->
<g id="edge7" class="edge">
<title>Node1&#45;&gt;Node8</title>
<path fill="none" stroke="midnightblue" d="M249.79,-112.4C254.72,-104.02 261.01,-93.33 266.25,-84.42"/>
<polygon fill="midnightblue" stroke="midnightblue" points="269.35,-86.05 271.41,-75.66 263.32,-82.5 269.35,-86.05"/>
</g>
<!-- Node9 -->
<g id="node9" class="node">
<title>Node9</title>
<g id="a_node9"><a xlink:title=" ">
<polygon fill="none" stroke="#bfbfbf" points="321.5,-56.5 321.5,-75.5 373.5,-75.5 373.5,-56.5 321.5,-56.5"/>
<text text-anchor="middle" x="347.5" y="-63.5" font-family="Helvetica,sans-Serif" font-size="10.00">sstream</text>
</a>
</g>
</g>
<!-- Node1&#45;&gt;Node9 -->
<g id="edge8" class="edge">
<title>Node1&#45;&gt;Node9</title>
<path fill="none" stroke="midnightblue" d="M266.62,-112.4C283.77,-102.77 306.36,-90.09 323.31,-80.58"/>
<polygon fill="midnightblue" stroke="midnightblue" points="325.07,-83.6 332.08,-75.66 321.64,-77.5 325.07,-83.6"/>
</g>
<!-- Node3 -->
<g id="node3" class="node">
<title>Node3</title>
<g id="a_node3"><a xlink:title=" ">
<polygon fill="none" stroke="#bfbfbf" points="0,-0.5 0,-19.5 41,-19.5 41,-0.5 0,-0.5"/>
<text text-anchor="middle" x="20.5" y="-7.5" font-family="Helvetica,sans-Serif" font-size="10.00">string</text>
</a>
</g>
</g>
<!-- Node2&#45;&gt;Node3 -->
<g id="edge2" class="edge">
<title>Node2&#45;&gt;Node3</title>
<path fill="none" stroke="midnightblue" d="M115.59,-56.44C97.25,-47.68 68.49,-33.94 47.41,-23.86"/>
<polygon fill="midnightblue" stroke="midnightblue" points="48.85,-20.67 38.32,-19.52 45.83,-26.99 48.85,-20.67"/>
</g>
<!-- Node4 -->
<g id="node4" class="node">
<title>Node4</title>
<g id="a_node4"><a xlink:title=" ">
<polygon fill="none" stroke="#bfbfbf" points="59.5,-0.5 59.5,-19.5 123.5,-19.5 123.5,-0.5 59.5,-0.5"/>
<text text-anchor="middle" x="91.5" y="-7.5" font-family="Helvetica,sans-Serif" font-size="10.00">glad/glad.h</text>
</a>
</g>
</g>
<!-- Node2&#45;&gt;Node4 -->
<g id="edge3" class="edge">
<title>Node2&#45;&gt;Node4</title>
<path fill="none" stroke="midnightblue" d="M126.56,-56.08C120.57,-48.38 111.75,-37.03 104.45,-27.65"/>
<polygon fill="midnightblue" stroke="midnightblue" points="107.21,-25.5 98.31,-19.75 101.68,-29.79 107.21,-25.5"/>
</g>
<!-- Node5 -->
<g id="node5" class="node">
<title>Node5</title>
<g id="a_node5"><a xlink:title=" ">
<polygon fill="none" stroke="#bfbfbf" points="141.5,-0.5 141.5,-19.5 211.5,-19.5 211.5,-0.5 141.5,-0.5"/>
<text text-anchor="middle" x="176.5" y="-7.5" font-family="Helvetica,sans-Serif" font-size="10.00">glm/glm.hpp</text>
</a>
</g>
</g>
<!-- Node2&#45;&gt;Node5 -->
<g id="edge4" class="edge">
<title>Node2&#45;&gt;Node5</title>
<path fill="none" stroke="midnightblue" d="M140.6,-56.08C146.74,-48.38 155.77,-37.03 163.24,-27.65"/>
<polygon fill="midnightblue" stroke="midnightblue" points="166.04,-29.75 169.53,-19.75 160.56,-25.39 166.04,-29.75"/>
</g>
<!-- Node6 -->
<g id="node6" class="node">
<title>Node6</title>
<g id="a_node6"><a xlink:title=" ">
<polygon fill="none" stroke="#bfbfbf" points="230,-0.5 230,-19.5 335,-19.5 335,-0.5 230,-0.5"/>
<text text-anchor="middle" x="282.5" y="-7.5" font-family="Helvetica,sans-Serif" font-size="10.00">glm/gtc/type_ptr.hpp</text>
</a>
</g>
</g>
<!-- Node2&#45;&gt;Node6 -->
<g id="edge5" class="edge">
<title>Node2&#45;&gt;Node6</title>
<path fill="none" stroke="midnightblue" d="M157.11,-56.44C181.96,-47.44 221.27,-33.19 249.25,-23.05"/>
<polygon fill="midnightblue" stroke="midnightblue" points="250.79,-26.21 259,-19.52 248.41,-19.63 250.79,-26.21"/>
</g>
</g>
</svg>
