<?xml version="1.0" encoding="UTF-8" standalone="no"?>
<!DOCTYPE svg PUBLIC "-//W3C//DTD SVG 1.1//EN"
 "http://www.w3.org/Graphics/SVG/1.1/DTD/svg11.dtd">
<!-- Generated by graphviz version 3.0.0 (20220226.1711)
 -->
<!-- Title: yapre/src/ysystems.inl Pages: 1 -->
<svg width="654pt" height="196pt"
 viewBox="0.00 0.00 654.00 196.00" xmlns="http://www.w3.org/2000/svg" xmlns:xlink="http://www.w3.org/1999/xlink">
<g id="graph0" class="graph" transform="scale(1 1) rotate(0) translate(4 192)">
<title>yapre/src/ysystems.inl</title>
<!-- Node1 -->
<g id="node1" class="node">
<title>Node1</title>
<g id="a_node1"><a xlink:title=" ">
<polygon fill="#bfbfbf" stroke="black" points="105,-168.5 105,-187.5 221,-187.5 221,-168.5 105,-168.5"/>
<text text-anchor="middle" x="163" y="-175.5" font-family="Helvetica,sans-Serif" font-size="10.00">yapre/src/ysystems.inl</text>
</a>
</g>
</g>
<!-- Node2 -->
<g id="node2" class="node">
<title>Node2</title>
<g id="a_node2"><a xlink:title=" ">
<polygon fill="none" stroke="#bfbfbf" points="0,-112.5 0,-131.5 38,-131.5 38,-112.5 0,-112.5"/>
<text text-anchor="middle" x="19" y="-119.5" font-family="Helvetica,sans-Serif" font-size="10.00">array</text>
</a>
</g>
</g>
<!-- Node1&#45;&gt;Node2 -->
<g id="edge1" class="edge">
<title>Node1&#45;&gt;Node2</title>
<path fill="none" stroke="midnightblue" d="M140.18,-168.44C115.15,-159.06 74.92,-143.97 47.75,-133.78"/>
<polygon fill="midnightblue" stroke="midnightblue" points="48.62,-130.37 38.03,-130.14 46.17,-136.93 48.62,-130.37"/>
</g>
<!-- Node3 -->
<g id="node3" class="node">
<title>Node3</title>
<g id="a_node3"><a xlink:href="yaudio_8h.html" target="_top" xlink:title=" ">
<polygon fill="none" stroke="black" points="56.5,-112.5 56.5,-131.5 109.5,-131.5 109.5,-112.5 56.5,-112.5"/>
<text text-anchor="middle" x="83" y="-119.5" font-family="Helvetica,sans-Serif" font-size="10.00">yaudio.h</text>
</a>
</g>
</g>
<!-- Node1&#45;&gt;Node3 -->
<g id="edge2" class="edge">
<title>Node1&#45;&gt;Node3</title>
<path fill="none" stroke="midnightblue" d="M150.15,-168.32C137.78,-159.98 118.87,-147.21 104.26,-137.35"/>
<polygon fill="midnightblue" stroke="midnightblue" points="106.07,-134.35 95.82,-131.65 102.15,-140.15 106.07,-134.35"/>
</g>
<!-- Node4 -->
<g id="node4" class="node">
<title>Node4</title>
<g id="a_node4"><a xlink:href="yinput_8h.html" target="_top" xlink:title=" ">
<polygon fill="none" stroke="black" points="227.5,-112.5 227.5,-131.5 278.5,-131.5 278.5,-112.5 227.5,-112.5"/>
<text text-anchor="middle" x="253" y="-119.5" font-family="Helvetica,sans-Serif" font-size="10.00">yinput.h</text>
</a>
</g>
</g>
<!-- Node1&#45;&gt;Node4 -->
<g id="edge3" class="edge">
<title>Node1&#45;&gt;Node4</title>
<path fill="none" stroke="midnightblue" d="M177.46,-168.32C191.5,-159.9 213.05,-146.97 229.54,-137.07"/>
<polygon fill="midnightblue" stroke="midnightblue" points="231.8,-139.8 238.58,-131.65 228.2,-133.8 231.8,-139.8"/>
</g>
<!-- Node7 -->
<g id="node7" class="node">
<title>Node7</title>
<g id="a_node7"><a xlink:href="ylua_8h.html" target="_top" xlink:title=" ">
<polygon fill="none" stroke="black" points="166.5,-112.5 166.5,-131.5 209.5,-131.5 209.5,-112.5 166.5,-112.5"/>
<text text-anchor="middle" x="188" y="-119.5" font-family="Helvetica,sans-Serif" font-size="10.00">ylua.h</text>
</a>
</g>
</g>
<!-- Node1&#45;&gt;Node7 -->
<g id="edge6" class="edge">
<title>Node1&#45;&gt;Node7</title>
<path fill="none" stroke="midnightblue" d="M167.13,-168.08C170.51,-160.77 175.42,-150.18 179.62,-141.1"/>
<polygon fill="midnightblue" stroke="midnightblue" points="182.92,-142.3 183.95,-131.75 176.57,-139.36 182.92,-142.3"/>
</g>
<!-- Node8 -->
<g id="node8" class="node">
<title>Node8</title>
<g id="a_node8"><a xlink:href="yrenderer_8h.html" target="_top" xlink:title=" ">
<polygon fill="none" stroke="black" points="372.5,-112.5 372.5,-131.5 437.5,-131.5 437.5,-112.5 372.5,-112.5"/>
<text text-anchor="middle" x="405" y="-119.5" font-family="Helvetica,sans-Serif" font-size="10.00">yrenderer.h</text>
</a>
</g>
</g>
<!-- Node1&#45;&gt;Node8 -->
<g id="edge8" class="edge">
<title>Node1&#45;&gt;Node8</title>
<path fill="none" stroke="midnightblue" d="M201.35,-168.44C245.21,-158.66 316.83,-142.67 362.4,-132.51"/>
<polygon fill="midnightblue" stroke="midnightblue" points="363.27,-135.9 372.27,-130.3 361.74,-129.07 363.27,-135.9"/>
</g>
<!-- Node15 -->
<g id="node15" class="node">
<title>Node15</title>
<g id="a_node15"><a xlink:href="yrepl_8h.html" target="_top" xlink:title=" ">
<polygon fill="none" stroke="black" points="114,-56.5 114,-75.5 160,-75.5 160,-56.5 114,-56.5"/>
<text text-anchor="middle" x="137" y="-63.5" font-family="Helvetica,sans-Serif" font-size="10.00">yrepl.h</text>
</a>
</g>
</g>
<!-- Node1&#45;&gt;Node15 -->
<g id="edge17" class="edge">
<title>Node1&#45;&gt;Node15</title>
<path fill="none" stroke="midnightblue" d="M160.96,-168.37C156.76,-150.62 147.08,-109.67 141.4,-85.6"/>
<polygon fill="midnightblue" stroke="midnightblue" points="144.74,-84.52 139.03,-75.59 137.92,-86.13 144.74,-84.52"/>
</g>
<!-- Node5 -->
<g id="node5" class="node">
<title>Node5</title>
<g id="a_node5"><a xlink:title=" ">
<polygon fill="none" stroke="#bfbfbf" points="216.5,-56.5 216.5,-75.5 275.5,-75.5 275.5,-56.5 216.5,-56.5"/>
<text text-anchor="middle" x="246" y="-63.5" font-family="Helvetica,sans-Serif" font-size="10.00">functional</text>
</a>
</g>
</g>
<!-- Node4&#45;&gt;Node5 -->
<g id="edge4" class="edge">
<title>Node4&#45;&gt;Node5</title>
<path fill="none" stroke="midnightblue" d="M251.84,-112.08C250.92,-104.93 249.58,-94.64 248.42,-85.69"/>
<polygon fill="midnightblue" stroke="midnightblue" points="251.89,-85.22 247.13,-75.75 244.95,-86.12 251.89,-85.22"/>
</g>
<!-- Node6 -->
<g id="node6" class="node">
<title>Node6</title>
<g id="a_node6"><a xlink:title=" ">
<polygon fill="none" stroke="#bfbfbf" points="283.5,-0.5 283.5,-19.5 324.5,-19.5 324.5,-0.5 283.5,-0.5"/>
<text text-anchor="middle" x="304" y="-7.5" font-family="Helvetica,sans-Serif" font-size="10.00">string</text>
</a>
</g>
</g>
<!-- Node4&#45;&gt;Node6 -->
<g id="edge5" class="edge">
<title>Node4&#45;&gt;Node6</title>
<path fill="none" stroke="midnightblue" d="M260.57,-112.26C267.75,-103.58 278.39,-89.63 285,-76 292.21,-61.12 297.23,-42.98 300.29,-29.64"/>
<polygon fill="midnightblue" stroke="midnightblue" points="303.74,-30.26 302.41,-19.75 296.9,-28.8 303.74,-30.26"/>
</g>
<!-- Node7&#45;&gt;Node6 -->
<g id="edge7" class="edge">
<title>Node7&#45;&gt;Node6</title>
<path fill="none" stroke="midnightblue" d="M188.32,-112.36C189.25,-98.8 192.89,-72.4 207,-56 224.14,-36.08 251.99,-24.43 273.46,-17.99"/>
<polygon fill="midnightblue" stroke="midnightblue" points="274.41,-21.36 283.11,-15.32 272.54,-14.61 274.41,-21.36"/>
</g>
<!-- Node8&#45;&gt;Node6 -->
<g id="edge15" class="edge">
<title>Node8&#45;&gt;Node6</title>
<path fill="none" stroke="midnightblue" d="M396.09,-112.17C387.1,-103.2 372.88,-88.83 361,-76 345.94,-59.74 329.29,-40.61 317.9,-27.34"/>
<polygon fill="midnightblue" stroke="midnightblue" points="320.39,-24.87 311.23,-19.54 315.07,-29.42 320.39,-24.87"/>
</g>
<!-- Node9 -->
<g id="node9" class="node">
<title>Node9</title>
<g id="a_node9"><a xlink:title=" ">
<polygon fill="none" stroke="#bfbfbf" points="370,-56.5 370,-75.5 440,-75.5 440,-56.5 370,-56.5"/>
<text text-anchor="middle" x="405" y="-63.5" font-family="Helvetica,sans-Serif" font-size="10.00">glm/glm.hpp</text>
</a>
</g>
</g>
<!-- Node8&#45;&gt;Node9 -->
<g id="edge9" class="edge">
<title>Node8&#45;&gt;Node9</title>
<path fill="none" stroke="midnightblue" d="M405,-112.08C405,-105.01 405,-94.86 405,-85.99"/>
<polygon fill="midnightblue" stroke="midnightblue" points="408.5,-85.75 405,-75.75 401.5,-85.75 408.5,-85.75"/>
</g>
<!-- Node10 -->
<g id="node10" class="node">
<title>Node10</title>
<g id="a_node10"><a xlink:href="ytexture_8h.html" target="_top" xlink:title=" ">
<polygon fill="none" stroke="black" points="514,-56.5 514,-75.5 574,-75.5 574,-56.5 514,-56.5"/>
<text text-anchor="middle" x="544" y="-63.5" font-family="Helvetica,sans-Serif" font-size="10.00">ytexture.h</text>
</a>
</g>
</g>
<!-- Node8&#45;&gt;Node10 -->
<g id="edge10" class="edge">
<title>Node8&#45;&gt;Node10</title>
<path fill="none" stroke="midnightblue" d="M427.02,-112.44C450.1,-103.48 486.56,-89.31 512.64,-79.18"/>
<polygon fill="midnightblue" stroke="midnightblue" points="514.02,-82.4 522.08,-75.52 511.49,-75.88 514.02,-82.4"/>
</g>
<!-- Node14 -->
<g id="node14" class="node">
<title>Node14</title>
<g id="a_node14"><a xlink:title=" ">
<polygon fill="none" stroke="#bfbfbf" points="458,-56.5 458,-75.5 496,-75.5 496,-56.5 458,-56.5"/>
<text text-anchor="middle" x="477" y="-63.5" font-family="Helvetica,sans-Serif" font-size="10.00">tuple</text>
</a>
</g>
</g>
<!-- Node8&#45;&gt;Node14 -->
<g id="edge16" class="edge">
<title>Node8&#45;&gt;Node14</title>
<path fill="none" stroke="midnightblue" d="M416.57,-112.32C427.42,-104.18 443.88,-91.84 456.88,-82.09"/>
<polygon fill="midnightblue" stroke="midnightblue" points="459.32,-84.63 465.22,-75.83 455.12,-79.03 459.32,-84.63"/>
</g>
<!-- Node10&#45;&gt;Node6 -->
<g id="edge12" class="edge">
<title>Node10&#45;&gt;Node6</title>
<path fill="none" stroke="midnightblue" d="M513.77,-58C510.81,-57.32 507.85,-56.65 505,-56 444.5,-42.25 373.69,-26.47 334.32,-17.72"/>
<polygon fill="midnightblue" stroke="midnightblue" points="335.08,-14.31 324.55,-15.56 333.56,-21.14 335.08,-14.31"/>
</g>
<!-- Node11 -->
<g id="node11" class="node">
<title>Node11</title>
<g id="a_node11"><a xlink:title=" ">
<polygon fill="none" stroke="#bfbfbf" points="594,-0.5 594,-19.5 646,-19.5 646,-0.5 594,-0.5"/>
<text text-anchor="middle" x="620" y="-7.5" font-family="Helvetica,sans-Serif" font-size="10.00">memory</text>
</a>
</g>
</g>
<!-- Node10&#45;&gt;Node11 -->
<g id="edge11" class="edge">
<title>Node10&#45;&gt;Node11</title>
<path fill="none" stroke="midnightblue" d="M556.21,-56.32C567.78,-48.11 585.38,-35.6 599.16,-25.81"/>
<polygon fill="midnightblue" stroke="midnightblue" points="601.44,-28.48 607.57,-19.83 597.39,-22.77 601.44,-28.48"/>
</g>
<!-- Node12 -->
<g id="node12" class="node">
<title>Node12</title>
<g id="a_node12"><a xlink:title=" ">
<polygon fill="none" stroke="#bfbfbf" points="450,-0.5 450,-19.5 494,-19.5 494,-0.5 450,-0.5"/>
<text text-anchor="middle" x="472" y="-7.5" font-family="Helvetica,sans-Serif" font-size="10.00">vector</text>
</a>
</g>
</g>
<!-- Node10&#45;&gt;Node12 -->
<g id="edge13" class="edge">
<title>Node10&#45;&gt;Node12</title>
<path fill="none" stroke="midnightblue" d="M532.43,-56.32C521.58,-48.18 505.12,-35.84 492.12,-26.09"/>
<polygon fill="midnightblue" stroke="midnightblue" points="493.88,-23.03 483.78,-19.83 489.68,-28.63 493.88,-23.03"/>
</g>
<!-- Node13 -->
<g id="node13" class="node">
<title>Node13</title>
<g id="a_node13"><a xlink:title=" ">
<polygon fill="none" stroke="#bfbfbf" points="512,-0.5 512,-19.5 576,-19.5 576,-0.5 512,-0.5"/>
<text text-anchor="middle" x="544" y="-7.5" font-family="Helvetica,sans-Serif" font-size="10.00">glad/glad.h</text>
</a>
</g>
</g>
<!-- Node10&#45;&gt;Node13 -->
<g id="edge14" class="edge">
<title>Node10&#45;&gt;Node13</title>
<path fill="none" stroke="midnightblue" d="M544,-56.08C544,-49.01 544,-38.86 544,-29.99"/>
<polygon fill="midnightblue" stroke="midnightblue" points="547.5,-29.75 544,-19.75 540.5,-29.75 547.5,-29.75"/>
</g>
<!-- Node15&#45;&gt;Node6 -->
<g id="edge18" class="edge">
<title>Node15&#45;&gt;Node6</title>
<path fill="none" stroke="midnightblue" d="M160.22,-57.49C189.74,-47.95 240.78,-31.44 273.43,-20.88"/>
<polygon fill="midnightblue" stroke="midnightblue" points="274.9,-24.09 283.34,-17.68 272.75,-17.43 274.9,-24.09"/>
</g>
</g>
</svg>
