<?xml version="1.0" encoding="UTF-8" standalone="no"?>
<!DOCTYPE svg PUBLIC "-//W3C//DTD SVG 1.1//EN"
 "http://www.w3.org/Graphics/SVG/1.1/DTD/svg11.dtd">
<!-- Generated by graphviz version 2.43.0 (0)
 -->
<!-- Title: yapre/src/ysystems.inl Pages: 1 -->
<svg width="717pt" height="196pt"
 viewBox="0.00 0.00 717.00 196.00" xmlns="http://www.w3.org/2000/svg" xmlns:xlink="http://www.w3.org/1999/xlink">
<g id="graph0" class="graph" transform="scale(1 1) rotate(0) translate(4 192)">
<title>yapre/src/ysystems.inl</title>
<!-- Node1 -->
<g id="node1" class="node">
<title>Node1</title>
<g id="a_node1"><a xlink:title=" ">
<polygon fill="#bfbfbf" stroke="black" points="125.5,-168.5 125.5,-187.5 252.5,-187.5 252.5,-168.5 125.5,-168.5"/>
<text text-anchor="middle" x="189" y="-175.5" font-family="Helvetica,sans-Serif" font-size="10.00">yapre/src/ysystems.inl</text>
</a>
</g>
</g>
<!-- Node2 -->
<g id="node2" class="node">
<title>Node2</title>
<g id="a_node2"><a xlink:title=" ">
<polygon fill="none" stroke="#bfbfbf" points="0,-112.5 0,-131.5 42,-131.5 42,-112.5 0,-112.5"/>
<text text-anchor="middle" x="21" y="-119.5" font-family="Helvetica,sans-Serif" font-size="10.00">array</text>
</a>
</g>
</g>
<!-- Node1&#45;&gt;Node2 -->
<g id="edge1" class="edge">
<title>Node1&#45;&gt;Node2</title>
<path fill="none" stroke="midnightblue" d="M162.38,-168.44C132.32,-158.78 83.5,-143.09 51.81,-132.9"/>
<polygon fill="midnightblue" stroke="midnightblue" points="52.77,-129.53 42.18,-129.81 50.63,-136.2 52.77,-129.53"/>
</g>
<!-- Node3 -->
<g id="node3" class="node">
<title>Node3</title>
<g id="a_node3"><a xlink:href="yaudio_8h.html" target="_top" xlink:title=" ">
<polygon fill="none" stroke="black" points="60.5,-112.5 60.5,-131.5 119.5,-131.5 119.5,-112.5 60.5,-112.5"/>
<text text-anchor="middle" x="90" y="-119.5" font-family="Helvetica,sans-Serif" font-size="10.00">yaudio.h</text>
</a>
</g>
</g>
<!-- Node1&#45;&gt;Node3 -->
<g id="edge2" class="edge">
<title>Node1&#45;&gt;Node3</title>
<path fill="none" stroke="midnightblue" d="M173.09,-168.32C157.36,-159.74 133.06,-146.49 114.79,-136.52"/>
<polygon fill="midnightblue" stroke="midnightblue" points="116.32,-133.37 105.87,-131.65 112.97,-139.52 116.32,-133.37"/>
</g>
<!-- Node4 -->
<g id="node4" class="node">
<title>Node4</title>
<g id="a_node4"><a xlink:href="yinput_8h.html" target="_top" xlink:title=" ">
<polygon fill="none" stroke="black" points="253,-112.5 253,-131.5 309,-131.5 309,-112.5 253,-112.5"/>
<text text-anchor="middle" x="281" y="-119.5" font-family="Helvetica,sans-Serif" font-size="10.00">yinput.h</text>
</a>
</g>
</g>
<!-- Node1&#45;&gt;Node4 -->
<g id="edge3" class="edge">
<title>Node1&#45;&gt;Node4</title>
<path fill="none" stroke="midnightblue" d="M203.78,-168.32C218.27,-159.82 240.57,-146.73 257.49,-136.8"/>
<polygon fill="midnightblue" stroke="midnightblue" points="259.4,-139.74 266.26,-131.65 255.86,-133.7 259.4,-139.74"/>
</g>
<!-- Node7 -->
<g id="node7" class="node">
<title>Node7</title>
<g id="a_node7"><a xlink:href="ylua_8h.html" target="_top" xlink:title=" ">
<polygon fill="none" stroke="black" points="183.5,-56.5 183.5,-75.5 230.5,-75.5 230.5,-56.5 183.5,-56.5"/>
<text text-anchor="middle" x="207" y="-63.5" font-family="Helvetica,sans-Serif" font-size="10.00">ylua.h</text>
</a>
</g>
</g>
<!-- Node1&#45;&gt;Node7 -->
<g id="edge6" class="edge">
<title>Node1&#45;&gt;Node7</title>
<path fill="none" stroke="midnightblue" d="M190.59,-168.38C192.25,-159.33 194.9,-144.68 197,-132 199.57,-116.49 202.27,-98.87 204.21,-85.88"/>
<polygon fill="midnightblue" stroke="midnightblue" points="207.7,-86.25 205.71,-75.84 200.77,-85.22 207.7,-86.25"/>
</g>
<!-- Node8 -->
<g id="node8" class="node">
<title>Node8</title>
<g id="a_node8"><a xlink:href="yrenderer_8h.html" target="_top" xlink:title=" ">
<polygon fill="none" stroke="black" points="411,-112.5 411,-131.5 483,-131.5 483,-112.5 411,-112.5"/>
<text text-anchor="middle" x="447" y="-119.5" font-family="Helvetica,sans-Serif" font-size="10.00">yrenderer.h</text>
</a>
</g>
</g>
<!-- Node1&#45;&gt;Node8 -->
<g id="edge8" class="edge">
<title>Node1&#45;&gt;Node8</title>
<path fill="none" stroke="midnightblue" d="M229.88,-168.44C276.44,-158.7 352.34,-142.81 400.95,-132.64"/>
<polygon fill="midnightblue" stroke="midnightblue" points="401.82,-136.03 410.89,-130.56 400.38,-129.18 401.82,-136.03"/>
</g>
<!-- Node15 -->
<g id="node15" class="node">
<title>Node15</title>
<g id="a_node15"><a xlink:href="yrepl_8h.html" target="_top" xlink:title=" ">
<polygon fill="none" stroke="black" points="138,-112.5 138,-131.5 188,-131.5 188,-112.5 138,-112.5"/>
<text text-anchor="middle" x="163" y="-119.5" font-family="Helvetica,sans-Serif" font-size="10.00">yrepl.h</text>
</a>
</g>
</g>
<!-- Node1&#45;&gt;Node15 -->
<g id="edge17" class="edge">
<title>Node1&#45;&gt;Node15</title>
<path fill="none" stroke="midnightblue" d="M184.71,-168.08C181.15,-160.69 175.98,-149.95 171.58,-140.81"/>
<polygon fill="midnightblue" stroke="midnightblue" points="174.71,-139.24 167.21,-131.75 168.4,-142.28 174.71,-139.24"/>
</g>
<!-- Node5 -->
<g id="node5" class="node">
<title>Node5</title>
<g id="a_node5"><a xlink:title=" ">
<polygon fill="none" stroke="#bfbfbf" points="248.5,-56.5 248.5,-75.5 313.5,-75.5 313.5,-56.5 248.5,-56.5"/>
<text text-anchor="middle" x="281" y="-63.5" font-family="Helvetica,sans-Serif" font-size="10.00">functional</text>
</a>
</g>
</g>
<!-- Node4&#45;&gt;Node5 -->
<g id="edge4" class="edge">
<title>Node4&#45;&gt;Node5</title>
<path fill="none" stroke="midnightblue" d="M281,-112.08C281,-105.01 281,-94.86 281,-85.99"/>
<polygon fill="midnightblue" stroke="midnightblue" points="284.5,-85.75 281,-75.75 277.5,-85.75 284.5,-85.75"/>
</g>
<!-- Node6 -->
<g id="node6" class="node">
<title>Node6</title>
<g id="a_node6"><a xlink:title=" ">
<polygon fill="none" stroke="#bfbfbf" points="320,-0.5 320,-19.5 364,-19.5 364,-0.5 320,-0.5"/>
<text text-anchor="middle" x="342" y="-7.5" font-family="Helvetica,sans-Serif" font-size="10.00">string</text>
</a>
</g>
</g>
<!-- Node4&#45;&gt;Node6 -->
<g id="edge5" class="edge">
<title>Node4&#45;&gt;Node6</title>
<path fill="none" stroke="midnightblue" d="M291.44,-112.4C300.96,-104.03 314.75,-90.49 323,-76 331.18,-61.63 336.11,-43.44 338.89,-29.95"/>
<polygon fill="midnightblue" stroke="midnightblue" points="342.36,-30.39 340.74,-19.92 335.48,-29.12 342.36,-30.39"/>
</g>
<!-- Node7&#45;&gt;Node6 -->
<g id="edge7" class="edge">
<title>Node7&#45;&gt;Node6</title>
<path fill="none" stroke="midnightblue" d="M228.39,-56.44C250.71,-47.52 285.9,-33.44 311.21,-23.32"/>
<polygon fill="midnightblue" stroke="midnightblue" points="312.72,-26.48 320.71,-19.52 310.12,-19.98 312.72,-26.48"/>
</g>
<!-- Node8&#45;&gt;Node6 -->
<g id="edge15" class="edge">
<title>Node8&#45;&gt;Node6</title>
<path fill="none" stroke="midnightblue" d="M437.17,-112.3C427.28,-103.43 411.71,-89.14 399,-76 383.59,-60.07 367,-40.89 355.71,-27.51"/>
<polygon fill="midnightblue" stroke="midnightblue" points="358.23,-25.07 349.12,-19.65 352.86,-29.56 358.23,-25.07"/>
</g>
<!-- Node9 -->
<g id="node9" class="node">
<title>Node9</title>
<g id="a_node9"><a xlink:title=" ">
<polygon fill="none" stroke="#bfbfbf" points="408,-56.5 408,-75.5 486,-75.5 486,-56.5 408,-56.5"/>
<text text-anchor="middle" x="447" y="-63.5" font-family="Helvetica,sans-Serif" font-size="10.00">glm/glm.hpp</text>
</a>
</g>
</g>
<!-- Node8&#45;&gt;Node9 -->
<g id="edge9" class="edge">
<title>Node8&#45;&gt;Node9</title>
<path fill="none" stroke="midnightblue" d="M447,-112.08C447,-105.01 447,-94.86 447,-85.99"/>
<polygon fill="midnightblue" stroke="midnightblue" points="450.5,-85.75 447,-75.75 443.5,-85.75 450.5,-85.75"/>
</g>
<!-- Node10 -->
<g id="node10" class="node">
<title>Node10</title>
<g id="a_node10"><a xlink:href="ytexture_8h.html" target="_top" xlink:title=" ">
<polygon fill="none" stroke="black" points="563.5,-56.5 563.5,-75.5 630.5,-75.5 630.5,-56.5 563.5,-56.5"/>
<text text-anchor="middle" x="597" y="-63.5" font-family="Helvetica,sans-Serif" font-size="10.00">ytexture.h</text>
</a>
</g>
</g>
<!-- Node8&#45;&gt;Node10 -->
<g id="edge10" class="edge">
<title>Node8&#45;&gt;Node10</title>
<path fill="none" stroke="midnightblue" d="M470.77,-112.44C495.89,-103.4 535.71,-89.06 563.9,-78.92"/>
<polygon fill="midnightblue" stroke="midnightblue" points="565.12,-82.2 573.34,-75.52 562.75,-75.61 565.12,-82.2"/>
</g>
<!-- Node14 -->
<g id="node14" class="node">
<title>Node14</title>
<g id="a_node14"><a xlink:title=" ">
<polygon fill="none" stroke="#bfbfbf" points="504.5,-56.5 504.5,-75.5 545.5,-75.5 545.5,-56.5 504.5,-56.5"/>
<text text-anchor="middle" x="525" y="-63.5" font-family="Helvetica,sans-Serif" font-size="10.00">tuple</text>
</a>
</g>
</g>
<!-- Node8&#45;&gt;Node14 -->
<g id="edge16" class="edge">
<title>Node8&#45;&gt;Node14</title>
<path fill="none" stroke="midnightblue" d="M459.53,-112.32C471.59,-103.98 490.03,-91.21 504.27,-81.35"/>
<polygon fill="midnightblue" stroke="midnightblue" points="506.27,-84.22 512.5,-75.65 502.28,-78.47 506.27,-84.22"/>
</g>
<!-- Node10&#45;&gt;Node6 -->
<g id="edge12" class="edge">
<title>Node10&#45;&gt;Node6</title>
<path fill="none" stroke="midnightblue" d="M563.08,-57.72C560.34,-57.14 557.63,-56.56 555,-56 490.76,-42.33 415.59,-26.48 373.93,-17.71"/>
<polygon fill="midnightblue" stroke="midnightblue" points="374.59,-14.28 364.08,-15.64 373.15,-21.13 374.59,-14.28"/>
</g>
<!-- Node11 -->
<g id="node11" class="node">
<title>Node11</title>
<g id="a_node11"><a xlink:title=" ">
<polygon fill="none" stroke="#bfbfbf" points="651,-0.5 651,-19.5 709,-19.5 709,-0.5 651,-0.5"/>
<text text-anchor="middle" x="680" y="-7.5" font-family="Helvetica,sans-Serif" font-size="10.00">memory</text>
</a>
</g>
</g>
<!-- Node10&#45;&gt;Node11 -->
<g id="edge11" class="edge">
<title>Node10&#45;&gt;Node11</title>
<path fill="none" stroke="midnightblue" d="M610.34,-56.32C623.16,-47.98 642.78,-35.21 657.94,-25.35"/>
<polygon fill="midnightblue" stroke="midnightblue" points="660.22,-28.04 666.7,-19.65 656.41,-22.17 660.22,-28.04"/>
</g>
<!-- Node12 -->
<g id="node12" class="node">
<title>Node12</title>
<g id="a_node12"><a xlink:title=" ">
<polygon fill="none" stroke="#bfbfbf" points="496.5,-0.5 496.5,-19.5 543.5,-19.5 543.5,-0.5 496.5,-0.5"/>
<text text-anchor="middle" x="520" y="-7.5" font-family="Helvetica,sans-Serif" font-size="10.00">vector</text>
</a>
</g>
</g>
<!-- Node10&#45;&gt;Node12 -->
<g id="edge13" class="edge">
<title>Node10&#45;&gt;Node12</title>
<path fill="none" stroke="midnightblue" d="M584.63,-56.32C572.84,-48.06 554.87,-35.45 540.86,-25.63"/>
<polygon fill="midnightblue" stroke="midnightblue" points="542.54,-22.53 532.34,-19.65 538.52,-28.26 542.54,-22.53"/>
</g>
<!-- Node13 -->
<g id="node13" class="node">
<title>Node13</title>
<g id="a_node13"><a xlink:title=" ">
<polygon fill="none" stroke="#bfbfbf" points="561.5,-0.5 561.5,-19.5 632.5,-19.5 632.5,-0.5 561.5,-0.5"/>
<text text-anchor="middle" x="597" y="-7.5" font-family="Helvetica,sans-Serif" font-size="10.00">glad/glad.h</text>
</a>
</g>
</g>
<!-- Node10&#45;&gt;Node13 -->
<g id="edge14" class="edge">
<title>Node10&#45;&gt;Node13</title>
<path fill="none" stroke="midnightblue" d="M597,-56.08C597,-49.01 597,-38.86 597,-29.99"/>
<polygon fill="midnightblue" stroke="midnightblue" points="600.5,-29.75 597,-19.75 593.5,-29.75 600.5,-29.75"/>
</g>
<!-- Node15&#45;&gt;Node6 -->
<g id="edge18" class="edge">
<title>Node15&#45;&gt;Node6</title>
<path fill="none" stroke="midnightblue" d="M161.76,-112.16C160.34,-98.34 159.83,-71.57 174,-56 192.07,-36.14 266.11,-22.16 309.63,-15.47"/>
<polygon fill="midnightblue" stroke="midnightblue" points="310.35,-18.9 319.73,-13.97 309.32,-11.98 310.35,-18.9"/>
</g>
</g>
</svg>
