<?xml version="1.0" encoding="UTF-8" standalone="no"?>
<!DOCTYPE svg PUBLIC "-//W3C//DTD SVG 1.1//EN"
 "http://www.w3.org/Graphics/SVG/1.1/DTD/svg11.dtd">
<!-- Generated by graphviz version 2.43.0 (0)
 -->
<!-- Title: yapre/src/systems/graphics/ytexture.h Pages: 1 -->
<svg width="283pt" height="95pt"
 viewBox="0.00 0.00 282.50 95.00" xmlns="http://www.w3.org/2000/svg" xmlns:xlink="http://www.w3.org/1999/xlink">
<g id="graph0" class="graph" transform="scale(1 1) rotate(0) translate(4 91)">
<title>yapre/src/systems/graphics/ytexture.h</title>
<!-- Node1 -->
<g id="node1" class="node">
<title>Node1</title>
<g id="a_node1"><a xlink:title=" ">
<polygon fill="#bfbfbf" stroke="black" points="55,-56.5 55,-86.5 205,-86.5 205,-56.5 55,-56.5"/>
<text text-anchor="start" x="63" y="-74.5" font-family="Helvetica,sans-Serif" font-size="10.00">yapre/src/systems/graphics</text>
<text text-anchor="middle" x="130" y="-63.5" font-family="Helvetica,sans-Serif" font-size="10.00">/ytexture.h</text>
</a>
</g>
</g>
<!-- Node2 -->
<g id="node2" class="node">
<title>Node2</title>
<g id="a_node2"><a xlink:title=" ">
<polygon fill="none" stroke="#bfbfbf" points="0,-0.5 0,-19.5 58,-19.5 58,-0.5 0,-0.5"/>
<text text-anchor="middle" x="29" y="-7.5" font-family="Helvetica,sans-Serif" font-size="10.00">memory</text>
</a>
</g>
</g>
<!-- Node1&#45;&gt;Node2 -->
<g id="edge1" class="edge">
<title>Node1&#45;&gt;Node2</title>
<path fill="none" stroke="midnightblue" d="M106.06,-56.4C89.87,-46.86 68.59,-34.32 52.5,-24.84"/>
<polygon fill="midnightblue" stroke="midnightblue" points="54.09,-21.72 43.7,-19.66 50.54,-27.75 54.09,-21.72"/>
</g>
<!-- Node3 -->
<g id="node3" class="node">
<title>Node3</title>
<g id="a_node3"><a xlink:title=" ">
<polygon fill="none" stroke="#bfbfbf" points="76,-0.5 76,-19.5 120,-19.5 120,-0.5 76,-0.5"/>
<text text-anchor="middle" x="98" y="-7.5" font-family="Helvetica,sans-Serif" font-size="10.00">string</text>
</a>
</g>
</g>
<!-- Node1&#45;&gt;Node3 -->
<g id="edge2" class="edge">
<title>Node1&#45;&gt;Node3</title>
<path fill="none" stroke="midnightblue" d="M122.42,-56.4C117.96,-48.11 112.28,-37.55 107.52,-28.71"/>
<polygon fill="midnightblue" stroke="midnightblue" points="110.48,-26.81 102.66,-19.66 104.31,-30.12 110.48,-26.81"/>
</g>
<!-- Node4 -->
<g id="node4" class="node">
<title>Node4</title>
<g id="a_node4"><a xlink:title=" ">
<polygon fill="none" stroke="#bfbfbf" points="138.5,-0.5 138.5,-19.5 185.5,-19.5 185.5,-0.5 138.5,-0.5"/>
<text text-anchor="middle" x="162" y="-7.5" font-family="Helvetica,sans-Serif" font-size="10.00">vector</text>
</a>
</g>
</g>
<!-- Node1&#45;&gt;Node4 -->
<g id="edge3" class="edge">
<title>Node1&#45;&gt;Node4</title>
<path fill="none" stroke="midnightblue" d="M137.58,-56.4C142.04,-48.11 147.72,-37.55 152.48,-28.71"/>
<polygon fill="midnightblue" stroke="midnightblue" points="155.69,-30.12 157.34,-19.66 149.52,-26.81 155.69,-30.12"/>
</g>
<!-- Node5 -->
<g id="node5" class="node">
<title>Node5</title>
<g id="a_node5"><a xlink:title=" ">
<polygon fill="none" stroke="#bfbfbf" points="203.5,-0.5 203.5,-19.5 274.5,-19.5 274.5,-0.5 203.5,-0.5"/>
<text text-anchor="middle" x="239" y="-7.5" font-family="Helvetica,sans-Serif" font-size="10.00">glad/glad.h</text>
</a>
</g>
</g>
<!-- Node1&#45;&gt;Node5 -->
<g id="edge4" class="edge">
<title>Node1&#45;&gt;Node5</title>
<path fill="none" stroke="midnightblue" d="M155.83,-56.4C173.47,-46.77 196.7,-34.09 214.13,-24.58"/>
<polygon fill="midnightblue" stroke="midnightblue" points="216.04,-27.52 223.14,-19.66 212.69,-21.38 216.04,-27.52"/>
</g>
</g>
</svg>
