<?xml version="1.0" encoding="UTF-8" standalone="no"?>
<!DOCTYPE svg PUBLIC "-//W3C//DTD SVG 1.1//EN"
 "http://www.w3.org/Graphics/SVG/1.1/DTD/svg11.dtd">
<!-- Generated by graphviz version 3.0.0 (20220226.1711)
 -->
<!-- Title: yapre/src/systems/graphics/ytexture.h Pages: 1 -->
<svg width="901pt" height="229pt"
 viewBox="0.00 0.00 900.50 229.00" xmlns="http://www.w3.org/2000/svg" xmlns:xlink="http://www.w3.org/1999/xlink">
<g id="graph0" class="graph" transform="scale(1 1) rotate(0) translate(4 225)">
<title>yapre/src/systems/graphics/ytexture.h</title>
<!-- Node1 -->
<g id="node1" class="node">
<title>Node1</title>
<g id="a_node1"><a xlink:title=" ">
<polygon fill="#bfbfbf" stroke="black" points="194,-190.5 194,-220.5 331,-220.5 331,-190.5 194,-190.5"/>
<text text-anchor="start" x="202" y="-208.5" font-family="Helvetica,sans-Serif" font-size="10.00">yapre/src/systems/graphics</text>
<text text-anchor="middle" x="262.5" y="-197.5" font-family="Helvetica,sans-Serif" font-size="10.00">/ytexture.h</text>
</a>
</g>
</g>
<!-- Node2 -->
<g id="node2" class="node">
<title>Node2</title>
<g id="a_node2"><a xlink:href="yfont_8cpp.html" target="_top" xlink:title=" ">
<polygon fill="none" stroke="black" points="0,-56.5 0,-86.5 137,-86.5 137,-56.5 0,-56.5"/>
<text text-anchor="start" x="8" y="-74.5" font-family="Helvetica,sans-Serif" font-size="10.00">yapre/src/systems/graphics</text>
<text text-anchor="middle" x="68.5" y="-63.5" font-family="Helvetica,sans-Serif" font-size="10.00">/yfont.cpp</text>
</a>
</g>
</g>
<!-- Node1&#45;&gt;Node2 -->
<g id="edge1" class="edge">
<title>Node1&#45;&gt;Node2</title>
<path fill="none" stroke="midnightblue" d="M183.81,-199.29C149.89,-193.07 112.37,-180.19 87.5,-154 70.09,-135.67 67.57,-104.6 67.74,-86.59"/>
<polygon fill="midnightblue" stroke="midnightblue" points="183.3,-202.75 193.74,-200.95 184.45,-195.85 183.3,-202.75"/>
</g>
<!-- Node3 -->
<g id="node3" class="node">
<title>Node3</title>
<g id="a_node3"><a xlink:href="yfont_8h.html" target="_top" xlink:title=" ">
<polygon fill="none" stroke="black" points="97,-123.5 97,-153.5 234,-153.5 234,-123.5 97,-123.5"/>
<text text-anchor="start" x="105" y="-141.5" font-family="Helvetica,sans-Serif" font-size="10.00">yapre/src/systems/graphics</text>
<text text-anchor="middle" x="165.5" y="-130.5" font-family="Helvetica,sans-Serif" font-size="10.00">/yfont.h</text>
</a>
</g>
</g>
<!-- Node1&#45;&gt;Node3 -->
<g id="edge2" class="edge">
<title>Node1&#45;&gt;Node3</title>
<path fill="none" stroke="midnightblue" d="M233,-184.73C217.99,-174.68 200.1,-162.68 186.51,-153.58"/>
<polygon fill="midnightblue" stroke="midnightblue" points="231.2,-187.74 241.45,-190.4 235.09,-181.92 231.2,-187.74"/>
</g>
<!-- Node4 -->
<g id="node4" class="node">
<title>Node4</title>
<g id="a_node4"><a xlink:href="yrenderer_8cpp.html" target="_top" xlink:title=" ">
<polygon fill="none" stroke="black" points="155,-62 155,-81 314,-81 314,-62 155,-62"/>
<text text-anchor="middle" x="234.5" y="-69" font-family="Helvetica,sans-Serif" font-size="10.00">yapre/src/systems/yrenderer.cpp</text>
</a>
</g>
</g>
<!-- Node1&#45;&gt;Node4 -->
<g id="edge6" class="edge">
<title>Node1&#45;&gt;Node4</title>
<path fill="none" stroke="midnightblue" d="M257.37,-180.32C251.02,-150.38 240.53,-100.91 236.32,-81.1"/>
<polygon fill="midnightblue" stroke="midnightblue" points="254,-181.32 259.5,-190.37 260.85,-179.87 254,-181.32"/>
</g>
<!-- Node5 -->
<g id="node5" class="node">
<title>Node5</title>
<g id="a_node5"><a xlink:href="ytexture_8cpp.html" target="_top" xlink:title=" ">
<polygon fill="none" stroke="black" points="291,-123.5 291,-153.5 428,-153.5 428,-123.5 291,-123.5"/>
<text text-anchor="start" x="299" y="-141.5" font-family="Helvetica,sans-Serif" font-size="10.00">yapre/src/systems/graphics</text>
<text text-anchor="middle" x="359.5" y="-130.5" font-family="Helvetica,sans-Serif" font-size="10.00">/ytexture.cpp</text>
</a>
</g>
</g>
<!-- Node1&#45;&gt;Node5 -->
<g id="edge5" class="edge">
<title>Node1&#45;&gt;Node5</title>
<path fill="none" stroke="midnightblue" d="M292,-184.73C307.01,-174.68 324.9,-162.68 338.49,-153.58"/>
<polygon fill="midnightblue" stroke="midnightblue" points="289.91,-181.92 283.55,-190.4 293.8,-187.74 289.91,-181.92"/>
</g>
<!-- Node6 -->
<g id="node6" class="node">
<title>Node6</title>
<g id="a_node6"><a xlink:href="yrenderer_8h.html" target="_top" xlink:title=" ">
<polygon fill="none" stroke="black" points="466,-129 466,-148 615,-148 615,-129 466,-129"/>
<text text-anchor="middle" x="540.5" y="-136" font-family="Helvetica,sans-Serif" font-size="10.00">yapre/src/systems/yrenderer.h</text>
</a>
</g>
</g>
<!-- Node1&#45;&gt;Node6 -->
<g id="edge7" class="edge">
<title>Node1&#45;&gt;Node6</title>
<path fill="none" stroke="midnightblue" d="M332.43,-188.15C386.98,-175.39 460.56,-158.19 504.02,-148.03"/>
<polygon fill="midnightblue" stroke="midnightblue" points="331.42,-184.79 322.48,-190.48 333.01,-191.61 331.42,-184.79"/>
</g>
<!-- Node3&#45;&gt;Node2 -->
<g id="edge3" class="edge">
<title>Node3&#45;&gt;Node2</title>
<path fill="none" stroke="midnightblue" d="M136,-117.73C120.99,-107.68 103.1,-95.68 89.51,-86.58"/>
<polygon fill="midnightblue" stroke="midnightblue" points="134.2,-120.74 144.45,-123.4 138.09,-114.92 134.2,-120.74"/>
</g>
<!-- Node3&#45;&gt;Node4 -->
<g id="edge4" class="edge">
<title>Node3&#45;&gt;Node4</title>
<path fill="none" stroke="midnightblue" d="M187.97,-116.34C200.64,-104.4 215.78,-90.14 225.27,-81.19"/>
<polygon fill="midnightblue" stroke="midnightblue" points="185.35,-113.99 180.47,-123.4 190.15,-119.09 185.35,-113.99"/>
</g>
<!-- Node6&#45;&gt;Node4 -->
<g id="edge9" class="edge">
<title>Node6&#45;&gt;Node4</title>
<path fill="none" stroke="midnightblue" d="M490.14,-126.8C429.92,-114.01 330.34,-92.86 274.91,-81.08"/>
<polygon fill="midnightblue" stroke="midnightblue" points="489.67,-130.28 500.18,-128.94 491.13,-123.43 489.67,-130.28"/>
</g>
<!-- Node7 -->
<g id="node7" class="node">
<title>Node7</title>
<g id="a_node7"><a xlink:href="yinput_8cpp.html" target="_top" xlink:title=" ">
<polygon fill="none" stroke="black" points="332.5,-62 332.5,-81 478.5,-81 478.5,-62 332.5,-62"/>
<text text-anchor="middle" x="405.5" y="-69" font-family="Helvetica,sans-Serif" font-size="10.00">yapre/src/systems/yinput.cpp</text>
</a>
</g>
</g>
<!-- Node6&#45;&gt;Node7 -->
<g id="edge8" class="edge">
<title>Node6&#45;&gt;Node7</title>
<path fill="none" stroke="midnightblue" d="M513.38,-124.44C486.64,-111.57 446.53,-92.26 423.5,-81.17"/>
<polygon fill="midnightblue" stroke="midnightblue" points="512.04,-127.68 522.57,-128.87 515.08,-121.38 512.04,-127.68"/>
</g>
<!-- Node8 -->
<g id="node8" class="node">
<title>Node8</title>
<g id="a_node8"><a xlink:href="yluainterface_8inl.html" target="_top" xlink:title=" ">
<polygon fill="none" stroke="black" points="496.5,-62 496.5,-81 624.5,-81 624.5,-62 496.5,-62"/>
<text text-anchor="middle" x="560.5" y="-69" font-family="Helvetica,sans-Serif" font-size="10.00">yapre/src/yluainterface.inl</text>
</a>
</g>
</g>
<!-- Node6&#45;&gt;Node8 -->
<g id="edge10" class="edge">
<title>Node6&#45;&gt;Node8</title>
<path fill="none" stroke="midnightblue" d="M546.22,-118.91C550.04,-106.49 554.89,-90.72 557.85,-81.13"/>
<polygon fill="midnightblue" stroke="midnightblue" points="542.79,-118.15 543.2,-128.73 549.48,-120.21 542.79,-118.15"/>
</g>
<!-- Node10 -->
<g id="node10" class="node">
<title>Node10</title>
<g id="a_node10"><a xlink:href="ysystems_8inl.html" target="_top" xlink:title=" ">
<polygon fill="none" stroke="black" points="642.5,-62 642.5,-81 758.5,-81 758.5,-62 642.5,-62"/>
<text text-anchor="middle" x="700.5" y="-69" font-family="Helvetica,sans-Serif" font-size="10.00">yapre/src/ysystems.inl</text>
</a>
</g>
</g>
<!-- Node6&#45;&gt;Node10 -->
<g id="edge12" class="edge">
<title>Node6&#45;&gt;Node10</title>
<path fill="none" stroke="midnightblue" d="M571.01,-125.1C602.78,-112.2 651.69,-92.33 679.42,-81.06"/>
<polygon fill="midnightblue" stroke="midnightblue" points="569.69,-121.86 561.75,-128.87 572.33,-128.35 569.69,-121.86"/>
</g>
<!-- Node12 -->
<g id="node12" class="node">
<title>Node12</title>
<g id="a_node12"><a xlink:href="ywindow_8cpp.html" target="_top" xlink:title=" ">
<polygon fill="none" stroke="black" points="776.5,-62 776.5,-81 892.5,-81 892.5,-62 776.5,-62"/>
<text text-anchor="middle" x="834.5" y="-69" font-family="Helvetica,sans-Serif" font-size="10.00">yapre/src/ywindow.cpp</text>
</a>
</g>
</g>
<!-- Node6&#45;&gt;Node12 -->
<g id="edge14" class="edge">
<title>Node6&#45;&gt;Node12</title>
<path fill="none" stroke="midnightblue" d="M589.24,-126.72C647.13,-113.92 742.53,-92.83 795.68,-81.08"/>
<polygon fill="midnightblue" stroke="midnightblue" points="588.25,-123.36 579.24,-128.94 589.76,-130.19 588.25,-123.36"/>
</g>
<!-- Node9 -->
<g id="node9" class="node">
<title>Node9</title>
<g id="a_node9"><a xlink:href="ylua_8cpp.html" target="_top" xlink:title=" ">
<polygon fill="none" stroke="black" points="492,-0.5 492,-19.5 629,-19.5 629,-0.5 492,-0.5"/>
<text text-anchor="middle" x="560.5" y="-7.5" font-family="Helvetica,sans-Serif" font-size="10.00">yapre/src/systems/ylua.cpp</text>
</a>
</g>
</g>
<!-- Node8&#45;&gt;Node9 -->
<g id="edge11" class="edge">
<title>Node8&#45;&gt;Node9</title>
<path fill="none" stroke="midnightblue" d="M560.5,-51.82C560.5,-41 560.5,-27.9 560.5,-19.51"/>
<polygon fill="midnightblue" stroke="midnightblue" points="557,-51.98 560.5,-61.98 564,-51.98 557,-51.98"/>
</g>
<!-- Node11 -->
<g id="node11" class="node">
<title>Node11</title>
<g id="a_node11"><a xlink:href="ycore_8cpp.html" target="_top" xlink:title=" ">
<polygon fill="none" stroke="black" points="649,-0.5 649,-19.5 752,-19.5 752,-0.5 649,-0.5"/>
<text text-anchor="middle" x="700.5" y="-7.5" font-family="Helvetica,sans-Serif" font-size="10.00">yapre/src/ycore.cpp</text>
</a>
</g>
</g>
<!-- Node10&#45;&gt;Node11 -->
<g id="edge13" class="edge">
<title>Node10&#45;&gt;Node11</title>
<path fill="none" stroke="midnightblue" d="M700.5,-51.82C700.5,-41 700.5,-27.9 700.5,-19.51"/>
<polygon fill="midnightblue" stroke="midnightblue" points="697,-51.98 700.5,-61.98 704,-51.98 697,-51.98"/>
</g>
</g>
</svg>
