<?xml version="1.0" encoding="UTF-8" standalone="no"?>
<!DOCTYPE svg PUBLIC "-//W3C//DTD SVG 1.1//EN"
 "http://www.w3.org/Graphics/SVG/1.1/DTD/svg11.dtd">
<!-- Generated by graphviz version 3.0.0 (20220226.1711)
 -->
<!-- Title: yapre/src/systems/graphics/ytexture.h Pages: 1 -->
<svg width="264pt" height="95pt"
 viewBox="0.00 0.00 264.00 95.00" xmlns="http://www.w3.org/2000/svg" xmlns:xlink="http://www.w3.org/1999/xlink">
<g id="graph0" class="graph" transform="scale(1 1) rotate(0) translate(4 91)">
<title>yapre/src/systems/graphics/ytexture.h</title>
<!-- Node1 -->
<g id="node1" class="node">
<title>Node1</title>
<g id="a_node1"><a xlink:title=" ">
<polygon fill="#bfbfbf" stroke="black" points="52.5,-56.5 52.5,-86.5 189.5,-86.5 189.5,-56.5 52.5,-56.5"/>
<text text-anchor="start" x="60.5" y="-74.5" font-family="Helvetica,sans-Serif" font-size="10.00">yapre/src/systems/graphics</text>
<text text-anchor="middle" x="121" y="-63.5" font-family="Helvetica,sans-Serif" font-size="10.00">/ytexture.h</text>
</a>
</g>
</g>
<!-- Node2 -->
<g id="node2" class="node">
<title>Node2</title>
<g id="a_node2"><a xlink:title=" ">
<polygon fill="none" stroke="#bfbfbf" points="0,-0.5 0,-19.5 52,-19.5 52,-0.5 0,-0.5"/>
<text text-anchor="middle" x="26" y="-7.5" font-family="Helvetica,sans-Serif" font-size="10.00">memory</text>
</a>
</g>
</g>
<!-- Node1&#45;&gt;Node2 -->
<g id="edge1" class="edge">
<title>Node1&#45;&gt;Node2</title>
<path fill="none" stroke="midnightblue" d="M98.49,-56.4C83.4,-46.95 63.61,-34.56 48.53,-25.11"/>
<polygon fill="midnightblue" stroke="midnightblue" points="50.16,-22 39.82,-19.66 46.44,-27.93 50.16,-22"/>
</g>
<!-- Node3 -->
<g id="node3" class="node">
<title>Node3</title>
<g id="a_node3"><a xlink:title=" ">
<polygon fill="none" stroke="#bfbfbf" points="70.5,-0.5 70.5,-19.5 111.5,-19.5 111.5,-0.5 70.5,-0.5"/>
<text text-anchor="middle" x="91" y="-7.5" font-family="Helvetica,sans-Serif" font-size="10.00">string</text>
</a>
</g>
</g>
<!-- Node1&#45;&gt;Node3 -->
<g id="edge2" class="edge">
<title>Node1&#45;&gt;Node3</title>
<path fill="none" stroke="midnightblue" d="M113.89,-56.4C109.71,-48.11 104.39,-37.55 99.93,-28.71"/>
<polygon fill="midnightblue" stroke="midnightblue" points="102.99,-27.01 95.37,-19.66 96.74,-30.16 102.99,-27.01"/>
</g>
<!-- Node4 -->
<g id="node4" class="node">
<title>Node4</title>
<g id="a_node4"><a xlink:title=" ">
<polygon fill="none" stroke="#bfbfbf" points="130,-0.5 130,-19.5 174,-19.5 174,-0.5 130,-0.5"/>
<text text-anchor="middle" x="152" y="-7.5" font-family="Helvetica,sans-Serif" font-size="10.00">vector</text>
</a>
</g>
</g>
<!-- Node1&#45;&gt;Node4 -->
<g id="edge3" class="edge">
<title>Node1&#45;&gt;Node4</title>
<path fill="none" stroke="midnightblue" d="M128.35,-56.4C132.67,-48.11 138.17,-37.55 142.77,-28.71"/>
<polygon fill="midnightblue" stroke="midnightblue" points="145.97,-30.14 147.49,-19.66 139.76,-26.91 145.97,-30.14"/>
</g>
<!-- Node5 -->
<g id="node5" class="node">
<title>Node5</title>
<g id="a_node5"><a xlink:title=" ">
<polygon fill="none" stroke="#bfbfbf" points="192,-0.5 192,-19.5 256,-19.5 256,-0.5 192,-0.5"/>
<text text-anchor="middle" x="224" y="-7.5" font-family="Helvetica,sans-Serif" font-size="10.00">glad/glad.h</text>
</a>
</g>
</g>
<!-- Node1&#45;&gt;Node5 -->
<g id="edge4" class="edge">
<title>Node1&#45;&gt;Node5</title>
<path fill="none" stroke="midnightblue" d="M145.41,-56.4C161.92,-46.86 183.62,-34.32 200.04,-24.84"/>
<polygon fill="midnightblue" stroke="midnightblue" points="202.1,-27.69 209.01,-19.66 198.6,-21.63 202.1,-27.69"/>
</g>
</g>
</svg>
