<?xml version="1.0" encoding="UTF-8" standalone="no"?>
<!DOCTYPE svg PUBLIC "-//W3C//DTD SVG 1.1//EN"
 "http://www.w3.org/Graphics/SVG/1.1/DTD/svg11.dtd">
<!-- Generated by graphviz version 2.43.0 (0)
 -->
<!-- Title: yapre/src/systems/graphics/ytexture.h Pages: 1 -->
<svg width="984pt" height="229pt"
 viewBox="0.00 0.00 984.00 229.00" xmlns="http://www.w3.org/2000/svg" xmlns:xlink="http://www.w3.org/1999/xlink">
<g id="graph0" class="graph" transform="scale(1 1) rotate(0) translate(4 225)">
<title>yapre/src/systems/graphics/ytexture.h</title>
<!-- Node1 -->
<g id="node1" class="node">
<title>Node1</title>
<g id="a_node1"><a xlink:title=" ">
<polygon fill="#bfbfbf" stroke="black" points="206,-190.5 206,-220.5 356,-220.5 356,-190.5 206,-190.5"/>
<text text-anchor="start" x="214" y="-208.5" font-family="Helvetica,sans-Serif" font-size="10.00">yapre/src/systems/graphics</text>
<text text-anchor="middle" x="281" y="-197.5" font-family="Helvetica,sans-Serif" font-size="10.00">/ytexture.h</text>
</a>
</g>
</g>
<!-- Node2 -->
<g id="node2" class="node">
<title>Node2</title>
<g id="a_node2"><a xlink:href="yfont_8h.html" target="_top" xlink:title=" ">
<polygon fill="none" stroke="black" points="103,-123.5 103,-153.5 253,-153.5 253,-123.5 103,-123.5"/>
<text text-anchor="start" x="111" y="-141.5" font-family="Helvetica,sans-Serif" font-size="10.00">yapre/src/systems/graphics</text>
<text text-anchor="middle" x="178" y="-130.5" font-family="Helvetica,sans-Serif" font-size="10.00">/yfont.h</text>
</a>
</g>
</g>
<!-- Node1&#45;&gt;Node2 -->
<g id="edge1" class="edge">
<title>Node1&#45;&gt;Node2</title>
<path fill="none" stroke="midnightblue" d="M250.12,-185.02C234.1,-174.9 214.87,-162.77 200.31,-153.58"/>
<polygon fill="midnightblue" stroke="midnightblue" points="248.33,-188.02 258.65,-190.4 252.06,-182.1 248.33,-188.02"/>
</g>
<!-- Node3 -->
<g id="node3" class="node">
<title>Node3</title>
<g id="a_node3"><a xlink:href="yfont_8cpp.html" target="_top" xlink:title=" ">
<polygon fill="none" stroke="black" points="0,-56.5 0,-86.5 150,-86.5 150,-56.5 0,-56.5"/>
<text text-anchor="start" x="8" y="-74.5" font-family="Helvetica,sans-Serif" font-size="10.00">yapre/src/systems/graphics</text>
<text text-anchor="middle" x="75" y="-63.5" font-family="Helvetica,sans-Serif" font-size="10.00">/yfont.cpp</text>
</a>
</g>
</g>
<!-- Node1&#45;&gt;Node3 -->
<g id="edge4" class="edge">
<title>Node1&#45;&gt;Node3</title>
<path fill="none" stroke="midnightblue" d="M195.74,-200.4C159.85,-194.35 120.37,-181.31 94,-154 76.44,-135.82 73.97,-104.7 74.19,-86.63"/>
<polygon fill="midnightblue" stroke="midnightblue" points="195.35,-203.88 205.76,-201.93 196.4,-196.96 195.35,-203.88"/>
</g>
<!-- Node4 -->
<g id="node4" class="node">
<title>Node4</title>
<g id="a_node4"><a xlink:href="yrenderer_8cpp.html" target="_top" xlink:title=" ">
<polygon fill="none" stroke="black" points="168,-62 168,-81 344,-81 344,-62 168,-62"/>
<text text-anchor="middle" x="256" y="-69" font-family="Helvetica,sans-Serif" font-size="10.00">yapre/src/systems/yrenderer.cpp</text>
</a>
</g>
</g>
<!-- Node1&#45;&gt;Node4 -->
<g id="edge14" class="edge">
<title>Node1&#45;&gt;Node4</title>
<path fill="none" stroke="midnightblue" d="M276.42,-180.32C270.75,-150.38 261.38,-100.91 257.63,-81.1"/>
<polygon fill="midnightblue" stroke="midnightblue" points="273.02,-181.2 278.32,-190.37 279.9,-179.9 273.02,-181.2"/>
</g>
<!-- Node5 -->
<g id="node5" class="node">
<title>Node5</title>
<g id="a_node5"><a xlink:href="ytexture_8cpp.html" target="_top" xlink:title=" ">
<polygon fill="none" stroke="black" points="309,-123.5 309,-153.5 459,-153.5 459,-123.5 309,-123.5"/>
<text text-anchor="start" x="317" y="-141.5" font-family="Helvetica,sans-Serif" font-size="10.00">yapre/src/systems/graphics</text>
<text text-anchor="middle" x="384" y="-130.5" font-family="Helvetica,sans-Serif" font-size="10.00">/ytexture.cpp</text>
</a>
</g>
</g>
<!-- Node1&#45;&gt;Node5 -->
<g id="edge5" class="edge">
<title>Node1&#45;&gt;Node5</title>
<path fill="none" stroke="midnightblue" d="M311.88,-185.02C327.9,-174.9 347.13,-162.77 361.69,-153.58"/>
<polygon fill="midnightblue" stroke="midnightblue" points="309.94,-182.1 303.35,-190.4 313.67,-188.02 309.94,-182.1"/>
</g>
<!-- Node6 -->
<g id="node6" class="node">
<title>Node6</title>
<g id="a_node6"><a xlink:href="yrenderer_8h.html" target="_top" xlink:title=" ">
<polygon fill="none" stroke="black" points="499,-129 499,-148 663,-148 663,-129 499,-129"/>
<text text-anchor="middle" x="581" y="-136" font-family="Helvetica,sans-Serif" font-size="10.00">yapre/src/systems/yrenderer.h</text>
</a>
</g>
</g>
<!-- Node1&#45;&gt;Node6 -->
<g id="edge6" class="edge">
<title>Node1&#45;&gt;Node6</title>
<path fill="none" stroke="midnightblue" d="M355.73,-188.31C414.67,-175.54 494.54,-158.23 541.64,-148.03"/>
<polygon fill="midnightblue" stroke="midnightblue" points="354.76,-184.94 345.73,-190.48 356.24,-191.78 354.76,-184.94"/>
</g>
<!-- Node2&#45;&gt;Node3 -->
<g id="edge2" class="edge">
<title>Node2&#45;&gt;Node3</title>
<path fill="none" stroke="midnightblue" d="M147.12,-118.02C131.1,-107.9 111.87,-95.77 97.31,-86.58"/>
<polygon fill="midnightblue" stroke="midnightblue" points="145.33,-121.02 155.65,-123.4 149.06,-115.1 145.33,-121.02"/>
</g>
<!-- Node2&#45;&gt;Node4 -->
<g id="edge3" class="edge">
<title>Node2&#45;&gt;Node4</title>
<path fill="none" stroke="midnightblue" d="M202.99,-116.67C217.4,-104.67 234.74,-90.22 245.57,-81.19"/>
<polygon fill="midnightblue" stroke="midnightblue" points="200.37,-114.31 194.92,-123.4 204.85,-119.68 200.37,-114.31"/>
</g>
<!-- Node6&#45;&gt;Node4 -->
<g id="edge8" class="edge">
<title>Node6&#45;&gt;Node4</title>
<path fill="none" stroke="midnightblue" d="M528.29,-126.96C464.32,-114.16 357.72,-92.84 298.66,-81.03"/>
<polygon fill="midnightblue" stroke="midnightblue" points="527.69,-130.41 538.18,-128.94 529.06,-123.54 527.69,-130.41"/>
</g>
<!-- Node7 -->
<g id="node7" class="node">
<title>Node7</title>
<g id="a_node7"><a xlink:href="yinput_8cpp.html" target="_top" xlink:title=" ">
<polygon fill="none" stroke="black" points="362,-62 362,-81 522,-81 522,-62 362,-62"/>
<text text-anchor="middle" x="442" y="-69" font-family="Helvetica,sans-Serif" font-size="10.00">yapre/src/systems/yinput.cpp</text>
</a>
</g>
</g>
<!-- Node6&#45;&gt;Node7 -->
<g id="edge7" class="edge">
<title>Node6&#45;&gt;Node7</title>
<path fill="none" stroke="midnightblue" d="M553.44,-124.61C525.91,-111.74 484.35,-92.31 460.53,-81.17"/>
<polygon fill="midnightblue" stroke="midnightblue" points="552,-127.8 562.54,-128.87 554.97,-121.46 552,-127.8"/>
</g>
<!-- Node8 -->
<g id="node8" class="node">
<title>Node8</title>
<g id="a_node8"><a xlink:href="ysystems_8inl.html" target="_top" xlink:title=" ">
<polygon fill="none" stroke="black" points="540.5,-62 540.5,-81 667.5,-81 667.5,-62 540.5,-62"/>
<text text-anchor="middle" x="604" y="-69" font-family="Helvetica,sans-Serif" font-size="10.00">yapre/src/ysystems.inl</text>
</a>
</g>
</g>
<!-- Node6&#45;&gt;Node8 -->
<g id="edge9" class="edge">
<title>Node6&#45;&gt;Node8</title>
<path fill="none" stroke="midnightblue" d="M587.44,-119.29C591.86,-106.81 597.52,-90.81 600.95,-81.13"/>
<polygon fill="midnightblue" stroke="midnightblue" points="584.14,-118.14 584.1,-128.73 590.74,-120.47 584.14,-118.14"/>
</g>
<!-- Node10 -->
<g id="node10" class="node">
<title>Node10</title>
<g id="a_node10"><a xlink:href="yluainterface_8inl.html" target="_top" xlink:title=" ">
<polygon fill="none" stroke="black" points="686,-62 686,-81 830,-81 830,-62 686,-62"/>
<text text-anchor="middle" x="758" y="-69" font-family="Helvetica,sans-Serif" font-size="10.00">yapre/src/yluainterface.inl</text>
</a>
</g>
</g>
<!-- Node6&#45;&gt;Node10 -->
<g id="edge11" class="edge">
<title>Node6&#45;&gt;Node10</title>
<path fill="none" stroke="midnightblue" d="M614.3,-125.27C649.43,-112.37 703.88,-92.38 734.68,-81.06"/>
<polygon fill="midnightblue" stroke="midnightblue" points="612.68,-122.14 604.5,-128.87 615.1,-128.71 612.68,-122.14"/>
</g>
<!-- Node12 -->
<g id="node12" class="node">
<title>Node12</title>
<g id="a_node12"><a xlink:href="ywindow_8cpp.html" target="_top" xlink:title=" ">
<polygon fill="none" stroke="black" points="848,-62 848,-81 976,-81 976,-62 848,-62"/>
<text text-anchor="middle" x="912" y="-69" font-family="Helvetica,sans-Serif" font-size="10.00">yapre/src/ywindow.cpp</text>
</a>
</g>
</g>
<!-- Node6&#45;&gt;Node12 -->
<g id="edge13" class="edge">
<title>Node6&#45;&gt;Node12</title>
<path fill="none" stroke="midnightblue" d="M634.87,-127C687.07,-116.82 768.47,-100.91 839,-87 848.76,-85.08 859.25,-83 869.16,-81.03"/>
<polygon fill="midnightblue" stroke="midnightblue" points="633.98,-123.61 624.83,-128.96 635.32,-130.48 633.98,-123.61"/>
</g>
<!-- Node9 -->
<g id="node9" class="node">
<title>Node9</title>
<g id="a_node9"><a xlink:href="ycore_8cpp.html" target="_top" xlink:title=" ">
<polygon fill="none" stroke="black" points="548,-0.5 548,-19.5 660,-19.5 660,-0.5 548,-0.5"/>
<text text-anchor="middle" x="604" y="-7.5" font-family="Helvetica,sans-Serif" font-size="10.00">yapre/src/ycore.cpp</text>
</a>
</g>
</g>
<!-- Node8&#45;&gt;Node9 -->
<g id="edge10" class="edge">
<title>Node8&#45;&gt;Node9</title>
<path fill="none" stroke="midnightblue" d="M604,-51.82C604,-41 604,-27.9 604,-19.51"/>
<polygon fill="midnightblue" stroke="midnightblue" points="600.5,-51.98 604,-61.98 607.5,-51.98 600.5,-51.98"/>
</g>
<!-- Node11 -->
<g id="node11" class="node">
<title>Node11</title>
<g id="a_node11"><a xlink:href="ylua_8cpp.html" target="_top" xlink:title=" ">
<polygon fill="none" stroke="black" points="683,-0.5 683,-19.5 833,-19.5 833,-0.5 683,-0.5"/>
<text text-anchor="middle" x="758" y="-7.5" font-family="Helvetica,sans-Serif" font-size="10.00">yapre/src/systems/ylua.cpp</text>
</a>
</g>
</g>
<!-- Node10&#45;&gt;Node11 -->
<g id="edge12" class="edge">
<title>Node10&#45;&gt;Node11</title>
<path fill="none" stroke="midnightblue" d="M758,-51.82C758,-41 758,-27.9 758,-19.51"/>
<polygon fill="midnightblue" stroke="midnightblue" points="754.5,-51.98 758,-61.98 761.5,-51.98 754.5,-51.98"/>
</g>
</g>
</svg>
